<mxfile host="app.diagrams.net" modified="2021-04-12T08:51:29.409Z" agent="5.0 (Windows NT 10.0; Win64; x64) AppleWebKit/537.36 (KHTML, like Gecko) Chrome/91.0.4464.0 Safari/537.36 Edg/91.0.852.0" etag="Tksmwxa1VH6aCKRGx7xf" version="14.5.6" type="github">
  <diagram id="uWP4xWMcpYCmX4QcZLBW" name="第 1 页">
    <mxGraphModel dx="1730" dy="980" grid="1" gridSize="10" guides="1" tooltips="1" connect="1" arrows="1" fold="1" page="1" pageScale="1" pageWidth="1169" pageHeight="827" background="none" math="0" shadow="0">
      <root>
        <mxCell id="0" />
        <mxCell id="1" parent="0" />
        <mxCell id="GS9lPfkHltT3G8b4393Y-53" value="" style="endArrow=none;html=1;fontSize=16;curved=1;" edge="1" parent="1">
          <mxGeometry width="50" height="50" relative="1" as="geometry">
            <mxPoint x="521.14" y="170" as="sourcePoint" />
            <mxPoint x="521.14" y="105" as="targetPoint" />
          </mxGeometry>
        </mxCell>
        <mxCell id="GS9lPfkHltT3G8b4393Y-1" value="" style="shape=image;imageAspect=0;aspect=fixed;verticalLabelPosition=bottom;verticalAlign=top;image=data:image/png,iVBORw0KGgoAAAANSUhEUgAAAMgAAADICAYAAACtWK6eAAAMmklEQVR4Xu2dX4hkRxXGv7o9fSdBQYlPAfsOvpgZ9UFdX+KTGvwXFYJBgyuCREFUEBUlkEjcgJGA/xBUBJWgGCMaEdRAEpDog5sHTV6U7e4oYmYkb1ECEknvTJd0z6whu5s9e+pU1Z2q++3Tdk/VOad+3/1xp3t7Zxz4hwRI4AUJOLIhARJ4YQIUhFcHCVyCAAXh5UECFITXAAmEEeAdJIwbdw2EAAUZSNA8ZhgBChLGjbsGQoCCDCRoHjOMAAUJ48ZdAyFAQQYSNI8ZRoCChHHjroEQoCADCZrHDCNAQcK4cddACFCQgQTNY4YRoCBh3LhrIAQoyECC5jHDCFCQMG7cNRACFGQgQfOYYQQoSBg37hoIAQoykKB5zDACFCSMG3cNhAAFGUjQPGYYAQoSxo27BkKAggwkaB4zjEBWQf7ata/a97jBObwPwGvDRu5v1/bu4pK8ZpPxw3DuTf1NWF9nDzwC4CF498jO3rMP5j5hNkFWciyBn3ng1bkPGasfBYlFMqyOc7j3micWJ8N2h+3KJsisa/8I4A1hYx6PXRSkjBxiTplFkPmkvck7/DTm4H3UoiB9UL+wp/O47Zq9xZdzTJNFkGnX/sYB78pxoJQ9KEhKusraS/fO7X8++4Byl3p5FkHmXfuXkl97nKNKQdTXV7IN3uOrO3uLzydrcFQ4iyCzrn0KwFWpD5O6PgVJTVhV/7Ht3cUJ1Y6AxbkE8QGzHbstFOR4RSLlEWNaCqKgKAXCfwdRwIywVMojQgtQEAVFKRAKooAZYamUR4QWFEQDUQqEgmho2tdKedg7gIJoIEqBUBANTftaKQ97BwqiYigFQkFUOM2LpTzMDUBBVAylQCiICqd5sZSHuQEF0SGUAqEgOp7W1VIe1vqr/XwXS0FRCoSCKGBGWCrlEaEFBdFAlAKhIBqa9rVSHvYOvIOoGEqBUBAVTvNiKQ9zA36LpUMoBUJBdDytq6U8rPX5GkRJUAqEgiiBGpdLeRjLr7fzRbqCohQIBVHAjLBUyiNCCwqigSgFQkE0NO1rpTzsHXgHUTGUAqEgKpzmxVIe5gb8FkuHUAqEguh4WldLeVjr8zWIkqAUCAVRAjUul/Iwls/3Ij3GoKxBAn0QyPIuVh8HY08SiEGAgsSgyBrVEqAg1UbLg8UgQEFiUGSNaglQkGqj5cFiEKAgMSiyRrUEKEi10fJgMQhQkBgUWaNaAhSk2mh5sBgEKEgMiqxRLQEKUm20PFgMAtUK4g8/yt/gBJq/PY3m6WcwuvIsmvYlaDb20Tyzj2ZjiWZ05Yubxf5yNDrwzWiJZrHpm2b1/NI3jUezv+FH+0s0zmP9uNnw678fLNEceIya0eHjc18/GG2s/770frR+fnT4teW5544er59rcLgGhzX2jx6v5l4/3zSN9xg99xjN/qru0dfRYP31nd3FqRgXA2tcSCCLINOtzd+tAl9fsKuLwaHB6gIB1mHj6PHq7/65x+sLY31xHD5/9Ng3WF+rhxfKxdf8//nqM/fAHVpB5t0V13l/8IXS4WzvnX1z6jNkEWTWtVX8fpDUYYTUDxHkzNbm9Y3394f0O057qvm4OwVJd1mFCDKftDd4h1+mmypPZQqSh3PRXUIEOTNpb2oG8FuHYwTLb7FiUOyxRogg8278IQ/3ox7HjtKad5AoGOsuEiLIma3xRxvvvlc6GQpSeoIZ5g8RZD4Zf8I79+0M4yVtQUGS4q2jeJggm5/xzn+9dAIUpPQEM8wfIsisa28BcFeG8ZK2oCBJ8dZRPESQedfevtpXOgEKUnqCGeYPEWS21X4JHrdlGC9pCwqSFG8dxYMEmbRfgcPnSidAQUpPMMP8QYJ0428C7lMZxkvagoIkxVtH8TBBNr8L+I+VToCClJ5ghvlDBJl27d0O+HCG8ZK2oCBJ8dZRPESQ2aS9Bw4nSydAQUpPMMP8IYJMu/Y+B9yYYbykLShIUrx1FA8RZNa1vwLwntIJUJDSE8wwf4gg06590AFvyzBe0hYUJCneOoqHCFLLL/qhIHVcw0lPESRI154GcG3SwTIUpyAZIJfeIlCQPwE4UfrZKUjpCWaYP1CQPwN4TYbxkragIEnx1lE8SJCtdg6PV5ZOgIKUnmCG+YME6dp/ANjKMF7SFhQkKd46igcK8iSAq0snQEFKTzDD/IGCPAXgqgzjJW1BQZLiraN4iCDTrv2PA15UOgEKUnqCGeYPEWTWtQsA4wzjJW1RjyCT8cNJSQ24uHfu99ofXr3+l/QK/lTzw6sryIJHGCiBLD96dKBseewKCFCQCkLkEdIRoCDp2LJyBQQoSAUh8gjpCFCQdGxZuQICFKSCEHmEdAQoSDq2rFwBAQpSQYg8QjoCFCQdW1augAAFqSBEHiEdAQqSji0rV0CAglQQIo+QjgAFSceWlSsgkEWQoXy8upZzlnJdV/Nx91nX+lKgX2pO6T/o1PITC0vJSsojxjny3EEoSIysWOM8AhTkmF0SUiC8g+QNTMojxjS8gygoSoFQEAXMCEulPCK0AAVRUJQCoSAKmBGWSnlEaEFBNBClQCiIhqZ9rZSHvQMoiAaiFAgF0dC0r5XysHegICqGUiAURIXTvFjKw9wAFETFUAqEgqhwmhdLeZgbUBAdQikQCqLjaV0t5WGtv9rPd7EUFKVAKIgCZoSlUh4RWlAQDUQpEAqioWlfK+Vh78A7iIqhFAgFUeE0L5byMDfgt1g6hFIgFETH07paysNan69BlASlQCiIEqhxuZSHsfx6O1+kKyhKgVAQBcwIS6U8IrSgIBqIUiAUREPTvlbKw96BdxAVQykQCqLCaV4s5WFuwG+xdAilQCiIjqd1tZSHtT5fgygJSoFQECVQ43IpD2N5vkjXApQCoSBaorb1Uh626oe7+S6WgqIUCAVRwIywVMojQgsKooEoBUJBNDTta6U87B14B1ExlAKhICqc5sVSHuYG/BZLh1AKhILoeFpXS3lY6/M1iJKgFAgFUQI1LpfyMJbni3QtQCkQCqIlalsv5WGrznex1PykQCiIGqlpg5SHqfjRZr7Nq6AoBUJBFDAjLJXyiNAiz9u80649FWPYvmvs7C4ueY55137x/BmXgGuA5/3w7tVzq3WX8/z5ay+2V1Nv1ff8mc7t75uvtr+Uh7bexdZnuYPEGJQ1SKAPAhSkD+rsWQwBClJMVBy0DwIUpA/q7FkMAQpSTFQctA8CFKQP6uxZDAEKUkxUHLQPAhSkD+rsWQwBClJMVBy0DwIUpA/q7FkMAQpSTFQctA8CFKQP6uxZDIEsgsy69nkf1iuGTgGDeuAO7Yf2asmjmk/z1hLIcfQlUJD/ArjiOJ5HMxMF0dAa6NpAQf4N4KWlI6MgpSeYYf5AQZ4EcHWG8ZK2oCBJ8dZRPFCQvwN4RekEKEjpCWaYP1CQMwB2MoyXtAUFSYq3juIhgky79jEHvK50AhSk9AQzzB8iyKxr/wDgjRnGS9qCgiTFW0fxMEHGvwXcW0onQEFKTzDD/GGCtPcDuD7DeElbUJCkeOsoHiLIdNL+wjm8t3QCFKT0BDPMHyjIPc7hZIbxkragIEnx1lE8RJDZZPP7cP4jpROgIKUnmGH+EEGmk/G3nHOfzDBe0hYUJCneOooHCbI1/prz7rOlE6AgpSeYYf4QQeZb7Z3e49YM4yVtQUGS4q2jeJAgXXv7al/pBChI6QlmmD9EkFnX3gLgrgzjJW1RjSDTrj3tgGuT0hpo8TBBNj8N+G+UjqwmQU454ILfnVF6QMdh/iBBJuOPw7nvHIf5DTP8a3t38TLD/svamuX/pE8nm293zj9wWRNxkYpAoCA3w7kfqBods8Xe496dvUXyf+zMIsiK7Xyr/Yn3+MAx41z8OEGCbLUfhMePiz689zdv7529O/UZsgmyOgh/eEP8OEMEeXyrvXHpcV/8abJV/Pn27uL9ObplFWR9J5m0t3qHO3Mcbgg9ggTpNt+9hP91iXxCzms5Z3ZB1neSl2++wzt/nXNY/Z+E11sOMPS9IRfM493mW5fwDxXE7lEH9+jSHfxw54n90znn7kWQnAdkLxKwEKAgFnrcWz0BClJ9xDyghQAFsdDj3uoJUJDqI+YBLQQoiIUe91ZPgIJUHzEPaCFAQSz0uLd6AhSk+oh5QAsBCmKhx73VE6Ag1UfMA1oIUBALPe6tngAFqT5iHtBCgIJY6HFv9QQoSPUR84AWAhTEQo97qydAQaqPmAe0EKAgFnrcWz0BClJ9xDyghQAFsdDj3uoJUJDqI+YBLQQoiIUe91ZPgIJUHzEPaCFAQSz0uLd6AhSk+oh5QAuB/wGX0ZAFipIHcgAAAABJRU5ErkJggg==;" vertex="1" parent="1">
          <mxGeometry x="465.34999999999997" y="150" width="110" height="110" as="geometry" />
        </mxCell>
        <mxCell id="GS9lPfkHltT3G8b4393Y-2" value="无线控制器" style="shape=image;imageAspect=0;aspect=fixed;verticalLabelPosition=bottom;verticalAlign=top;image=data:image/png,iVBORw0KGgoAAAANSUhEUgAAAPQAAAB3CAYAAAA0C22IAAAAAXNSR0IArs4c6QAAAARnQU1BAACxjwv8YQUAAAAJcEhZcwAAIdUAACHVAQSctJ0AAGywSURBVHhe7b0HeB3F2f5NQnUv6r33rqN21HvvlixLsmRbknvvDeOOccOAsU0vpmOaaaH3FuJAIAQINRCK6b0lwPPd98wZnbWQk/fN//1IO3Ndj2d2ZnZ2zvH+9n6e2T2rY1zJlVzJlVzJlVzJlVzJlVzJlVzJlVzJlVzJlVzJlVzJlVzJlVzJlVzJlVzJlVzJlVzJlVzJlVzJlVzJlVzJlVzJlVzJlVzJlVzJlVzJlVzJlVzJlVzJlVzJlVzJlf5Vk4gc9+abbw45dOjQKJj7TTfd5XvVVTcGX3PNNbEHDx7Muvnmm8sPHLhh/FVXXTft8suvXnbhxft3Xn7lgXN/ded98x5++OGsp5/+ox/GOMkxnCu5kiv9XyWA9QvC9eyzb4y5665HAOYNYZdccmUiQMy5/PKrqi669PK2Cy6+fOr55+9fuPe8C9aevffcnWeffe5Fu3fvu/6s3efec9bucx4/48y9z+48fffrO3ae+d5p23d9ftrW0/8C+xEm2napfPuOM+WMM/d8fu65Fz93yf4rrj1w4MY1d911b/NTTz0XizmMcEzJlVzJlQDECdfef//w3bt3u51++jk+W7ZsCV669OSotWu3pm3durNow4atjRs2bJm8bsPm+WvXbjxlzZr1O9as3XDRKes2XQ+7e/36LY+uW3/aUxs3nvbi+g1b3ly3fsv769af+vmGjVu+Wb/htL9s2Hja9zDZtHmbbNy01WHbBmxvlQ0baaf9xNbTNmxRZe5z6pYdgHwnID/jq917zn3twov233fpZVedfeutd/bec8+DGc8//7wPPtPxjo/nSq7075lwEv/y9ddfP+ncc68dtfmMM7xWr14d1NMzI6pv5kzb/PmLC2fMWFSP7a7Jk3vndHZOWjF+fOdp48dP3NfROfmq8e0Tb58woesh2KEJHd0vtHd0v4n6DyZ2Tfmiq7v3r5OnTPuht2+GTJ8xV2bNXiBz5i6SefOXysJFK2TxkpWydNlqWbb8ZFmx8hRZuWqtstUnr5eT12yQNadsVLZ23eZ+A/DKCOrRTMGscmM/hV0BftoO2bb9DNiuH3ft2vPhOedd+NsLLtx/xVXXXL/89tvvqn7ggQci8N0Md3xNruRKP2/CyfeLl3788cQzL7ts5Nq12z3nzVse2NXVFzlx4vSkvhkz8ib1TK1pbe1uB3wzmpsnLKupa9pUWVl3dk1N4/6yitpbyspr7y8rr36ypKz6ucLiij8VFpW9n19Q+lleQel3+fml3xcUlv5YUFgmRcUVUlxSKaVlNVJeUSeVVfVSU9skdfXjpLG5TZrHTZDW8Z0yob1bALd0T+qTKT3TpbdvpgJ75qz5Cuz5Cwj2clm0eMVPwF61ep2C2oB9ytpNg4Kt4TaAW8sG7sGh1sp+5DYh16DvJOhfn7V738uA/M5L9l++7frrb+qGktteeeUVT14AHV+5K7nS3084YY596aWXTty6deuIlXNXekxfuNCvo2NKaH1LZ2x3d29GZ8+0kubx7eMmdHb1NLe0L6ppGLeuoqL2rPKK2ktKy2tvKiqtvK+4uOKJwsLyZ3LzSl7OyS16255d+LE9p+CrLHv+X2A/ZGblSaY9X1TusIxMZ5mGfv2WnVMouXnFAsDFQF1aVg2ga/uBrq1rlobGVhnX0n4E0FBqgVIroKdNn6OAnj1nocydt1hBTaCtar18xZqfKDVzQm1sINTr1m8+AmgnrP8zoI1xX7j+akxuG1d986nb/7p12653zjxr7xN79l1wyWVXXr3gmmuuKf7Vr34V/OOPPw5z/Ne50n964tX8/vvvP2nLlr1jli5d6jt16tywpqbx8Z2dnVkTJ04ua2qa0NLQ0NJbX98yv6qmbk1ZWdV2wHleeXn9NcUlVXcWl1Y+VlRS8UxBQdmrOfnF7+XkFn5OKJ0Q5koG8vSMXElLz5a0tGyUc1C2622H2dKc2yxbt9nfGMczMNuzCxTIuCAomPPySxTMhUXlUlJaJWXlVOhaqapucCp00/h+hW6b0HUE0D29M2TqtNlHVeklS1cdATRV2qrUfxtobVZ1NmDr3LntrHOWaWZ/5mvX0bQ3oI+pLyrmAnPKuk3ot/nb07ae/sdt28+85YzdezZedNGlHQcOHEh866233Bz//a70r5gI5bXXXnvC4sWLh82cOXNMb2+vV1tbW0B5XV044exq77E3N7dXtLS0T6hvbJ1RU9eysryyfmtZWfV5JWU11xSWVNxZUFz6KFzWp/LySp7Pzil6PTsn/3CWPe8TqOTXBBSmVdMBqRUyqw0GZJpj27SbPoP2dZjpa8ZVF4ajwEwjzEadrUBXVNYpoKnO9Q0tSqEHutwTu3pk0uSpCui+qbP6gaZKz5u/5KiutwGaSk3TMfXRodYwUqmPhNqYhvrIfnpfjqPNQLwWwPIYa04xHgLnsA4XmlMwtzVqjkuX8QK0WpairLdXfov2N9at2/j4lq2nn7Nv37nTzz//kozLLrvMn7fcHKeTK/1fJwB63Pbt24etXLnSo2fWrKDGtraYxtZW27hxnYV1jW0NtbXNXeVVjXMQXy4vKinfDPf1rOLiykuhlDfjZH6osKj06cLCkpdz80sOZ+cWfYGT/3ue/HBrFQxOMI+EkdsGHGv9QNhoAyE0fa31BlZTZ9222sA263HNfAaD2ZhRZwJNmHX87HS3CTTVmdaEGNrpcmuFNkCbOFq53TPnqUUyut2EesHC5Qpqo9IGag021Zrut7Y1p6xXiukEm2pphfqnSm3qNchHQqxBxhgOiDXIekGOpi8ohHmtmg89CF54ONfFS1Zg3svURWne/MXK6+Dnmjlrng4r5i/6bsmSlS+i/3Unn7Jh7fbtp7ecd94lcXDTXbfM/jcJbu5xnZ2TCuG+9lXVNi4qL6/ZWFRSeXZRcdnlBUUltyK2fBhq+Zvc/OLncvIKX8GJ+xaA/CAzq4Au7bc4uf+alZ3/Y5a9oB9S5lYAlMHVZW4gGWiDtRGkgXWm/m+ZFVCzba0faNY+xqzHYm4+h7kIGaCZa5i1uz0wdh7M3aZC/32gZwDo2TLDATQBmDtPqzShHuh6a/dbL5Q5lZr208UyA/XRwf4pyNr0PkaVrUDTxeYx6SmYC8zyFfqCw3lyvrwQceWeFyd+HnofvGjx4sXPTGPI0Y3voHtS7xc9PdNfmz5zzsMLFi3bs2HTpp4NGzbYdu7c53f/66+7Hnw5Wlq7dq1/YWHZc0Yl1QlLMBWcTiD1SWyJRy1m6tId2wYGKwjW8tHM9LHub2wgZMYGA/JooFrrB6uztg08Jo1zMyBbXW1r3KxdbbO6TaBr4W7XS3VN4xHx85FAOxfFrAo9dZp2uwm0VaWdrjcXyLQ7S/eWRqipkk6oGVMT6IFQOwHVQBs7UqVNbtxr5hzLCbJekHO62keqM+dHdV60eDnmvcShzgvxeebjYjVHrRUYoAExLmpT8F1MUt/J+LaJ6jsa19IhLa0dqJv4RdekvmcmTem7YubsuauXrji5fteuvVHwJF2Am7R06Vrf3NzCp1NtmWLMlpaFk9cAqHMFusV0mxM+U7bWD8wHs4HQWOt1mxOugXY0QAeWuf/AvgO3BzPzWYzxc/8toAuLNNDFJU6gKyqpzhpoa/xsgOZJ294x6ShAOxfGCLSJpRcsXKYAoS1ZulIBTTU0QGvXe60DNuN+W8HmPWvtgh8J+JHm7EM11vtptXfGyjRzPBM3cy4EmXPjHBcuWvoTmOlqT58xR3kh9Eam9ECZHUC3d3RL24SJuNh1qHWGxqY2dSGsrWvCRbER32UDPZ4f8b1+Vt8w7pWW1vb7J03qPWPu3AVds2cvSN20aZPP7S+9dKLjFP/vSjt37hybk1vya4KckpqBkzxLmQGbQB15Yv9UoWlWGI0drZ5mBcdZ79x2rj47oTP7WWEcDFKr/a02mmk3xzHHMHOyfkYr0ITZAD1wIYxAE2YdP+sFMZ6ERqEbGlvUiUrV4Qq3VaF5L1rfuuJKN+9Hz+l3uzXQvIW1RMWjBmqj0gOhNsAZoK1mANWqPbixnbnpb80N0BpmfTzjJagFMIsy69h5CTyMRQro2XMW4DPNVTD3TZ0pPb10tZWbLZ0TJ/cDze9nXAuBbsWFUAPNiyO/U1pJaaX6rvWFtBRhTrmUVdR8hD5P4uJ5aXt719IZU+dU7dq1K5gLto5T/j87vf22DM0vLLvfqLOB2gDNbZZ5kusTmyf5T9XXnPRm29pmVNaYFSK9bcBibkBzwqbhy+pvc4Ko61NtzvrBzNmuL1ZHtjvnwtw6Txo/g/FKrOpsXdXWQGuYnQ+T6MUwutuVVRpmo9B0uanOPGGdLvckpU4GaK5064UxqjTvSXPxiLH0T6FespSr3quUDabUBmor2E6gnWptrbO2DQTZ2EB11jEzV9+5EGbUeRk8Ci6EEejF6jNodZ7rcLe1OhPoru4eBTTXFMa3deL7aceFr01dAGkGaHo9ZeXVCmhCTKDz8ovx/8EFVz4PoMND/H/9gO3PCgpKXiopqbqnoaFlW/eUKe0TJnQnItT0vF/uP86BwX9O4kp2XkHJ7ak2DfFAM1CnpKar7cGATks/EoIjjZAQXCewTnMCa60z204ANczW/sZ0v4FmLki6rLetFwQNtR5vYH6kOhuQjR1dnbVCUDF4ovGEM+rMk5CuIk9IKo2JoQk0T1yewFQlnsza7eYTY9OUejGO1otjdL3nKaCpdASaoDCW5sMmBMgotVFKK9DGBoJtzABrIDaAD+xnQGZuQDbHM662UWcnzIsd6syVbcbOc9VFygo0P/PfAtooND2dyqo69f2WllX1K7QBOjuHF1y9/mPOOev5wO1Me847uXlFj2O/86trmxa2tbWV8GlBsHCsA4t/34QP8YuCgrLrzYcezIxK05JTNNg88XnCE27zxRECKxQadJatdT8t6y9dA3VkPeE1Odud6mr+o8y201inL0Q/Nf0ZWCbgzDmmnrueJ81csIwy0wgygeYJwxOHple2CXWxApon1kCgefIZd1s/IUaF5j1oAs0Y2gk0FZonNU9uKhZdUUJtBZpAWFWawFAJCZAB2kBN2AYq9UCwDbSDKbTpw/5mDDOmqTMgG3XmhYXmvE2lY2cCTXU2QBPmge62c0FMA013m9+T1eU2QPO7tQKdX1Ci/i+MSusFXX3+mXOYlpScLolJtn5LSLL9iHP6E5wHL+D/+ObS0sqNNfVNLXxuYsWKFW7kw4HKv08qKCq9nKBawTVmvgirsV7312ATwsHMCSa3TdnAo9ud/ZwKaeA0AP+0jkBqeA2Yf8vMZ7GWzTZNH1sb5+Zc3SfMBNusbmugtTproAkzTyaj0ISZJ5p+mMQsiOkHSvQKtwZaK7QGmvGiU6F71MnNk5zqpWNprnZrt5tAEAwCQlC0Si9TABmVph3peg/ufrPMdtPPwGnKvFDwGNbj8ficC8vm4mEuJEaZrXEzzcTN3Fe721TnWf1A8wJm4mcCze/DCrRVofl9Hg3ogW43geb/qfl/57nL8zYpOa0f6Lj4ZGWxtDhdhv0lOSXjzbQ0+8PZ2QVnF5WUzxw3rq2wq6fHvmztWn/e6nWg86+ZcDKeyw/MD0ozH/5oZoAwXw7rjFud7oDPQMqyhtkJjVFFp7HdWWcgM/8RBjyrmTkM3LbawHrT19Q7jz+4QmfZDcxUaA00TxgCPRjMjJ+1OutFGyvQdLn1ghih5nPcXBQ7UqF5Mg9U6IFAEwzjdhugjREiwmSgdsawgAvthIvQW4FlHcfS+/709hLH5T4GbJrZx0DK8kBlpnEfM46B2boYNlj8bBbEDNBNzeMHdbmtQPO75/8B/z/4//K33O4jgU6VhMQUiU8AxHFJsERAnSgxMQkSHR0vkVFxEhEZrywqJvmz2Pi0D2MTsp6JiLFfHhxVOD8gJDsvJaUoaNasWeENrQ3JpZW1uZU1zdXVDa2TFy5dUb1///5/zrPrJWVVu8wHNh/WqthWmK3GNueXZEMdoHGAbDWtrhok8+WafLA6k3Ns08cca6D9b9rMWAONx7MCTTMgG3PCXHAEzDQqhAZaK7QzfrYqNFe4tcvNk5QnK2/LWIHmCa0XxnQcbYAmAMx7eqcpuAkGIWFuwKALS2hoBI4gGvgNVMbYTvAINo0gmouBMdbxokDwjXttYmTWGTXntunL3OzP4xvweUzOxarONAO0iZ95QTNA87vhBc8KNL8/o9BmYcwAbRTaCrS6IKuLM85J/D/zHFDnalIaIE6FKqdKDFQ5MjpJwiITJSQ8UYJCE8UvOEG8AxLE0z9e3H1iZYxntIzyiJaR7jEy0g1l91gZ7RknY7wSP/QOznghIa3qpYLyCW/VNHR8WFk37suG5o4fuyZN/3zBohVrDx069PP/bry6tn4zT2xz4vNDG5fEgP23zLpfAsCGu6IgMWAOhMccy7o9mOmFusHq9UXGHNeMNVibtd5sm9wc28yVIGt11kaQrQo9MH426myAJswGaJ5wgwFtBZvuJE9cAs2TmUBzmyextc3pimr4CT1BsC6c0QizUUDmBmjCZVxigsvcuN8m/1tG6NnPXAAIs3G3aQTZwGzU2aryRsnN3AaDeWD8TJj5HTQ1t2qg1XfHe9B8hJZA1+B75vfNC2kp/i/4LICGOSMrX2wZeZJsy8H5mCNxCdkSHZ8l4bF2CYnOksDwLPENzRCvIJt4+KeIm0+KjPFJltFeiTLSM0FGIee2m79NvIOzJCCyQCISqyQhs1nSC7okr2K6lDUtkrqONTK+9zTpnr1bpi65SBaffLacd8HF+IyzpADnw5Spc+5Yu3btSAdmP1+qrm082XrS0wiFFWyuchuABzPrvkblWW8FhuX/jXGsgWVrbszaZ6BZ9zFmBdhaJsQmJ8gD3W0DNGE2QFuVYaALboCmu02FIdhsYx+261i7WvWxAm7MnNg0Qk0ACIKJPWkExLi2NON6U4EJLo3QWWNjA6iB1JSt0Jp667ZRZgO0GX8wmK3qbNxtqrNxtzl3utpqQQxAd3VPwWekQndJWxs+fyviZ1zYGJ4wVKmubZLK6kYpLa+XopJayS2oEXtejaRnV0tyRpXEp1VJbEqVRCSUS2hcuQRFl4h/RJH4hRWKb1geLF98YP6RRRIYWYL2UglBv4jEaolNb5LUvA7JLuuT0sYFUtd+MkDdIl2zz5Rpi8+XOasvk4Vrr5HFGw7I8lNvkpWn3SKrtt4qK2FLTz0oizZcL7NWXiGXXPOQvPfeezJt2jS47knS3Tvz2tpp04Y6MPv5Ul1d82Ke1FYwrbBqQJ2QDjSCb93HjMH+CYmpqt2AYwXLmOlPs26b1WprO23gcWiD9TP1ps16fDMfGiE2ZtTZCjSNMA8EmnAyZ38zFvcx7rmBnf0ILqGlu0g3kUbQWWdWvbVpd5yuJ9WLEPOkZ27iaAJCUAzEhIcgEyqCTDNusIGZuRXIgaAOVrZuM+c4zDmWAdocb/ESA7R2tedjXnMxxzlzqc7zMO+5MmMG76nPwgk/Q3oRPkzpgTp30dWeLOPbJ0lza7fUNXVLVX2XlNZ0SWEF1LCsS7KKJkpafqckZ7dLor1D4rPaJSZ9gkTaxktoUrMExtdLcFwdAK2F1Uh4Up3E2Jolyd4umUVTpKBqlpQ1LpJ6gNoyZbNMnHm69C3cBwgvBahXy7LNNypAT95xu5xy+p1yys475eTtt8vqbbfKii0HZemm62Xemitl2pILpHvOWdKKMarHL5fi2tmSVdyNeY2X6NQ6KSjrlKnT50k+/r/rG8fLxCnT98+dO/fnf2KtsbFlJhemrJAYaKzwGOVlbm07mltuxjJgmzorZNay2bbmxqxjHi3/e8YxCZ3JCbDJBwPawDyYQhs1prttFJlmVWvTh/WMqanSBNi43AT3aDE0jRBTyYxLbVxpK9RUQQM1gTIx7ECFNmATSKsZWE35aCCb/c1Yy5ZTmXEM2BLAvIgwL8SFZYG+RTVzzkKZPnOh9E2fL1P65ktXz3yZ0D1PxnXMk/q2eVLdskAqmhdKSeNiKapfInm1SyS7cpFklS2QjNK5YiuaIykFMyU5b7ok50+D9UkqzFbYJ+lFfWIvmy751XPh+i5RitraswWu7xkyddE5MnvFpbIAAC5ed60sB4wroaKrT7tZ1gBSmoJ16y2ydOP1smDtVTJrxSVqvy6A3tqzWeo7VktpwzzJLeuRlJzxEpvaIOEJFRIeVyphcRVQ9RqJSxsHkLskvXi65FYtlIL6VVLUvFZqmqdKWwc8ja4+6ejqOwcu98+/Il7XOG4ST2YrGCwPNNYTXgJNQAeCPZgZkFgm2FxR5H4GWNNnoFn3N9vMuZ/Z12wPLA+WW0E2+dFAtqqzgZkgW9XZKK81fi4t0zG0caWpxtb4mUDrW1Zahc0qNxeBrHG0Adoos1700kBTpQ3UjE0N0MbdNkpNMyptBftIqFk2rjhzQEyQlWFb1TFfrWz5CowHgBfhYjF/4QqZPW+FTJu9XHpnrpJJ01ZLR+8aaetZK+MmrZPG7o1S17lRqts3SeWEU6Ws7VQpGb9FCps3SX7DesmpPVmyq1dIRsViyQLI9soFkgPLr10spc0rpabtFGno2ijjJp8qHTNOl8lzz5LpS8+Xuav2y2K4v8sA4yoF6W1yCpRVg3qbstXbbkPbLYD5BlkEYGcsu0C6Zu2Scd3rpXLcYimo6JOM/A5JzGySmJQaiUqCq55YqeLk6JR6uOCtkpRDWKeJvWK+FDaslLKWDVLVsU3qJ50lTT17pbFnnzRM3oPts6W2+0ypnrhLqjp3SMP46TJufCc8jsnS3tlzJoD++R85bevoaOX94IEADTSrErNMqI1Lbe1nNbaZdjM29zFgW49nyoNtH62ONhDgo7VZYbYCPRBmo8zGjLtNM0BTeWlGna0LYtYVbuuimAHauNgEmrGyuQ9NoKnQ1nvRBNosfFmBpkIfzfU2saxxvWlU1OUrCCVtlaxAboygq98tL1sji5aukfmLT5G5C9fKzPlrZdq89dIza4N0z9wsnTO2Svv0HTJh2pnS2neWjOvbLQ1TdquTvKbrDKno2Cnl7TukYsJ2KW/bBjtNygFzedtGKW8FTG3rpa5jozR1b5bW3m3SOfMM6VlwjkxfdqHMPZlx6lWyaD1g3XQd3OAblLu7Ckq6evutGlK4xSs23yRL1x+QBSdfIbOWXig9c3dLx/Rt0tS1VioAa37VDEmHe56Q0aRApaKGxpZBXSsAa6PEZ06QdKh8Tvk8KWpcJRWYW3XnNgC5E/lOqcXnqJ+EzwVoG3r3Sf2UvVKH7drus6QabfycNV27pBKftbJjh7Iq7FepbLvUNvdI0zj8v07Axbl72tZ/yoMpEyf31tHl/ltg0qxwmpxQUnlp1r7WPtZxDVwsxyekSFx80hFgDzSz30Ab2G7dh8ZjGBu4PRBoK9RWsI90tbW7bVxqA7RRaMbEVnUm0FRoA7S+D+28bdXkiJXN4hehNgpt3G4TQ5uFMEJ9hEITaKXSC1XMOn/BIgC9BO7vUlm8eClcYUC9GHBDrRcsWiHzoKqz5q+SGfPWyLQ5a6V39kaZPGuLTJ69Fe7mDsSWZ0j7zLNk/PTdsL2wc2T8jAukdcb50jz1HGnshSJNPktqO0/HibxVqtq3wE7F9hYo8lZAuhNqeqZ0zTlbJs07W3oXniPTll4gc1bvV7Au3XidrNxyk3J3V23jwpLTVjpsKeJZQs19+hbskwk9p8JFXyEl1bMku2CipADUeKoqFDUqvlzCY8okgrAm1cMNbpVkO+LtvF7JLJkNl3wJ1H6tVLVtkToAW991JnIACzjru86SBpXvVnU1HafDmwDQHbuUcbsG27RqXKCqJ+xAeQf6wAAz8wpcsMpaNkpRw2p4Fkslu2K2VNS2SyOAbmnrlq4pMzc6EPt5U0fXlFJbuv1760q2FUJr3WCQ0rQ7nXIE2Efry20DGbc12MlqXyuU1n2MWdutfax1ZlzrthVmkw8GsxVo43IT5IEKbVxuq0IbmA3QRqGtz3H3Aw0zK9gmjibQSqXpdkOlJ08h0FPVAlLf1OkyTf36ilBrsKfPmo84dYFMnblI+mYulZ7py+D6rpSuqSdLZ986ae/bLBP6tsn4qTuldSpUderZ0jp9n7RMO0daAOs4QKptnzT37ZGWqXtQ3i3jes+Ult4zYKfLuJ4d0gIb37dT2mecIZPmni1TF5+n4s55J1+uFpW4+rsEsC6Hqq467aCshCvcDypc36WbCOl1Mv+Uq2T2yosB+j7pnL5TWiZvklrAWlo/T3LKpkhqNuLVtHoJj6+QkKgiCUmrk5DqPomYsEjiJ60S24zNkr3gDClYeq4U4fglOH4plLoCsXIFxq/ccINUbbhRKjfeKFVwySvWw9bdIJXruY369Tdg+3qVV6FvNebFNlo19mMfZetvQvtBqd54E4zj3SBlaw9IyaorpADue87isyRzzqmSOnWVJHTNl5imSRKaliO+foE4H6oAdIe0TJj0Y0d338kOxH7e1DFpUk56ZvZ3KQPAsxohPJqZPlRa44azPFifgdsGONapR/DiEtW+pt1qA/cz+cDyQOP4JjfqbLWBQFuhPlKlC/tV2grzT13uI9VZx9AEmgrteFKMLrdaFKPLTaCh0B2EWi+OdUycAuuTCZ3TpK1zprR2zpGWzoXSPHGZNHaulIbONVLfuQ7qAoWcuBWu4g7YLriFZ0oN4rq6SXu0dUOBEOPVdZ8Bg0pN2imNk3ZIc89OGT/tDJkwnYq6B4q6T3qgqNPhxs52wLrglCtlMdSSsC7bfL1aDV5+6kFZDleY7jBt2eaDAPp6WQCo5qy6TKYB9okzd0lz9wapbFkqBVXTEK92Il5tlpjUWrjBjFUrJDyhUkLjqyQSyhptGycJWe2SkjcFyjpLcmoWS+Hay6X49j9KwaMfSt5DH0sBrPCxT5XlP/yp5N7/Mewj3fbIx5KPnNs596H/gx9J/iMfSe5DejsXlv8w6mA593+o6vLRVsA+ju28B7jNcVB3H/dDf47zMPZ/4H2x3/OuZN39jmTf+47kPPAO6pDf+7Zk34P8/rfFftMhSVy0ToprGVLB85ow6YdJvTOXORD7eRPfE5Zpz/3SQPOPmhViHSdrxbb2GWhWQGkcIyY2UVm8Iz4fzMx+1jL3t45FI8TGrNsGZqPShNcKslFnK8xWdTbxM11u426XQaHLK6jONYC5Vqqr66DOBFpDXQuXu66+Bfl4qWmYAOuU6oZJUlk/GTZVyhtmSln9XClpWKhWfosbViLOO1mKm9dJ0bgNUtSyCbZZWUnrFikdf5qKV6vat8MF3qagru8GrFNOhxrvUrBOnH22TEGc2rfoPMSqF8vsVftl/pqrZAHvqyIWXbLhOgB7gwYVtoKLScgVqFC5hcr9vRygXiCTEa9OmHoaLiinSEXzYsA6XbIKuyQxY5yCNTy+TMJiixGzlkgYVDYyuUHiMlolMadT0oqmSTpgtVdAjasXS17tcsmuXoryMsmtWSF5dSslX9kqKdx1m5T8/iux3/expF79uqRc/qoy21WvS9o1f1KWesVrjvrXxIY+qu5KXcc2btuu+pOkXOHY92rsBztiG336tx1jm3FTUc/+ug/qYGpcVfcG8tfVdiqOn4p9s+74UAqf/UYqLrtDGsZ3S2tb918n9c6Y50Ds501lNU3xWfb8j62QDGaEzQrtQBvYzvLRFNuYOaZ1X25zn2g+UxuboPe37GPta/obmE15INDWbSvMVqhpBmqzIGbPzgPMOobOVeqM+FkpNIHWMXQxY+jiCiksqYLVwOqkoLhR8oqbJLtonGQXt4m9qEMyi7olo3gKbKqkF8+U9NLZklE6XzLLF+FEXyb2apzktSslu2aV5NatloKGk6Woaa2UtqxDvLYB4G4CsKfBJd4hnYh1J83dK1MXnS8zCOrK/f2KuhSQ8t4pFVWpKuLWZafCAOnSTTfJEriai+FyEupZKy8D7IR1j7T1bZX6jjVS2rBAcsv6+heXIrkKzHgVwNL4MEZUCmBNB6z2DknJnYLPM0PBml21UHIqYVWLJbsSxhxmRzmrYqEyu1rVZt0ifPYFqpxdtUSy8T3k4jMVPvkJFPFDSTsAcK4FmIQH0DBPv+5NSb8ehjZuKxDRh3Xsr/qyHmX2tSmw0ec6bKOP7Rrdnm7ZZjv7prF//5i6XY3pOLapU+M6+inDMdgv8/b3pPDpL6X6tPMQSk38y8RJ06Y5EPt5U3N7e3R2buG7BhDaQGj+Xp3VTL3pY+JrA/bAvsYG1hFO7hcVHa8elmd54D7WvlagjwZ2P8yOPENBDIWmZeVIloLZGKHOl6zsQsm0F8GKJS2rRGxZZZKaWSkpmdWSnFUHd7JBEjLpNrZKXGYbrF1iMydKXFa3xGZNkrjsyRKf3SMJOb2SUjADajVbssp48i+SgrqlUjbuZKmasB6wbpZWxKp6YWmPWgGetvQixKtQVcSfC9fxaSXHCrCKVbXby8UktQq8DfEqwNWwXqtg7cUYE2ecjnh1o9QgXi2umyM5pQAwvx2wNipYw+PKoaxQV6hqWEKVRCU3Smz6eEmyT5TUgl5cgGbgwjNb3cLhnHMIXwWgLAegZQskExeljJJ5UOC5yGlzHLm2zNJ52H8e4OXFa4GCOhP7Z1UuUWavXIq6xZIJwHPOf0iyH/lcMm74s2QcfEtZOso2B3BpBMpS3193o+7PMvuyzWyzj2q/ydnOcjq3ub/ZRh+zzTbTX20j57aqM8e11nNOqM+652MpveUZGTd5xrddXb2THIj9vGnixN7w3LzCP1kBscJlyv9zO3IfMwaBZpw8GNjGCL/JrWU+ShceESMRkbEY40iwTdm6qJdq02ZTMGvTP73UcKem2ZUl2+ySlJojiam5kpCSJ3FJ+RKbWCDRiUVQpWKJSIAqJVbCahDz1eCEr5OwxDoJTWpUTymFJ4+T8NRWiUqfAIA7JSl3MiCAupXMkLyaBXCdl0pFy2ppmLhBxvVslYmzzpIp8/fJDIA6B+4vVXWRA1Stqtr9pZpSSamsS3mrBspKUBetOyBzV1+p3Ocp8/dI54yd0jJFLy4V182V7JLJYsttl7i0BonEvMPiyrQLjDycsEJZE3DRScnpwjx7JK0YMS5c4axygFcO6MoIoQaw3wAoL0LpxXNgs/vLzI3ZCmehbi6M/Qk3DNtpReiHvraiWSjzYjZVUhErp+Tj+Lkdkpo9TlLtDbhAVmA+9ZJz3VOScdcHAAoA3vKOZN6qLePmtyUNdWmAh0Cb+jRCy74H39b9btH9TJ90x37pN+tt3R/wYWzTl3Wqr2Ms7qPGMsdEfQa29Xi6j+ln6jMxHi8C6be+KwUPvC3Nc1d+2dc9ZbwDsZ83tbRMDEGM+JIVkIE2GGgDzbRFRsVIXELyEWNZ93f85rQ/xjZG0K3Gdr1QlqTKRq1DwyJxjFi1jwaY806TFGU4pjpuhiQkZUhcYobEJmRJdLxdIuOyJSIuF2qUJ6Ex+RISXSBB0UUSGFUiAZHF4hdRAitV5h9ZBiuXoNhqCeLjhFCtaFuLJGYjHgQIORWzEOsukcpWDev4qdvUs7+9i86RGcsvdjz/e7WKQ5edSkhvUq7vSijq8i03q4WlZQBVA+twgdddK/NOvhL7XwJ13iftU7freLUJMWflNMks6IRH0CyxtjoFawQgjVBucAUuONUSmcJbN+OUG5ya36MWmAiqvXI+YtVFUFcoI1US3kFayWxJLZwBm67M5rA0qHF/HQDUfWagPFODqUBmPhf1ABmgphbO1E9z5fZKUvYkWKckwltJzm5WHkxqVpXY7OWSnl0CL4fvZOe9/VzJzcmRvNwcyc/LkYJ8WFW15B98VjIJNMBRsNz+rmTd8Z6yjNsADSCksZx1x2HJ+NW7gAjbhP9Xh5Vxm5aJtszb9bYa61eOMbCdhXLmbY59kauxCKzqp8fR26Yd+2Iuqo5zwDjsw3oew9SzT8EDh6Vp4ZrPejq76x2I/bypr2+uf25+0e8HAmhs4LapO1rfoOAQ8fDwAnxxqDuyj9mHwBJU2kCIj4Q5UcXSkVHa5eYcWRcaFiVBIeESGBIroZFpEhadBUBzJCgyRwIjc8U/PA9g5okvct/wfFiB+IYVoo5WJH7hxRIQVSbBsQAjqUFi03Q8aCuYLDnlM6W4YZFUT+Czv3xSaZdMnr9XZgLUuSdfAZW8WpZsPKAUdemmG5T1x6uOVWCqKhV2ycabAOoBAH4FYt1LpHfhuQD/DGlHvEpYy5sXSX7VdMA6UZLgtkcn4+IBQENjiyUsplhCYkvhFtdIDEAlKCl5UOCiPkAJWMvmAFAoKwClZZQCNkCcVmxsJvpOh5tPm6YAZZ6cPxU5lNIBrjZAi/6EMxWQpjggTUHfpNwewDoZ1i3JObio2OGOZ1pgRQiSbi+RrJwiyVH36IuluKhYSktLpKyMViplLDustKRYSmDFxUXKCgsLpbAgH0DXSN7Nz0rWvR8pYNIBBy3zTkBzl7YMAuuoz7gT4FnqmB+xTUjvsrRhnHReALB9RD+OwzaU2a7asK91u7+d/WmsG1BP43bBQ+9J88JTPp7a2V3uQOznTZ1Tp/pk5xUdGginFTSrWftY+5lyGBQ0KDhUAgKCxcvLR2JjEwGi8yEUa39C27+q7YDYqDJBpiKHR0RLSGgE+uht7qfUGu3+Qfxtaqy4+aeLd2iueIXmIQfEADcgukRC4iqhXHAzs/iE0BTAwwf1l0p9xykKVj5MQTWcvgwuMFUV7i8BpZquAJy8p6rUlG6wMg3u0o1aVblCTDeYwE5dfIFMmnO2jO/ZInXtq5ULbC+GC57dInFU1QS47lTUuBK1yKQXl+oBazMUbYIClsqaUTJTKytiVj4SSVc4nbAq4AAZYEym5fdJUl6fgjRF1RNWnbMf2xXE/cBCTaG0GlqqrgY9OR/KigtFPOYQn9ECl7xREjNqJSWzCqpaJVm5lQC1XPLUXwQpleISglkqFeVlUllZLtVVFbAqqa6ukqqqSlgV6iuloqJCysvLpQz9ysrKAHgpQC4BxMVSRCsqUkagC/LzJb8SQEOhsx/6DGC8L5lUPwCiDPBk3fOB2O95X7Isbfa7P1D1pl/W3WiHqXa1D8oO8OzsZy1zH/RT+7Ce+5j9rW2WvsxV3b04rqWfMoxhv+8jKdRAfzCjc3KeA7GfN02ZMsUjO7fwUSvQBrr/rXHfUMBHhQ4JDZeAwCDx9w+QoKBQgJrUP7b1GISTAKvFL0BqAI+IjMMYkQpwxr7mvjBvF5kftvOH656e/jJsVDBcvDapblulniPm87+MVaczVgVsC+HOLuJtGrjAhNAoKx96oKoyRtUrwFwNZrx6vcxfc43MXnm5AnXyvLOlY9p2aZm0UWrGr5QiFa9OEVtOG9xcPgwBtYf7HhxVAHeet20qJRoXksTMCWLLn4KYEi6zUVWubkNJCVSqMiqphtWoJaFNyuvpNw3dFJVr63NADbVV+zndY73/NKWsiTmTECZMVI88xqY3Kw8gLK5YgiPtEhCWLD4BkeLhEyhj3L3E1y8AgBVLTU2N1MLq62qlrq4GViu1tchrdU5jH1oV3GQCbIXYagpowDwQaAW1Beh+hb7hWbEDaDuAyQSMVMIMQEMjbKyn9dcbuNjXsk241D6AMe3u9yQVwNnQloK6ZBjLrEtz9FH7EkiOjTZzvKz7MJZjm+08jobZsY+jvn9u9wPoBwD0onXvTB4/Pt2B2M+bVqxYMQYx9H0GroFmVNOYqR+sP+tCQsIkMCgYBtfb00vCwqPE19dfPL19JDwyhi9mOwJmM66B2ix+EW62F5eUS2VVrXpGmk9jmYc47DkFEoa+Y0a7yegxPtI583RZtfU2AAkl3XQQ4BoV1fmi9Teo3BhXguesulymLblQumadKeMAa8W4JZJXMU3S89olMb1BopOgqlwYi4Prm1CO7Wr1AH+MrQmQjMdFZKKk5E5Sq8FpxdPh9vJe63woLFV1trr3qmGdDiCpqASTBtjoyjpg1cD2AET0McA6zLjMBNiaK2g5DpQ9DsrKn/BFJvJecJ4EhaeJX3CcePmFiTsueKPHesmIkaNk+PDhMnToEBly0oly0oknKDsBdvzxx0lcXJw0NjZKQ0OD1NfXK6urqwPABFmbAbm6urrfDMzGfgq1FWjtapcQ6iKAXFig4uhse5ZkFMJtv+ZpyXzwMwVS1n0fSiYBu+t9SacBzAzA118PiHQdlBL9bSgT2BTUJ6N/Itxmwlr0wIdS/eCH0vrYx9Lx+EfSDmO5BnVF93+oAE0E3EnYJxX9OYaNkBJmjJ1OoNHGY6pjo486Luo4B273zxdA595DhV735pTxE5MciP28iW9VyMktuM0KlxWygWbaDMQDLTwiStyh0IFQZULt5x8IlQ6UUIDt5e0H9fZW8TX7Wo9BVSbEhDksPFotePE+L433iLlqzcUvvgeKD3uwLhhxtJubu4wc7Q5Xd7MsRsw6B4pMZe5dcK5yqVt7tygXu7xpieRWArrCLkmAWkUlV0OtSqGsUCyoKx/ij0yqk7j0FuX+2gp6hD+Ps1dAjeH68j4rlZVwUhm1+0t3V8NKQA2sGtgp/WbqjPUrLVXWobQ679X75HRLgr0TbnAb4nvOlbE15hqVA2VNFV+EGl6+IeLm4SOjcUEjrMOGDZMhQ4bISSedpEA9kXbC8XICYD3xBJZZB5AJM/s4jHVDhw5VqkmgrTBbgR4MZivUVXC56XZXVlZIZQWVGZ4U4C0oKJCcHN4C1K9+TknLkYSUXIlNzFN3E6ITKyQmpVbiCrol7arnJP3+TyQdkGQAoExCAsu4930orTa2ETa2czsJACZDMfMBLkFd8sxncv5rX8ndh7+RFz77q7z/7ffy+V9/lK9gX3+PnIbyF7D3v/1BXvj8r3IP+l6AfZY++xnG+Ejy7/8AY+qxeQwen8fksZ3zYJ2eH2FXbfd+KNl3vUOFfm1+78wYB2I/b+Kff83KzruRcBl31xgBM2attwJuzEAejPjZx8cfcXQYTjhPQBeGeDpIGE8Hoy4gMBiQB4gPVJvjmuOyzBezUaF5UeDtJbrWdLXN2FR1vtCN9455fzkgMETGjgXQI8dITHKF2PKgVmmNUNFaBWxUUo0qx6TyQQjEhwAkKbtDkqGqtsJedXuJrjAXlLKgrMxtiDG5GBSf2y0xme3q1lRkKhQ7Z4ok/AROp+LSDNRaXQkoFdahqIV6W0GbM1kBG5sxHmrfIFE4qcNiCyQoAsoakiDe/pHi7hUoY928ZdQoNxk+YoQMA3RDhhBCgglQCasyqGw/sAZaJ6xm21pvteOPPx4XWY9+kPthtkDtBBtQ11YDbEJMRa5Q4NJtzsnVb9pMsWUD2GyJSyKwhXDzy9UFiV4N79PH80KVPQneCS+KjOVnSyZvldUtl4yrX5A0xKFpUEiaUkcFjgbZ1KfCkqGSVOWWRz+UM/74hTz4/rfy1tffy3c//Cj/aOK+b2OMBzDWmS99IeMewVwwBx6Lx+yfF1Q4E5BzblRrU5+GC0v2HW9L06J1L82aODHcgdjPm9auvfaEtHT77uiYRAWUiWWtOc0K9GBQG7Wl+np7+6qH1QkcAfbx8YUrHq4gdgfkoWER4unlrVxylrkPj6XVORJ14QpYAk01JsyJyc74m49ipqZmSmA/0KPEzTtCUvMnI0adDpeXru9c5AAVcSvdX7WopBaCdNyp3FcFXa8kALBYOxSieLY0TV8kC3edIqdesVs2X7VVVpw/SYon1EtEcqPEZXUpcLW66gUpp8pSXScDVngA9g712GO0rR6qzx/HFwHWDPUCOh9/eBUe/jJmrKeMHDVau8FKWQmfBVSApswBrILWAej/q1mB5rjx8fHS3NysXe5GQI24mdBWQGm5Wl1QwB+oENg8KGyuJFJhAWxkQgE8h2L1AoDIZC7wtcKrmChJ+D6T4bXoRTreAuOqO/4feE8b37G+R81whPemZ0o672dXL5HMq54HLB9KGtxlq6XfCQMwNuTxt70jhQBq2dMfy33vfSOf/eUfB/jvJY7NC8WSpz6RYhwz/vZ3xMb5EGrMZeA80+CGE+hxizY+v3ry5AAHYj9/SkzMCIFLvD80LOp7rZDaCJjJCbsB3sA+EHIr6Ly15ObuKf4BgQo8LwBMuLn67U/FRkwdHBIqnp7egNIN/SNxHL0QRlU3Lrf5AQSNgNP4LHUKgOdim5ubB9zOMeLhG4dY1qzwauUc6PYmKhWlS0vwnPXx2ZOlofNkueSaR+WR3/1e/vjGW/LWe1/IG4c/kmffelL23r1NKib1SVhisySgL8eOy5igvIDw+CIJibZLQCgXmaLFwztYxrj7yIjRY2UoYCU0xvU94QS4v4B2+PBhCuAjFHYQ8P5xoyI7Fdootz4Wj6nnc9xxxyl322az4TstgjeUJ8mpdolPskt0Qo5ExuerzxcJDyIypQYG7ydtvMRmdjq+B0ALYNVinGNxj7e/zD1swswQRdU7TG2zf38bVJp9y+dL+mW/V/FyGsEBuKm3IoelwOJveVvsd7wjq3/3sTz+wbfKfWbivz848sHSj9//Vb777jv55lvs8803yr755ltVx7b/SfoGx3oSx1zx9CeYw7tqLpwT56bmiLmm0X51WHJufVNalmx8du2sWd4OvP45ycvLa1hgYODcgKCwdwgVgWQsS7NCbQXaquQGaD5YwjoqNnPG0RrmIPH1DVAAhoSGiTdUm7E2XXMqt5eXr4Kc2wSa95zNDyCsxjr+QIIKzjjdHReNUVA6d59o5col5jlBNW6wgTqBEOcA9lzEvMgJdhz2yamcK7vOuV/ufeRdeejJN+TOJ56QXz35gNzxm4fknqcOyY2P/15WXXifZJVOg/vdqlaQ/UMy4AoPU7D+8pfHyLG//AV/za4WmFg3atRIeCUhEhERIWlpaZKRkaFUcMKECbJixQoJDw9XQDmh+38xxwVhALCcC13q409gH8TYQxFrj4BnMBYegke4uPsliG9oprrfHZZQLRFJjRKFzxcHYNV3aQkh6NU4Qwi9UEfT8JpbYLqO27w1puvgvTjWGOLtXbgQdkDJ2yQ6vU0ibS24SIzDhbFZonK6JeWi34rtV1DiW97qt4SbtE179AN58N1v5Fu4xX8Fwd98D0P+HYxA6/SjfPLZZ/LMK3+Sg0/+Xvbc/aSsuv4hmXb5vdJ5yT3SetFdyjouvlvVrbzuAdl916/lpieeld+9/Cf55NPP1BhHS3/FsR9BvN37yPuSeKOel57n2ypPveUdyTr4hjQt3PjUwpaWsQ60/rkJ8W+Fn3/IY0HB4Q61jFC5FW6aUWwr5LxXTBi5UEXF1W54MvYPV0rs5xcg/v5BSqHpcvMhFMbWYwE5lZtKPQpqGwgl51NfBmjm5hdOzPmrJ95mI9C8QBBoN+9I5TprFaZC61VlDfRknEwTEbO29d++iUwsV49r0o2e0LdLbrn7dfndcx/K3Y8/IXtuXSsX3rdarnlyrVz31Aa54dkdcvXv9srJu9ZLeNI4uJQ9EhRdDEhOwmfylYQExP+Rkeq2DOPJmTNnyvTp02XKlCmqTIBnz54tCxculNNOO002btwI7yLofwE0gYUZYI07rlxyGtUYqg9ghwx3l+GjfWW0B/4f4LV4B2eIf0S+BMeWq19AxQAkguW86OE7gqnvC8BqcyzaqXpH2eH1qHUAhBtmPcD6HSfgIhCX2SUxGe1QcgCb2iIRKc0IV5oVuApe1CmVR5+E7G51UU3BOKlV8yXlwqcl6eZ3JPnGN5Ul3fhnKb79bTn3xc/kg29/UBB/AVH9/C8iX8L+CvYYMn/46edy7zN/lM0HH5bWC++W7HPuk/jzHpOoi56SqMv+INFXviTRV78i0de8qg3lKNSxLeqipyX+3MfFjgs6991400NyH8b68BPCPXj6+Lvv5bwXP5X8296SxBv+bJnvW5Jx45+kYcH6X69tbR3uQOqfn7y9vYP8AgIvDAgI+QvBJtQElLeg+KCHVmxtA6FmHx8fP6iun7q3ycc09cJXglrxHjPGTbnK3uhDdaWCM+b2VArtq/Yl3IyVCbCB2ABNdWYMrYAOdAI91iNEYlIbYZbbNxHp4s8XpyNu5SKTjlvHyLBhQ2XEKDfA3QbXb6osWnOdrN32mPQsuFPGTbtJqnovlLYFV8uDzz4sr334sLzy0cPyx08PysUPLpbE/BaciD0Snlgnxx0/RC0KLV++XKZOnSr79u2Tvr4+2b9/v6xevVqWLVsm8+fPV+qcn5+vVoQJf2xsLL6HMQDRuNoOYGEaUKOuWmFPUAo7VE4aMkqGDvOAO0+FjRB333gAi88YUSAh8XyIpsnpEvPiBtCokPq+9pFwGjPeiwFcQ6y9G3UvGx4PxyJ8tLiMTgA7QaJt43E8gtqkoA2HukckNQFYDW2UA9o4xNSEVh+PFwG9SMiLCD0BQs+3dQZyjeLsxyTphrcl8do/Sdw1f5LMa1+VO1//VBgmfwqAP/qOMIl8BUmmWr781mHZc8fj0nzeXRK/+wEJu+BpibriFYk/ALiu+7MkXvemJB54Q1nCtW9IPMaNR84yLRH92Id9uU/Ula9gjN+psRrOvUvOgXq/imMcLT12+CspO/gnib36dTVnjpeOOTct2vTQS2ee+a/1N6rpgvv6Bs6Gmv450AG11RU3Sm3ibAV1VDz6REBx3RW8VGEqM/cxLjkvDP4AljBz9Zt9qMxUbaPQXEzjX+MYDGjmBJoueVBQmMPlHqvidZq516pjVMSt/WDAoIgE5Lhjfymj3YMlwT5JMktnSEvPfsmqvFyicy+SqNzLJL7kGklrXy2bDkySCx7plCsOzZJ7X90htz+1V/KroUL2yTiBG+TY44ZITEy0zJo1U60EZ2dnw7NIQV0MPBF/qLcf4vvRClwe/zjYsb/8JVz0X0Cdj1V1qg0Ke8JJFoUd4w+FxUXIh8BSYQugsBUSDoWNTmsFKE5gNbRUTQ0ty1o1dYiRlM0wAzmh5T7GDMh0rXMmwcXu1r8SA2Sx6R3qwhAJOCMAbHgyDLAyJ7yRmAMVOBZgx8PDoTLzWCk8PrwjbvOiEp0+QalzSDyAjakQn/BC8QjMkrG+KTLaK05Ge0bBuKIfIb4RNok/4z5JuvbPknDlaxJ/1esSd8kLsvn2p+TTb76TjwD0J1DnrwHzK++8LztufUwKd98p4XuelKj9L6E/YMU+8Ve9JtGXvyqRl70KBX5V4vh7ZtRnArjs694Q+3W8ULwuyRwfbewTeRnUG/twX44ThzaOGbHn15J/1p1yxu2Py+vvvu/A2JnuevZVybr0GYm98nU15wTsmw7lb1q0+W65/5/wxs//SfLz8iv2Dwx+mO6tUWut2FFHwG1i7BAAy/hYP0zirUDlk2OsYzuhppJTiceMcVft3oidCb6Hh6cCnHW83zwQZJpRaA20WRQbC7A9FMx0Y1XcqJSNikewzYKQNgLNP3PCEz2zeKrs2nunXH3ji3L+Fc/KeZc9L7svv0dadnrKpPN/KTMvHyJzrxsq8w+OkPU3FaI/XFYodGh8tQJx5MgRynhcfF0qjlb5L45xgIv54PjHnzAU0I4AsJjnaIDuCYVFDOsdZICtVCpH5aOqEYpEuPYqfIARFKWeAFgppoGSi1MOYI2xn7rN5qhPsENdAR5hjSGsAI0qSoVl3ByWWK+MCkvFjbIR2PHKdeY+ai6O41Bpqd6MsTnPKIBN2INiq8QvohjA2mWsT4qM8oyXke5RMtItXMfr3uHiExCF8yNehWEpqTbJyMqWnLw8KS0qlvK6ZrHteVjiAVk8Ad3/ssTufwWq/bhc9shzAm9bPvnqW7nqoaek6uw7JeTMxyXqkpclgf0J5KUA8GLsh3LJ9X+S6fe8Laf/9iM58NJncvcbX8pj73wlT733jfz2va9R/lruevNL1bbrqY9kxr1vS+n1uBjgeBwj6hI9DsfmMULOeEwqd98h1z36jHz77TcK5ufffFeKz3lQIi9+EX1f1nPGPrbLXoTLvfkWBc+/avL19Q3w8QvcB+X8KhCqaOLrgbE1oWbdWDc37XbDeGtKPdcNaBkvc8VbuemAmhcEgjwGQPr5BqjV6uHDR6pFMrrp5u0gVqhZxxiaq+BcQKNCcz8CPWLECAvIRzcC7eYdAyD4dFav2Mu3S3zOpVLZdoP0LrpXpq26UzJ72yV5Zpqkz8uS7l3NcsPv18jpVy9TvxtOzO0T//BsqO2xcuyxUN3joLKMYekSj/CSEWOCZAzUx8MvSXxD7BIQWQi3shpq1aTcUKVqAJKxOAFV7jBzBTCMIMLUSrwDXqWCCnIAyjJUlSvN9DLiAaxacAJgsRkd6hhc3GLMSoXkhSIssUHlnENkKlQW7XxhfVxmB+CkynbrCwPmwLE5JoEm3PRGguMq1Q9bvINzxc3PhgtSgozyiAG0ANYzHN9nuLp/HhSK8yCKb5xJUY/s5sBryS8olNKSIqmsqJCauhqp5eOk8Gjq+bBKbZVUoT6/olqSdt0vcZe+JnEX/dFhL0rk+S+KffdDctPjz8riKx6Q8G33ScT5z0O9X5Y4wBdxwQsSfeGLUnnda7LmkXflzj99IW8j0P4aATbj6/9Jovt++Ku/yl3Y95RH35PyA1B5jBlx/gsSi2PwWDxmxPb7ZOEV98lTf3xNui99WEL2PoM5mLnCLn5ZUi9+QRoXbTngQOdfNwUFBZ3k4xM4F+7yOwGIXemGO+Nrp1rz4RGqrA8A5T1nPkTiCaip0nS1RyGG5eJYv7uOfXifmkC6u7urnBcC3voyMBuQrUDzPjSPpYHWCv0/Bvq4X8oouNxUnUS4pA3tSyShZLL8YkyfHDNqpRznsUmGB+6SEaE7ZEjgTokt2SR7H54mtZOKxS+sTAEYGFWkXGKf4CyUi5Vi88QnAHEZExUQhE8rK9xgpbQa2H51henVZA0vAVVzUiBTWbUy0i3mRYD3eLlKzBXiCEDJn3WGQ1lp/J12uANaFdvCXaZbrKHtlDhAq11tHh9jO44dk96u+obE10pAdLn6kYt7QAZc4iSoa4wMHxshI8aGIUQJhWscKt5+4RIQHIWLcoKCNjU9Q7Jzc9VjnKXFpVJdWSm1NfrhEz4TrvJqPh9eLSXFRSosKSvnE2S5UlJSIA1N9apPZkGRxJx6h8Rc+IrEnPeC0wB09Dm/lzjAFL7r12o7FvWR5/xBIs55XiqveUXO/92H8sePv1UQc6GMi2fgU9nXsG+5Go56tlHpCfrRWGfby598Kxc886GUXw3FxjEiYTxmNI4dtusJydxxp8TsPqTmcuRc/ygp5/9B6haceqkDm3/95OXllwnBvt+fUDvU2gl1NAwxEUCmMvM2FYGj++3t7acWv+h681FQLo75+QUCbCp8FMYJVYtbw4YNV4BzEc36Di8Dcz/QNgAdAlcOIPMi8beBZp02xq3HAuiTho5UD0JwgSs6rVlSa4okcVysxFWkSFh2jgSmFUtkDk60hhaZc0a3rNo9RYIj7ACgU0GhgdSA0sVV7jAV1nGRMFBqpYWS8qET9eAJ32BC1dVQKTWEOtKosNFpcIdxUYiyUV0Rs+IiEZpQB6vVL1iAMZYO52IUoU3nIliHcqvVjzE4LuDlqn5MRptSabrT9BACAaxPWIF4Io4d7Z0sI6GwI9wIbAiADZGxngQ2AhdrXGwj4iQ2PlGSklIlzZYhdns2vvs8eEr5Ulpeoh7zrCOsUNtqgMsnySorKiUvL1eyMrOkooK3GfNQVyytLa3S1NiA/7NkeGnukm5PldSMJKmur5JGPsgClc7Iz5fIdbdKzLl/lOi9z0kMjLm2P0gkLHrf8xKF7dCzfi/5l7woe3/znrz7JdQYlH4GcD9BnP0xjAtoXA3nbS0C/I+m9zH2OYfekxyoLo/JeXAOEXuQs+yYW/880Za091mpW3TaPgcu/x7JyyswBDDuheJ+p5/ZDnO44AbsSEHcrRa5uHLt6enTv/A1ZsxYtcLt4+evXGXCzttXhNMf7jgvBnTDGWfn5jlhtqozjY+G8pddelFMA61j6F8C2mNV7Hoc4D4O7vBxx+sY9sQhI+Wk4e4ybHSAuPkgnofSEbAInPQhsc0SlTtP8jtXSteKlbJo60qZt2m9TF+7VuadOlm9JIHqp1SWgCq3l/AeaQlZ2hVWZQUYb5kRWv5EUd+HpcJG4WKib+nQHdbAcvGIZUJM9eWCFFeBNbR01RlbYwz+ggpj8gLAFWe60GHYRwObr35OOtobCuseK8PHRMjQUWGI2+EduQWLu2eI+PrzIhwNDylerVXwJREZmRmSBWgLcvOlsCBP/wqqKB9KmofvPVfBnAfoikqKlcqmp6dJfmGuFBTzV3AZ0sA3m9Y1SGZWmvj6eUsaoE1OT5KahmoA3SItrc0YP0NCI8MkFf0josIxVqF6nLQWQKcilo5cc1Cidv9Bos74nUTCos54RtuZ2iJhEbDem16XQ+9+pZ7R5sr3e9/+KO9/86N8DIi/hMJSqT9DvP36ux/IvYeel0vvekJ2XH+fbLzybmU7Dtwnl9zxuNx36A/y58PvyzffMC4+mmaLHHr7S3XMiDOfxbw4l2f756TnyLnCUJ901tPSuPz0XQ5U/r0SXOOpvn5Br5kFM6PWGuxIdUvK3d1Lxc7q1hQXvmDm9hXrPeGKU1mp3OyvFsl8/FWcbVVnAzSNi2IKaByDrjxd7tEYb+QYb8DquAcLd9gzwCa+oTnqHixPeLqgesEJwCkl448goGaAJDKV8W2XJBWsk7i01RKXOk9sOSdLSv5SpZARKS1KlflYI11hBbTDJVbbHAfAxsKFpTJSZXUMC7cYShvmADcssVZCYcpdBrBcfOJ7yPQ98U6AyniWCqtzrhZTbRNyutWYfuFFClj+2dNhY6JkyMgQABuIchDCCKpssHj7wi0OipRwhDSx8HS4AJWZmSm5uTlKQfMBTwEsnz9bzC+QQhhhJbisKywokFwAnAPLz6cyA+hclHPyhT+pJLR+/j6SlJYk6dnpUgwXuqmpCWBWS3JqIjyZUEm2p0t0QowUlxZJA9S5oblB0jJTJT0tQarKeSHIk2yMW1FeIfWNjVLa0CzJm++SiJ3PIlZ9SiK2wZibMiwMFrv1CbnjmTcF7Mq7X/PZ6x/lPfD4BdT4oy+/lod+95Jsu+4hadh6g0Qvu0Z8l94kPqvuEt91D4rfhkfEf8Oj4rfuIVXnt/SgRC+9WupPu0G2HnhQHnv2Jfn66681xQPSq4c/lgy4/KFbnfP5yTx3/E7idh76oWHDZX0ORP7t0i88PX3tiIkfYVwd4HDBjRFsKjcVedTo0WqxawyUmmDzBxxUVj5F5glV5jPZXLE2i2m8x52bp/+K40B15vPdBDoM3gCBpqs+fKSHimOpgGrRya6hJXBqpdfhBhNmxrd6MUm7psaouIX1K9TL+jpnnSUtfTvUa2e1yvK2Dn9Q0a7usUYrYM2CUz0gpco63juWVI82h7ra0BeKTLeYKktoOU4cjwlgCSp/XWWdh5qLgpovGyToE9UxxsKrGO0WKG6Alr+2Cg5hLAuVTeAfA0yDamYqcKmgVNR8usgEFPEt74Pzl08FefkAGvAC6Ly8HAWwApuAKxVGzrecArYcwK/7YTzEybk5udLY1ID6LAkKDZYkgB0VGynpyOsbapX7nJoOxU+JlZKiTEkHwHlQ+crqCmmC2103rllmzOiReXNnYrtZyquqJQ9zq6yulI6eaZK6+T5A+4yEn/bbo9hTErjx11Kz8255+d2PlDrzdtbHX38rd/3meek582ZJWn1QAlbdLf7rH5eQLb8FcE9LxNanJRwWhv1p4YCS2+FoC0Uf9vXHPskn3yxTzrhZ7vvt8/Ldt986UIbqf/W1LNr/oASte1TNYfC56WNFbv/dxwlbnrA5+Pj3TO7u7j5+fkHb/QP0Krgxo9h0p/38g9TiGMH1I9hcmWasrRR6pFJuKu3QocPU/eSIyGilxAZm5oSZdUahGXsboEeM9FSQqVVapaBUTg2uVmIYVVVZF0Dn/WSuDGtgYrP06jBXdvloIm/rUEFDGL/GM36Fsqo4FkaFheLrWzyAloAraOEW9wPJ42F8BaUVVnNMrbzMVT9HnbWeFwHuG4G5BIWlSHJysmRlUWk1aASQZcJqyhpAggx4LaYUthBGgAk3VVnBzXEAOOqp3oQ8LydHqblSdL7/C3V8BxhXrPnCg4ycDMlADNzSXIYxAXuRhrKhqVmqEEsvWTRLVq9cKC1trdhulNyCQimCUnd2T5TZs+ZIT0+vzJk7R8oryqH2WVKM/TunTJXU9fdI6KZDEroBSmhsvbEnHPZr8V35gEzbd7d89PmX8vRLb8i0s26RoAXXie+qhyVow28wBmzjkxLEvqc8Id4nPy4+a54QPxq2fZGzznfN4xLMsdE3dONvsO+TUG6MgbGmnnmL/OHVP8MT/0G2X/+YBC6/S0LWPSlh69B/3RMS1j+vX0uYY67hmHvYqU8dDtnwmwQHGv++iavgiKun+vkFv6LU2rFopvNQBTVffMBYmg+e8N6z+lEFoGb8Sxec8TVvYbGdv7qiEhs32yi0AZq/h6aK8/fVGmh3pZhUZO2uEiionwNsDRJjTkLLhyYArHKD61XsykUjGqHlGz7DobKElqvJdHVj0iaofeMAfjyho7r2Q6oBNPlgYGo4nW1m27SpbUsdj6XqsR0SVyZpaRn9sFrNCTHB03BzW7nVClLdh6qdnW0XOwCy2+1QYdQTVu6PnLBmoT07m+DCHc5Ff/TLzrJLTk42vvMctAPoxiaphnvd19ctyxbNk/HjW6UacTBj7jK4z5N7emTm7NnS29sri5csktbxLZJjz8KxsqWjY4JMmzZV6upr1aKZHWNnZeE4OZhTXrFELrhegk9+QoJXPSLBqx3G8qpHUQ9bzfwxCQKMwUvvlOm7b5e81TeIz+K7JRBwhgDWQLT7rkS/NY9J+tZD0n7x87L65tfk7AfflosePywXP3FY9jz8tpx8y2to+4PqE4S+3CcA+4YA9kCYz6K7pWDNDbL20nskdvltEuA4tpoDjXNS5pxnCOYVtObJwyErH090YPHvnwK8A9L8/PzvglormA3QJmec7OsfoCAk3FRp3nt2d9OLW0OHDBc3qDh/VklwB4NZv+AgB+5mrHh5+miXe4SbUk8CYZ5yUg9OEFq1OqwVNgRuuYIWxts8aiWZ0PJBCqgsgVWutYEM4yn3WLnnWnGt4FqhNbmBkW3W7YFmrWd5MFMPbsRkqbd6GHg1tCjTRSbMgFMpsHGZFcQw9MkBmCXFJYhTG6Sjs1OmTpsuU6dPVUqdZc9UgGdi7Cy46llw2bMys1FH+AFZDt13QA0Y7QCdi2aFRcUysbsLCjtXpk+bKUuXLJOuie2Sk2lXc+ru7pa+nj71u2n+ZrqoqFAyMW5GBt+DniGZsIzMdFWmpdPS08SWlS/hcw5I0AoAu+whCVoOpYQFrzAGaFbCmMOClj8iXvMRBy+GK6y2HxbPRQ9KNOCcuv95ufrQYXnx/a/lk29/ULevvvlRGx1peOnqVtYXf/lRXvngG7n20Hsy9bIXJAoXDS+MEegY33fxA+I1+3YJxHzMcY+YB+eIuam5qj6PYvvXh0OW/AcBzTR2rL8fYuSdvn6BX/DeszE/f/3TSfUbabjdBJHKPHaMu1JrKjShputNRSe8BHkg0PxLFvwxfVRUHGJwXxk1kkC7q1fyUlk1rPo3zOpHAeqebKtyi7kqrFxrBRIB1MAaQAcCRzPbpg+NsBpgTZvZh09imXozBtut47HPwDJNPcUFiHVdh/Ig4hJsSiX7gaYRYILrUGa12EWI+Uof9DUQzpoxS7ZsPlXWrVknSxcvk6mIVWdOn6l+65yWAaABc2YmgIYaZwHuDLj0mQCdYKt6BTn78O+AoQ2gt8KVnjK5S+qgzBynEC4zoWXfNMCZarNJairi+qQkSUGYYEtBuJCagjqb2FKTJTUF9SloT7GhHnlioiTa7BI68xoJXPqoBALSI4yQLXwAdr8ELqDdp3PWoS0AeQj6TbngWbn3hY/k/a++l08B8Qeg9zAoNvYe7H3UfcjYG8ZbXV9+r+9Rf/bt9/LAix9JzwW/l6BFD6gx9XFh/ceEcQ409Bk4z6AlD2P+jx32+08D2pGO9fDw6/b19X+Fv7Dy9Q9Uq9ssM1fmx/vUHureM8Em4EOGDFNg880nOQ6X24BthZpvMomOiVe3xLjfyNE+yoUmrITEAGdUleAagAx8xgZuW80KqjU3ZkA0ZYJoBdRqpm1g358ab2vRJqj3h6fZ0pSbTHdYudCMaR1xLU2703CZqbQZWXDP06F66eiTL20TmiUpKQUeT7R4+wbKyFFukgHwqJ5pVElCDLDTM6GUMBv2TcO+NluGpHGhDZZq4zb/OigsDdvJADQ+ASAmSTIsCUCmJKcCVMb5MOaJyZKYkChJcXyjK99MEy9xsQkSEx2nnn+PiY2SaJajYyQuMlKi49MkeMoVEjDvQfGfc4/4z4bNulv8Z9KgxMxnsf5eCZhzX7/5YTt03j2y967X5aOvNcjvfC3y5lc/yp9hLH8AeD8BuJ9TlWGfA+BPsc171uoHH8g/x368Z/0Ff0l17xsSveg+8cHxA+aY4yHHsdQcHHNS86NxrphzwNz7JWD+w4f95v1nAq2St7d/upeP721UZL7FxNdX/y5abcOY89bWSKisAnPkKKXS/OEF3/JpQD5SofnnafJwYiSqB1b4A4hRY3yhxM0a4EGAtdYRpsFANeXB+lgtGmbq+yEcUKdV1rQ7+2lQ9e+B2ZflCP71Dbj8tEiunsNYH4ZwIDzaBgDToJBwV6GSOfYc9ZAHAeeCUmY6QASEdrZBwfkyvka410VFReoJrvqmKsAcCsBTlavb0FCjVpn5et1kKKQNF4tUQgultAFKgpnMHOqaHE9gkyUBF4TEhBTUpQLeZFwgktSvxhLj4yQBFpcQr/IEQhvH38LHSkwcfxcfrX5WGhkVgTxcIsLCJBwWGs48XMJCw5GHYn7BEhIZLwHtF4vvtLvFt/dX4tsD64NNvUP8pwGe6XeL3wyAwxzbfn13oo2Gcu+tsu3KR+UzwPg2AP7zVyLvA9RPAe97n34pz73+jtx76EW56b7fKrvvyT/IC396Rz78/EvhHWhCrh5IAdQoyuV3PiOh028VH4zNY/BY6piOOfjNAMTY5tzUHGmYs5rTtLsP+/Xe858LNJOXl5enl5ffTrjhn/n6EWI/dSuLxgdPlHn5KJiHnDREud90y+12xIoD3G1T5l9g4A89vL38cAEYpRSaD2JY4WVOaFg226Zs6gmZKfMxSZaNmf3Zx+zDPtYxzP6mbKDVuV79pkXy54YKVCu0ukygTR1XtHVbmwTGlKj3mlP5bDYAxx80OACmahPChsYmWbVypWzauEG2nLZZtm7ZLKfv2CqTJnUBuCRZsGCuXHDBHrn26ovkhhv2y223XS3XoFwK4BMT4P4mJUsy/9IJQE1JSJJ4KCphjY+JhUE9Y2NhMQAUOQ11sWgjrFFR4chphDZKvcwhPDxUwgBoWEgwwqZgCUQ5KCRIgoNoKAejPjBIguChBfoHSCBCsGC0h0QliH/r+eIzGXBMuk18pyAn1L2AhjnMZ8rt4tt9m/h0A7bJjj5o90RdYOcVcu29z/TD+cIbh2XPNQ9Iy4orJKX3IgnpvFj8J1wifhMulZCOS1Rdy8rLZd+1D8rLbx5WP8nENUAe+d2rEgtPwWPiLTim49g4rg+Py3lNxhwc8+mfG+fB+UxC2+RfHfbsvv0/G2hHOs7dy3c84H2FD47ox0D1PWf1gImn/qkl3e2RI0ZJAFzzLIdCG5CtYBugcaGQ0VD2UaO9tcttwINZy2abZgDVAGqVtPajsc3sY63TgBJWDa5po+k6Kq0G2CivAVXDShunyqZN57otwgI230PG1+tSEWnJsES4t2ab5YldHdLS0gSFzoRCJqN/knrNcXt7G8CLk7lzEENvWitLFs6Vvt4e9TPPCePbpKykRKIjoyU+li4wgAWQ3I6MilRPcYXDFKARkertKqERqIOyRqIukiobEqZe2cy3sgQpUAFoEAHVuX8wQiuU/fz9URcgQQCXikzw4/lIaTJd+RxJyyyWdHvZj7b8ls8DJ1z5F59uQNIFOIxNBEgdN4v3hIPi3XaTeLcfFJ+Jt6o2n06A3X4z8lvEfcLNkjbtSnkQSnzudQ+LbdJ5Mqr+EnEbf6N4tN8qHujr2aHNo+M21N0iY9tulNH1l0rapPPl3AMPydPPvyYVC6+RMeNvUmN6q7Edx8Ix++dBs7QZ8+nmBeeO/xqgVRo71ivDy8v3Nm8f3x/4Wl+qc/9TZI770m5jPZR7zjjZGkObnKvc6m2gcckOhWYMrYFWPxHsh89prLMCbSC09nEqq3GLWc8ygdMusVVxnf1Yb+1rFJcQE14DabPFWD9OwlN4v1vXhaU0qpyLeGpFPoxPesWol/jxpQjxSi1jlWsbD9eWwI5raZDg0EA58YSTZOiwUeLlHyL5pVXS1jZeYqNjpb6hWr0BBt87whIPGY4YOisrR60+hwSHALIwCSOwyENC4P6GhiIPllAoaRjLcI2DAS3BDQ4JBLhQV8ILQAlpAFSW740LCPbDcQAu2kLDQiQKF4l4uOqpNsTomQiRsst/zMyt+So9u/6D1KyG15IyGx9NyGzaH5/WsDEysbYrKGNao1fbTS/4tN8u3uMPilfLTeI17gbxbLpeGcus927T5tVyo3iizqsVkLMObR5N10ps+0XiXX+RjGnEPm0AfdyN4tas+/kBRF8Yy2NR54ZjeKPPGIzvXX+hpHRfJJ7NV4unGbMVfbE/j2WOq+eGYzdjXhyX8+I4uAh4T7gF0N9+2HPCwf8eoJnGjBkzyt3T81Qo86eEWT8C6i18xxifzebDJ3ySLDOTK7hOZSbIxqjQBNo8cTYCQPMngkZRrYAaMwBa69lXb6PeASuhNPAatdRmQG0FhONUbgBmriF1KC3ADAegWo0BKXLG+OqFAQBYPQrqeGZb/dDCsR2BfTi2f0SugiuKyumIRaOjopWSxkSjDkoahbrx4wF/eIgMGT5ahuF7Gx7iJ6nZ2dIybpxSxDoAnZWdBdUuB9yN0trWJlN6JsNlTwWAgRLM5+gVpFBZgB8YRGhZ749t1GPbHwrr4+8r/r4+ANhfQqHIkWEREgsXnPF1alq2pGUVQWnLJSOn6sfM/IaP0vOaX07NHvdIQsa4qyJTGncERFXN9wovqXUPyk8Z7p3rgdPgl/pscKTW54a7N9/8G6/Gm8S99lpxr75G3GuuEY+6a8Wz8TrxagLcAIhl1rmrekDLuoYD4lF/QIHvVo92mDvaRldfK1mz7pQFZ/9WLrzjNbnl1+/KwV+/IxehvHDPIbHPvlNG4xjuDejfcL2MrbsOY9ygxjLjedDqDqg5eaKflwJZX2TYh3PkXD2Qe2IMj+abDnuO+y8D2pGOB7ztUOaXPQE0nxRzVyoNhXZzVwtmvDVldbOtUJv3dfv48J42gB7lpaBg3GvgdULrhJrKauoMuFb1dUJKQI3CalAJovmVkwG331VWfS0KrMDlWz74G2Q+zw0jsMj5hJnZNnX6p4+6HIqyb3AC3NogBTWN7i+hJsRqQclhfO1udV01FDJE3EP9JdyeJkuXL4VCt0hAgD+UuFhamsdJY12jjG8ZLxM7J6qnwghzAO860C3249tV/MUfFgBwg+AyBxHcUICL48XFJagXSqTjApuVXQq1rfw+zV79eaq94XBCRs0f49Nq741Pa7wgKrVuVVhibVtAbG2ud2Bl7FCPdO9jjvEZiv/rI+EdJI2quWLM2IoDh9wqrxW38ivFvfJq8QCQHrWAC/B61KAedW4VaKtCGwDzqAFQVQCq8irVrvqgzQ37BY+7TjZd8qz84c+fywff/CAffy/yEVe2YVzx/hB1z//5C9mAPiHN18lYQMl9PQgnjsnj83hqXG6zXc3rKn2h4bzUHHBx4THR5lZxlYytvPawZ+WB/0qgVRozxivO3d3jRgKt3W4CzWe6/SU9wz6oOhug+eaLfqBHeqh7tsalNjGugdZqRoU1lMYdBpAO1XVCqmE2LjFNA60Vl2Wlso46Ba+q00+ZKcOcOC9jrDO5AtuxTeOPQOhl8H66X4B2fYOhnHR3CTVj2TDEr3SVWU8oS4pLZdq0Psm02yXFpp/n5go4F6H4d8X4U9Sk5BT144me3l714EdKCkMVLwnw88NYgVD7KLjxiMsZ16bnSHoW49pySc+p/iEjr/GDtJymF5Kymu+JSWu6ODyp/lTf8NIZHsFF5V5hRXEj/bP+T95uOSoXQBddecitFHCUAZyKq2GApxw5t4suEzdaKdtYDyu5QtyKL9Nl9HfjNvqOKrlKYpsvlyeffV2+FJE/fy3yxlc/avtS5299JartuZfelpS2K2RUMcbFOG4llzvHK0aZxuNxPhhbzaFovzq27ufoy30xt7FFVx32zL3yvxdoJh8fH3c3D6+NgPkTAs23gHLBjH+k3Qozy7yVRaN68wX8vAWmHyxxk5CEGoe77QS5H1aYcZOPgNhqClyWNaxGZZn3K64pU1WTtaIqIB0A6zeDmPKREIcmOMGl6XqWWU+Y+RhqrfiG2BSMBJZvByW8zE1ZqSvjVuR+UGH+2IJ/8aKpqVm6urrUAygE1h/A0kWOgovOFXF1O8qWDhc5UzKyCiQju0zSsyu/S7PXfZxir38zMb3u2Vhb7S0xybVnRSZULgiIqWjwiynLHOGbG3nMcJv7MccEnYT/rr+rtv9I0kBfdWhsydUyFlCNBUhji2D5l8rYnEtkbB6M2wBpbPEVMqYA9aruMt23YD/6wlguvExGZl8gVVP3yytvfyQf/EXk/b/qH3J86CjzttafP/xcWudfKcPt56t9zL7qmCzTWMZxxqhjO+ryOKeLZUw+6s1+bCu5Ev2uPjy6+L8caJPGjvVuhjr/gT/OYGytXmEzQJ0JM+NnBXR8ivj5BqpFseEj3CUorlLFwU5gtWvshNS5bVTXQKru+RJW9iOkDigJrPp9Ms0BsConGhdaw0oQDbw0Uzbw0vjMeHBcDcr6t8/8dZY2/Ugq64JiKsTbLwwXKh+4wX7qZYO0AMSxpkzz9eUdAt4d8JDExATJUvep0wEt/0A+/4Qvwc0RW0ax2LLKJSWz8q8p2XXvJWXU/z4urf5XUSn154bEVa3zjSib7BVaVOwWXBQ1KjBhjOO/4mdPBHp0wZWHxhQCVkA0JvsiGZN5oYzJuEDG2FHO26/rAdMYO+rZlgugWAfgx2ShH9u4jf6jcy+VE1P3yrx118vHn38u9z3+nOy+6Fdy1kV3yL2P/V4+/uILWXHazTI09WwZzbHVMcz+GJvHN8fLwjYNY/bXsZ1z4zzMvoB7dMFVLqCtafRoz0TE0Nd7eXl/z/eGWVXZwEx3mz/OSDAKDaCHDR8LGMoVyFw5NiobnkpIHfCirKElyI7Y1gKfcpkJM7aNHdHuKKvtAUqsgSWY2gy4wfzRR3wVrFq9lysothJ5lQTGVih4gx3bQTHIY6vENyxHve3F29sLsPJlD7i4QW0JeGBggAJbL5bFqJcT6AWpQkmzl/EPsH+bnFnzYZyt9tXY1Jono5Nrro1MrtkWHlMxIyC6stwnrCJ1VFBB8DGjkkYfc0zsCfi6f6G/9X9+GpW7d8wo+/5Do7IulVG282RUyrkyKhUGaEYBmFH2i2VUFnK2sR4gqbpM1KWiLv0CGc1t9k8/X+0zIu1C8c46W8om7pWQ3B0yMmUX+u6S4OztUtm9T3xzzpYRNo6P/bC/2U+NzeOoY/MYjm2aOi7nY+nH+ai2i+AZXHZ4dOYlLqCtiavg3j4B26AyPxpVtsJMdU5PtyugqdB8IGXY8DGAogxAE2YNrlZeB6gEmSvI/QrrhNPp/lqANfCizbjDA43AanXViqsVGHDCDKgKXoBLI7RB0YBYlSskhH1QFxhVruGOrhRv/1gosI+EhYZIZGSUxPHxyWSqbR6UthTQVkhqZvU3qfb6txLS6p6OtdXdHJVcd3ZQbMVK/+jSdp/Q0lx3v/wIDe2/DrB/L1GhR6ReeGhk0vkyMmGvjEzcB6gBCSFLu0BGAhjWqTbWp7EefZPOkVE0G7ZhI5OwHwFjW/I5MgJtJ2KfYfHnyMhUjnOBKp8Yv0dGJJ+r9+dY/fs6xsYFRc3Bsa2O75jXSDU+LwCwVPTFGLoNx0u+8PDoFBfQP0np6dl2W1rWd1l2DbIVZloagI4j0H5BTqCjATTVl8A6wFUqDPj6Ae2H0QmpLmu32Fo3EFhTpvpqF5mqa9RXw6sUmHAS2miACoD5aiCVE1yUA6PKlAXDo1DbuBCx3T+iSKLjEU5kVwDe6m+SM2oPx6XXvBiVVPlgRELl/rDY8o2BkcW9gZFlxZ4hxYlDxmb5HeOVOAxf17H6W/v3TaMS9o4ZHrPv0PDYvTIido+GFMDRCNHwmN0yPHq3AkfVJ50rI+L2qHqCRABHENLYs/U+aB+OsmrD9nCMqQDFuCyr8TmG6oN69OF4I+L0/qZNtaOsxlTzOBvzQJ2Zh8NGxu1FG+YTve/wsMg9LqAHJgCdBqC/GAxmutt8wQH/GqW/f7AD6LFqdbhfgR1vEiHMTgU+EmgnoITSEd8qeJ2wGhfZaqxTLrLDtLtsygBZAVvqsDIJiCwFsIRWg6zqo0tRX/wjIP7UL6rwNd+wvN94BWZdHxxVtgvjL/SJKGvyCinOGBWYF3LM2PCR+Er+bdT2H0mjAgF0+NmHRsTsA5iAGsCMiEcZQA2POFOGh58hIwD0iATU0QiWpW4k9mE/bo9kO2GMxDbHAuhsG0ng2Y/1AFf1izzLOQZAHx6BMZHrbX1sNSbnwv7quJgP61HWc+Xx2cax97iAHizZ7fkpaWn2jwiyMYJsjAqdmGhDTBmiVrmHDRsLQAzQDnB5+0gBbJTXqLBZoNKA9issYlhtDogVsM5Y17jIVFOjtMyNItMCAW0AgKXxAuMfWSS+4YVf+4YVvO0Xnv9739Dcu2Dn+wbnrPHws3W7+dkKx3rHxQzzCvXExz5ef/r/vqSAjoRCx0BNCQ0NsA0POV2GB8MIEZRRqWAk1DpklwwPhbEuGnVs53YU2tgHsA8Pg6lxUKf6UuWxzXIExmY/XixC0U+NDQtDG/fr30Y7j6/6O+pY5rxoal4Yh2MR6CiXQg+a7PaCeFua/V2ri01VZs770yzz71/xz+bwWe6hw8ZQ8ZQSE1oqrwbZKLGOcflWkmAqcD/AAFSBatxkbaZMt9i4yEplVT3qjOJSaQEujv0tAP4AivuST2jOE56BWVf7BGVu9whIn+nul1ztEZSePNo7JugYt6gR+Hj/v9z6+XdOowK3AOg9vx4epZV2GIAdGrhDhgVsl2EGKAIOUIcF7ZChqFfgmTr2Dd6pAeP+gTvVGGwfBoCHYlvBi3GGBrENY0KpCTCPY8ZivR5b78vxOLaaizkexmA/Vd8/P4wVBdgj97w7LGr3v/8riP6vU2ZmZkyqLfNNo8ZcFONfz4iNS5TwiCj16tkEAM23oKhV7hFQaKiiUWIrwFYFVgtTDij7we2HFq4xcwWujm/726NLoLbFBPcr/8jCN/1CC37rE5p9s3do9m6vIPsKT397u4ePLWekR1zYMceMpYvsSv+bFLT2pKHBO24eHna2AmWIzzYZSvPfphWUMBFM/+2o36ohpNISyAD0992qwUK/YUGnY3ubBhztvAAM8eM4bHeMYS4IgJ5tvAAoiLmNfdlHbaMPLwAcfyj7qWNyLqjnPFE/hPMh2GG7ZWjozudO8lkb6PhUrmRSfn5+BIB+lUpMkPumzpTpM+dKeQVc5ZAwiU9IVgrNVxrxt9TDRrgp4PiqIesilXKbqcIKYAu4VNf+so5paf4Rhd/DvgK47/qEF7zoE5LzqHew/Qrf4MzN7v4ZPV5BqUVeAelxY/0j/I45JpZ/MtSltv9HaYjfqnlD/Ld/T5gVJH6AipBSaanYgGaINwBSsOp6Da+GbXiw7jeMwKJuONrUfthWQDv2cW47xkVZ7Y9yfzuOryBnHfZjO4+t5uToZ+2rzP90Oclv/d5jjmnlLUFXsqa8vLyQVFvGSwSaPwdsHd8hVVV1kp1bIDFxCQpmLooRbvOkmF94oQJYxboKYr2yrFeTnQArcAG/b3j+F35hBa/5huY97hOaey1sh3dQxsKx3onj3Lzj04YMCffHVFz/OT9XGmb3PMF95R1D/KB+foDJARyVmHAZcPpBU0BRzVEXgDr2wz5K3QcCiotAP9CA8ieAezu2qcAORR6i4NV9hgWhH8bgsegRmLE5x6H+7H+mnOS59sXjR7e43O3BUktLy9iMzOw7EEereNnEz3x6jM8cA+YfYuOSvg0Li/pg7JixLw8ZOvor3vbRi1ZUYhXX/gXu8aeof9M3NP85z+Csez2Dsy/0Ccle5R5ka/f0TbG7+6ZHenrGex1zjP8QHNaltv/kdPywqoQTPRbfMjRw61fDQ+gSI2YNOgPAEFzErFBBVeeoH8p6X8TEwYhhUTcsEH3Rb5jph/qhaB+iLhC6D8dgn+FB2A517jM0gJDqfdhfjRPoqON+aGfdkfWMsbd/d6LHqidOHNlW7vgYrjRYKiyszszIzHkwOSXjq+SU9LcSk9KfTEy23ZCQlHpWbHzyiujo2EkAusjXzS1qyDC32b6huU/6hRc8AqW91Ds4Z7N3UPpMN9/EutF+yUlD3KJ8MeR/7Sryv1ca7n782PFThnjPv+Akn8UHT3Sfd/DEsXO1eS04eJL34oO6foGu85in62Anepg69EMfVcf9Yf37qT7O7ZO8Fw4yjuOY3M8xjurnjjpTj7ohvgsuO8Gza8GJJ0aGOCbvSn8rFdcVe/GedLzNFh0fn+lVVlY2rLW19VhHszOJ/CIoKN17+PBkj2OOCedfz/+Pvm/7X5LgNY0afaQdc5TywLrB2owNbPtbff+eHcMHe1zJlVzJlVzJlVzJlVzJlVzJlVzJlVzJlVzJlVzJlVzJlVzJlVzJlVzJlVzJlVzJlVzJlVzJlVzJlVzJlVzJlVzJlVzJlVzJlVzJlVzJlVzJlVzJlVzJlVzJlVzJlVzJlVzJlVzJlVzJlVzJlVzJlVzJlVzJlVzJlVzJlVzJlVzJlVzJlVzJlVzJlVzJlf6b0zHH/H9jSLpFJIoAXgAAAABJRU5ErkJggg==;fontSize=17;spacingLeft=0;spacingTop=0;" vertex="1" parent="1">
          <mxGeometry x="215" y="308.08" width="124" height="60.47" as="geometry" />
        </mxCell>
        <mxCell id="GS9lPfkHltT3G8b4393Y-3" value="服务器" style="shape=image;imageAspect=0;aspect=fixed;verticalLabelPosition=bottom;verticalAlign=top;image=data:image/png,iVBORw0KGgoAAAANSUhEUgAAAEMAAAA5CAYAAABtc5bUAAAAAXNSR0IArs4c6QAAAARnQU1BAACxjwv8YQUAAAAJcEhZcwAADsMAAA7DAcdvqGQAABY3SURBVGhD7ZsJUNRnmsa98OKSU/FARBRB8EBEOZumm7O5G5qjobnvU1CRS0FuUTyT2U0ySTRRo1GMaDTRxDueeAXvOOs4W5mZ2qrdnUrNjFWz6rPv+zWNoGKc2p0aU+VX9VRjt3b/39//PZ63SYa8PW/P2/P2vD1vzy/3REVFWanV8YqqiiWaZR27M5M3nylK2Xxcq43Hi5JZHVqpdX9m0etq+rsNO84UVa1anZqXl5fk6ekZvWDBAuPet/5lnciwkOjcnOyL1Q1r/6pqO/pnu5orf7Fa3v1oUoVWNpXdj5zrrz5yb/v+kbSj55Fs/Y1H3mt7Hrm1XH20oProo8C8NY9Ss/L+KpPJfpo1a9ZPhoaG/66np+fU+/a/iDPM3sbGPiAgYFdyWsafsxq3InrzVfhtuAv39ttwbb2BhW034NF+C9L1t+G/8Q78N5E23IK8vRsBVZ9DGpcP/6AQuC5ciGnTpoFAgDIC5ubmf9LX15/T+zlv/klMTMyNVUb9UaEpQfDqwwjafAcBm+8igAIOoJ8D+4n/zK8Fb+yBurkT8ZklkEulT5ydnJ5OmjTpqaOjo4DAWkhgCMZ//6JglJeXH61ZUf4kdM0pSDb8ANmG24NKTvJadwcL686guKoZLU2NCAkJ+R8HBwe4uroK/TNhDCeN3hLraIDTLSY/dXeZ/9S9fYB+PL7d/E6v+GfxHP297u475gBGyeX+R+QSz8fS2gOQbf4NlcDdl4ozQrrxLhwab2Ny6TEExKZDGR0Fb2/vxy4uLn0QnoPxnwTDWXup/8ATpYqaW5yb3li1smFXYkvXLpe6s/vmrTrfNW/VuT55NJ3vkrdd6Apee6krkCRd093l1nq9y7vpXJemYWdX5aqm3eHh4b8Pkkuf+i7ZCmnjKcgaj78geeMJ+K4+Buelh2CatR+T0rYiUJmMJLUaNDEez5s3rw8Cg3FxmQ9X+tnU1PQ/qIH+42DY2dkZhSsCS9JTU66XNWz+W9avvoNk/R1Mb7gH61V3MK3+Duyb7sFlzX14rP8NJJv+Db5bfgfpr36Eb/t1eJV+BFlGHaQRyVjs4QmpVIpAuRS+y3ZC2nYJstbzL0jedh5udacxoegozAq+wZTs3QhSaqBOTIC7u/vjOXPmCBCuLvPg5b4IEh8v+Pp4w2667X8lJ8ZF3Ou5NP3gwU6Hg529op+P9KrzyBGH7V99N2vTtv3T4uPDJ1ZWVo6n3jOyN9zBD6VdqMtc5yOKWM2j2FU7ELHpGuSUupKO2/DtuEWPt8SjH3X6gI23ESi6/g14V+zB4tgyBMWkYJG751M726lPHWbOeOpItS7x8UGQTAK/lV/2lsm9AQrYfI9g34V9/Q1YLL8Gy8oeWJd9i6DYNCQmxIvMCAwIQFFBPgrrt8Cl/AtMK+yCDWlS3r7H1stO/86+5tIPro2X73u2Xr3vTXJvuXp/buO1+w6rLt33qTlwP215+w9ZWVm36b1uTp48+RiF6qmNeJCjVCoXbehYe7O4biNCW76hC+URd5dg3BaBPy8egbKOHoQ3HcZ7v/4I69dvgMk4I2p2s8B3cv78+eJucmYEyHwhKf0Qvg0n4Nfw7QDJG49hfsVXMMvYK2SauQ8TUz+GPCIBqhglYlUq5JVVImfzN+Lz5jTfxIy6G5hB8Bwbb8FtzW1qzHch20TNmeS36T7k676H//LtCEhaApkiGi4LF8F+lj2cnJxgY2PzRwo3WBv1IIc6tSRVo/5teG495C1n4L/5BwqYg35RDIM9gVNdNxyy3kNWmgaVK1ZwQ3vMELimF5Bc5s+Fr8QbQVJv+NXsh5wb5UbOKq0CN3G23YT9qqswX9oNy2Wk5ZcxNW8vPCRySAOCEVHaAcXG65RBP9CNuSNujk5917OJRA04qPkEZJmNkAZHc0bBnrJzqvWUpwyBew1fm62t7R8o3EBt1IMcGl8+MdHhD/xTKuDXePKVMGTrb2F+Uw8sys5hVvqvkKZRIz8/H1OnTn3s7ekBX18pFvkGw9U3BNLQOASGq+BX/xXk79Dk2EJmarNWge/egkfHDdjWX8XEmiuwqrmKKdUXEFD3Bf7l48+Q1boDio6LULSfhZQarGzttZdeD0P2qD+N5e0fY/eObYiOjnpsYjJONN7+4/jvgxEV/sAvsRSSahqDa17e7Fiuq07DsvAoLHIPYXpiOzTqeGSkpyE7M/1peU0TUpp2Ym7tGdhVXcAMkl3VedhVnsPMqnNwWnke8+svwq3xEjyau+HZ0o3FTd1Y0HgVc1dfwdzqE3BfvhcJNR+gsLwKkRFhkPlJhfN0K/mEvMjNASA4K1xab8O65GtIE0pRVlwAuVz+xNra+gmPXx2I52AEaKMe5PTBiC+GpHIfZC1nIWs6PUD+zafhWX8SU5ccgWnuYVimf4Y5kSVQxymRX7wEhc0fQr3lIhwa6G7XXodNzTVMrb4mHu1WXodTw/dwX3OTGjAHwW6TGui7DxC4hTKGeofvkg8hT69BUGgkFrvOF71nup0dpkyZwmMUC4qol6y/Iaw6i8tscVsPJlddh2XeAfgnl6O0MBcSieTnYMi0UQ9yGIYyMkybGTWUGe2UGTTy+suv5RzdudMYl0MNL/F9OCjyIA8KRVxhHWKaDyCY7pIfTR++W35USpJ1N+FD4inEdzGQa5vvJklGf8+78Rxc89+Hp6YWIfHZ8PZ0h9MsOzjY22P69OlCXOuc6uPHj4dL5iZqulQu5EvYm3jXH4N14QGY5RyAufo9yBMKUFyQCx8fnxdg8PvMnTuXM+z1YESHhwoYvrWHIF97BXIqFZ0CCI570wVYlx6FS8HHWFrdgLyiYgSVvY+QtRepx9wXd5vHLYt3kP4S+we/Ro+yjfcog85jxcZdqGtZB1WsEpMnWYE8jhBdiwCgC4YDYRiu+R/QTbnQez3UvKvOYnzJCViUnKIs3Qm5ugRFeQTV21vA4PfgbGAIzs7O4n1ptP48jBkzZhAMxQM/zXLhFP233O8dr1pxoFyb5iWn4V38Hta3rELpqjXwIQ8i0p3v+msoaPNtzGm5i5CqHaiqqsLmjeuRlpYOQyNjcdEcQP+m1x/Ggqwt1NzJsTafgnvtt7DKOwizrC7KjC9hof6AMqMQhQTDy8vrCS12T7jMeLnjLXfmzJlcIrC0tHw9GFFhigfSpKWQkh/oP004CDZbDqt7YFZ8Eo7qVsRHKaBIoLuwTlsCryMuE9fmHlhV38K8jE2IjYtHSXEhwsLDYWE5Hm5ubgMgPA9jIfeMddcQuL4Hs2ovYcLSc7AsPweLpRcxPnsf/JPKkJ+Twa71iYWFxROKSTRemnKcEbCyssK4ceP+HhjlBOM4wSCHSF6AxY3Ks/0GptVeg3nxCTioW6CKCEZATCq8yar3z6DBxOu5+5pboqGaVt7C3PQNiFbGopCcpUIRqoXxXMN7AUbJp9Q4b4oNd3LlVfIkVzCeZFlxHRPyD1IDLUNuZhqX11NjY+OnDGDChAmcDTAzM2MQGDNmzO8pXF9t1IMchhEZGvJAklgmliY2Mf4beYzdFDAWtl6H1YrLBOM4HBNbEBcZAv9oDbxaL2v7yyvkT5K2dWPa8jOwoMwyW3IeczRtiI5RoaiwACEKBSwsLCkzfgZG6XYBw631BiauIAhk0MaTLCuuEYwDkBOMvKx0UWajRo0SE4igwNDQEGPHjsXo0aMxYsSI14MRHhr8wCdhCST13xIEcns0xnRyrr8C07KLMC88BofEZqgiFZCFxWHx0j3wrex8pfyq9mFGzqdiApkkvAejxI/gGLUUUcoYkRnBwcEEw2JAmTAAbn5snLj2xetLdggYs1dfg1VFN4HQynLFVYzPIYdL9jsnI1X8m6FDh/YBGDlyJEPAsGHD+PnXhKEgGPGl8Kk7SubmFu0C3xOI7+HZdg22VRdhSnfULP8oZsU3ijLxV1KZbKApQs12MAW+8xu4r7uHKbU3ML7yBiZU0UJWex9zM7eIzMjLzUVgYKAIlu8oB8KNlAGwjZ49e7ZogKamZgSD9g1aDG2qCAD1CZ0sODuoZ8jUpchK14h/SyFh+PDhQgyG/9yr14MRpgh64K0qhvdKcnOUDVJqVvKO65hbfwkWS87AtPQsTHK/xkxVA2IJhjxSDY+6k2TITg0q7vy2JYdgzl6gVyZ5X8Mpvl5kBsMIoK2UU5ohMID+E4BHLTfBceNM4EoO1Lv9OsYvuwDzsvN9Miu/BMusvZCTLchMSxbvQSG9IIbSmxkS0uBHB8NLVQTP2sPwpc3Pj2qd7bJNxXcwKjoJk5IzMM45jBmx9b0wkuDRQE619dxLJW87h0X1Z2BVdBTmBMAiXyvTwhNwSliNqGglwciBv7+/qG0GwMGz2dJNAXafEydOhIGBIRYUb4PTKsoE2onMlpztk2kZwcn8HLLEkgEweoMX5cEZwqVCjwzDWwQ92BEwQoIeeMYWwaP6EHzbr0G65jIcqykb6OKNCk7AuPAUDDO/hF2MFoYsSgPvjmdf3T2vQGrC9nU9mMA1XfFM5lXkNVI7CEY0crKz4OfnB319fQGAg+cpwAB4EnD5mJmZ0hQYS3Z8K6zKTsOUvE5/mVDGmqXthl9CMS2NiSKzKCTo6ekJcTOlKSJ6CP38I73mJYIe7PTBiCmEe+UBSAiES91ZTCg9Dv3cb2CYR8o/BoOM/ZiuXImYsED4RSSRz3i5p2DJSFMqqesv03Z9ncwrbxKMtQJGdlYmbbm+4oIZgG4MctnwKNRNAz29kZia9muYFJ3AOMrS/jIuPgOT1J0EowipSQl9MBgAQ+Z/b2RkJN7LwMDg52HY2NgIGO7KfLiv6IJH00VMKTsG/ZyvYZhzBMbUKwzzjkI/bR9so2qhJBjSV8Dg/cOt7QYm9RuBL4ORlZnBu4RIYxMTE3HRfPEcRP9pMHz4CBjGvgtjuiHGBccHyIgydlzyp5DGFUCTGCdgcEYwTIZqbm4uIPN4ps94fRiLo3PhtnwfbJadJBCHMTLzEOwK90Ky9BNML9iDUZo9mBZVLWBoM0NrzJ5XAHkT59XkTXj8LRso8xU3yGc8g0G7hLiTuuA5SxgAB9Rb51T7w6Cv3ELXdBQGukztlUE+AVFvha8qX8DgCcRZwWXGrpOsuSg/2lcYyOvBCA0OeLAoKgfW2TtgSJkwOuMgRqUfIKvbCRt6ziTtc4zRfA6biCptZoSr4b2WjBl/x/CcAsms2VZTJiylTv+czCp64JzcjsioaPE9iIeHR1+Nc+Dc8Ho9gRC/NmQI+YaoTZhA+8iE/C9hmP0VDChrWaKMEz8UMJLiYwUMLgluwBSX2El0SyCBYRgeHPOgR5sZAQ+cgzOgn/AhRqYTiLT9pC6MStmD0Uk7MCZ1L0aqd8I6rALRoQEChhfZ9P7mTCe/DtpBlpNJK78Ai+dkuvw6nGi/iYyIpCUtFYsXLxYBPwv8ZRqKUREd8Fq6Ey5F2zAuuwtjsw4JjckmKPHvQxKbCzXB4GnCpcGj2d7eXmyrDIhFcTIMd9Lghzo4ma6gB7OD0zE2/gOMSO2CXso+jOyVXsoX0EvdjxGJ22EdoYXhG5ZIhux7yGgMD1QPXBpoclDg5mTUnpfJ0muYTS42MjICaampWLRo0QvB9x+L2iwZhlHhHZiYuQOmyZ+IRj6GMpc1OvMw9FX/Ch9lDhJUSrGuc3nwIxswFps5FmXH68HgRW1OaBbGxr2P4ZovMCJ57wANTyYwqR/BLrUA0SGBkIQmwKPtOvzWDRQbNZtKBkEjj8fecxpXfoX2Gy2M1NQUYcPpEgYA0PkCLh1dA9ULWw+95F0YTX1rVNoXdC2cufuhR1k8WvkuvJXZAgYHzz1CZ+nZ3rO75ecJ0s/3DGo2PkkJsQ/mReRhtOoDDEnej6FJnaS9/bQPQxO2wjq6FFEh/vBWxMG9lfzI2oFa3HyZHOt3L/gBnYzLLsExoZHKJAKa5GTxJQ5dwgsAuJnq/AGP1hGh66Cn6RQZq6fZh9E5BCS9EyaUHQbKd6hn5CE5QSWC5n7BkBkCZwiPbZpQf6L3bqfPMhVBD3YIhsRP4vPbhdIwzPBPh11IIezDiuEQUYrZkUvgHF0OZ+UyzFIUYL5MhQhFELxCVBQ4baRrBmoqOVbTolPkCV4uo9KLcIhvQATB4F8h8h2kSxDB9wdAnkCMWW6G/PzwkHaMSPqcsnQPhqs7YVa/AQZln0EV+w4cQpogTSpBWnKigMGNkyHwSKXp9HsC3USf4UAay/G+8kgkkhGUTsZeXl4mzl4KEy+Wor8STYLURUZWto7WbosXN0aGhwkYi5q6IWm73KcF9RfICLFbHVwGxecxK241wQgfAKO/OdJ5BDZg7ELZd4wIbqUG/hlGJu0SGpWyg0b9LhjQz/rh6xCsKUF2RpqA0Jtl9+l9K0mTSPxL9P/3Y0TpV8Vf4TMMt6ZL8GnTyqvlIjlWtu7HXin94rOwV9UhMjwcanWiqGvuE2y6OHieBAyATRI3Qk5xhjTTO+oPLuGZD10jch+6hOc8nBeW9XBuSOZDp6D0hw7SuIe+geEP/WV+P5KfuETXWUwyE1f8DzxGVOPVAkZwLFwbLsCn9QK8mi9gRsUpGOiMUN63Qv3NkU5jC85gZkwtIii7+JfLDIN7hM4kcfA6o6TzCgTqKX22PWmouIo35BhROT2DUX8OPs3nMafmNDnDI1ojlH0IRhn7SJ3Qzz7cZ450GpN3EjOiqxEeqkBCfLwYedwjOHB2iTqjxNsr7UxClC0Mg//DlDcPRkR4KDyDYuCy6ju4rKTdgFb0sVk07yl4Y812yOu/gqSGv73eR89/KZ7XaXTecdhFVSJMEYL4uDgBg/uFbn3n4Nks8UrPewaLSuYNhhEWCvdAJRwrT8I8X2vdx9B6zzKKfw9uFQfhULQbpum7MDbjQN9rLL3sbzE9cgVCQ4IRF6cSZcINk4Nmt8iP7Bb7myYqnzcZhgKuskjaEQ7R/tKF0bTD9Cl5NwxS99Aes1tsuWP6v0YakXkU08nFhlJmqFQqkRk8OfiRA+dvvPhnhsSThkV9hGHwf+b4ZsJwkUZgWMp+4QQH6hkc3m2ef31Y+teYFraMMiMIcQSDg9Z9B6oLnj6jzzlyltA0YRizSW8WDLr4avYZCygzhpFFF47wZzQybS/tNpQl5CCHp30J2/BliAilnhEfJ2CwOer/7Tg/xyXDGUOe4RHZ9M/os1/tHP8JhzJjfnVMdCTcg1UYQjZ9hObV0qP9YermBhiUb0OOYg08Vb+GbWwN4lUxwnT1h8HlwQ20NxP4t18fkd648tAdUSZxsUp4hsRjSCLvLLzDdBKYXqn3vqDRRZ9TeXTCVr0LxrT32EVXITFeBY0mWcBgw8WThCz43+gzbpM2ktg+v9HHmExXbZI6Af5KDYwSP4BZ0oew0HyE8albMSFtG6zSP3lBE1JZ22Ce8jGMUz6Fi2o5kshwpadrfwNG7/sX0jnSStIM0i/ijCE/oPTwcD/s5SvrdJTGdM6Rx3UuCE7qXBSW0ukRmdHpFZ3VSev0M9GfvSKzOt0j0jvdQlM65wcmdXoFRHRKpVLWF+QnPqX3LSLZiE/4BR2u3VGkcST+3xv+r+L3GUN6e96et+dNPUOG/C/yHRuDyl9pAgAAAABJRU5ErkJggg==;fontSize=16;spacingLeft=180;spacingTop=-50;" vertex="1" parent="1">
          <mxGeometry x="761" y="306.08000000000004" width="78.2" height="66.53" as="geometry" />
        </mxCell>
        <mxCell id="GS9lPfkHltT3G8b4393Y-4" value="汇聚交换机" style="shape=image;imageAspect=0;aspect=fixed;verticalLabelPosition=bottom;verticalAlign=top;image=data:image/png,iVBORw0KGgoAAAANSUhEUgAAALcAAACZCAYAAABtyKvZAAAAAXNSR0IArs4c6QAAAARnQU1BAACxjwv8YQUAAAAJcEhZcwAAIdUAACHVAQSctJ0AAEBbSURBVHhe7Z0HmBXl2f41sUWlLdt32d57b2yvsJSlLbBshaWDgChF6QJKE0QFUewmauwCBruIKCpWpKiIJiam+PcziaZ8n0m8/889ex7yMs4uaIxRM8913decnTNn3vabe573PbO7p7jhhhtuuOGGG2644YYbbrjhhhtuuOGGG2644YYbbrjhhhtuuOGGG2644YYbbrjhhhtuuOGGG2644YYbbrjhhhtuuOGGG2644YYbbrjhhhtuuOGGG2644YYbbrjhhhtuuOGGG2644YYbbrjhhhtuuOGGG2644YYbbrjxHYgfpKam9oyKilos2hIbGzspLCwsV177+Pn5nRMaGnpWZmbm6Tyu43A33PiWR0lJyWnx8fGJAvPlol8mJib+QyD/PCUl5e/y+jN570+i92NiYl4SPSq6XYBfK5opr+uio6PTIiIifAMCAs6WfWe6F4Ab//EgjAJltAB8qegPycnJEDCRk5NjKTs7G1lZWceJ76enp0PAh3wGAr0luSj+IaC/L9uHROsF8rGyvygyMjJD9sfJHSA0PDzcT8rrwXI9F8CpHTVxw42vKQTMc0TpCQkJG5KSkn6TlpZmwZyfn4+8vLxjys3NPU4KPGWHX6GneD5xfvBikTL+V2D/regtgfwl2e4Up79a4J8r4I+U1zkCfYxAHyLve8vx5/JOItV0wXfj5EPA6iZuWypgrxL4PiSUhLZv374oLCy0tqqCggJLBF5lgu8Ev4JvSuEn9B7Y6fLHSUD/s+gNAf1+0QaBfrZs22TfcHldI6+Z9yfQ/UNCQnp5XN8NN045RWDoIQ5dIlBfJa76/wgdwS0qKkJxcbElvjZlh90E3g69HX4FXaFmCkOoNYWJi4s7TnbYxcEtCdB/E30qgH8oektePyHb62XLCe9Y0SABv1iURvADAwN7864kTabzu/F9DoGwmwz2KAH6WoHs14SSkMptH6WlpZb42kmdAe8EPffx3ISaQGdkZBxLS5iXU3JxHXtNmbDbgXeC3b6PErip34r2i34mqc1toqvkAlgusM8RTZKUZ4TsK5TX8pHYbp6uceO7GpIPdxfVCdA3iWt/TFclrOXl5V9QWVnZcTKB1wtA99ldXkGnWzPnZq5Nl1YRcIqvCboJOOGm7D/bobeDb8KvDm/CLy5uieAL5BCwPxW9Ja93i+4QrRddLOnNeNk/LDQ0tFR+TpTXIVK2l3Sf6/rfxqivrz9D0oHx4pw7xEE/IHgEtqKiAlVVVaisrPyC+J7qROBTBJ3nNV2aUFNMQXRiqfsogm0XQTelkNtBPxHsCrXKDrt5nL5H+AXmPwnUvxW9LXpRHP5J0Q7RHfLeVtmuEo2X90rlAgjzdLEb33Qw/RDYmgTsu2X7MV2VIBLompoaS9XV1cfE/aZOBD2BpkvzDqBQE2KKr00RdhNudW9Tprurq58s+Hb4O4Oe4j7zM/ZjO4NfXV/0e9FR+fll2f+oXBR3ynFXyXYBwRfoh8odoK/k+jEBAQHenuFw42uKH0r60SJQvy6pwUeEWoHu16+foxR2U07QE3CmIkw57EuABFzFfQo7wVa4dWvKdHNTnUHvBL4dfhN6hVjFn7v6nHksZYdfodc0RxwdAvXnsu8vUrffS91/J+18X9p/RD5zSN57VYB/RLZXEv7g4ODs3r17u3n+lwkBoae46EQB7xHRHwghgSS8/fv371J22FWEnC7NnJpph7n6wde6QsKfTaidpK6uUuhNnQz4Cr2prsA34VXxOKfP2j9vfsa8WCgTekpdXreEnxeCcezf5JyfSjs/lDveL+TOt1/6+DFJ9e6Utm4U8C8W8Nv79OlT7e/vH9+rV68enqH97w2B+FwBa5QA9obof+nUdNza2loMGDDgOHGfE9ymCDUvCl4cBFfh1RUQlcJOqE0Xt+tkQD9Z2KkTwW6H1QlYHmeer6vP2z97MsCrw9t/JvgCMSRlsSRpC/d9Lv3996amps/a29v/OmnSpD8PHz78E0kh/yB3jg+kftukz1ZLXzaKySRLnQPldW+mnTJGZwkCfKThe/Xl1g8ECG9p4BQB7HnRX9WpnaDuTAo7gTYdmo6sMPNiMVdE7G5tipB3JhN4lR161b8bfL7X2Xk7O4cJvMoE3w6/HXx7qkPYuV/PrZ/h+zwX68K+9owBL4B/jBo16m/Tpk3747Jly969+OKLX5owYcLjdXV1d8lYrJJ+mypjUCvjGj1mzJhecrGc09raetbEiRNPr6+v/6GHm29vsJICSrDA1UCoCSChYy58slDzOErzal4UCjQ7kufjPkqB5n4F2i474KbsgKucQKfskFN20FV2KKkTwa6w8j2nc5/onPr5zoDvDHQn2Cme06nd9nqxLF4Mkrtbbu/t7Y2wsDDrs83NzVi9ejU2bdqEpUuXYubMmRCw/0/c/6BcDHe0tLSskPEeJvXjF1nfviDUAluwwDRZ9KqA+DnhI5xOANulDs3juZxHaAms6cwm0Pq+urSTTMA7kxPwKifoVSbwKjsAKjsIJwKU4j5+9kTn7+q8PI/ThXMy4FM8nm2194VZJ62X/WeKdWA5vAswx+dKDie4zPV5MXH8Bg0ahKFDh/Ku/FP5bG8PTt+ekManCEy85TzNCnMJrqv0Y+DAgdaWMNOddQmP4CrQJsxfBuiu5AS3XQp2ZzIH2ZQ5uHbpYJsyoTRlwsnPOpVFfZUyzHPbLybKBF/B7qzvuuqXE9WN5dOwBg8ejGHDhlnjKvuvEQ6+HRNUAe40SRUSpWEzpPH7WVk6rjq1AmxK3VmB5kWgKYXCawda32daoh3975J9AO2yD6gpc3Dtsg+204CrTBj5WaeyqK9ShnluyoTdBJ6veU6aiOpk+quz+pn1Ybk0vtGjR5ORz7nPM9Zb5L3/PNzSkBxp3ArZPk/w6LoE1g61vuZkkDDrt4dsDD9HcE2YPY08BvRXdeivQ+agqezvm4NpP9YcXJUOugmgXSaMPF77wH5+yixfZS+zq/K0HBN4ip9h/5uiudjVGfxO9WR5fN3Y2GilImSGx9LgPF+2bflPOvcPpCOkjtkLpZKvq1Mr1CbM6s68QtkIdWg7zNxvB5qdZnbUd0HmQHYlO4im7EBS3O8EUldA8TP2Ms3z6c+ETfcr5LqP5XFMVDp2pnhMZ/Db68kyaWojR46ETCCtenE/x56fZRnyuc3/EeeWBidIw2+U7RtSqc/pwkw/CDFTDftkUK9GBZdSoE1pp7Ch5kB932TC5iSFzi6+x/4xIVIpSCoF6WTKtpejkFP8jH2cdAxNOQHvVD+ej0bX3t5uscGfzXPwGB4v9doY+00+/SgFFwrU60UHWQlWjm5MkNWd6cwKNCvMirLS2gCVdpI2/PsO9MnKDp5d2p+die/bpf1r14nK5j6OE8eTottSalamaVHma/t4sx58f/jw4dbE0UxDTA64j1u5yDYkJCSc60Hv3xcCc4zcIu6RW9WvpNF/U6cmzOrO7FhW0t7ZTmJDOutQlb7/3y57v3DgTWic+teUAm4Xz+MkE3qCp2Zll4JuisfbRdBZD36G+bV+lnXQ97Q+ZtnC278XbrktFQnQNwncv5QCP2dltbH2iqm080xxv1aaA2S/DZqyD6aT9Fz/jWJfduaOdingnclprCiWwc/zrkwjM8XxN6WwmzKBZz3p1iNGjLDOqfXX+ml5BJtjy1SI238L3P36RZ0pMKfJye8TsP8kBf2DULOiWjl7h7Ni3G9Kr0ICa+Zwpuxg26Uwn0j2+nyfxX7lOCjgprj/RLIDrjLh5nF6d6YIuV1OoKsUcr7mhJGLChxvntespx1sjrmwZ22/TrhP9fNLOcfHP7hfdHT0AykpKR9lZ2chPy8XBexUG0j62tynYsXYEFbSnHU7yQTdSQp5Z7LXw0lm3b4vUki+jBSozmSCTiiZcppS0O2yA6/Qcw5Gt+ZnWWfWwUxTFGy+x3HieHLMyQu3Xwvc3t7eAb45Y+p8cxuf6JUyFOeEF6BnaCb8ItLQJyYF0QmpSEjq+NseyUkJSE9LQVZmOnIE/jwPYKwMYZUKHZOCbZcdcFMKdWeyw23KBPpEMkH5LopwmOB+FTkBTtFxCaQ+PtyZnECn+B7XrfWbRo4bz2kHW+/sHA+OH48jA8pPenr6WjHZr/Rsyak+Pgn+fikDB/lkjNwfOOzqz8LaH0DEpJ2InLgDEe33Irz1doQ1bEVQ7VL45o+FV1w5uvdJgldwHALD4xEenYDY+EQk8IGahDgkJ8YhNTlR4E9FRkbHr2kp0FphlQm7XXbgTZmg22WH3S474E6yQ/RtFR3PDuvXIQJIQAn2iWSHneISMFdCuOV48ZwKNkE/GbD5jSi3qampK+X9H3l4/WcsWbLkB1deeWXc1q1bazdv3py5fPnyUPmA9TcyzjjllFjvtBHtvfuet9233woEtW1DUMu9CG65G31a70HI2PtA0MPHb0OEgB415WHETHsMcTOeQuzURxDZfDOCB10K36Jp8MpsgE9aHQKSaxCcVIzQ+GyERSciLDQEEaFBiI0KR2J8LNJSkpApwGdlHQ+2C/tXU1d5978iphS6rGuXE+CmCLVCznHjHI1g87ysK6F2ApvjyOPJAb/m5zMs3IprO8MtJzxt06ZNc3/84x9D4P75li1bHrn++usvbbvg8ukBfcc/7127Gr5j7oBv40/h23A7/BrugH/jnQgQBTbfZYEeLKD3abu3A/Zx9wvsDyJiwnZETf5ZB+znPYn4GaLzHkP89EcRO+E+RIy6GsHVc+GT3YBe8ZXwji1EQEyOpDfpiIhNRlRMHKIjwwX6MIE+BinJSZbLK8TaSFPc15lM0E05wW7KDrpdJuBdyQ7dN6mvIzUxRRAJqRPYXYkuzTSEW0LJuwrPpSsl6tjmIgP7juPAseI4Ktj6sBYBT0pKWhkcHPxFuCVOXbVq1XRxbsydOxfTp0/H1VdvxpSlNyB+7E8QPflRRE/8GSLEnUMF4KDmOwXu20V3wG8MYRcJ/AT+GOwtHbCHjr1fnL0D9siJ2xE96SHETNmJOAE8QWBPPH83Ui7ci+TzdyFu0n2IbtqK0KGr0af/AoRUzUZY+RSE9W1An5RySW8S4OvjhQCfHgjrE2A5fWpyAjLT06TRzi7vBLzut0NuHmMH3DzODrf9WDvUKh5r/mwH8N8puqAd0K8qTUec4O1M6tZcCWFdWCeexwRb0xATbO1fc9zUsQm2Pmork8lO4T6loaFh0rx58yApikwGEzBy1Bg0n78OkQOXIGHaU0ie+RySZ+xGkqQbiec9gYTpj8n+RxArzhzFvHvCg+LY90qqcjcCmu8QyH+KIHkdJKAHtRB4D+zHXH0boibtkAuHsP9MUpiHkXDe40ic9RRSZj8jwD+L1DnPIX3e80g9/wnEjb8dkSPWo484fWDfdgTmjkJwxgCEpJQiNC4LoRGxCA0ORHhIB/TJ0oYMubJNYLVjtJPsMo+1y4TbLjvcpsyLwEkm7F3JBPWriLDYIf2q4urGl3VtPjfEC4L1YL8QakonjpqKKNhsM/uH/cv+5/ioWxNshVp/USIuLq5zuKWANhbAD3t59UJJcRHqWmYhsHgKgsbcjdB2yZ8nPi4QPi1pxTNInLFHYBcIZ+1B2uxnkSkwZs95FjnznhPtQcZsuQim70TM5AcROkEmnOLKYePvQ0jbPZ40Ri6E41KYbR3OLrDH0tkF9vjpj0g5jyFp1pNIveAZpM3bi4yL9yFjroA/6zEkT30QCQJ9fMuNSGjcjIRR6xFdeyH6ZA+BT0gievToAa8e5yI4wBfREWFISYoX4FM9+fw/wbVD7iTzeLvssJuyw26XHXa77JA7yQlmuwjM15F302WZJzsB3Jnq6uosV2Z/cMuLg+cxwdZUhHVlm9h29g/7l/3fGdj6Gz9dwi0FtrAQ/tYDT1JdVYHKuiZxyfHwqb8ZvsOvg3/TPfBt246Ath0IHrtDXPghAfMRAfIJAXG3uPuzSJ/9PLLmvICcuS8gV1y34KIXUHAx9Rzy5++RfbuRceFTAucj8pmHxL0fkLz8QcRMZX6+XSal245z9hi5M8RO3WmBniCpTOKMx5EssKfMfhppFz4jzv4cMi96EVkLXkLOwleQPU/qMGMnkifcgfimLYgedhmiBsxDRNkkhOaNQJ/kEgSGxSLA31eg90FkeKi1epMuqU1mpri64ezsUFO630l24FV22O2yw27KDropO+BOssNNgOywfhl92XSEKQjXs1kX1pnn6Axs1o/S9rH97B/2rYJtpiEKNnmVlIS/qbMoKirqTA/Ox4cU2MxbzbFF9X41qBo82oK7R9Fs/LB7AHp2D0JNsDhf8lB4VS4T4LfCb+Qt8Bv9E/iLuwe1iEu3S24+4TEB/ilx36cljRFnP38vsi58HrlzX0TfBS+jZMmrqLzkNdSs2I/+l+2X1y+jcAGdnw79qDjz46JHBWLm5jIhnSLpyxRNX3ZaipsmaQxhn/mEB/anBPankT7nGWTN34vsBS8K7C8jZ4FcaPOfQ/bc3VKHJ5B1/sPImrkDGVN/Kk6/BqFFrfCOzEa3Xn7w8vZDUGAwomQSm5QQLx3Z8atSdrBPBLsT5Co73KbscNulA9+Z7HDbRWc0Yf2ysrhwgNhJnDASYvaHurUJtkJ9ohURdWs72ASaYPO37cW1+atnC2TfGR6cjw/Jf+p5VWoeVF1ViaqBwxEkcJ8VUYIfnHIKJp35Q7xdVYyfJMYh/PSz8YOzeqFncBKiKioR21IDv4oG9CqeDZ8BG+DfIJNLcfqg5vsk15Z8vH2nOLHkztOYt+9BugCfLe5eILAXL34V5UtfF9jfwIBVBzFg9QHZ7pft6+h36Svy3gvou1DAvfAxZMx5TOB9Aplzn5CfH5e06DFxc94FPCnMTHH28+UiIewX7Eb63GeQKW5O4HMufhG5C/chb9HLKFj8CgoWvYQ8uaPkzN0l0O9E+uTbkdJyDRJGrEBE5VQrp/cNTURvbx/4+/oiNDTE6kh2NDtdpbDbZQJvlx16lR14U07Aq+yg20VwNDXpTE5Aqwjll0lHWCbbw88SanLFc/BnlqVpiDq2gs228HPsPyew6dYKNsdC/45Kl3BLoSN4CyHYVJXAXV1bh6CCseieMwGnne2N0tPPwG0+vTC/Zzf0FthP++HpCE/yR/O6Qlz90gwMXZWM/LI8pKZlISImEYEZ+QisqkdA//nwG7gOPnVXwl/cPrDhDgQ3P4DwcQRe8vhpu8SBJcWQlCZn7j7L3UuXvIbqFQcwcPVhDL38LYy68iiaN/8cIzceQd2aN+RCeAmlS/eifPlzqLx0L8oueRYFC3cLrALqXIL9pIhbOvpTciHskq2kRAJ7lsCebcEudxMTdlHfJZTcSajFL1nKnyeT3LbrEFE1Az6JlejRJwneIXFWehMeJZ0bJ7dG6XQ6SlpqCtJlQDqgPx58J8gpE267nCCn7HDbZYKtIkCEirKD7SQFm+pqTVvFOz8hZttZR/LEn/9dYBNq/eNAkZGRXcI9hFeYVqCiohxV/WoRnDcGPsOuRe/adehZfCG8UkbK4ObgzF7B6NE7EH1iwtB3Wgja78hGydRwpGclI0cqWFiVifYtRZj/0GDkTvRFfm4ZsvLLEZdVgqDUAnhl9EfvwinwH7gGASNvRMCoW2XiehdCWmViOeERSWl2iQuLw0v+njt/n6Qtr6CM7n7pQQxa8yZGXPEOGq5+D02b3rOgb73252i+5ijqNx7G4DVyYax8QcDfi0rZVokq5HXJsr3ou2iPpCm7xfkF9HlMYfYg+yIB/SIBXVKYPEln8gX4gsUCvAX6Kyha9hqKl72O4ks61HeRHDdHUpwZDyC1/SbEDFmCPvkN8InKRi+/EPgGhiIkLNKCPjlZfztcUhwL/FRrFacr2E3ZYVfZYbfLDruKUCngTjLhVtHs6NqEV2UHm3d9skMI+Rl9bkQzAeWKaYiuipxsKqL5tR1sD9TWb8SHh4d3DrcUXEu4tZG80njlRSVlwz9jCPyLp8G3Yj58+q0UB74K3kOugVe/VeheMAvd00aiZyq/hCmGP7+EiU5BTFYcRq7Jwcyf9ENaY3dkp2WjIKcAZSPTMe6GXIzaEovC6kykSWdExSYiNLUQQcX9EVA1AQGV8+Dffxn86q5AwIjr0afxTkSM2yEpzS7Jr59D+gUE/iUULX5N8vUDkrcfRt26t8XVj6Jp8/tov/4DTL3ld5h006/RJtA3bjoi0B+UC+IARmw8gKEb9qNu/WsYuPZV1Fz2EsqWv4BiSX0Kl+xF4VJx7GWvWNsCcW+KgBN0As/XhUtfQ5EF+n4UL9+PkuUHULLiIEpWHpL06XmkT7pdgF8mKV0LfFNqEZhUij4JeYiIz7SevYmOTUBsTDQS4mKsJctUAd+a0PIxhBNAb4fclB1wlQk3YVLAVCbcTiIHJtimCD25IagEm69NsM0cW8ujW3cGNi/6kwVb/44hAT8h3KyE3i46UpMqOWGcdLh0fHpHYVEx8QgIjYZXRBZ6Z9TDt3xuR8oxeCO8B22EF1W7Rlx+NnpkDkP3xGz4RGYgOCYd4ZFyjsFhmHV7HVpvSUNuWSIKpHGlpUWoGZeGUTdEYNCiGJRV95WBKECMgBAon/FLqoZ/QTsC+i2D/6B1CBi6GcGjb0VYy32ImfAwkqY/jcw5kl4sEIddvB9VAlutAD/08iMYfeW7aN3yPibc8GtMvfm3OO+2D6X8/2dp8s2/QtuWowL8m8idvBUF4y9H9bw7Ub1wB2qWPYrqZU/K3eIZy/FLl7+C0pVvWCpZ/rq4+asedbg6t5YIPWEX0EtWHrbgL1y8D/kXyV1CJrIJYzYirHyqtKkKXmHp8I9IRUh0MqLjUxCfmIx4GcSEuFgkxccee/aGwOvgn0gm7KZM2DnGpkzQ7SKgBNgugk23Jid0WsLKn8mM5timYyvcmoZQvNg6A5sXihPYmoYQbA/UFuB9+vS5SM7h/G9VpOB+ZuG8YllBnvC4zuHrLKmIwJ4UH4Oo8D4ICQlFUHQ6AlMqEZBdDz8B0bv4fHhVLkGv/uvQq3Y9elZfih4l8+BdOAmBw+rQp7YawelVCEnMR3hcIrKbfbB4x1C0bciXvD0JpYXiGJXlqO1fg+rKMhTm5yAzNQHJqelIyCpFTP4QRBS1ILhkPPwrp8On/GL49F+NPvU3IGrcNsnhn5XJJyeMr6J02QFUX/qm5O9vY9j6o2i46j1JY36JSTf+BrPu+Bhj1r+CXsGJ6JubhZpqmUgPHoma0ZNR0zIHNROXo3raepRPuwpFU7eg8Pw7UbH4CfRf+zoGXvEmate/if6XH0bN2sOoXnMIlZcdQPmxC8AjcXhKoS+97C2UrTqCoqWvCPBS1+bNiBywAKECfbi0KSJvOCKz+iEiOR9hUfEI7RNkPXsTFx1hPXCWkZZynMsrwAq4SvfbxfHlODvJhJ1AElZCq1Kw1a1ZDlnhe3Rr7qdbd5Zjq1vbwdZURPNrBdspv1bHJtj8C1X8y1QC9/mCsfO/SZSCq83CWRleeTwhC2YF7Im+KkUqk5yUaD30lBAXjZiocIQEB8HPzx+9+8TDO7EGvvntAuBceFctg1fNWgH+KnjVbUavmsvQq2g2vCVnDR9VjvDqIoQlF0o6lIO4pAyroRkpicjPyUBpSZF0oDiJANi/pgq1g8oxbHoehl6UhsTiQIREMr2pQJ/cRviXTod/zcUIGiDAD9+E8MbbED9xBzIv2CMuug8liyUlWcmVmcOIrJgqqVEc2traMHHiREyeJJo4Xraiie1obmywyszN64vcyqEoGT0T1ZNWof+sa9F/3o/R76K7UbNgG/pf8gQGrX0Jw64+gmEyDxh85TuovfxN1Kw5iKpVb8jE9w0Bfz9KVwjo4vAW9Bbwh1F66VsokQuwROpUvPwN5F/8LFLH34KowUtkUt8E/7QBCE6tQlhKMaJS8hGVkIao6DhERYQizvPsDdMbrtWb0DiJYBFMJ5mQ09wILAFXEWLu1/MTZgKvaYg6NqVg83w8txPYTpPHkwXbA7UFeJdwSyHVLFwL5mtWjidkofYKEDpKbxvmrSNOKsMKxcbGCOhy6wgJQp8AHwQGBMA/JBr+UZnwiy8W6PvBK1VSl+yx6F5yMXpUrZe05lp4D75SXHgl/KoWIKBsFoIKxyM4cxBC4rMRGR6BhJgIZKYkIb80CW3XZGDRvjIMW5SO/lVyq5TOLa5KQ7+pUaicJXedfvnIKq1DcvEIBKXVokfycAQN34yIiQ8jbsZuuYMsxTneIVY7CQYHlQPIP9HF3woZM2YMWlpaML69HZMnT8KkCe1oaRyNYYMHoG7wINTVN2LImAkY2joTde3zUNk8DznDZyJt2DzkT75GgH9c5hfvYPTW9zH6ul9gpMwBRlzzHoZvOoqhV76FgevF9VcfQIWAX8IURpyeKrrkDRQT+suOoHT1O1a6kyuT2PQpdyGp5VrEj1qH+GGXIH7gHESXtSIkrQL+ki76evVEoG8vy+kTxWgyUgV4zecFRgKl46uwqRRASu/cFAGmCDePIQN8X2HnezzO7tiaCeiFo2DrhWGmIU5gK9QKNtMQgk2oCbQHalXncAu8FdJo6y/4sFBWgg3glUKITai1Ak5Xl3mFsTJaIetqk0qFhcqVJrdZPgcS5O8tg9EdvXqK/EIkj89G7+QB6J3VBK+CqehVOs9ydq86mbwO2Yzekst7l82DX+FkBOU1IURSk2Rx+9ypmeLc0UiMjkGG1C13cDjOf7gYFz0trtKWhnJx/PSkWPT29sZZURXwlpzdr/Eu9CyZi9N7BuPcc35kfVXfs2dP+Pr6Wp3FNrB97HztC7oTv3Wrr6+3oOcfaGxtaUb7uDYL+ontbRhdPwzVFSVylylB+YARqBo5Gf3aLkLt5MtQM+0KlE+9GmXn3WA5/Yj1+9By48/RcvOvMWbrL1C/+SiGCPCDNxzGwMsPof+6g6gW8Csvo+MfEMcXV19xSKAXhxent8C/7G30XfwiMs57AAmNVyNy4EKEyZ0ovLgNkfkjEJlZg/DEHIRGRCMkyB8RIYFIiI2StDJNICbQ/4RcwSaQCqqK8PIYskEDYGpCuE2wNcdmXynYlJ7fBNvJLMkVTdLJrTW/VrBDQkKscQoODrbk7+/fpXOXSaGf69XESrARhJKDzIIVanVp8+rSSmhF9NbRVYWCgoIsWX/H2d8Xfj694ePVAz7evdHbNxC9A8KtX3boFZqK7uG5OCeuBj3yBPqaVeg9dCt8hl0HnyGb4Dt4PfxrV8G/egF8sxvRKyZJ3MwH8RXe6On3I5zbrSe6R5VYF4vvqFvgP+ZOa+3+9G5+AvbZ6NWrF7y8vI6JPxN0vuZfGyXwrCPrzrawrewLOiAHk0th+nfr6PZNTU0YO7YNbQL+mNH1GDl8CEaNrMeoMU0Y1TQOo1onY0jTFBQPakZSyXAk1IxH3rh1GLDkYYzedACN1x1B09Z30XzjL0Tvo3Hrexgt7j9y09sYcdWbFvz91x603L5YcnumMSUCPXN5Qs88v2DBXuRc+Dgyz3sQ6ZPvQFr7jUhp2ojY2tkIyRoE39AEaV9v6Xc/RISHIilB7nIZqcjJzkSxwKnQcsuLmvDRffm6M7A1DSHYZMd07K7SEDMDcGJKWbJzpPxQMkadwy0FlYr4v8+tAlkJXnU8KQs00w7TpU2Y7VeXE9DmHyWXq82Sn5+fBRC3fn6+8trHAtzHW+CS22zvXuLs3c8Rd+2Onr390TMgCj1C0tAjuhg9Egehe3oTehTOlsnrWngP24regzfLBHYlepQtRI/SBXIxrIQ3HxUQt/aqXo4fRVfgzG7e6HbuOTLAHWD37i0XVBci5LqlfHx8rDawbWwz+4IDxIHjYHKgmYvyoSH+buCoUSPRMHo0mpsa0dbagtbmRoweORzDhgzCkKHDMHjEGAysb8OA0ZPQv3k2ShrmIHekpDhNK1B6/o8xdO1z4vLvYdytH6D1JoH++ncx5lpJd7YcQb1AP1ygH8I1/vWHULvukExuBf5Vhyzo6fbWyg2XKhfvs9KbjOn3IWXcTUhs2ID4oUsQ228mIgsbEJZahtCoBOvOGhsTJRdxR5sILFMQnThqjk2wzTREwTYdm2BrGmIH226YyhfBNk3SBNtkiWNAdQm3XD1FUtBf9fbAwnkb4UlZmMru0p05tJNLO0GtYFMERuFRmI6T5awCY88eHalMr57o2csLPb180EOg79Y7COf4hOPcmGprktq7/2p4120SXYUe+VNwZnA6zjjHS5xcLhI5R1dQm/VgvbSOlNZbxbawXWwf28q2sx/YN+wvdXkCQLej8+nvDXbk9Q1oFI1pGI0mmby2So7f3NKK1rHtaGufhGGjW5Bf1g9xmaWIKx2D3MYVqJl/N4at3o2RG1/GmGsOouX6o2gV+FsE+uat71juP+baI2gQ+Eduegt1VxwW6DmxPYjyy6hDKLtUwBfn57exBQtfsJYr8+Y+idwLH0HWtLsRnD0CYTLHIcS8UAm2OrY9DTFTEbo1wdY0xCkVUc7sYNsN0+TKbpImSzJG0z0ofzHk5EVS0F9YGAti4RwQnpSFEWiF2p52nAho8wpTIBRmVWdAa6pgimnDP9WzQ5JG9BJge9LdBfgeAny3Xr7o5uXXoR6yT/JqHsOLxF4OZcKsMmHWjjRhpvTWqO1mH1DaJxwc9hf7jX3I/uXAcqDV5QkOn3keMmSI5fRWXt/QYDl9s6Q53LZIjt/S2oqGxhYMHzUGwxra0L9+HPL6NyKxbDSSBpyHwinXoO7SXWgUsFuuf+eYmimBvskC/x00yPujrpE05+q3ZWL7JgZZqc4hcfvD6LtwL0KL2pCa/c91bnVsMxVRxybY6tYm2E6piH3e5pSK2MFWrii7Ser4yPhN8qD8xZCC+kohn2hBLJhXG0/MwlRmoVqwFq5AmxXQSlBfBmqqa6hPJMmZZXtM4vhOZVBaBxNs1tMOtranK6jZF7zYKfaPGoDCTZlmwb6mY1EccE1rCA5BIliEnqs3HenNKDQ2dkxm29parVWcCRMmYNKkSZgoGjpsuADWF0npuUgpq0fe6ItROeN61C68D3UrHpNJ7AtoYF6/5TCarnvbgr7lhnct8ed+ix6EX1yhtDfQqoOZipwM2Kw7wTYnjzqPOxmwzWzA5EvZMsHmuOh4yThO9qD8xZDOzZdC/ocFqbuwozlgOkBaoA6eWagWbBauFVCoFeyugKa+KtDm51RO56dOBmjKDrUT0Haota/sQCvUHEhKwWZfc6A54BQHnxAQBkJBOOiChIipANMadXn+dSa6fIOkNB3At1l/NJLr9RPGj7d+bm5uQkNzK/oNHoHMwirEZlcisbodBePXyyT2IYzc8JIA/wZyWtda85kYqSMBrrGBramImY7Y82uF20xFNL+2g82228FmX7HvlC/TNO1gc6w8Y/iZjN9YD8pfDDlpvhTwEQthASyUHcsTsyCFWgvUQqmThVrBdoKNsoPpBHBnsn+WciqDOhHU2obOoNb2UybUplObULNPFWr2qwk15QQ1RSgojgMhIeQEhiLshIqQ0U2ZC+sv39LlCT3/QDtXbrhOP3bsWMvhp0yZjGnTpgr47RhaNxilxYXILihBQnY5YuKTUdi3wDoHlzx5EenEUR1bV0XsE0eFW1MRBdvJsdlmJ7BpBp2ZpxPYHDsZzz+INgoDIR6UvxhSSLYMxm/0lsDCWCGe1A6zFqiD7wS0CbPKBIxyAtIObVeyf9Z+flNfBWiF2gTaCWZu2W/q1Ow7igOnQHMwT+TS6nAKswKtUBMawqO3fXVKinAxLSBsdFSCaAKvqzb8G9cKPV19ypQp1gR24IBacfxx1i+H0/l5QVD8DD9PyAl1Vzm2mYYo2Dp5ZFs1DTHBZj+xz5Q79qWTY+v46Lh5eHpPxv08wbfr/1svJ8+SE/9KrxwWxArpAOuJTQjsBVL/CagpexkqrYMT1GZb7EB3BjX7h2L/nAhou0Mr1ATaDjVBMB3aBFqhpuwwK9AUgVMRQF2aI5AKO9MMOjKdmdASdro80w6mN3R9ihcF83srl5cUh5/lOfW86tisi+nWJtjq2E5gq1ufCGzlTE2TknH9h4z5QzKuRR58uw4pJFNO/L6enAPJyvDELIQDwEZw4Pz9/NG9O5fTeh4HEKU/K1ym7EA6gduV7J93KoPSutiBphRoSmFWoNmhKgWa6gxohdop7bADTXGgFWgTasKgUBMQ06Up06U7A5rAKXwU0xWV5skE3C7m7oScnyfgBPbSSy+1wGbdzb+4ymNYlh1srbPdsc00xA62Qm0HW/vfCWyOpYzvxzL2m+XnCA+6Jw4Z4HQ56VGemIPNwWVFeFK+5v/+u+nGm3DFhiuwdPFSTJ061br6WVEusZ1zzjk499xz0a1bt47fOjfgUxidgO1M+hlTej4nKczcakeYKYfp1CbU2plsowm0k0srzCbQlALNwVOnVqBNh1bZXfpEQJsubcLMrcKsKYMJtAKsOTPhVTHNoPjNKsVz81iWS+fmOQkoV2soLY/HsT48TuvKNijY/AzbaDq29osdbPYrxb5mn7P/CXVnYMvYHhJDbZTx/nL/QUEGOk10RE/MLSvCk7LQlStX4qV9L+Htt97GkbePYMuWLVh+yXJcufFKaztzxkyMaRhjdRAbRODOOussC3p1ecoJZNWXhVnFOlLsBMqEmmJ7KAWabTOhVqC/DNTq0ibQbDdlTzsoJ5emugLahFpdmpBRJtR2lz4ZqCmmGgSZqy48N1MWfp7tYX15PI/hluUr2Kwf66qpiOnWbKs6NvuC/cJ+Yn/ZwWYfK9g6HhwfhdoG9oMy7uUeXL9cyICnyknf1CuGWw4mT0wYCPczu5/B4sWLrc5lpcpKy7Bnzx68/4v38d5771ng79i+Az+986e45pprsGjRIuu2xkYSQsvhz+1weAXeCequwLYDrVDbgdY2KNRsgxPUbIcdaBNqyg60Qm0C7eTSCrQJtenSCrZCbQKtaYcT1E4u3RXUJtAKNcXXmnbw3NynOTnd2jzOBJt1dgKbbbeDzX5iv5GlzsBWx+Y4cbxMqGXM/1d4WCAK9qD65UNOmCRAHOCJmVoQOlaEILFg/nvi3U/vxvBhwyGHWzrttNOQmpaKK664Ar/73e/w5z/9GS+/9DLeOfIOnn/+eWsictVVV+GxRx/DDTfcgHVr12HOhXOszqRrEVYT9M7A7gxoO9QmzF0BbTq0E8wn69Am0Ao1B5lSmNlOE2jTpU2oTaAJ88kArTCbQDtBrZA6iZNI5tcsw+l9iudgPRVsbQ/bp25tB5t9pY5tgm2HmuNigs1x1LGVcT4oapbPO/89kpMNwi1gvcFCuRzE5SJWiJCz4NWrVlvgbt++3Voq4kCxIoTyggsuwPvvv48//elPuP32263GsmFMScaPH49Dhw7h3aPv4uOPP8ahg4fw9K6n8eQTT+K+e+/D2jVrMbZtrDWo/AwbS6BZrhPYdqhNsE8WaupkoaYItEKtQH9dUFNODm2HmrI7tAm1An2yUKu4WsLHd7uCm+dknVl/toVtU7emTLDVrRVs9iX71QSb6gxsjifHWcb8URn/LEHzhx2E/gshJ44XB32ZhS5cuNCCkpVgKsEKrF27FocPH8a7776Lt958C3v37sW2B7fhnrvvwaOPPIoPfvUBPvnkE9xyyy2W+8opLZ1++ulWB/DYzz77zHL1Xbt24ciRI1a+x3/qs33bdjy751krpbn3nntx+eWXY/LkyZZDsQ5OQNuhNoFmG5yANp3aBFqh5mCYTq1Qc9C6cmlNOzjoCrUCbcJsAm3m0SebdijYXQF9slCraGL8ZpPlOb1PsSy2h+1i+5wc20xDTLDZx+zvk3FsD9h/FF0ir30tML+OkKskVq6WfYSZE8Gzzz7bKlxz4tiYWAyoHWC5+uXrLsfdd91tAfnqq69i34v78PP3fm4582uvvYZbb70V559/vvWcMxvNjqGjE+6jR49i4oSJVmOkWMuVmZvv27fPytn/8Ps/4NVXXsXBAwfx4gsv4sEHHrTy9wsvvNDKDznY7Fh2GDtJ3ZpSp+4KatOpnVzahFqdmlKgTwZqyglqAu2UfhDok4FawTah/lfApgg3v8xheU7vUyxX28j2st0nCzb7W+HuDGw1K4H6qPAwTrj419IQe8hJYwTwZ2X7d819WRHCrTJXPFgpVjgtNQ31I+qtvw57x+13WC7+/N7n8fLLL1vw73pqF5579jkL1r/8+S947933MGvmLAvuH/3oR5azn3rqqZaD867w+9//3kpbdu7ciTVr11juxwuKKREvIqY1nNjeduttWLxosQU8jyGA7FTTKUygtZMpdeoTAa1OrUBzUBVohdop9TgZoNWlFWoF2oTaBNp0axPmrwK0KfY700yW5/Q+xfdMsNkX7Bf2kRPY7F8T7M4cmwxQclf+TLh7XLbJHhy/3pBCvQTaiQLvDaKHBO7XBOBfipP/iTATdoVcpbBzQqgTQzaouKjYWhacO2cuNmzYgJtvuhkP3P8AXn/tdbyx/w0899xzuOuuu7Bs2TKMGzsO/Wr6WU5/9J2j+PTTT8EUhh0o1bLEDrvkkkusdOaPf/wjfvfb31kT1gNvHLAunquvuho333yzNXmdPXs2mpuarU5nXdjJ7HTCRBC45UDphaCQc4AUaBNq6mShVqf+V6BWoJ2gNsF2gvCriHBz4s/ynN6nWC/tg67AZl/awXZybE1DPGB/LI69XuAOsED8huLMbt265QrEF4juFoj3iPbL65+LPpLXXKKxJn3q9HoBKPAU0xzuY2OrqqswY8YMXHnllZbLM+XYsWOH5fB0dub0n37yKZ568ilrksOOYkcwTZLGg38c/6OPPsIHH3yA6669zvpiiWu0dP4VK1ZYzs+J6+uvvm6BpS6dkppiLWXu3r3bWqbksa2trdZkink/B4+gEmR1cQ4gB1KB7gxmM/04US6tQNtTDyegFWa7UzvB96+I+TafL2GZnZ2f9dULnf1iT0U0DTHBJtR2x9Y0hFAzDRGwj8i4zvTw9h+N0wXWKAG4UuBtldcXyetNAu6Dsj0g278QQLsIv14ABJ0OT/jZeILCNdWW5hYL+uXLl+PWW27Ftm3b8NSup3D/A/dj06ZNWLBgAebMmYOHdjyE//nof/Cb3/wGS5csPebsFDuP5+DdYf/+/RZY7Gh2POHkhJh3C0LNp+P4HyTmzZ1nnZcrNlwNouu3j2u38tDysnJrMOlQHFC6Fh3b7tBOLn0ioBVqBVuB/iahVrE/mPaxPKf3KbaBfaBgs08ItqYhJwLbzK8pD9j3iGMXEqxvc5wm4OYIsFMEcN5ebhOYHxK9IK9/LvqrNOTYpEHFfdK4Y+ATeDp8eEQ4KisqLQA50VyzZo2V1jy882Ern2fOzWXH++67z3IdTloJGuEmBMzH97++3xoQdjqdhRfR2nVrsWjhIutCILR0K4LFOnCdnncDfgP7xONPWJPfDZdvsC4qioPPXwmrrqq2yiLodHG+Np1aoTZh5pYQ87Xp0Cp1TBNoherfCbWKk0maQldlsU2arqljm2mIgq1piB1shZqOLf39Wxn7q4SLbzQN+VpCGnqmABsooHLdvFIa0iQNmiPb66VxL4j+rI1lwzUP061ONAhdYECg1YEZ6RkWrHyWhY9hMj9fv3497r33Xuz82U4LdKYp/IdVBw8etJybMHEAOBh0WgLMHJ+p0saNG8HghZCelm7l8/wSas8ze6xzE1Q+UDRu3DiMGjnKcvc777zTmsSuW7fOSmt4HB8jJdh5nj+PQND5WQXbdGdunRyaUH0TEHcmtpF3rK7qwDZpjm2fOFJmfq1gm+OpYAsDL4uxjZb3nP8Dwnc1BPhu0qgkadxAaexEaewiafzVsm+7bA/LVf43dox2ELcq0wnYaX1C+lguQjhG1o+0XP6i+RdZ6QXzcq6982LgYPA4OuzmzZuxavUqy7kL8gustXzm3H2C+2DN6jX4za9/Y+X6PCfvJrwQrrryKgt+5t7W2vzbR6zlydtuuw033nAjrrvuOqu866+73jqeEzPOARRmdWY70N8GqFVcKeEyq/7GjdMxvGjNiSPBpuxpiBPYhlk9IHDnd9DwPQ+5rZ8uV3136QTpi+AkUbF0TKN00BXSWXtEH4ob/JUdSPdWacfyNd+j+DMhZqpAJ+WAMM/WPJGDwwe8mLPTeRcuWGj9ZgrTi+ioaGuV5dcf/NqacA4cMNDKrblu/+kfP7W+TOI5HnnkEWs1h3cL/sxB1ueemUZxVWjvc3utL6D4XIY6tRPQdogIlsrc/02IxsA7U1dw865kgq19r45tNx/TsQVofimzTO7iQZ6h/+8NcdtzBfpg6bgkUYWoQX6eKx36Y+nYQ+xkOrKKt0snMa/W5StCz9y8rbXNWmNfsniJ9egu0ww+AsBHAX71q19Z37oytz7j9DNQWlJqPefM9Ig5O3Nxws3UhxNlToK5ykMHZxlcueEFwSVJpk90bTvQJjzV1VWoEVVWlKOoUFKb3GxrW15Wau3/JoDnRciLl87t9L6KaZ1CrWmIHWxCbQdb7tIHBe4GeX22Z3jdsMWpAvEZ4hrdpEN9ZRsmLj1UbpOXyv6H5fVBgfm34qZ/Y/qgQOt6tLkmTXGg6O50VQ5uQ0MD5lwwx1or50SS8DLd4AP749vHW8ePHjXacnU+MsCUh4PHNfwPP/zQujA44TrvvPOsb1/5+AHzdZ7fCeoygTc3X3LYzGKEp1QhInsE4ksmIrFyOmL6NiE0pQYhcfmIScxBanoWcrKz5fx9rYvFBO5fFevElSpOlplzOx1D8The3ISasqcidsf25Nefix4XE8iQ8fvXnw35L4tTBdTTRWeLQ/sKzNECeo7APVZe3yhAHxF9Jvq7DMzn5ro0829ueavV1Y7Cvh0rHHRaThK5FMhcdMXyFRbsXKlhysFHC5jacFB7e/W2LiIONFd55s+fb62xcymTD//zXCYk/E8VSSnpiMwdiezmm1AwaTtKZu5C2ew9qJizF1VzX0D1vBdQM+95VF/4NCpmPIzSyfegoGkTkiomIzg2DwGBfcRBY5Erdf9imuOcUnQmfoZ3M95xTgQ3TUFTQLtjK9jq1gL1J+LYS+W9Xp6xcuNrjFPr6+t/KM4dKPD1l4FZIDDfJnA/KTC/KfpYwP6ruPc/zOU7ipNQSpfydLXDSmna2qxJ6Ib1G3D91uux9bqtWHXZKmtJsXFMI67dcq3l7Lf/5HZrUmnCzb+9F5tRhbiBq5Az+VHkT3sSfac/hcIZT6N41jMonf0syi7Yi8o5L6Jq3j7UzH8Z/S5+Bf0XvIraRa9jwKL9GLh4P2rmPIOC1huRWH0hInNGICazHxIzSpCWmYec3I7lyNKSYiu1qbTKr0S1AaopQsv5AsGeNWuW5wJxPo53QUJ9EmC/JWqh8XjGwo1vIpjayGCdI04dKmoQEG4UoA+IfiVAfyT6VID+v5KSks91MshUwEnMg5lX87kW/tdlPqvO3J3PrfM3lIYOGXoMbt4V/CJzEF8vufm4HaKHkDH+Z8ia+DByJj2KvCmPH4O9aOZugX2PwP4cyi58Xhz9RVQS9osIu4C+8DWB/A0MWnYQg5YekNey72I5ZsZOpA9ZjtC0QfALSUR4TDIysvuiuLQCJaX8e9klKCuVO1N5KaoEVs3j2Qbm23TvruDmHYpQm6siBFvzawH6fwXupwX4cE93u/FtCIE6QIAuFU0QuC8TsG+T7S6B+LDo/4k+tw+2bgkwpRcDYWcOT6cnQAUFeQiMLUDkkOuQ0HSfpaTmB5Dc+iBS2rZbsBP0TAE9e9IjyJ3yGPKnPoECuvp5u1A0azdKzu9w9Yo5L0jq8iKq57+EGo+r09EHLHkDg5ceRN3ytzB05TsYLOBXzJTzjb4aSf3mIrF0PJIKRyE1vz/SskuQkZWD7KwM9JW6cW5w0UUXWV/imHcaU2wnV4cUajq25teeHPtDgXuV7PPydKkb3/YQ2P0F7JEC7SYZ+MdlkF+Q7SHZ/lL0Rw68/jqWOqECz9fl4vBhUQkIq74U8U3bEN94P+LG3It4jwh6YvP9SGp5QEDfhtSx25HeLq4+ocPVsycL7JMN2K0UpsPVy5nCCOhV8z2uzvRFXH2ApDB09sHLDmHIircw7NKjGLbyXUsD5b2+bbcgpnQaAuIqEJ1ShIGDBlupFifDXcHNVSlCbUtFPhcdFvER1VM7es2N72TIQPsKAOkC8kDRFHl9mQz8j0V75L0PCDhBp+jc/L9BPf2j4J3aguCyZQgftBkxo+9GXOODArqIwDdxe/9xoJuuTtgzJ+y0XD1HQM8zXL1YUpgSK1cX2Oc874FdXF1gP5arS54+SJ39kkOWs49Y9QuB/j2UT7wNg4eMxNIlSzBt2rQu4ebyK4E2wP5MHPsecWz+powb39cQKCJEdQLBfNFGef0TgeJRmcTuj46K+Ij/SSIyLgORGbWILBiLkIIpCCqYhcDiixFSsxZRw24W4B9AQstDSGjebsGeKKkLZYc9Y/zODlfXFMY2MT0uhZm3z0phODH9p6sL7EslZ5d8vXLa3RgyfAyWX3LJsacC7WBThJvr24TaA/bvBOrVsu3j6QI3/ltC0pme4t5hMlnLGTx46OCaqqpJJUX5l+flpj+cnZ78fnp6+t9SM3KRkN4XkSmlCEqohHf8QPhljEVQ6SKE112HmJF3IpapS/M2JLbuQGLLNsnVH0Ryy4NIJehjxdVlYmq5+kSPqyvszNXp6ufv6XB1mZjS1a1c3ZPC9BfYyyb/FENHNGHlyhXWFzmdwU1H5/q2Z/L4mmxHiGu7X8q40RETJ048va6uLqy2trZg4MD+w2v7VU2tKitZWpCXeWNGSsKzKYmxH6emZSA5qxjxOQMQkVmHwLQR8E4ZA9/c8yyHjxl5h+Xuia0PIal1uzj6dsvRmasfm5hqCiOg5019XFKYJ8XVPSmMBfteSWFesGAvnngnho1sxurVq6w/mcZVoM7g5kqJAH23gJ3naZIbbnQeMhk9c8SIEV7Dhg2LGDJkSGZNRemAspK+84v75txTkJ/zdl5e/kfZuQX/l5KRj8iEXAREZsMnpgIBmW3oU7EUEYMlh6+/DQmN9yGpbQeSRcdgb++A3VpulIlph6s/Ybl6obXc+Azyx/0Ew0e1Yt26tdbzJZ3BLWnJ3yIjI9d8Jx9RdePbE/X19WcI6L0lpYkY2K9fdk1NZU15eUlTYUHOZfm5mbtycrI/yc0vQmZuKRIzSxGWWAKfqGL0jBmAgPyZAvzVMjmViWnbQxbsqZ519fR2unpHrt7h6k8gu+VWDB3ZYsHNx141LeHEWFd/PHD/uaioyM2v3fj6Y8mSJT9obW09S9KanoMHDw4sLS3sW15SNL2srPQmye+fFfDeyc3L/yQ5NQvh0YkIDE9GQEIVgnPaEVqxGJGDNiJ+1C2Srz9wbAUmY/zDSB1zM4bUN2PD+vXWM/JMP/jMDb+N5KMK/IbWA/inUu6X+9t8brjxVYPA0+Ultek+dGhNQP+KihiBsaqirGxpWVnJrqKi4k8Li4o/y87t+/e45Mx/BIYlfN4jIAG+iXUIK1+I+NG3IbH+OtQNb8LGKzZYvyTMVRFOHJcuXWp9y8pvJT2pyifu1+lufFvi1KampnMktcgUja2sLF8jrny3gPpCXl7eB4lJSZ+ER8b8X1hMKuqGDLOeQ+efU6NL8zFhPgFIB+eWwMtn/8eF241vdfBhMoG2mwBbIiAvlRx718CBA9+VfPvXtbW1HwvEf5b9f2N6Qqj1m1d5/Vs+l+M5jRtufDdCnPxHhYWFKXzMQCC+QOC+QvSgQP2S/Py+vP6r6APXud343gShF+cuFRdfKA6/ka7vecsNN9xwww033HDDDTfccMMNN9xwww033HDDDTfccMMNN9xwww033HDDDTfccMMNN9xwww033HDDDTfccMMNN9xwww033HDDDTfccMMNN9xwww033HDDDTfccMMNN9xwww033HDDDTfccMMNN9xw47sbp5zy/wE+bUNS1L3bOwAAAABJRU5ErkJggg==;fontSize=16;spacingLeft=180;spacingTop=-50;" vertex="1" parent="1">
          <mxGeometry x="475.35" y="440" width="93" height="77.75" as="geometry" />
        </mxCell>
        <mxCell id="GS9lPfkHltT3G8b4393Y-6" value="" style="shape=image;imageAspect=0;aspect=fixed;verticalLabelPosition=bottom;verticalAlign=top;image=data:image/png,iVBORw0KGgoAAAANSUhEUgAAAJEAAAByCAYAAABTCDMPAAAAAXNSR0IArs4c6QAAAARnQU1BAACxjwv8YQUAAAAJcEhZcwAAMsAAADLAAShkWtsAABH6SURBVHhe7Z0HmBxlGcexYgcbKjaKBRvYFRsqFnwsKCbc7cxeDg0CFhRFQURFiiAtJAjk5pu5XIgRpcaoRFCaqCgkkOTmm9nLQUSxRKRIwBhBNP7f3XfvZmffnd3bnZmd3Zvf8/yfg+z7zdfbzFe2y0keQ3mXmLa3DSqZyl1gjHrv4Z9ysoxhj7/OtP0TTeWtNxf97in8z6kz6JR25gIUkr7PsL0L2CwnK5hL/NeWC46tdU2GKf8INkkdFJSjasISlPIenmut2YFNc7qNofRJYkZB+M1ls9Qhv6UwkdDNLWWznCxQsLyPShlVFcYhH2DT1DBG3HdJYanKsPKxUeYwbL1ByiwSWoQVbJYa8PeKcDiqQjfnsVlOlogcf1RUZNPEKdj6E4L/U0KBP4ZNc7JEwZp4hpRhAd1xiLXmCWyeGHPOvOHxKNB/Evyf0sAS9/lsnpM1MDNzpEyrCt3aQjZNDMy6zpD8npLSi9g0J4sUl922E2Y9/xAzj1VU/jw2j51m3RgK2N/MRZNde2+V0yIF2/u0mIFBjfgfZPPYMJT7IdGvgNASforNc7IOurVfSJlYFcYsW0y1/s1s3jHFEe9NeO6WsD9BoQBdxeY5vYBpuW+QMjIozJA2m8ovsJO2wXMMFJDNkh9BFRx/b3aS0ytg7HO0lJl1Ut4CdjJjaKAuPjMsx/8SO8npNQpKny5malhK34IC8dn9Fk1uz04bss9x1z4a3eWhsF8tPiskDPRPYac5vQoycYmUuZJQMO6n5RponQ6kLnHofP/pxnnjTx1ySq9HdzSIwnM6bCJnf7XSDgcjp9fBQHqlnMnJifxk73P6geOu3fZo0/LGpMxORJY7doi15jHsfVugFfsqBu3nFyz3450+KydGiq28Q+pQ6D4PY+86AuO0vweeuRUF6sKio81uLrLraQaV9wr+z46h8Q3GNTcHMz4WKe9Gc2T9a9mbjig2efPNZjnNoAEtuoXPoAZeX0485V3EP8UCTbtRw/1wBs1cepJeJ/BjYwHP/VW9PxUhPa5js5xGFBzvo2jKfygm4JLSq9gsNkxHfwQt048l/yKl9Coar/BjYqNold4i+scyHG+ITXMkaAApJVxVBeVabBo75qh+Ob3/QeE4lVo9+Lcaf++BHsB/r8Vs62J65wPNH7TH92RnsYMCPRqMc1Bohf7KZjlRIJNsKQGnpNY/j037joK1JnJNFArYSWyaEwUS6tVSAlZFrQGb9h2G7UauzjRGx3dj05xmoOuobvirl/LuLy5b90Q27RvKn1OUnhTjTHLinVj0PYZTitwpYSr/cjbtG1A5FohxZRlW+jtWeh7UymukxKxqyBl/PZv2PGhl9pXiOCXlrWfTnJlg2P4BYoJWpbxfs2nPg1lX9MtPx/sCm+bMFCTg2roEDQiD7BPYtGcxlHuCFLeqEMdr2TSnHUxLf0RK2FqV3snmPUfB1m+U4xSQ5b6BzXPaBVP+yNWDmMmtY9OeA+O+X0pxCuhbbJrTKTSwFBJ4SjSmYNOeAd1Uk8Vyeg2b5sSB4UQfjkBCi3Qmm2ceFJDFUhyCojizeU5cIOFPlBK7Rso7g80zS7PumWRYbiwVgk4eKSzxXsz/m0OgtfmNlOg1ynBBQvi+UxfekNDNTRx33LZHspO2qVkNoPTlBcsd5J9mN63sJytL6dPZSWYwHO94MaxBKe9BOteInXQE0mCZ4McmjB9Pm7d0w3PZbHZSLO+6qEucOqHbOPfwFrYApQFa0HOlMIZVtPV+7KQjhsdKu0jPrwoF6Sw2nb2glhWkxAkLXcOt9K6JnaWOuVi/vKUuGEJY92dnHYPnRXebTumlbDq7QW0yxAQS1I1WCeE7Ev5ulcJTJ+UdyM46Zu5F+rEouI33xin/h2yaTQZG3N0RgbOQKA8XHe/L/M+JUVDaFBNKUFqtEs2IUIB+J4VBUtzLXZH+n5f8qSquMVfsFEfdvTAFDx0wpe+jxfZskhjFGRQkEgrTzw3bPYCdxwZ1R4hz5Gkk9fIPZuexgUI0IfuFuNv6ejbLFhifiIvqy0ppug2/inV+N9d4wdbf6GSbD7orWoX5LWTcutCzmwoZegg/JjYMq8nKSAwB2DRbICEbntVMGrLdl7FpomDW9kqE5edSGJpK6Um0JEvw90tF239vUU3sOmf0lmcOj93+uO22bXsE/XfBmtijYI3vg4z4Ivz5HtTWdiP4s44+vHKwY2Pou/7TUZgbHnGD8N7GptmDXmJJgQ5oOZumAjL5SCEMmRAK0FIa+HJQYwXxPkvysyoq/GyaTZqNBdIezJVbJdu7UgpLd6Qn45yBhaH4yv5WpTWbZhfTdt8pB74iNKVdOWqOdrlK4UlThuMnvs0nclwK9cwnDxonSBGYktIdH23XDkPKfwlagQXw/19iuBIQuo5/oyU8k8ZWHIzEKDqlj0thmBJmo2yafTDo3EOMBAuF7Pb5tn4am6cOnaZB+7qQwb+XwheHaHptKPfrGJDvyN4mCr1CgZ+RB6/TZIDNewP0vdHH28V8KEO7mMp/c+U+NH2LGM4ZCINlH/E6OYkZVzPg//nh8IR0Ppv2DsNnrd0RLU70cXTK+wqbZ4KiWrdrwXY/jBbqGNPxvo/w0SrKjajhd1a7QPx2N7QB//Yb6DJqbejmokF7/Fn8mNRBhR2uSVdBA+jK2by3QGK3MMXuncX1caztiZuBc93nowWMrKxGCp+dEgW1ZJUUsaqQABPFZZv6bit0WqCF/IuUrtPSq9i0dxmy9AsQkbvkCFZEszk2z5kB6G6bXEDjPWg66/tjqUfRcqOnnhDGF59n85wWKNr6c1I6BkV3m7B5f4Bu6xQpojUacd/H5jkRtHQBje1dzOb9BQbaV0kRnhKtK87vQ42EDj5tOpDGbLJv106jCX4RIhh5gQrGR1sHlX43O8kJQG+9Mb6svaZdUr+36PTJQ4x4QChoW4ZG/d56u5owVAGRNqVwWoWF1j72tUlVaNxKlRx5eGrXWzp0W5GHOLEegN3b2cmspvIZKeLktKoc72R2EjvlmwiUF36dcI55XhdnfzStDwWoTrDZbNjuW9nJrKQ8BmrhGx9aiQvYSSJgHPZ1yV/WGJulD0r294UAhXWvocZjud6g1zAc7x0oHH8U0qRGKGS/nXvRtkexs9gp37CkvH9KflekJ9m0FjreFw6/i0gcxf+UCAjED+oDJUi5R7CTWQGNbcR0CAn5c9Pcc/Sz2VkiYAwU+THdUO58Nq1wiLVxB+pbEYn/lo0w7T5oya2J3t0Ovy4MB6yBliPBnsTO+pYWx4ykGwrWxDPYWSIY543vJvgbUODYG2oOC8r7Gn64L2yIkraUzRIDNerisL+SYDfRyyeiRTFob3wWMiXyW2NAv0pjG5ZpuUrwe1pKz2FTZKLSkeuQC8p9P5smBmrgpZLfopSbqWUknUK3CSEPpq6kihJa7us+6ZSezE4TA+GJPIweuppNKzT9vqW8G9k0UVATfyT6L4i6wW6u44mDAbXuJWhdL5Pi10BXfMha8wR2nii0zVrwf0q0pYpNp0FkGp9eT1J+KoNbFNjor9O1osVix7LTngKV4EjE9eFQfBoK9gvZaeLAr8jzDdBKrWDTWujkCsnBlJT3APXbbJ4oKNADaJXqxmcNpfQfELFPsfNMYzj6IKRl5NmTYWGmnNprjjm2fhoK0V+lcFRVHPHexOb1IOOij7LDQItNE2feiLs7wjOjPe0ofDfRrgd+RKZAQZiP+DT/9hUQKsbttA2LH5EKCGfkQaT4vflECxlxm+S4qrQ3ICLQzZeRhFVumbzj09iqEwW9HjEs78soDA0PV2gopS9P+h1QGIR1rhgWFsrGQ/Qdj80b06w/pKY47VuR6WZD+NvS7CUsRPwyFKj951x4x+P5cYlCNx+Z1vgn0epcIYWnuagb14fy41KD3sEhraLfkCt9OJs3B5H4ifgQFgraKJumBi+1bfU9SiNdDR1bcPy9+bEdQ3vqadWBYeljUNDp+s//BPybofQyc8R/Dj86VVDRRuQwVTXD9dqDjvca+UHT6tbySzpTCP6vCYdnxlLePagM1yPxaAxwLG0xphuqaZkDdSN0++Hw2NodqYbStLqw2Hsxveg07fFiQemjUWvPhlo6Qq+plLex5sVdylBLLYYrKEy82Lx1kMCniQ8Lqov3TSDihyGMkbs+sy7EYRMK4lFpDw+CfGJ08pkYs0WPg219JJvPnGY1DQ+/mc7tYfPUoc81aGa/iZr8oBS+rArp+ifKmCzsZaMBvBTGafm/YNP2MEbWvwoPis4g5SV2M3SrYFzyJN4BsboufJkSpuwZurMMedf0Y29xdMNebN4+9F1HenhQWXrRV16Hg3EOantlJUKXhRZnM8Jji58JuggNB6Tw1kp/lc07BwkReYg3fv8vDcbZPBPQV26M2T6DwkSfc+4NhzlJUXqgll8Kvwe62d03gt71SeEOCmG/ks3jA4lyo+RZVfRCbWCJm+jao04oWu5bUPtomWfknbLtSd+FRF9JNZeOcOnmQLkZg05pZ3oZK8eDhd/Jjp3EB7U05RomecpCQVqd1pk8nUCZXBib2KO8EdDyvoACcDYSbhXiRyd+/BEV5i/4eyf+0muAzfjvLfzvN+DvxYjnQjooAW4K85T3Cn5sT4CwNz0UNdGvEjT2kTytkfKuSXLNb077oEKMinlWoxTelqOQWLLn00JtXcnmORkB+RK9SpGk3AVsnjwo0deLgahVqkcO5zQGrUvzGx5t76dsng60QNy03chrxivSi9lJTpdAPpxTny+1woTjVjronZ2kBx1PR55LgQrKsP3T2ElOymDgv0jKk7AKln4bO0mfQXt8T4yR/iYFLCg0lWezk5yUQL60tvWoi/fATcF3jG6pC1xImNmtSGtNz2wHad3SDY+mGv8YO+k+tKVIDGS9VtOh5OwsJ2ZorIohxs+EdK9XF5eeNIQCJQY2LOr+HG9fdpYTE3R+Nr0sFdM8JAwvBthZ9mjlY+20/GF2ltMhBccfRMF4SE7nWqGgZfOusyBF5c+TAi+JvmWxs5w24e3vYvqGFfcVoYliOKV3oYBskiISFmrQBcNj6e5q6AfM700+BQPolneRYNw6j532DrQmGQXkJilCYSEx7i72YiS7BMaVB0J3SGkZFvLg9119D9QpdO0lItv6QQ22t7x43rqd2HlOiMptQq18RK0IBejqRJZ0dINW35yWVTkdo8hOcxgaPCNtmlzDMC207jY77R9oJ6gU2cbSy4at8T3Y+ayFvmlhfLlUTiNZaK2OYef9B5rXAUSw6dvtael/031kc601O/AjZg10uZ9p6RORXkgDKW3qhfR9iNKYH9G/VD7c6hVSIjQSEmYzCtQ3yleL9zn7LZrcvnyPmtKRB8eHBfsr6SJhfszsgHbQIuJbpQRprPJa5qOyePdYHGAS8hUeEwpxbyT9P8P2s31NeZIMjLi7o79fKSdOY6GJ/zNq64pePymNMBzvhTSGQeWY8W7e8neydrY39yNokT6LWtjuLtZLsnomURTl2VaTgzMaSumHaYMBPyqnSuXAhDYTFUJNvhM1emHkKV5dZhBho9cdCOfdUhxaEeL5U9Mp9cdleEmBJnp/tEq/lhKwVSGTboZOo2fRifD86NSZs3jtc1FoCphhLkZYfCmsLQtpQvHhR+e0AhLtQHRzce2tX2va7jnUhdDlu+xF7NA3QLQUA9C5aFVndLRehFZTWrAXOe1gWO4QEnFGB2U2Ewrnn/H3BrRWF+LZZ9AhC5jhHEBH5VBBoLOJ6PMLnVM06Ny8M11TQYdsDSxeu8s8e2LPSmvpHgE3C1FgVqK1Gccz7w/705nwzF766t4LIOPmI6NmfvZhj6nS7fkHc7RzksB0/A8isZejBcjEqR9xCAVnKyrIaDG/dTJdaD0NmvxDkQnXhTOlZ6TocAn34HwDQwaoXLCrT8LYZKOYWdlSCWOxb1OYOfg5WYNOd0P3cJhhecvRUt0uZGLa2oACbtMEgQbnHMycXoJP5h9GZqrKoFXM6FiEcdoWmtqjpRklP4fHSrtwMHL6icMXTW5Pp8LTOnBzRA/TF3OMTSxk+iq0GC7+3oW/d6LAbUL3SIvA7sDfP6CA0F2st+H3Sfx+FX63MZ45FgXGoHOxu3X+dE5On7Dddv8H3uXITUnUELoAAAAASUVORK5CYII=;" vertex="1" parent="1">
          <mxGeometry x="324" y="709.43" width="43" height="33.81" as="geometry" />
        </mxCell>
        <mxCell id="GS9lPfkHltT3G8b4393Y-8" value="" style="shape=image;imageAspect=0;aspect=fixed;verticalLabelPosition=bottom;verticalAlign=top;image=data:image/png,iVBORw0KGgoAAAANSUhEUgAAAJcAAABlCAYAAABAxXFrAAAAAXNSR0IArs4c6QAAAARnQU1BAACxjwv8YQUAAAAJcEhZcwAAFxEAABcRAcom8z8AABuZSURBVHhe7Z1ZjGRXeccJScDBCAgJEEAsgQRwEpOYTXmI4heLJIgkRCILUh54iKIsT0Gg8BTjKCQIIhElbELENnY8nhl7xvZ4PHZPL9X73j3dM71Wd9fS3dW1L73PYvvk///O+e49Vd09gJSHuPt80l/f2e6tW+f86jvfvVU986pgwYIFCxYsWLBgwYIFCxYsWLBgwYIFCxYsWLBgwYIFCxYsWLBgwYIFCxYsWLBgwYIFCxYsWLBgwYIFCxYsWLBgwYIFCxYs2Im2++83r67Vam8slUpvbzQK76tUNu7artU+XK+XPlIulz9eqVQ+0YDom5X/RLlR/niTMF7VEL/x8Uaj/DF6LTepfFA4luOd4jL6Pur5j5ZKuY/US6V7SqX1e4rF4m9Bv1mrFT5cKBQ+XC0U7q5W879Rzed/fWNj4y70vR/neke9nn5TIpH4GffWg/1fWz6fv7NWK/1uo1b++1ql9O9b9epj25vVtq1aZXS7Xl2A1rZrlQr8Fvr2NuvV65u1iqjhqU5fr+63iOP30L+P/n14lqGyqE5fr+zSo3+vXmU7656qVDlWrbRTqxRRLu7UqyjD47q3a9XCZr1SbNTLRZyiVIOq1UqxApWr5WKpWi4UK+VCvloqrlUrhcVKsTBeKeY7yoWN06WN9f8q5te/VMmt/slGJvNrxphXu+kJ9pMaJ69ard7dqFa/uVOvLO5tVut7mzVjbu2LXrqxa27tbZubu1vm5s6mub7TMNe362af2rJ+D17F+i48xbqWd5z8cqRNVc1si+oittlyzWypGlTVqdKistmqQ/DbqIs2q/A61h1Xj49n/85WzexuN8z+zra5vrttNqtlUy3m9yr5jUJxfW2mkFv9YW519XPpdPq9ly5deq2bumC3M2wHH9rdrH1/b6u289L1HXML4NwgLFhEQGb2sADULj3quxTr7PPK1A7KlNZx3qif7Vxg9XEZIMFzobWdZUQ4C4AT6whFBpHNIMq1qHR7VUsGke1Q1SqFZpWpvKnDNypFQFYyW9Amyqzn1zKbAO1MNpv6pJvCYIfZXq12L/apOXPrhrmBiLQPCPbwSVaoCIWUnVrr2nao3PE7ru7D5QPmawvgbEP0FqqKACUCRBT2OKgVLl+tYAEKJwFKICnAW1mo8laAqlregN+wvgQVUaYKG6YC0W8hqhU31hvZ9Mo/uKkM5lujsfrm/c36tLl1HVsctgNsTahDjFitOgiVitHJ+hYBFgXJV2u7guWXVQqXD5lELmx7yPFEhwNG+YCpmqNWJAAnoAEuUclCVgVchKlayJlqPmcq+XUoZ0q5dVNGWy6bfmklmfxLN6XB1LZqxd/hNkiwIri2GnHe5CT1A7CpCBi2PvGt0P14YmTzYVPI6KPcyIGl3gLmdChYrfJAg5D4O7CcJ1ziXSSTCObUErnKgKu8sW6K66sCWgZ0ZRcX3+emNRgNedUD5saeA0vh8lWzYjQTfxRcAMGBIjmWqBkgSiByaupzINErVAqYRC/1DiyJWD8xXJQPl4PJARWXmYNBZaoQwyVgafQCXIhgxdwa8q+sKaGeXlp8ADdFP+Wm9mQbJ2J/uzbwsoPregtUSO4tUK4cg6RlrbsohcWnpHyEBCAtO0kd7QrU7WSjWAxWM2CHQ7YJkCgfLB8wu02iHsFVcpHLwiWAubyLUUtyLolc3BrXTAFwFeDTy8mV5eXlt7rpPdnWaDR+BVDlX9zfaYIqkkarqN4Mky8Bi/620ohmwWzq4/GimgPJ3j2ybB9JsG4fPdg7S1v2IbPJ/kHALFhab4ZL8zCFjHeCNvc6JHoxByvmARflopdsjYheq1mTX8+a5eX5z7vpPdkGeD5/Y3frJp9bxXD58sBykmgmcBwBWZOaAdqqM4IUJVptIxnfwR0p27fRzvoWFnsTC8xnXLz1l4iDut69EQICx4XnYrOdQAhYUB3nZruUq3yEUIiinNQJjw+WrwgySAEDWJSFi9ELKlKEy26RzL1s9Fo1JYCWWVkaSqcTd7gpPrmGbfBb5qWbTYl8M1ia1Du4sOgRZB5gCk8zXHGU4gPM9WzSrGbmceuekcXMpOZMubguD1LXsosmt7YsfmlxymysrZj0yoxtyyRNamVWxqaXZ7D9ZNA3C83JmExqHpHLbmMp9K8kr5r11SUBL7e6LOfga+fQxqjUAIAHwKIULAAYR644sbdbYxy9NLGv5JHcA6oSohfzr2xqaX95efFTbopPpm1tbbwF+dbQyzf3PbgOkweUqPXOUaGK6wqVbn2Eq5TPyCITkEoxB9AWpV4urApopfyatK1BRQC0uDCFfoABQFLLsyafSwtU5QKiA4Bayy7JeJbr1bKUl5euAaaUQLa+mgQYeSz2nFlOTgsg+ozsqPwrjlwKmcJlAZPI5QCrePmXzb3WTQHbItuR2D+KfPan3VSfPNttND52c2dzR77GOQBXSwQDJE1wefC0AhaDpRGMeRPzIbflua2QY3awXXE7tGOs5IYA+VScgxFOew4dQ1i53VHbHiz8ukdzL4LBdn1uxbataGxL7kWg1EfRi8e66OVyLgFMIPMil0Sv+LEEE/u1dKqSTM7e46b65BmS4b8xL95oeQTRAhVhQlJv7xr9aKWyUPlSoFrLWm/yDp6DAoACkxOAERBR9sGy4neINq+iLGBOAMZKy3GSfyDBB1QqgQuShN7BKQ9TVd72aAHzcy/7WCK1NP9vbqpPnmFLPK+PIGKgfPnRiiC1wkVA7LbnA6Nlld8mZcCjXyn5QGnU0uhkpdEqhin+WiiGSCOWBS1uJzwWLJXCRqBa4FJ50cvmXIhYUAyXe3LPp/aUAobcy26NNnplVpZzk5OTb3HTfXIM+cDrr2/Wc/yFw/5t4IrAErhaFYPTBI9X99U6JuoDPAqVjUwxWNwypc2DqRUgjViUfB2kbfK1EMoAJpYCxXbb50N1GGB2i7TRK9oWVRK9GLkAmCT2NnrlceeYy2ZeWkku/J2b8pNjAOo+3CnevLnjP4KwW594whNBRRgOB0rVCk2rP7IsYNnoZAHTSGUlz7QAShytrBQmjWAxbHEf1RydmsGKQPKAigDz4Kpp7qVJvYteNnIRLkYuB5dsjTZ6MZqlkvO9yWTyDW7aT4bd2K5/9cX9XXP9qBwLC7+/RQgOAqVwiLD4kXdl6UdZwGHdeXkSr2PoZQxzK1tvBYwRTGUfnMZlhcdCFYNmy4TN+hgkXwRI/e1lAeNjjvjO0UYttyW63Ms+VM277xsBGLdGaD2T3l1JJj/tpv34WzqdvuP6Zq3N3LzugQUBpBgwwHUbsAQaCgt9W7Ue47X5YzRSHQaTqhmgZh3VTsnTeweW3Qp90I6AzEWtJjm4NMGXn+EALMm/9LmXwiVbY1ZgSy0s/A9/hOmm/3jbjWrhbmyJmeavfCgFS6FqhiuCAZIo47dpuWVcdBy8RCp/nJN8v4i21mhFETKrH7U1Nte1LCDBK0i3A0vyL0AVfb/YqggsvYOEBC4m9ZDC5R6qFpF3EbDM8tJuan7+g276j7ft1iufvbW382J8l0ioXORqAsreCfqwKAQCly+Od76p3ck/To9VqFg+DCr2aQTzgfEjkUoiUusYiMfFYyw4PlAHJHDF5YOA2fzL5mDw7qshG70UMHfnyO8bARgfrC4vnoDHEvwVxG6j9g35YWBLxLJRS8GKdRQgqqOAUnEMAfGP8UFqVRytnKKfN8fgHACLcv2tsr+UcMAcptvBpCJQ6kXIw8oYL3AVXWJvIxijl0QwJPZ8qMqtMZ1cTM7Nzb3dLcPxtFwu97r9Rm3wRT6CULDcLx8ioLCgUUIOKRAsKwA+NDIOx2nC3jpOy3oePY7gsOyDtAlpnwIl0ceTAKMiOK7NH6vJPPvjX0l4QKlaIpVVK0i2Lr+WkHa3PcrPoQvyG3t5gl+CJ2AKl3zfuCqAYXu8lVqc/2u3DMfT9mq1d2Pr22/aEmUrdHBhURUQgcwDxoLBL6FjGBQceVwAr+CoWut6TNOxnvS8hEyAgVeQYqhclGoBy5eMc2BJPQJMvS/CFZflDlGBErmI5sMGuAhVnYm9JPeU+96R0YvbIxJ7iV7YGnknmV5avFycmXm9W4rjZ3uN0udu+T+v8cBSiGLZ7/cUEAtXDIEPBdsFDLeFbVOuT8f6XqV1gUnLBES9A8UvCwRablE0vgkq1gmO1u02GgNlFbUpXADIwoWyKsq5+Ecd8FHkcoDJXaPeObqHqsi9+FhiLZN6MZWcu9ctxfGzvc3K95DJxxELAKkUJErKLZD4cLHdblv0vJOzMAg0Xl8su9ix7HFaPtjfrFaIDojQqD+gZpi0TG/lPbmvUnZ7FHh8sCLAVAQL3m2L8Z2jBcwm9oxeaxK9SgAttZR8yC3F8bKXk8nX7jcqky9f340jlkBFH0PlQyZwCQhWMVTxwltILETNUGnf4SIMvj+qLNAcKWybAlCr17Jfx/lEDqRWCVgsO7gcSBq9ogimcEVgASqRfe7lP/OK4GLuxe8bU8ul2dmJ97glOT622yh/9Hqjlr+1uykwNSXtWCT1Vva5kjxbQjsX2QeFC2vL6JMFs2N00W0ZCxt5VTzGV/M5USYMrs2HoxmiH0fNx0uepqq2lCMRMgLGn+3EasiW6G2LvFN0uVcctezjiAguybvWsDXyN/ZZs55euZldWPgztyTHxzAJn9lrVPbkr6g9qDQ6bWMxbHTyQMLEq9fF8su+CFgEkZR1HIWy3y59jBLqVayrvGMPSPu036/78o/xz++9pkasQ8UIRqBQjuCyjyHscy7AVQJkkm8hoY/yLUCVX0fOBbByvGMEXGtZ3DVmTHJu+h/dkhwfKxRyf7VVLb58Hduhbn2yzWGyBSZ4iUAQ27gITZ90kb9orYt3WP2osRQWrEmt/Sr/WD3n7eQf6wuvQWD0tZogsuIvWsULTFZ+9BK4vOdbNmrZxxD+T29sMg+4JGoBLkBFuIoA7cr48Hfdkhwfy+fWvsw/gKjxd+uAySbmBAiT6CZfk9yjFxwTzHZsH3XUqWg7ce06VvujcYfItuOcXFR3bjl/1Oefg33w+tr0BIHjBQxXjwQIfEWRB30Kyo/yBIllB5RA5WCy+ZUm8PAClf1L7Hg7JFiACn49tWyW566ZidGhs/fff//x+q5xYy37df6KIJtKmlx6GZOSA0j8abCLUFgQK5vQat5hF45qXTxPuiCH9NWcDutT1QQArWvZAeSA03P455Lj9HVxDfx5jNy5IS+K/yyMZWxb7vGBjEHZbm0s6xgC5MvC1AwWxfzKJe6aYwEs+/DUbYnuDzbkl6mrGZNemDPTYyPm2tQk4Bp+IZFIHK/nXdjvv01Qspkls7wwaxZnp006OYdwnZaHfwoU74jkzkgSV9QpXURIFpfe1VulMLE/Kjs192NhcV672E6sizBWroVj7esfOt4XFl/+/EvEuzfrozIjDsGTMr+y8dscYITt0DIk0QoCVJJfacRyf79IuGz0slviRmbFpDDPM5NjZmJ40IyPDJrpKxNmbGyoZ2Zm5s1uWV75xp98bOSyD/ITm00v8UdsZhEh+trUhLkyNmymJ0bNwsy0yaB9I7tiSkhE+Rc68lfGbnE4wdXok299VcuyEHF73Gc9j7NeywSB4uJikRgJBAQuuKtLm1d35QoWuML8RiVtWsfi+mIORPllB4N4kW23kciK55LEHMdJVGI/xupXO3Kc5lTIowrIqXLpFZNdWjTLszNmdnLcTAKmieEBgWp8dNiMES60jw4PDQ5MTR2fv8rGJ+U1+fXsqQoWMINtMbVIuDAJV6fM1SvjZgIhe2igz/T39ZgBaLi/14wNDZjJ0SEzNT5srgK+a5MQvStfxSeSuoYJuypCfWIMoLJ9XCZyGm2sq6bGRyJdUQ+4p/D69L7YFo8bFX+F46SN9VFpVzXX49eZpiboR9212euj5NoRTbR8DXNxzb2vqxPow/hrPCbyeN84j4pb3RSudXJ4yEwM9mPO+s045o2Riu8BW6BoDPNIuKZw3tHRIdrb3NK88m11dfXn1tcy58v4JKaX8elanDPzs4hc01cEgklM1BgmahQTMozJGQBc/X29pq+3B+o2vT0J8f2qPopjekx/P6Qex/HYgf4+MwBYRSj3S9m1i1BGfdCNobfqj8uDVkNYtGEsmnhoCG28RtEgxX6tc4z1I/SufQTHj7BNytSgHQcft3lj3PHqOZbtci6p43VwraPwYy46TYwMyTxOAuZJzCWhkohFsADfGICbAqCjI4PDIyMjv+SW5pVv/PdNc6vpi2VsdYQriQRzbuaqwMVP0wQmZQQTMYIJ4oRzEhG8zRD8IIVJtHUsNhcasguHxcGkDXsaGcF5RkfMCEAdxSSPONnyqPgxLID1gNppHFFhbHxM/DgWYQwaR8Sx3vZPtPhxHMdrt23xuEh6XpxHyu61+UEaw7XQj+M6bR3CHCCyCBCjAsYhwhyN4n1SLHMs7gAFpAkXrVi2W6GNWARrFPN1Bdc4MjwAto4RXMXizOtzq9nnSsgVUsgLFudnzey1aXMVdy98w5zoYUAxPDQEkAjTgBkAUDbi9EcRyEYbRh0XZRx0Op51wjgE6IYcbEP41NoyPeBlGRM+jE/8CDyBFmExLJi+XLsTF9xXUzvgsO30AFnbIXse+zqEZ5SvI2ou84NCCOgZ3cRHstHLRjcrjh1FuwCE460cVDwX+kQ8DprEXGMeRsbGxo7Pb7skcq1lLhQB1wrgWmC+dW3KTCHf4CeeCzM8PCxQWLgAFLezfgAmYtluZ1FZoIMIlJZdfYDnwGQOYAEsgISOEc9FRNa55WkbFkAiIRZEoWyWXXgLpdYJKj4Q4m2dgER9DpboWB2Dsu+j6EvvZKOyjcyxXBuuXbZdB5gAJxApYNbb6OaAhAiYg2sUc/oOtzSvfOMfZSByPUm4UskFSeZnkMzz1pjbBbcthUvgACSEqs+BxFzKSsv0jGwKHse6upOcAxGufwA3CRIBHZAES/ptziXRTsSyjYKyFUMC3m1lF13Lzd4X22y7wmKP9drwupSF3x0X1e0HZAjXzRsfyftQt7mYBUyiGOWg8iOWahJbNPLH0WMVucbHx392Yy37WAkJ/QrgWsDt8sw0IheS+XHkOcyRdEskAAJVX5/pY1J/lAAZx9kyvKiljETfH8+kPy73SnThwkok5HgARyD7BD4sHiMMtjW9rmY42Y+FHOG12w+FRFy0x8BiUfnecB6p+31N41zdFz4sB9qYEuBaB6EhlAlZDBqkkYzCtYlHOwFkv+RcQ4O9yLl+wS3NK9/42/lcNvVguZg3y4BrnpHLwcVkmjkHP8nczjRiRVA49R4ivy/ygCTu73Fl53n36YDrxh3oN77+NfPwgz/A4g5YGEUWTkL28IMPmv/8j2/K8YRGoqXr47U+ff6c+dq//ou5fPmF6NoHKIylEl1d5oGv/JM5e+Y0IACg2o9zRJGU0rZI2qbtAMvrH8R1qiSSQQqYRjJGVOtRl74BzPcEAO178tj97xyrqeWv8lHESnLezCNyXZu6EiXzI9gS/agloPRaGHz19Dgv6hURGtYtPLYswtienu7oGBXPTUAS3Qnz6T/4ffPFL3wBcI9IuxXGYLG4tX75S180n/vsn5quRJdcH48T8CB+GL7/ve+az/zxH5pz556M+935+V7a2trMp37vk+Y73/6WRC+/X88jkjbIXYPvWxW398SQMYpFgHF7VaBicZvl3epAX88DbkmOj6XTyd/OpJZKq6kl2RYVrlHeKWLi+cnmgnLyKIGHgDgoxBMUX9Lu4IK63Tiqm8cKXHxO5oT2Z5991jz55BPmhRdeMKdPP25OnToFOM6J2tsvm25Ad+HZC+bS85fM008/ZR599FHzxBNPmDNnzgpk7D9//rw5B51H5Hrk4YfNM888Y5658AzO+bxA8xSOe/qpp+R1zp49K+I5Ll26FAF2QHgfIldXkLTcjz6KY8SjbQDvhw+dJYJBPkwKmYpJPsZXursv3+2W5HhZMjn7t0sLM7tL83PmGrbFK9gW5fmT5CQxXBKNehxcDiSBRsuEppuK2wUoV7ZgQTIGUNEn+CC2VyD64SOPmDNY8MdPnzaPAJ5TjwMylAlcoqvTnMY2durxU/BnBMDHHjtlfvCD/wZ8HQLYGbSfBzxnAcz584TonJzvueeek9cgfISLxz9++owASogJlwCD62SUVaA0StuHxq4d1y9exqt6AJaOYbk7givaIgGSn4exLA9e+3tf7u7qOH6/5fJtdmriz2emJlfmZ66aq9NX5JmQTXhtzsLJFDBEDgzKtUV1aYvbBTQHXbfr7wZQVrbcA6/9nZ2d8Pa4LgDF/Ej6OZ797e04Bm08lxxrRbgZvTRyCuw8hsdjLK+PYPD1ZAwk58YxbGc/o6jAc0BHtVvxXPEYeIAlX5kpXCpukRDvFvmAta87sdfT2f7AzNmZ17hlOL42MzP+7omJ4e+MDQ+tTvKpOUO2bBd2y5DtThbewiALiLosFuoSmVxfLC66D1a3QeIqixypy6qHXtow1gElkj5sffC9BCvRKXUrwAjJOF4LXqPXeX198Q7gqAzJ2Oi14ro9B2Fx3qmpTJBYFqBcWQSwUNfoJV9pMYph7kawA/DroIHuxGZ/V9fzfYnEfW7qT44NDAzcg9vwL/X3dHf0JLp2mUP0SlSwk8lJZkSgemVRXbvr04hxqDq7ZIsjELFa2ziWAPl122bVEcMlsDkI8doWLCsudFQ/AAojFq+7W2CwHsJYgSMScqlIWgc0rcJxkmtRqA+KABggG+L3romul6Dxvq6urw/2Je7DVnyy/2ezqam2O0d7et7V3939R4gWX+np6jjX09k52ZvoTCY6O1ax0OtQjsIir4vY1nl5vav9hfVEZxv621FvXwc80t/d2SFj5Tj6hD0eZXuebjkH6my3YxGtcnhNlp3vzPV2owxha8khAqAcC6DJWMDHsn1dua6Ote7OztWEVRb1bHdHR6a7vT2Dcrq7oz2d6OhMYUwK41fwHldwDct4z0sU2umTOO8i/GJvV9dCT0c71LHQ29kx39vZOY+2OWx106gn+rs6Huvt6vjn3o62v+htb//A+Hj7G93UBjvKhi9desPzzz//3v7Ozg+O9veLRkZ6P4DcDH7kA6LeXni0YUx/vxPLrXV4bJMforTNlvs/OOB5lb5e1DZgPe627hJ/2frL8JcvXryL52vHwqL+q52XOt/f197+vp62tl/uvHjxPe0XLrwbNwvv6ujoeCfuVt+J9/T2jmeeedtAW9tbey9desuFCxd+Ef1vvnjx4s8/9dRTb8Ld5RtxE/CGtra2O9seeeRO9L8O13rHQw89dAcjEfpfc/+994b/STZYsGDBggULFixYsGDBggULFixYsGDBggULFixYsGDBggULFixYsGDBggULFixYsGDBggULFixYsGDBgv3/sVe96n8BZ8l6BM+wwqEAAAAASUVORK5CYII=;" vertex="1" parent="1">
          <mxGeometry x="310" y="652.51" width="71" height="47.49" as="geometry" />
        </mxCell>
        <mxCell id="GS9lPfkHltT3G8b4393Y-9" value="&lt;b&gt;&lt;font style=&quot;font-size: 17px&quot; face=&quot;Comic Sans MS&quot;&gt;INTENET&lt;/font&gt;&lt;/b&gt;" style="ellipse;shape=cloud;whiteSpace=wrap;html=1;" vertex="1" parent="1">
          <mxGeometry x="420" y="20" width="220" height="90" as="geometry" />
        </mxCell>
        <mxCell id="GS9lPfkHltT3G8b4393Y-19" value="POE交换机" style="shape=image;imageAspect=0;aspect=fixed;verticalLabelPosition=bottom;verticalAlign=top;image=data:image/png,iVBORw0KGgoAAAANSUhEUgAAALcAAACZCAYAAABtyKvZAAAAAXNSR0IArs4c6QAAAARnQU1BAACxjwv8YQUAAAAJcEhZcwAAIdUAACHVAQSctJ0AAEBbSURBVHhe7Z0HmBXl2f41sUWlLdt32d57b2yvsJSlLbBshaWDgChF6QJKE0QFUewmauwCBruIKCpWpKiIJiam+PcziaZ8n0m8/889ex7yMs4uaIxRM8913decnTNn3vabe573PbO7p7jhhhtuuOGGG2644YYbbrjhhhtuuOGGG2644YYbbrjhhhtuuOGGG2644YYbbrjhhhtuuOGGG2644YYbbrjhhhtuuOGGG2644YYbbrjhhhtuuOGGG2644YYbbrjhhhtuuOGGG2644YYbbrjhhhtuuOGGG2644YYbbrjxHYgfpKam9oyKilos2hIbGzspLCwsV177+Pn5nRMaGnpWZmbm6Tyu43A33PiWR0lJyWnx8fGJAvPlol8mJib+QyD/PCUl5e/y+jN570+i92NiYl4SPSq6XYBfK5opr+uio6PTIiIifAMCAs6WfWe6F4Ab//EgjAJltAB8qegPycnJEDCRk5NjKTs7G1lZWceJ76enp0PAh3wGAr0luSj+IaC/L9uHROsF8rGyvygyMjJD9sfJHSA0PDzcT8rrwXI9F8CpHTVxw42vKQTMc0TpCQkJG5KSkn6TlpZmwZyfn4+8vLxjys3NPU4KPGWHX6GneD5xfvBikTL+V2D/regtgfwl2e4Up79a4J8r4I+U1zkCfYxAHyLve8vx5/JOItV0wXfj5EPA6iZuWypgrxL4PiSUhLZv374oLCy0tqqCggJLBF5lgu8Ev4JvSuEn9B7Y6fLHSUD/s+gNAf1+0QaBfrZs22TfcHldI6+Z9yfQ/UNCQnp5XN8NN045RWDoIQ5dIlBfJa76/wgdwS0qKkJxcbElvjZlh90E3g69HX4FXaFmCkOoNYWJi4s7TnbYxcEtCdB/E30qgH8oektePyHb62XLCe9Y0SABv1iURvADAwN7864kTabzu/F9DoGwmwz2KAH6WoHs14SSkMptH6WlpZb42kmdAe8EPffx3ISaQGdkZBxLS5iXU3JxHXtNmbDbgXeC3b6PErip34r2i34mqc1toqvkAlgusM8RTZKUZ4TsK5TX8pHYbp6uceO7GpIPdxfVCdA3iWt/TFclrOXl5V9QWVnZcTKB1wtA99ldXkGnWzPnZq5Nl1YRcIqvCboJOOGm7D/bobeDb8KvDm/CLy5uieAL5BCwPxW9Ja93i+4QrRddLOnNeNk/LDQ0tFR+TpTXIVK2l3Sf6/rfxqivrz9D0oHx4pw7xEE/IHgEtqKiAlVVVaisrPyC+J7qROBTBJ3nNV2aUFNMQXRiqfsogm0XQTelkNtBPxHsCrXKDrt5nL5H+AXmPwnUvxW9LXpRHP5J0Q7RHfLeVtmuEo2X90rlAgjzdLEb33Qw/RDYmgTsu2X7MV2VIBLompoaS9XV1cfE/aZOBD2BpkvzDqBQE2KKr00RdhNudW9Tprurq58s+Hb4O4Oe4j7zM/ZjO4NfXV/0e9FR+fll2f+oXBR3ynFXyXYBwRfoh8odoK/k+jEBAQHenuFw42uKH0r60SJQvy6pwUeEWoHu16+foxR2U07QE3CmIkw57EuABFzFfQo7wVa4dWvKdHNTnUHvBL4dfhN6hVjFn7v6nHksZYdfodc0RxwdAvXnsu8vUrffS91/J+18X9p/RD5zSN57VYB/RLZXEv7g4ODs3r17u3n+lwkBoae46EQB7xHRHwghgSS8/fv371J22FWEnC7NnJpph7n6wde6QsKfTaidpK6uUuhNnQz4Cr2prsA34VXxOKfP2j9vfsa8WCgTekpdXreEnxeCcezf5JyfSjs/lDveL+TOt1/6+DFJ9e6Utm4U8C8W8Nv79OlT7e/vH9+rV68enqH97w2B+FwBa5QA9obof+nUdNza2loMGDDgOHGfE9ymCDUvCl4cBFfh1RUQlcJOqE0Xt+tkQD9Z2KkTwW6H1QlYHmeer6vP2z97MsCrw9t/JvgCMSRlsSRpC/d9Lv3996amps/a29v/OmnSpD8PHz78E0kh/yB3jg+kftukz1ZLXzaKySRLnQPldW+mnTJGZwkCfKThe/Xl1g8ECG9p4BQB7HnRX9WpnaDuTAo7gTYdmo6sMPNiMVdE7G5tipB3JhN4lR161b8bfL7X2Xk7O4cJvMoE3w6/HXx7qkPYuV/PrZ/h+zwX68K+9owBL4B/jBo16m/Tpk3747Jly969+OKLX5owYcLjdXV1d8lYrJJ+mypjUCvjGj1mzJhecrGc09raetbEiRNPr6+v/6GHm29vsJICSrDA1UCoCSChYy58slDzOErzal4UCjQ7kufjPkqB5n4F2i474KbsgKucQKfskFN20FV2KKkTwa6w8j2nc5/onPr5zoDvDHQn2Cme06nd9nqxLF4Mkrtbbu/t7Y2wsDDrs83NzVi9ejU2bdqEpUuXYubMmRCw/0/c/6BcDHe0tLSskPEeJvXjF1nfviDUAluwwDRZ9KqA+DnhI5xOANulDs3juZxHaAms6cwm0Pq+urSTTMA7kxPwKifoVSbwKjsAKjsIJwKU4j5+9kTn7+q8PI/ThXMy4FM8nm2194VZJ62X/WeKdWA5vAswx+dKDie4zPV5MXH8Bg0ahKFDh/Ku/FP5bG8PTt+ekManCEy85TzNCnMJrqv0Y+DAgdaWMNOddQmP4CrQJsxfBuiu5AS3XQp2ZzIH2ZQ5uHbpYJsyoTRlwsnPOpVFfZUyzHPbLybKBF/B7qzvuuqXE9WN5dOwBg8ejGHDhlnjKvuvEQ6+HRNUAe40SRUSpWEzpPH7WVk6rjq1AmxK3VmB5kWgKYXCawda32daoh3975J9AO2yD6gpc3Dtsg+204CrTBj5WaeyqK9ShnluyoTdBJ6veU6aiOpk+quz+pn1Ybk0vtGjR5ORz7nPM9Zb5L3/PNzSkBxp3ArZPk/w6LoE1g61vuZkkDDrt4dsDD9HcE2YPY08BvRXdeivQ+agqezvm4NpP9YcXJUOugmgXSaMPF77wH5+yixfZS+zq/K0HBN4ip9h/5uiudjVGfxO9WR5fN3Y2GilImSGx9LgPF+2bflPOvcPpCOkjtkLpZKvq1Mr1CbM6s68QtkIdWg7zNxvB5qdZnbUd0HmQHYlO4im7EBS3O8EUldA8TP2Ms3z6c+ETfcr5LqP5XFMVDp2pnhMZ/Db68kyaWojR46ETCCtenE/x56fZRnyuc3/EeeWBidIw2+U7RtSqc/pwkw/CDFTDftkUK9GBZdSoE1pp7Ch5kB932TC5iSFzi6+x/4xIVIpSCoF6WTKtpejkFP8jH2cdAxNOQHvVD+ej0bX3t5uscGfzXPwGB4v9doY+00+/SgFFwrU60UHWQlWjm5MkNWd6cwKNCvMirLS2gCVdpI2/PsO9MnKDp5d2p+die/bpf1r14nK5j6OE8eTottSalamaVHma/t4sx58f/jw4dbE0UxDTA64j1u5yDYkJCSc60Hv3xcCc4zcIu6RW9WvpNF/U6cmzOrO7FhW0t7ZTmJDOutQlb7/3y57v3DgTWic+teUAm4Xz+MkE3qCp2Zll4JuisfbRdBZD36G+bV+lnXQ97Q+ZtnC278XbrktFQnQNwncv5QCP2dltbH2iqm080xxv1aaA2S/DZqyD6aT9Fz/jWJfduaOdingnclprCiWwc/zrkwjM8XxN6WwmzKBZz3p1iNGjLDOqfXX+ml5BJtjy1SI238L3P36RZ0pMKfJye8TsP8kBf2DULOiWjl7h7Ni3G9Kr0ICa+Zwpuxg26Uwn0j2+nyfxX7lOCjgprj/RLIDrjLh5nF6d6YIuV1OoKsUcr7mhJGLChxvntespx1sjrmwZ22/TrhP9fNLOcfHP7hfdHT0AykpKR9lZ2chPy8XBexUG0j62tynYsXYEFbSnHU7yQTdSQp5Z7LXw0lm3b4vUki+jBSozmSCTiiZcppS0O2yA6/Qcw5Gt+ZnWWfWwUxTFGy+x3HieHLMyQu3Xwvc3t7eAb45Y+p8cxuf6JUyFOeEF6BnaCb8ItLQJyYF0QmpSEjq+NseyUkJSE9LQVZmOnIE/jwPYKwMYZUKHZOCbZcdcFMKdWeyw23KBPpEMkH5LopwmOB+FTkBTtFxCaQ+PtyZnECn+B7XrfWbRo4bz2kHW+/sHA+OH48jA8pPenr6WjHZr/Rsyak+Pgn+fikDB/lkjNwfOOzqz8LaH0DEpJ2InLgDEe33Irz1doQ1bEVQ7VL45o+FV1w5uvdJgldwHALD4xEenYDY+EQk8IGahDgkJ8YhNTlR4E9FRkbHr2kp0FphlQm7XXbgTZmg22WH3S474E6yQ/RtFR3PDuvXIQJIQAn2iWSHneISMFdCuOV48ZwKNkE/GbD5jSi3qampK+X9H3l4/WcsWbLkB1deeWXc1q1bazdv3py5fPnyUPmA9TcyzjjllFjvtBHtvfuet9233woEtW1DUMu9CG65G31a70HI2PtA0MPHb0OEgB415WHETHsMcTOeQuzURxDZfDOCB10K36Jp8MpsgE9aHQKSaxCcVIzQ+GyERSciLDQEEaFBiI0KR2J8LNJSkpApwGdlHQ+2C/tXU1d5978iphS6rGuXE+CmCLVCznHjHI1g87ysK6F2ApvjyOPJAb/m5zMs3IprO8MtJzxt06ZNc3/84x9D4P75li1bHrn++usvbbvg8ukBfcc/7127Gr5j7oBv40/h23A7/BrugH/jnQgQBTbfZYEeLKD3abu3A/Zx9wvsDyJiwnZETf5ZB+znPYn4GaLzHkP89EcRO+E+RIy6GsHVc+GT3YBe8ZXwji1EQEyOpDfpiIhNRlRMHKIjwwX6MIE+BinJSZbLK8TaSFPc15lM0E05wW7KDrpdJuBdyQ7dN6mvIzUxRRAJqRPYXYkuzTSEW0LJuwrPpSsl6tjmIgP7juPAseI4Ktj6sBYBT0pKWhkcHPxFuCVOXbVq1XRxbsydOxfTp0/H1VdvxpSlNyB+7E8QPflRRE/8GSLEnUMF4KDmOwXu20V3wG8MYRcJ/AT+GOwtHbCHjr1fnL0D9siJ2xE96SHETNmJOAE8QWBPPH83Ui7ci+TzdyFu0n2IbtqK0KGr0af/AoRUzUZY+RSE9W1An5RySW8S4OvjhQCfHgjrE2A5fWpyAjLT06TRzi7vBLzut0NuHmMH3DzODrf9WDvUKh5r/mwH8N8puqAd0K8qTUec4O1M6tZcCWFdWCeexwRb0xATbO1fc9zUsQm2Pmork8lO4T6loaFh0rx58yApikwGEzBy1Bg0n78OkQOXIGHaU0ie+RySZ+xGkqQbiec9gYTpj8n+RxArzhzFvHvCg+LY90qqcjcCmu8QyH+KIHkdJKAHtRB4D+zHXH0boibtkAuHsP9MUpiHkXDe40ic9RRSZj8jwD+L1DnPIX3e80g9/wnEjb8dkSPWo484fWDfdgTmjkJwxgCEpJQiNC4LoRGxCA0ORHhIB/TJ0oYMubJNYLVjtJPsMo+1y4TbLjvcpsyLwEkm7F3JBPWriLDYIf2q4urGl3VtPjfEC4L1YL8QakonjpqKKNhsM/uH/cv+5/ioWxNshVp/USIuLq5zuKWANhbAD3t59UJJcRHqWmYhsHgKgsbcjdB2yZ8nPi4QPi1pxTNInLFHYBcIZ+1B2uxnkSkwZs95FjnznhPtQcZsuQim70TM5AcROkEmnOLKYePvQ0jbPZ40Ri6E41KYbR3OLrDH0tkF9vjpj0g5jyFp1pNIveAZpM3bi4yL9yFjroA/6zEkT30QCQJ9fMuNSGjcjIRR6xFdeyH6ZA+BT0gievToAa8e5yI4wBfREWFISYoX4FM9+fw/wbVD7iTzeLvssJuyw26XHXa77JA7yQlmuwjM15F302WZJzsB3Jnq6uosV2Z/cMuLg+cxwdZUhHVlm9h29g/7l/3fGdj6Gz9dwi0FtrAQ/tYDT1JdVYHKuiZxyfHwqb8ZvsOvg3/TPfBt246Ath0IHrtDXPghAfMRAfIJAXG3uPuzSJ/9PLLmvICcuS8gV1y34KIXUHAx9Rzy5++RfbuRceFTAucj8pmHxL0fkLz8QcRMZX6+XSal245z9hi5M8RO3WmBniCpTOKMx5EssKfMfhppFz4jzv4cMi96EVkLXkLOwleQPU/qMGMnkifcgfimLYgedhmiBsxDRNkkhOaNQJ/kEgSGxSLA31eg90FkeKi1epMuqU1mpri64ezsUFO630l24FV22O2yw27KDropO+BOssNNgOywfhl92XSEKQjXs1kX1pnn6Axs1o/S9rH97B/2rYJtpiEKNnmVlIS/qbMoKirqTA/Ox4cU2MxbzbFF9X41qBo82oK7R9Fs/LB7AHp2D0JNsDhf8lB4VS4T4LfCb+Qt8Bv9E/iLuwe1iEu3S24+4TEB/ilx36cljRFnP38vsi58HrlzX0TfBS+jZMmrqLzkNdSs2I/+l+2X1y+jcAGdnw79qDjz46JHBWLm5jIhnSLpyxRNX3ZaipsmaQxhn/mEB/anBPankT7nGWTN34vsBS8K7C8jZ4FcaPOfQ/bc3VKHJ5B1/sPImrkDGVN/Kk6/BqFFrfCOzEa3Xn7w8vZDUGAwomQSm5QQLx3Z8atSdrBPBLsT5Co73KbscNulA9+Z7HDbRWc0Yf2ysrhwgNhJnDASYvaHurUJtkJ9ohURdWs72ASaYPO37cW1+atnC2TfGR6cjw/Jf+p5VWoeVF1ViaqBwxEkcJ8VUYIfnHIKJp35Q7xdVYyfJMYh/PSz8YOzeqFncBKiKioR21IDv4oG9CqeDZ8BG+DfIJNLcfqg5vsk15Z8vH2nOLHkztOYt+9BugCfLe5eILAXL34V5UtfF9jfwIBVBzFg9QHZ7pft6+h36Svy3gvou1DAvfAxZMx5TOB9Aplzn5CfH5e06DFxc94FPCnMTHH28+UiIewX7Eb63GeQKW5O4HMufhG5C/chb9HLKFj8CgoWvYQ8uaPkzN0l0O9E+uTbkdJyDRJGrEBE5VQrp/cNTURvbx/4+/oiNDTE6kh2NDtdpbDbZQJvlx16lR14U07Aq+yg20VwNDXpTE5Aqwjll0lHWCbbw88SanLFc/BnlqVpiDq2gs228HPsPyew6dYKNsdC/45Kl3BLoSN4CyHYVJXAXV1bh6CCseieMwGnne2N0tPPwG0+vTC/Zzf0FthP++HpCE/yR/O6Qlz90gwMXZWM/LI8pKZlISImEYEZ+QisqkdA//nwG7gOPnVXwl/cPrDhDgQ3P4DwcQRe8vhpu8SBJcWQlCZn7j7L3UuXvIbqFQcwcPVhDL38LYy68iiaN/8cIzceQd2aN+RCeAmlS/eifPlzqLx0L8oueRYFC3cLrALqXIL9pIhbOvpTciHskq2kRAJ7lsCebcEudxMTdlHfJZTcSajFL1nKnyeT3LbrEFE1Az6JlejRJwneIXFWehMeJZ0bJ7dG6XQ6SlpqCtJlQDqgPx58J8gpE267nCCn7HDbZYKtIkCEirKD7SQFm+pqTVvFOz8hZttZR/LEn/9dYBNq/eNAkZGRXcI9hFeYVqCiohxV/WoRnDcGPsOuRe/adehZfCG8UkbK4ObgzF7B6NE7EH1iwtB3Wgja78hGydRwpGclI0cqWFiVifYtRZj/0GDkTvRFfm4ZsvLLEZdVgqDUAnhl9EfvwinwH7gGASNvRMCoW2XiehdCWmViOeERSWl2iQuLw0v+njt/n6Qtr6CM7n7pQQxa8yZGXPEOGq5+D02b3rOgb73252i+5ijqNx7G4DVyYax8QcDfi0rZVokq5HXJsr3ou2iPpCm7xfkF9HlMYfYg+yIB/SIBXVKYPEln8gX4gsUCvAX6Kyha9hqKl72O4ks61HeRHDdHUpwZDyC1/SbEDFmCPvkN8InKRi+/EPgGhiIkLNKCPjlZfztcUhwL/FRrFacr2E3ZYVfZYbfLDruKUCngTjLhVtHs6NqEV2UHm3d9skMI+Rl9bkQzAeWKaYiuipxsKqL5tR1sD9TWb8SHh4d3DrcUXEu4tZG80njlRSVlwz9jCPyLp8G3Yj58+q0UB74K3kOugVe/VeheMAvd00aiZyq/hCmGP7+EiU5BTFYcRq7Jwcyf9ENaY3dkp2WjIKcAZSPTMe6GXIzaEovC6kykSWdExSYiNLUQQcX9EVA1AQGV8+Dffxn86q5AwIjr0afxTkSM2yEpzS7Jr59D+gUE/iUULX5N8vUDkrcfRt26t8XVj6Jp8/tov/4DTL3ld5h006/RJtA3bjoi0B+UC+IARmw8gKEb9qNu/WsYuPZV1Fz2EsqWv4BiSX0Kl+xF4VJx7GWvWNsCcW+KgBN0As/XhUtfQ5EF+n4UL9+PkuUHULLiIEpWHpL06XmkT7pdgF8mKV0LfFNqEZhUij4JeYiIz7SevYmOTUBsTDQS4mKsJctUAd+a0PIxhBNAb4fclB1wlQk3YVLAVCbcTiIHJtimCD25IagEm69NsM0cW8ujW3cGNi/6kwVb/44hAT8h3KyE3i46UpMqOWGcdLh0fHpHYVEx8QgIjYZXRBZ6Z9TDt3xuR8oxeCO8B22EF1W7Rlx+NnpkDkP3xGz4RGYgOCYd4ZFyjsFhmHV7HVpvSUNuWSIKpHGlpUWoGZeGUTdEYNCiGJRV95WBKECMgBAon/FLqoZ/QTsC+i2D/6B1CBi6GcGjb0VYy32ImfAwkqY/jcw5kl4sEIddvB9VAlutAD/08iMYfeW7aN3yPibc8GtMvfm3OO+2D6X8/2dp8s2/QtuWowL8m8idvBUF4y9H9bw7Ub1wB2qWPYrqZU/K3eIZy/FLl7+C0pVvWCpZ/rq4+asedbg6t5YIPWEX0EtWHrbgL1y8D/kXyV1CJrIJYzYirHyqtKkKXmHp8I9IRUh0MqLjUxCfmIx4GcSEuFgkxccee/aGwOvgn0gm7KZM2DnGpkzQ7SKgBNgugk23Jid0WsLKn8mM5timYyvcmoZQvNg6A5sXihPYmoYQbA/UFuB9+vS5SM7h/G9VpOB+ZuG8YllBnvC4zuHrLKmIwJ4UH4Oo8D4ICQlFUHQ6AlMqEZBdDz8B0bv4fHhVLkGv/uvQq3Y9elZfih4l8+BdOAmBw+rQp7YawelVCEnMR3hcIrKbfbB4x1C0bciXvD0JpYXiGJXlqO1fg+rKMhTm5yAzNQHJqelIyCpFTP4QRBS1ILhkPPwrp8On/GL49F+NPvU3IGrcNsnhn5XJJyeMr6J02QFUX/qm5O9vY9j6o2i46j1JY36JSTf+BrPu+Bhj1r+CXsGJ6JubhZpqmUgPHoma0ZNR0zIHNROXo3raepRPuwpFU7eg8Pw7UbH4CfRf+zoGXvEmate/if6XH0bN2sOoXnMIlZcdQPmxC8AjcXhKoS+97C2UrTqCoqWvCPBS1+bNiBywAKECfbi0KSJvOCKz+iEiOR9hUfEI7RNkPXsTFx1hPXCWkZZynMsrwAq4SvfbxfHlODvJhJ1AElZCq1Kw1a1ZDlnhe3Rr7qdbd5Zjq1vbwdZURPNrBdspv1bHJtj8C1X8y1QC9/mCsfO/SZSCq83CWRleeTwhC2YF7Im+KkUqk5yUaD30lBAXjZiocIQEB8HPzx+9+8TDO7EGvvntAuBceFctg1fNWgH+KnjVbUavmsvQq2g2vCVnDR9VjvDqIoQlF0o6lIO4pAyroRkpicjPyUBpSZF0oDiJANi/pgq1g8oxbHoehl6UhsTiQIREMr2pQJ/cRviXTod/zcUIGiDAD9+E8MbbED9xBzIv2CMuug8liyUlWcmVmcOIrJgqqVEc2traMHHiREyeJJo4Xraiie1obmywyszN64vcyqEoGT0T1ZNWof+sa9F/3o/R76K7UbNgG/pf8gQGrX0Jw64+gmEyDxh85TuovfxN1Kw5iKpVb8jE9w0Bfz9KVwjo4vAW9Bbwh1F66VsokQuwROpUvPwN5F/8LFLH34KowUtkUt8E/7QBCE6tQlhKMaJS8hGVkIao6DhERYQizvPsDdMbrtWb0DiJYBFMJ5mQ09wILAFXEWLu1/MTZgKvaYg6NqVg83w8txPYTpPHkwXbA7UFeJdwSyHVLFwL5mtWjidkofYKEDpKbxvmrSNOKsMKxcbGCOhy6wgJQp8AHwQGBMA/JBr+UZnwiy8W6PvBK1VSl+yx6F5yMXpUrZe05lp4D75SXHgl/KoWIKBsFoIKxyM4cxBC4rMRGR6BhJgIZKYkIb80CW3XZGDRvjIMW5SO/lVyq5TOLa5KQ7+pUaicJXedfvnIKq1DcvEIBKXVokfycAQN34yIiQ8jbsZuuYMsxTneIVY7CQYHlQPIP9HF3woZM2YMWlpaML69HZMnT8KkCe1oaRyNYYMHoG7wINTVN2LImAkY2joTde3zUNk8DznDZyJt2DzkT75GgH9c5hfvYPTW9zH6ul9gpMwBRlzzHoZvOoqhV76FgevF9VcfQIWAX8IURpyeKrrkDRQT+suOoHT1O1a6kyuT2PQpdyGp5VrEj1qH+GGXIH7gHESXtSIkrQL+ki76evVEoG8vy+kTxWgyUgV4zecFRgKl46uwqRRASu/cFAGmCDePIQN8X2HnezzO7tiaCeiFo2DrhWGmIU5gK9QKNtMQgk2oCbQHalXncAu8FdJo6y/4sFBWgg3glUKITai1Ak5Xl3mFsTJaIetqk0qFhcqVJrdZPgcS5O8tg9EdvXqK/EIkj89G7+QB6J3VBK+CqehVOs9ydq86mbwO2Yzekst7l82DX+FkBOU1IURSk2Rx+9ypmeLc0UiMjkGG1C13cDjOf7gYFz0trtKWhnJx/PSkWPT29sZZURXwlpzdr/Eu9CyZi9N7BuPcc35kfVXfs2dP+Pr6Wp3FNrB97HztC7oTv3Wrr6+3oOcfaGxtaUb7uDYL+ontbRhdPwzVFSVylylB+YARqBo5Gf3aLkLt5MtQM+0KlE+9GmXn3WA5/Yj1+9By48/RcvOvMWbrL1C/+SiGCPCDNxzGwMsPof+6g6gW8Csvo+MfEMcXV19xSKAXhxent8C/7G30XfwiMs57AAmNVyNy4EKEyZ0ovLgNkfkjEJlZg/DEHIRGRCMkyB8RIYFIiI2StDJNICbQ/4RcwSaQCqqK8PIYskEDYGpCuE2wNcdmXynYlJ7fBNvJLMkVTdLJrTW/VrBDQkKscQoODrbk7+/fpXOXSaGf69XESrARhJKDzIIVanVp8+rSSmhF9NbRVYWCgoIsWX/H2d8Xfj694ePVAz7evdHbNxC9A8KtX3boFZqK7uG5OCeuBj3yBPqaVeg9dCt8hl0HnyGb4Dt4PfxrV8G/egF8sxvRKyZJ3MwH8RXe6On3I5zbrSe6R5VYF4vvqFvgP+ZOa+3+9G5+AvbZ6NWrF7y8vI6JPxN0vuZfGyXwrCPrzrawrewLOiAHk0th+nfr6PZNTU0YO7YNbQL+mNH1GDl8CEaNrMeoMU0Y1TQOo1onY0jTFBQPakZSyXAk1IxH3rh1GLDkYYzedACN1x1B09Z30XzjL0Tvo3Hrexgt7j9y09sYcdWbFvz91x603L5YcnumMSUCPXN5Qs88v2DBXuRc+Dgyz3sQ6ZPvQFr7jUhp2ojY2tkIyRoE39AEaV9v6Xc/RISHIilB7nIZqcjJzkSxwKnQcsuLmvDRffm6M7A1DSHYZMd07K7SEDMDcGJKWbJzpPxQMkadwy0FlYr4v8+tAlkJXnU8KQs00w7TpU2Y7VeXE9DmHyWXq82Sn5+fBRC3fn6+8trHAtzHW+CS22zvXuLs3c8Rd+2Onr390TMgCj1C0tAjuhg9Egehe3oTehTOlsnrWngP24regzfLBHYlepQtRI/SBXIxrIQ3HxUQt/aqXo4fRVfgzG7e6HbuOTLAHWD37i0XVBci5LqlfHx8rDawbWwz+4IDxIHjYHKgmYvyoSH+buCoUSPRMHo0mpsa0dbagtbmRoweORzDhgzCkKHDMHjEGAysb8OA0ZPQv3k2ShrmIHekpDhNK1B6/o8xdO1z4vLvYdytH6D1JoH++ncx5lpJd7YcQb1AP1ygH8I1/vWHULvukExuBf5Vhyzo6fbWyg2XKhfvs9KbjOn3IWXcTUhs2ID4oUsQ228mIgsbEJZahtCoBOvOGhsTJRdxR5sILFMQnThqjk2wzTREwTYdm2BrGmIH226YyhfBNk3SBNtkiWNAdQm3XD1FUtBf9fbAwnkb4UlZmMru0p05tJNLO0GtYFMERuFRmI6T5awCY88eHalMr57o2csLPb180EOg79Y7COf4hOPcmGprktq7/2p4120SXYUe+VNwZnA6zjjHS5xcLhI5R1dQm/VgvbSOlNZbxbawXWwf28q2sx/YN+wvdXkCQLej8+nvDXbk9Q1oFI1pGI0mmby2So7f3NKK1rHtaGufhGGjW5Bf1g9xmaWIKx2D3MYVqJl/N4at3o2RG1/GmGsOouX6o2gV+FsE+uat71juP+baI2gQ+Eduegt1VxwW6DmxPYjyy6hDKLtUwBfn57exBQtfsJYr8+Y+idwLH0HWtLsRnD0CYTLHIcS8UAm2OrY9DTFTEbo1wdY0xCkVUc7sYNsN0+TKbpImSzJG0z0ofzHk5EVS0F9YGAti4RwQnpSFEWiF2p52nAho8wpTIBRmVWdAa6pgimnDP9WzQ5JG9BJge9LdBfgeAny3Xr7o5uXXoR6yT/JqHsOLxF4OZcKsMmHWjjRhpvTWqO1mH1DaJxwc9hf7jX3I/uXAcqDV5QkOn3keMmSI5fRWXt/QYDl9s6Q53LZIjt/S2oqGxhYMHzUGwxra0L9+HPL6NyKxbDSSBpyHwinXoO7SXWgUsFuuf+eYmimBvskC/x00yPujrpE05+q3ZWL7JgZZqc4hcfvD6LtwL0KL2pCa/c91bnVsMxVRxybY6tYm2E6piH3e5pSK2MFWrii7Ser4yPhN8qD8xZCC+kohn2hBLJhXG0/MwlRmoVqwFq5AmxXQSlBfBmqqa6hPJMmZZXtM4vhOZVBaBxNs1tMOtranK6jZF7zYKfaPGoDCTZlmwb6mY1EccE1rCA5BIliEnqs3HenNKDQ2dkxm29parVWcCRMmYNKkSZgoGjpsuADWF0npuUgpq0fe6ItROeN61C68D3UrHpNJ7AtoYF6/5TCarnvbgr7lhnct8ed+ix6EX1yhtDfQqoOZipwM2Kw7wTYnjzqPOxmwzWzA5EvZMsHmuOh4yThO9qD8xZDOzZdC/ocFqbuwozlgOkBaoA6eWagWbBauFVCoFeyugKa+KtDm51RO56dOBmjKDrUT0Haota/sQCvUHEhKwWZfc6A54BQHnxAQBkJBOOiChIipANMadXn+dSa6fIOkNB3At1l/NJLr9RPGj7d+bm5uQkNzK/oNHoHMwirEZlcisbodBePXyyT2IYzc8JIA/wZyWtda85kYqSMBrrGBramImY7Y82uF20xFNL+2g82228FmX7HvlC/TNO1gc6w8Y/iZjN9YD8pfDDlpvhTwEQthASyUHcsTsyCFWgvUQqmThVrBdoKNsoPpBHBnsn+WciqDOhHU2obOoNb2UybUplObULNPFWr2qwk15QQ1RSgojgMhIeQEhiLshIqQ0U2ZC+sv39LlCT3/QDtXbrhOP3bsWMvhp0yZjGnTpgr47RhaNxilxYXILihBQnY5YuKTUdi3wDoHlzx5EenEUR1bV0XsE0eFW1MRBdvJsdlmJ7BpBp2ZpxPYHDsZzz+INgoDIR6UvxhSSLYMxm/0lsDCWCGe1A6zFqiD7wS0CbPKBIxyAtIObVeyf9Z+flNfBWiF2gTaCWZu2W/q1Ow7igOnQHMwT+TS6nAKswKtUBMawqO3fXVKinAxLSBsdFSCaAKvqzb8G9cKPV19ypQp1gR24IBacfxx1i+H0/l5QVD8DD9PyAl1Vzm2mYYo2Dp5ZFs1DTHBZj+xz5Q79qWTY+v46Lh5eHpPxv08wbfr/1svJ8+SE/9KrxwWxArpAOuJTQjsBVL/CagpexkqrYMT1GZb7EB3BjX7h2L/nAhou0Mr1ATaDjVBMB3aBFqhpuwwK9AUgVMRQF2aI5AKO9MMOjKdmdASdro80w6mN3R9ihcF83srl5cUh5/lOfW86tisi+nWJtjq2E5gq1ufCGzlTE2TknH9h4z5QzKuRR58uw4pJFNO/L6enAPJyvDELIQDwEZw4Pz9/NG9O5fTeh4HEKU/K1ym7EA6gduV7J93KoPSutiBphRoSmFWoNmhKgWa6gxohdop7bADTXGgFWgTasKgUBMQ06Up06U7A5rAKXwU0xWV5skE3C7m7oScnyfgBPbSSy+1wGbdzb+4ymNYlh1srbPdsc00xA62Qm0HW/vfCWyOpYzvxzL2m+XnCA+6Jw4Z4HQ56VGemIPNwWVFeFK+5v/+u+nGm3DFhiuwdPFSTJ061br6WVEusZ1zzjk499xz0a1bt47fOjfgUxidgO1M+hlTej4nKczcakeYKYfp1CbU2plsowm0k0srzCbQlALNwVOnVqBNh1bZXfpEQJsubcLMrcKsKYMJtAKsOTPhVTHNoPjNKsVz81iWS+fmOQkoV2soLY/HsT48TuvKNijY/AzbaDq29osdbPYrxb5mn7P/CXVnYMvYHhJDbZTx/nL/QUEGOk10RE/MLSvCk7LQlStX4qV9L+Htt97GkbePYMuWLVh+yXJcufFKaztzxkyMaRhjdRAbRODOOussC3p1ecoJZNWXhVnFOlLsBMqEmmJ7KAWabTOhVqC/DNTq0ibQbDdlTzsoJ5emugLahFpdmpBRJtR2lz4ZqCmmGgSZqy48N1MWfp7tYX15PI/hluUr2Kwf66qpiOnWbKs6NvuC/cJ+Yn/ZwWYfK9g6HhwfhdoG9oMy7uUeXL9cyICnyknf1CuGWw4mT0wYCPczu5/B4sWLrc5lpcpKy7Bnzx68/4v38d5771ng79i+Az+986e45pprsGjRIuu2xkYSQsvhz+1weAXeCequwLYDrVDbgdY2KNRsgxPUbIcdaBNqyg60Qm0C7eTSCrQJtenSCrZCbQKtaYcT1E4u3RXUJtAKNcXXmnbw3NynOTnd2jzOBJt1dgKbbbeDzX5iv5GlzsBWx+Y4cbxMqGXM/1d4WCAK9qD65UNOmCRAHOCJmVoQOlaEILFg/nvi3U/vxvBhwyGHWzrttNOQmpaKK664Ar/73e/w5z/9GS+/9DLeOfIOnn/+eWsictVVV+GxRx/DDTfcgHVr12HOhXOszqRrEVYT9M7A7gxoO9QmzF0BbTq0E8wn69Am0Ao1B5lSmNlOE2jTpU2oTaAJ88kArTCbQDtBrZA6iZNI5tcsw+l9iudgPRVsbQ/bp25tB5t9pY5tgm2HmuNigs1x1LGVcT4oapbPO/89kpMNwi1gvcFCuRzE5SJWiJCz4NWrVlvgbt++3Voq4kCxIoTyggsuwPvvv48//elPuP32263GsmFMScaPH49Dhw7h3aPv4uOPP8ahg4fw9K6n8eQTT+K+e+/D2jVrMbZtrDWo/AwbS6BZrhPYdqhNsE8WaupkoaYItEKtQH9dUFNODm2HmrI7tAm1An2yUKu4WsLHd7uCm+dknVl/toVtU7emTLDVrRVs9iX71QSb6gxsjifHWcb8URn/LEHzhx2E/gshJ44XB32ZhS5cuNCCkpVgKsEKrF27FocPH8a7776Lt958C3v37sW2B7fhnrvvwaOPPIoPfvUBPvnkE9xyyy2W+8opLZ1++ulWB/DYzz77zHL1Xbt24ciRI1a+x3/qs33bdjy751krpbn3nntx+eWXY/LkyZZDsQ5OQNuhNoFmG5yANp3aBFqh5mCYTq1Qc9C6cmlNOzjoCrUCbcJsAm3m0SebdijYXQF9slCraGL8ZpPlOb1PsSy2h+1i+5wc20xDTLDZx+zvk3FsD9h/FF0ir30tML+OkKskVq6WfYSZE8Gzzz7bKlxz4tiYWAyoHWC5+uXrLsfdd91tAfnqq69i34v78PP3fm4582uvvYZbb70V559/vvWcMxvNjqGjE+6jR49i4oSJVmOkWMuVmZvv27fPytn/8Ps/4NVXXsXBAwfx4gsv4sEHHrTy9wsvvNDKDznY7Fh2GDtJ3ZpSp+4KatOpnVzahFqdmlKgTwZqyglqAu2UfhDok4FawTah/lfApgg3v8xheU7vUyxX28j2st0nCzb7W+HuDGw1K4H6qPAwTrj419IQe8hJYwTwZ2X7d819WRHCrTJXPFgpVjgtNQ31I+qtvw57x+13WC7+/N7n8fLLL1vw73pqF5579jkL1r/8+S947933MGvmLAvuH/3oR5azn3rqqZaD867w+9//3kpbdu7ciTVr11juxwuKKREvIqY1nNjeduttWLxosQU8jyGA7FTTKUygtZMpdeoTAa1OrUBzUBVohdop9TgZoNWlFWoF2oTaBNp0axPmrwK0KfY700yW5/Q+xfdMsNkX7Bf2kRPY7F8T7M4cmwxQclf+TLh7XLbJHhy/3pBCvQTaiQLvDaKHBO7XBOBfipP/iTATdoVcpbBzQqgTQzaouKjYWhacO2cuNmzYgJtvuhkP3P8AXn/tdbyx/w0899xzuOuuu7Bs2TKMGzsO/Wr6WU5/9J2j+PTTT8EUhh0o1bLEDrvkkkusdOaPf/wjfvfb31kT1gNvHLAunquvuho333yzNXmdPXs2mpuarU5nXdjJ7HTCRBC45UDphaCQc4AUaBNq6mShVqf+V6BWoJ2gNsF2gvCriHBz4s/ynN6nWC/tg67AZl/awXZybE1DPGB/LI69XuAOsED8huLMbt265QrEF4juFoj3iPbL65+LPpLXXKKxJn3q9HoBKPAU0xzuY2OrqqswY8YMXHnllZbLM+XYsWOH5fB0dub0n37yKZ568ilrksOOYkcwTZLGg38c/6OPPsIHH3yA6669zvpiiWu0dP4VK1ZYzs+J6+uvvm6BpS6dkppiLWXu3r3bWqbksa2trdZkink/B4+gEmR1cQ4gB1KB7gxmM/04US6tQNtTDyegFWa7UzvB96+I+TafL2GZnZ2f9dULnf1iT0U0DTHBJtR2x9Y0hFAzDRGwj8i4zvTw9h+N0wXWKAG4UuBtldcXyetNAu6Dsj0g278QQLsIv14ABJ0OT/jZeILCNdWW5hYL+uXLl+PWW27Ftm3b8NSup3D/A/dj06ZNWLBgAebMmYOHdjyE//nof/Cb3/wGS5csPebsFDuP5+DdYf/+/RZY7Gh2POHkhJh3C0LNp+P4HyTmzZ1nnZcrNlwNouu3j2u38tDysnJrMOlQHFC6Fh3b7tBOLn0ioBVqBVuB/iahVrE/mPaxPKf3KbaBfaBgs08ItqYhJwLbzK8pD9j3iGMXEqxvc5wm4OYIsFMEcN5ebhOYHxK9IK9/LvqrNOTYpEHFfdK4Y+ATeDp8eEQ4KisqLQA50VyzZo2V1jy882Ern2fOzWXH++67z3IdTloJGuEmBMzH97++3xoQdjqdhRfR2nVrsWjhIutCILR0K4LFOnCdnncDfgP7xONPWJPfDZdvsC4qioPPXwmrrqq2yiLodHG+Np1aoTZh5pYQ87Xp0Cp1TBNoherfCbWKk0maQldlsU2arqljm2mIgq1piB1shZqOLf39Wxn7q4SLbzQN+VpCGnqmABsooHLdvFIa0iQNmiPb66VxL4j+rI1lwzUP061ONAhdYECg1YEZ6RkWrHyWhY9hMj9fv3497r33Xuz82U4LdKYp/IdVBw8etJybMHEAOBh0WgLMHJ+p0saNG8HghZCelm7l8/wSas8ze6xzE1Q+UDRu3DiMGjnKcvc777zTmsSuW7fOSmt4HB8jJdh5nj+PQND5WQXbdGdunRyaUH0TEHcmtpF3rK7qwDZpjm2fOFJmfq1gm+OpYAsDL4uxjZb3nP8Dwnc1BPhu0qgkadxAaexEaewiafzVsm+7bA/LVf43dox2ELcq0wnYaX1C+lguQjhG1o+0XP6i+RdZ6QXzcq6982LgYPA4OuzmzZuxavUqy7kL8gustXzm3H2C+2DN6jX4za9/Y+X6PCfvJrwQrrryKgt+5t7W2vzbR6zlydtuuw033nAjrrvuOqu866+73jqeEzPOARRmdWY70N8GqFVcKeEyq/7GjdMxvGjNiSPBpuxpiBPYhlk9IHDnd9DwPQ+5rZ8uV3136QTpi+AkUbF0TKN00BXSWXtEH4ob/JUdSPdWacfyNd+j+DMhZqpAJ+WAMM/WPJGDwwe8mLPTeRcuWGj9ZgrTi+ioaGuV5dcf/NqacA4cMNDKrblu/+kfP7W+TOI5HnnkEWs1h3cL/sxB1ueemUZxVWjvc3utL6D4XIY6tRPQdogIlsrc/02IxsA7U1dw865kgq19r45tNx/TsQVofimzTO7iQZ6h/+8NcdtzBfpg6bgkUYWoQX6eKx36Y+nYQ+xkOrKKt0snMa/W5StCz9y8rbXNWmNfsniJ9egu0ww+AsBHAX71q19Z37oytz7j9DNQWlJqPefM9Ig5O3Nxws3UhxNlToK5ykMHZxlcueEFwSVJpk90bTvQJjzV1VWoEVVWlKOoUFKb3GxrW15Wau3/JoDnRciLl87t9L6KaZ1CrWmIHWxCbQdb7tIHBe4GeX22Z3jdsMWpAvEZ4hrdpEN9ZRsmLj1UbpOXyv6H5fVBgfm34qZ/Y/qgQOt6tLkmTXGg6O50VQ5uQ0MD5lwwx1or50SS8DLd4AP749vHW8ePHjXacnU+MsCUh4PHNfwPP/zQujA44TrvvPOsb1/5+AHzdZ7fCeoygTc3X3LYzGKEp1QhInsE4ksmIrFyOmL6NiE0pQYhcfmIScxBanoWcrKz5fx9rYvFBO5fFevElSpOlplzOx1D8The3ISasqcidsf25Nefix4XE8iQ8fvXnw35L4tTBdTTRWeLQ/sKzNECeo7APVZe3yhAHxF9Jvq7DMzn5ro0829ueavV1Y7Cvh0rHHRaThK5FMhcdMXyFRbsXKlhysFHC5jacFB7e/W2LiIONFd55s+fb62xcymTD//zXCYk/E8VSSnpiMwdiezmm1AwaTtKZu5C2ew9qJizF1VzX0D1vBdQM+95VF/4NCpmPIzSyfegoGkTkiomIzg2DwGBfcRBY5Erdf9imuOcUnQmfoZ3M95xTgQ3TUFTQLtjK9jq1gL1J+LYS+W9Xp6xcuNrjFPr6+t/KM4dKPD1l4FZIDDfJnA/KTC/KfpYwP6ruPc/zOU7ipNQSpfydLXDSmna2qxJ6Ib1G3D91uux9bqtWHXZKmtJsXFMI67dcq3l7Lf/5HZrUmnCzb+9F5tRhbiBq5Az+VHkT3sSfac/hcIZT6N41jMonf0syi7Yi8o5L6Jq3j7UzH8Z/S5+Bf0XvIraRa9jwKL9GLh4P2rmPIOC1huRWH0hInNGICazHxIzSpCWmYec3I7lyNKSYiu1qbTKr0S1AaopQsv5AsGeNWuW5wJxPo53QUJ9EmC/JWqh8XjGwo1vIpjayGCdI04dKmoQEG4UoA+IfiVAfyT6VID+v5KSks91MshUwEnMg5lX87kW/tdlPqvO3J3PrfM3lIYOGXoMbt4V/CJzEF8vufm4HaKHkDH+Z8ia+DByJj2KvCmPH4O9aOZugX2PwP4cyi58Xhz9RVQS9osIu4C+8DWB/A0MWnYQg5YekNey72I5ZsZOpA9ZjtC0QfALSUR4TDIysvuiuLQCJaX8e9klKCuVO1N5KaoEVs3j2Qbm23TvruDmHYpQm6siBFvzawH6fwXupwX4cE93u/FtCIE6QIAuFU0QuC8TsG+T7S6B+LDo/4k+tw+2bgkwpRcDYWcOT6cnQAUFeQiMLUDkkOuQ0HSfpaTmB5Dc+iBS2rZbsBP0TAE9e9IjyJ3yGPKnPoECuvp5u1A0azdKzu9w9Yo5L0jq8iKq57+EGo+r09EHLHkDg5ceRN3ytzB05TsYLOBXzJTzjb4aSf3mIrF0PJIKRyE1vz/SskuQkZWD7KwM9JW6cW5w0UUXWV/imHcaU2wnV4cUajq25teeHPtDgXuV7PPydKkb3/YQ2P0F7JEC7SYZ+MdlkF+Q7SHZ/lL0Rw68/jqWOqECz9fl4vBhUQkIq74U8U3bEN94P+LG3It4jwh6YvP9SGp5QEDfhtSx25HeLq4+ocPVsycL7JMN2K0UpsPVy5nCCOhV8z2uzvRFXH2ApDB09sHLDmHIircw7NKjGLbyXUsD5b2+bbcgpnQaAuIqEJ1ShIGDBlupFifDXcHNVSlCbUtFPhcdFvER1VM7es2N72TIQPsKAOkC8kDRFHl9mQz8j0V75L0PCDhBp+jc/L9BPf2j4J3aguCyZQgftBkxo+9GXOODArqIwDdxe/9xoJuuTtgzJ+y0XD1HQM8zXL1YUpgSK1cX2Oc874FdXF1gP5arS54+SJ39kkOWs49Y9QuB/j2UT7wNg4eMxNIlSzBt2rQu4ebyK4E2wP5MHPsecWz+powb39cQKCJEdQLBfNFGef0TgeJRmcTuj46K+Ij/SSIyLgORGbWILBiLkIIpCCqYhcDiixFSsxZRw24W4B9AQstDSGjebsGeKKkLZYc9Y/zODlfXFMY2MT0uhZm3z0phODH9p6sL7EslZ5d8vXLa3RgyfAyWX3LJsacC7WBThJvr24TaA/bvBOrVsu3j6QI3/ltC0pme4t5hMlnLGTx46OCaqqpJJUX5l+flpj+cnZ78fnp6+t9SM3KRkN4XkSmlCEqohHf8QPhljEVQ6SKE112HmJF3IpapS/M2JLbuQGLLNsnVH0Ryy4NIJehjxdVlYmq5+kSPqyvszNXp6ufv6XB1mZjS1a1c3ZPC9BfYyyb/FENHNGHlyhXWFzmdwU1H5/q2Z/L4mmxHiGu7X8q40RETJ048va6uLqy2trZg4MD+w2v7VU2tKitZWpCXeWNGSsKzKYmxH6emZSA5qxjxOQMQkVmHwLQR8E4ZA9/c8yyHjxl5h+Xuia0PIal1uzj6dsvRmasfm5hqCiOg5019XFKYJ8XVPSmMBfteSWFesGAvnngnho1sxurVq6w/mcZVoM7g5kqJAH23gJ3naZIbbnQeMhk9c8SIEV7Dhg2LGDJkSGZNRemAspK+84v75txTkJ/zdl5e/kfZuQX/l5KRj8iEXAREZsMnpgIBmW3oU7EUEYMlh6+/DQmN9yGpbQeSRcdgb++A3VpulIlph6s/Ybl6obXc+Azyx/0Ew0e1Yt26tdbzJZ3BLWnJ3yIjI9d8Jx9RdePbE/X19WcI6L0lpYkY2K9fdk1NZU15eUlTYUHOZfm5mbtycrI/yc0vQmZuKRIzSxGWWAKfqGL0jBmAgPyZAvzVMjmViWnbQxbsqZ519fR2unpHrt7h6k8gu+VWDB3ZYsHNx141LeHEWFd/PHD/uaioyM2v3fj6Y8mSJT9obW09S9KanoMHDw4sLS3sW15SNL2srPQmye+fFfDeyc3L/yQ5NQvh0YkIDE9GQEIVgnPaEVqxGJGDNiJ+1C2Srz9wbAUmY/zDSB1zM4bUN2PD+vXWM/JMP/jMDb+N5KMK/IbWA/inUu6X+9t8brjxVYPA0+Ultek+dGhNQP+KihiBsaqirGxpWVnJrqKi4k8Li4o/y87t+/e45Mx/BIYlfN4jIAG+iXUIK1+I+NG3IbH+OtQNb8LGKzZYvyTMVRFOHJcuXWp9y8pvJT2pyifu1+lufFvi1KampnMktcgUja2sLF8jrny3gPpCXl7eB4lJSZ+ER8b8X1hMKuqGDLOeQ+efU6NL8zFhPgFIB+eWwMtn/8eF241vdfBhMoG2mwBbIiAvlRx718CBA9+VfPvXtbW1HwvEf5b9f2N6Qqj1m1d5/Vs+l+M5jRtufDdCnPxHhYWFKXzMQCC+QOC+QvSgQP2S/Py+vP6r6APXud343gShF+cuFRdfKA6/ka7vecsNN9xwww033HDDDTfccMMNN9xwww033HDDDTfccMMNN9xwww033HDDDTfccMMNN9xwww033HDDDTfccMMNN9xwww033HDDDTfccMMNN9xwww033HDDDTfccMMNN9xwww033HDDDTfccMMNN9xw47sbp5zy/wE+bUNS1L3bOwAAAABJRU5ErkJggg==;fontSize=16;spacingLeft=200;spacingBottom=0;spacingRight=0;spacingTop=-50;" vertex="1" parent="1">
          <mxGeometry x="485.5" y="559.22" width="72.7" height="60.78" as="geometry" />
        </mxCell>
        <mxCell id="GS9lPfkHltT3G8b4393Y-20" value="" style="shape=image;imageAspect=0;aspect=fixed;verticalLabelPosition=bottom;verticalAlign=top;image=data:image/png,iVBORw0KGgoAAAANSUhEUgAAAJcAAABlCAYAAABAxXFrAAAAAXNSR0IArs4c6QAAAARnQU1BAACxjwv8YQUAAAAJcEhZcwAAFxEAABcRAcom8z8AABuZSURBVHhe7Z1ZjGRXeccJScDBCAgJEEAsgQRwEpOYTXmI4heLJIgkRCILUh54iKIsT0Gg8BTjKCQIIhElbELENnY8nhl7xvZ4PHZPL9X73j3dM71Wd9fS3dW1L73PYvvk///O+e49Vd09gJSHuPt80l/f2e6tW+f86jvfvVU986pgwYIFCxYsWLBgwYIFCxYsWLBgwYIFCxYsWLBgwYIFCxYsWLBgwYIFCxYsWLBgwYIFCxYsWLBgwYIFCxYsWLBgwYIFCxYs2Im2++83r67Vam8slUpvbzQK76tUNu7artU+XK+XPlIulz9eqVQ+0YDom5X/RLlR/niTMF7VEL/x8Uaj/DF6LTepfFA4luOd4jL6Pur5j5ZKuY/US6V7SqX1e4rF4m9Bv1mrFT5cKBQ+XC0U7q5W879Rzed/fWNj4y70vR/neke9nn5TIpH4GffWg/1fWz6fv7NWK/1uo1b++1ql9O9b9epj25vVtq1aZXS7Xl2A1rZrlQr8Fvr2NuvV65u1iqjhqU5fr+63iOP30L+P/n14lqGyqE5fr+zSo3+vXmU7656qVDlWrbRTqxRRLu7UqyjD47q3a9XCZr1SbNTLRZyiVIOq1UqxApWr5WKpWi4UK+VCvloqrlUrhcVKsTBeKeY7yoWN06WN9f8q5te/VMmt/slGJvNrxphXu+kJ9pMaJ69ard7dqFa/uVOvLO5tVut7mzVjbu2LXrqxa27tbZubu1vm5s6mub7TMNe362af2rJ+D17F+i48xbqWd5z8cqRNVc1si+oittlyzWypGlTVqdKistmqQ/DbqIs2q/A61h1Xj49n/85WzexuN8z+zra5vrttNqtlUy3m9yr5jUJxfW2mkFv9YW519XPpdPq9ly5deq2bumC3M2wHH9rdrH1/b6u289L1HXML4NwgLFhEQGb2sADULj3quxTr7PPK1A7KlNZx3qif7Vxg9XEZIMFzobWdZUQ4C4AT6whFBpHNIMq1qHR7VUsGke1Q1SqFZpWpvKnDNypFQFYyW9Amyqzn1zKbAO1MNpv6pJvCYIfZXq12L/apOXPrhrmBiLQPCPbwSVaoCIWUnVrr2nao3PE7ru7D5QPmawvgbEP0FqqKACUCRBT2OKgVLl+tYAEKJwFKICnAW1mo8laAqlregN+wvgQVUaYKG6YC0W8hqhU31hvZ9Mo/uKkM5lujsfrm/c36tLl1HVsctgNsTahDjFitOgiVitHJ+hYBFgXJV2u7guWXVQqXD5lELmx7yPFEhwNG+YCpmqNWJAAnoAEuUclCVgVchKlayJlqPmcq+XUoZ0q5dVNGWy6bfmklmfxLN6XB1LZqxd/hNkiwIri2GnHe5CT1A7CpCBi2PvGt0P14YmTzYVPI6KPcyIGl3gLmdChYrfJAg5D4O7CcJ1ziXSSTCObUErnKgKu8sW6K66sCWgZ0ZRcX3+emNRgNedUD5saeA0vh8lWzYjQTfxRcAMGBIjmWqBkgSiByaupzINErVAqYRC/1DiyJWD8xXJQPl4PJARWXmYNBZaoQwyVgafQCXIhgxdwa8q+sKaGeXlp8ADdFP+Wm9mQbJ2J/uzbwsoPregtUSO4tUK4cg6RlrbsohcWnpHyEBCAtO0kd7QrU7WSjWAxWM2CHQ7YJkCgfLB8wu02iHsFVcpHLwiWAubyLUUtyLolc3BrXTAFwFeDTy8mV5eXlt7rpPdnWaDR+BVDlX9zfaYIqkkarqN4Mky8Bi/620ohmwWzq4/GimgPJ3j2ybB9JsG4fPdg7S1v2IbPJ/kHALFhab4ZL8zCFjHeCNvc6JHoxByvmARflopdsjYheq1mTX8+a5eX5z7vpPdkGeD5/Y3frJp9bxXD58sBykmgmcBwBWZOaAdqqM4IUJVptIxnfwR0p27fRzvoWFnsTC8xnXLz1l4iDut69EQICx4XnYrOdQAhYUB3nZruUq3yEUIiinNQJjw+WrwgySAEDWJSFi9ELKlKEy26RzL1s9Fo1JYCWWVkaSqcTd7gpPrmGbfBb5qWbTYl8M1ia1Du4sOgRZB5gCk8zXHGU4gPM9WzSrGbmceuekcXMpOZMubguD1LXsosmt7YsfmlxymysrZj0yoxtyyRNamVWxqaXZ7D9ZNA3C83JmExqHpHLbmMp9K8kr5r11SUBL7e6LOfga+fQxqjUAIAHwKIULAAYR644sbdbYxy9NLGv5JHcA6oSohfzr2xqaX95efFTbopPpm1tbbwF+dbQyzf3PbgOkweUqPXOUaGK6wqVbn2Eq5TPyCITkEoxB9AWpV4urApopfyatK1BRQC0uDCFfoABQFLLsyafSwtU5QKiA4Bayy7JeJbr1bKUl5euAaaUQLa+mgQYeSz2nFlOTgsg+ozsqPwrjlwKmcJlAZPI5QCrePmXzb3WTQHbItuR2D+KfPan3VSfPNttND52c2dzR77GOQBXSwQDJE1wefC0AhaDpRGMeRPzIbflua2QY3awXXE7tGOs5IYA+VScgxFOew4dQ1i53VHbHiz8ukdzL4LBdn1uxbataGxL7kWg1EfRi8e66OVyLgFMIPMil0Sv+LEEE/u1dKqSTM7e46b65BmS4b8xL95oeQTRAhVhQlJv7xr9aKWyUPlSoFrLWm/yDp6DAoACkxOAERBR9sGy4neINq+iLGBOAMZKy3GSfyDBB1QqgQuShN7BKQ9TVd72aAHzcy/7WCK1NP9vbqpPnmFLPK+PIGKgfPnRiiC1wkVA7LbnA6Nlld8mZcCjXyn5QGnU0uhkpdEqhin+WiiGSCOWBS1uJzwWLJXCRqBa4FJ50cvmXIhYUAyXe3LPp/aUAobcy26NNnplVpZzk5OTb3HTfXIM+cDrr2/Wc/yFw/5t4IrAErhaFYPTBI9X99U6JuoDPAqVjUwxWNwypc2DqRUgjViUfB2kbfK1EMoAJpYCxXbb50N1GGB2i7TRK9oWVRK9GLkAmCT2NnrlceeYy2ZeWkku/J2b8pNjAOo+3CnevLnjP4KwW594whNBRRgOB0rVCk2rP7IsYNnoZAHTSGUlz7QAShytrBQmjWAxbHEf1RydmsGKQPKAigDz4Kpp7qVJvYteNnIRLkYuB5dsjTZ6MZqlkvO9yWTyDW7aT4bd2K5/9cX9XXP9qBwLC7+/RQgOAqVwiLD4kXdl6UdZwGHdeXkSr2PoZQxzK1tvBYwRTGUfnMZlhcdCFYNmy4TN+hgkXwRI/e1lAeNjjvjO0UYttyW63Ms+VM277xsBGLdGaD2T3l1JJj/tpv34WzqdvuP6Zq3N3LzugQUBpBgwwHUbsAQaCgt9W7Ue47X5YzRSHQaTqhmgZh3VTsnTeweW3Qp90I6AzEWtJjm4NMGXn+EALMm/9LmXwiVbY1ZgSy0s/A9/hOmm/3jbjWrhbmyJmeavfCgFS6FqhiuCAZIo47dpuWVcdBy8RCp/nJN8v4i21mhFETKrH7U1Nte1LCDBK0i3A0vyL0AVfb/YqggsvYOEBC4m9ZDC5R6qFpF3EbDM8tJuan7+g276j7ft1iufvbW382J8l0ioXORqAsreCfqwKAQCly+Od76p3ck/To9VqFg+DCr2aQTzgfEjkUoiUusYiMfFYyw4PlAHJHDF5YOA2fzL5mDw7qshG70UMHfnyO8bARgfrC4vnoDHEvwVxG6j9g35YWBLxLJRS8GKdRQgqqOAUnEMAfGP8UFqVRytnKKfN8fgHACLcv2tsr+UcMAcptvBpCJQ6kXIw8oYL3AVXWJvIxijl0QwJPZ8qMqtMZ1cTM7Nzb3dLcPxtFwu97r9Rm3wRT6CULDcLx8ioLCgUUIOKRAsKwA+NDIOx2nC3jpOy3oePY7gsOyDtAlpnwIl0ceTAKMiOK7NH6vJPPvjX0l4QKlaIpVVK0i2Lr+WkHa3PcrPoQvyG3t5gl+CJ2AKl3zfuCqAYXu8lVqc/2u3DMfT9mq1d2Pr22/aEmUrdHBhURUQgcwDxoLBL6FjGBQceVwAr+CoWut6TNOxnvS8hEyAgVeQYqhclGoBy5eMc2BJPQJMvS/CFZflDlGBErmI5sMGuAhVnYm9JPeU+96R0YvbIxJ7iV7YGnknmV5avFycmXm9W4rjZ3uN0udu+T+v8cBSiGLZ7/cUEAtXDIEPBdsFDLeFbVOuT8f6XqV1gUnLBES9A8UvCwRablE0vgkq1gmO1u02GgNlFbUpXADIwoWyKsq5+Ecd8FHkcoDJXaPeObqHqsi9+FhiLZN6MZWcu9ctxfGzvc3K95DJxxELAKkUJErKLZD4cLHdblv0vJOzMAg0Xl8su9ix7HFaPtjfrFaIDojQqD+gZpi0TG/lPbmvUnZ7FHh8sCLAVAQL3m2L8Z2jBcwm9oxeaxK9SgAttZR8yC3F8bKXk8nX7jcqky9f340jlkBFH0PlQyZwCQhWMVTxwltILETNUGnf4SIMvj+qLNAcKWybAlCr17Jfx/lEDqRWCVgsO7gcSBq9ogimcEVgASqRfe7lP/OK4GLuxe8bU8ul2dmJ97glOT622yh/9Hqjlr+1uykwNSXtWCT1Vva5kjxbQjsX2QeFC2vL6JMFs2N00W0ZCxt5VTzGV/M5USYMrs2HoxmiH0fNx0uepqq2lCMRMgLGn+3EasiW6G2LvFN0uVcctezjiAguybvWsDXyN/ZZs55euZldWPgztyTHxzAJn9lrVPbkr6g9qDQ6bWMxbHTyQMLEq9fF8su+CFgEkZR1HIWy3y59jBLqVayrvGMPSPu036/78o/xz++9pkasQ8UIRqBQjuCyjyHscy7AVQJkkm8hoY/yLUCVX0fOBbByvGMEXGtZ3DVmTHJu+h/dkhwfKxRyf7VVLb58Hduhbn2yzWGyBSZ4iUAQ27gITZ90kb9orYt3WP2osRQWrEmt/Sr/WD3n7eQf6wuvQWD0tZogsuIvWsULTFZ+9BK4vOdbNmrZxxD+T29sMg+4JGoBLkBFuIoA7cr48Hfdkhwfy+fWvsw/gKjxd+uAySbmBAiT6CZfk9yjFxwTzHZsH3XUqWg7ce06VvujcYfItuOcXFR3bjl/1Oefg33w+tr0BIHjBQxXjwQIfEWRB30Kyo/yBIllB5RA5WCy+ZUm8PAClf1L7Hg7JFiACn49tWyW566ZidGhs/fff//x+q5xYy37df6KIJtKmlx6GZOSA0j8abCLUFgQK5vQat5hF45qXTxPuiCH9NWcDutT1QQArWvZAeSA03P455Lj9HVxDfx5jNy5IS+K/yyMZWxb7vGBjEHZbm0s6xgC5MvC1AwWxfzKJe6aYwEs+/DUbYnuDzbkl6mrGZNemDPTYyPm2tQk4Bp+IZFIHK/nXdjvv01Qspkls7wwaxZnp006OYdwnZaHfwoU74jkzkgSV9QpXURIFpfe1VulMLE/Kjs192NhcV672E6sizBWroVj7esfOt4XFl/+/EvEuzfrozIjDsGTMr+y8dscYITt0DIk0QoCVJJfacRyf79IuGz0slviRmbFpDDPM5NjZmJ40IyPDJrpKxNmbGyoZ2Zm5s1uWV75xp98bOSyD/ITm00v8UdsZhEh+trUhLkyNmymJ0bNwsy0yaB9I7tiSkhE+Rc68lfGbnE4wdXok299VcuyEHF73Gc9j7NeywSB4uJikRgJBAQuuKtLm1d35QoWuML8RiVtWsfi+mIORPllB4N4kW23kciK55LEHMdJVGI/xupXO3Kc5lTIowrIqXLpFZNdWjTLszNmdnLcTAKmieEBgWp8dNiMES60jw4PDQ5MTR2fv8rGJ+U1+fXsqQoWMINtMbVIuDAJV6fM1SvjZgIhe2igz/T39ZgBaLi/14wNDZjJ0SEzNT5srgK+a5MQvStfxSeSuoYJuypCfWIMoLJ9XCZyGm2sq6bGRyJdUQ+4p/D69L7YFo8bFX+F46SN9VFpVzXX49eZpiboR9212euj5NoRTbR8DXNxzb2vqxPow/hrPCbyeN84j4pb3RSudXJ4yEwM9mPO+s045o2Riu8BW6BoDPNIuKZw3tHRIdrb3NK88m11dfXn1tcy58v4JKaX8elanDPzs4hc01cEgklM1BgmahQTMozJGQBc/X29pq+3B+o2vT0J8f2qPopjekx/P6Qex/HYgf4+MwBYRSj3S9m1i1BGfdCNobfqj8uDVkNYtGEsmnhoCG28RtEgxX6tc4z1I/SufQTHj7BNytSgHQcft3lj3PHqOZbtci6p43VwraPwYy46TYwMyTxOAuZJzCWhkohFsADfGICbAqCjI4PDIyMjv+SW5pVv/PdNc6vpi2VsdYQriQRzbuaqwMVP0wQmZQQTMYIJ4oRzEhG8zRD8IIVJtHUsNhcasguHxcGkDXsaGcF5RkfMCEAdxSSPONnyqPgxLID1gNppHFFhbHxM/DgWYQwaR8Sx3vZPtPhxHMdrt23xuEh6XpxHyu61+UEaw7XQj+M6bR3CHCCyCBCjAsYhwhyN4n1SLHMs7gAFpAkXrVi2W6GNWARrFPN1Bdc4MjwAto4RXMXizOtzq9nnSsgVUsgLFudnzey1aXMVdy98w5zoYUAxPDQEkAjTgBkAUDbi9EcRyEYbRh0XZRx0Op51wjgE6IYcbEP41NoyPeBlGRM+jE/8CDyBFmExLJi+XLsTF9xXUzvgsO30AFnbIXse+zqEZ5SvI2ou84NCCOgZ3cRHstHLRjcrjh1FuwCE460cVDwX+kQ8DprEXGMeRsbGxo7Pb7skcq1lLhQB1wrgWmC+dW3KTCHf4CeeCzM8PCxQWLgAFLezfgAmYtluZ1FZoIMIlJZdfYDnwGQOYAEsgISOEc9FRNa55WkbFkAiIRZEoWyWXXgLpdYJKj4Q4m2dgER9DpboWB2Dsu+j6EvvZKOyjcyxXBuuXbZdB5gAJxApYNbb6OaAhAiYg2sUc/oOtzSvfOMfZSByPUm4UskFSeZnkMzz1pjbBbcthUvgACSEqs+BxFzKSsv0jGwKHse6upOcAxGufwA3CRIBHZAES/ptziXRTsSyjYKyFUMC3m1lF13Lzd4X22y7wmKP9drwupSF3x0X1e0HZAjXzRsfyftQt7mYBUyiGOWg8iOWahJbNPLH0WMVucbHx392Yy37WAkJ/QrgWsDt8sw0IheS+XHkOcyRdEskAAJVX5/pY1J/lAAZx9kyvKiljETfH8+kPy73SnThwkok5HgARyD7BD4sHiMMtjW9rmY42Y+FHOG12w+FRFy0x8BiUfnecB6p+31N41zdFz4sB9qYEuBaB6EhlAlZDBqkkYzCtYlHOwFkv+RcQ4O9yLl+wS3NK9/42/lcNvVguZg3y4BrnpHLwcVkmjkHP8nczjRiRVA49R4ivy/ygCTu73Fl53n36YDrxh3oN77+NfPwgz/A4g5YGEUWTkL28IMPmv/8j2/K8YRGoqXr47U+ff6c+dq//ou5fPmF6NoHKIylEl1d5oGv/JM5e+Y0IACg2o9zRJGU0rZI2qbtAMvrH8R1qiSSQQqYRjJGVOtRl74BzPcEAO178tj97xyrqeWv8lHESnLezCNyXZu6EiXzI9gS/agloPRaGHz19Dgv6hURGtYtPLYswtienu7oGBXPTUAS3Qnz6T/4ffPFL3wBcI9IuxXGYLG4tX75S180n/vsn5quRJdcH48T8CB+GL7/ve+az/zxH5pz556M+935+V7a2trMp37vk+Y73/6WRC+/X88jkjbIXYPvWxW398SQMYpFgHF7VaBicZvl3epAX88DbkmOj6XTyd/OpJZKq6kl2RYVrlHeKWLi+cnmgnLyKIGHgDgoxBMUX9Lu4IK63Tiqm8cKXHxO5oT2Z5991jz55BPmhRdeMKdPP25OnToFOM6J2tsvm25Ad+HZC+bS85fM008/ZR599FHzxBNPmDNnzgpk7D9//rw5B51H5Hrk4YfNM888Y5658AzO+bxA8xSOe/qpp+R1zp49K+I5Ll26FAF2QHgfIldXkLTcjz6KY8SjbQDvhw+dJYJBPkwKmYpJPsZXursv3+2W5HhZMjn7t0sLM7tL83PmGrbFK9gW5fmT5CQxXBKNehxcDiSBRsuEppuK2wUoV7ZgQTIGUNEn+CC2VyD64SOPmDNY8MdPnzaPAJ5TjwMylAlcoqvTnMY2durxU/BnBMDHHjtlfvCD/wZ8HQLYGbSfBzxnAcz584TonJzvueeek9cgfISLxz9++owASogJlwCD62SUVaA0StuHxq4d1y9exqt6AJaOYbk7givaIgGSn4exLA9e+3tf7u7qOH6/5fJtdmriz2emJlfmZ66aq9NX5JmQTXhtzsLJFDBEDgzKtUV1aYvbBTQHXbfr7wZQVrbcA6/9nZ2d8Pa4LgDF/Ej6OZ797e04Bm08lxxrRbgZvTRyCuw8hsdjLK+PYPD1ZAwk58YxbGc/o6jAc0BHtVvxXPEYeIAlX5kpXCpukRDvFvmAta87sdfT2f7AzNmZ17hlOL42MzP+7omJ4e+MDQ+tTvKpOUO2bBd2y5DtThbewiALiLosFuoSmVxfLC66D1a3QeIqixypy6qHXtow1gElkj5sffC9BCvRKXUrwAjJOF4LXqPXeX198Q7gqAzJ2Oi14ro9B2Fx3qmpTJBYFqBcWQSwUNfoJV9pMYph7kawA/DroIHuxGZ/V9fzfYnEfW7qT44NDAzcg9vwL/X3dHf0JLp2mUP0SlSwk8lJZkSgemVRXbvr04hxqDq7ZIsjELFa2ziWAPl122bVEcMlsDkI8doWLCsudFQ/AAojFq+7W2CwHsJYgSMScqlIWgc0rcJxkmtRqA+KABggG+L3romul6Dxvq6urw/2Je7DVnyy/2ezqam2O0d7et7V3939R4gWX+np6jjX09k52ZvoTCY6O1ax0OtQjsIir4vY1nl5vav9hfVEZxv621FvXwc80t/d2SFj5Tj6hD0eZXuebjkH6my3YxGtcnhNlp3vzPV2owxha8khAqAcC6DJWMDHsn1dua6Ote7OztWEVRb1bHdHR6a7vT2Dcrq7oz2d6OhMYUwK41fwHldwDct4z0sU2umTOO8i/GJvV9dCT0c71LHQ29kx39vZOY+2OWx106gn+rs6Huvt6vjn3o62v+htb//A+Hj7G93UBjvKhi9desPzzz//3v7Ozg+O9veLRkZ6P4DcDH7kA6LeXni0YUx/vxPLrXV4bJMforTNlvs/OOB5lb5e1DZgPe627hJ/2frL8JcvXryL52vHwqL+q52XOt/f197+vp62tl/uvHjxPe0XLrwbNwvv6ujoeCfuVt+J9/T2jmeeedtAW9tbey9desuFCxd+Ef1vvnjx4s8/9dRTb8Ld5RtxE/CGtra2O9seeeRO9L8O13rHQw89dAcjEfpfc/+994b/STZYsGDBggULFixYsGDBggULFixYsGDBggULFixYsGDBggULFixYsGDBggULFixYsGDBggULFixYsGDBgv3/sVe96n8BZ8l6BM+wwqEAAAAASUVORK5CYII=;" vertex="1" parent="1">
          <mxGeometry x="483.5" y="661.9399999999999" width="71" height="47.49" as="geometry" />
        </mxCell>
        <mxCell id="GS9lPfkHltT3G8b4393Y-21" value="" style="shape=image;imageAspect=0;aspect=fixed;verticalLabelPosition=bottom;verticalAlign=top;image=data:image/png,iVBORw0KGgoAAAANSUhEUgAAAJcAAABlCAYAAABAxXFrAAAAAXNSR0IArs4c6QAAAARnQU1BAACxjwv8YQUAAAAJcEhZcwAAFxEAABcRAcom8z8AABuZSURBVHhe7Z1ZjGRXeccJScDBCAgJEEAsgQRwEpOYTXmI4heLJIgkRCILUh54iKIsT0Gg8BTjKCQIIhElbELENnY8nhl7xvZ4PHZPL9X73j3dM71Wd9fS3dW1L73PYvvk///O+e49Vd09gJSHuPt80l/f2e6tW+f86jvfvVU986pgwYIFCxYsWLBgwYIFCxYsWLBgwYIFCxYsWLBgwYIFCxYsWLBgwYIFCxYsWLBgwYIFCxYsWLBgwYIFCxYsWLBgwYIFCxYs2Im2++83r67Vam8slUpvbzQK76tUNu7artU+XK+XPlIulz9eqVQ+0YDom5X/RLlR/niTMF7VEL/x8Uaj/DF6LTepfFA4luOd4jL6Pur5j5ZKuY/US6V7SqX1e4rF4m9Bv1mrFT5cKBQ+XC0U7q5W879Rzed/fWNj4y70vR/neke9nn5TIpH4GffWg/1fWz6fv7NWK/1uo1b++1ql9O9b9epj25vVtq1aZXS7Xl2A1rZrlQr8Fvr2NuvV65u1iqjhqU5fr+63iOP30L+P/n14lqGyqE5fr+zSo3+vXmU7656qVDlWrbRTqxRRLu7UqyjD47q3a9XCZr1SbNTLRZyiVIOq1UqxApWr5WKpWi4UK+VCvloqrlUrhcVKsTBeKeY7yoWN06WN9f8q5te/VMmt/slGJvNrxphXu+kJ9pMaJ69ard7dqFa/uVOvLO5tVut7mzVjbu2LXrqxa27tbZubu1vm5s6mub7TMNe362af2rJ+D17F+i48xbqWd5z8cqRNVc1si+oittlyzWypGlTVqdKistmqQ/DbqIs2q/A61h1Xj49n/85WzexuN8z+zra5vrttNqtlUy3m9yr5jUJxfW2mkFv9YW519XPpdPq9ly5deq2bumC3M2wHH9rdrH1/b6u289L1HXML4NwgLFhEQGb2sADULj3quxTr7PPK1A7KlNZx3qif7Vxg9XEZIMFzobWdZUQ4C4AT6whFBpHNIMq1qHR7VUsGke1Q1SqFZpWpvKnDNypFQFYyW9Amyqzn1zKbAO1MNpv6pJvCYIfZXq12L/apOXPrhrmBiLQPCPbwSVaoCIWUnVrr2nao3PE7ru7D5QPmawvgbEP0FqqKACUCRBT2OKgVLl+tYAEKJwFKICnAW1mo8laAqlregN+wvgQVUaYKG6YC0W8hqhU31hvZ9Mo/uKkM5lujsfrm/c36tLl1HVsctgNsTahDjFitOgiVitHJ+hYBFgXJV2u7guWXVQqXD5lELmx7yPFEhwNG+YCpmqNWJAAnoAEuUclCVgVchKlayJlqPmcq+XUoZ0q5dVNGWy6bfmklmfxLN6XB1LZqxd/hNkiwIri2GnHe5CT1A7CpCBi2PvGt0P14YmTzYVPI6KPcyIGl3gLmdChYrfJAg5D4O7CcJ1ziXSSTCObUErnKgKu8sW6K66sCWgZ0ZRcX3+emNRgNedUD5saeA0vh8lWzYjQTfxRcAMGBIjmWqBkgSiByaupzINErVAqYRC/1DiyJWD8xXJQPl4PJARWXmYNBZaoQwyVgafQCXIhgxdwa8q+sKaGeXlp8ADdFP+Wm9mQbJ2J/uzbwsoPregtUSO4tUK4cg6RlrbsohcWnpHyEBCAtO0kd7QrU7WSjWAxWM2CHQ7YJkCgfLB8wu02iHsFVcpHLwiWAubyLUUtyLolc3BrXTAFwFeDTy8mV5eXlt7rpPdnWaDR+BVDlX9zfaYIqkkarqN4Mky8Bi/620ohmwWzq4/GimgPJ3j2ybB9JsG4fPdg7S1v2IbPJ/kHALFhab4ZL8zCFjHeCNvc6JHoxByvmARflopdsjYheq1mTX8+a5eX5z7vpPdkGeD5/Y3frJp9bxXD58sBykmgmcBwBWZOaAdqqM4IUJVptIxnfwR0p27fRzvoWFnsTC8xnXLz1l4iDut69EQICx4XnYrOdQAhYUB3nZruUq3yEUIiinNQJjw+WrwgySAEDWJSFi9ELKlKEy26RzL1s9Fo1JYCWWVkaSqcTd7gpPrmGbfBb5qWbTYl8M1ia1Du4sOgRZB5gCk8zXHGU4gPM9WzSrGbmceuekcXMpOZMubguD1LXsosmt7YsfmlxymysrZj0yoxtyyRNamVWxqaXZ7D9ZNA3C83JmExqHpHLbmMp9K8kr5r11SUBL7e6LOfga+fQxqjUAIAHwKIULAAYR644sbdbYxy9NLGv5JHcA6oSohfzr2xqaX95efFTbopPpm1tbbwF+dbQyzf3PbgOkweUqPXOUaGK6wqVbn2Eq5TPyCITkEoxB9AWpV4urApopfyatK1BRQC0uDCFfoABQFLLsyafSwtU5QKiA4Bayy7JeJbr1bKUl5euAaaUQLa+mgQYeSz2nFlOTgsg+ozsqPwrjlwKmcJlAZPI5QCrePmXzb3WTQHbItuR2D+KfPan3VSfPNttND52c2dzR77GOQBXSwQDJE1wefC0AhaDpRGMeRPzIbflua2QY3awXXE7tGOs5IYA+VScgxFOew4dQ1i53VHbHiz8ukdzL4LBdn1uxbataGxL7kWg1EfRi8e66OVyLgFMIPMil0Sv+LEEE/u1dKqSTM7e46b65BmS4b8xL95oeQTRAhVhQlJv7xr9aKWyUPlSoFrLWm/yDp6DAoACkxOAERBR9sGy4neINq+iLGBOAMZKy3GSfyDBB1QqgQuShN7BKQ9TVd72aAHzcy/7WCK1NP9vbqpPnmFLPK+PIGKgfPnRiiC1wkVA7LbnA6Nlld8mZcCjXyn5QGnU0uhkpdEqhin+WiiGSCOWBS1uJzwWLJXCRqBa4FJ50cvmXIhYUAyXe3LPp/aUAobcy26NNnplVpZzk5OTb3HTfXIM+cDrr2/Wc/yFw/5t4IrAErhaFYPTBI9X99U6JuoDPAqVjUwxWNwypc2DqRUgjViUfB2kbfK1EMoAJpYCxXbb50N1GGB2i7TRK9oWVRK9GLkAmCT2NnrlceeYy2ZeWkku/J2b8pNjAOo+3CnevLnjP4KwW594whNBRRgOB0rVCk2rP7IsYNnoZAHTSGUlz7QAShytrBQmjWAxbHEf1RydmsGKQPKAigDz4Kpp7qVJvYteNnIRLkYuB5dsjTZ6MZqlkvO9yWTyDW7aT4bd2K5/9cX9XXP9qBwLC7+/RQgOAqVwiLD4kXdl6UdZwGHdeXkSr2PoZQxzK1tvBYwRTGUfnMZlhcdCFYNmy4TN+hgkXwRI/e1lAeNjjvjO0UYttyW63Ms+VM277xsBGLdGaD2T3l1JJj/tpv34WzqdvuP6Zq3N3LzugQUBpBgwwHUbsAQaCgt9W7Ue47X5YzRSHQaTqhmgZh3VTsnTeweW3Qp90I6AzEWtJjm4NMGXn+EALMm/9LmXwiVbY1ZgSy0s/A9/hOmm/3jbjWrhbmyJmeavfCgFS6FqhiuCAZIo47dpuWVcdBy8RCp/nJN8v4i21mhFETKrH7U1Nte1LCDBK0i3A0vyL0AVfb/YqggsvYOEBC4m9ZDC5R6qFpF3EbDM8tJuan7+g276j7ft1iufvbW382J8l0ioXORqAsreCfqwKAQCly+Od76p3ck/To9VqFg+DCr2aQTzgfEjkUoiUusYiMfFYyw4PlAHJHDF5YOA2fzL5mDw7qshG70UMHfnyO8bARgfrC4vnoDHEvwVxG6j9g35YWBLxLJRS8GKdRQgqqOAUnEMAfGP8UFqVRytnKKfN8fgHACLcv2tsr+UcMAcptvBpCJQ6kXIw8oYL3AVXWJvIxijl0QwJPZ8qMqtMZ1cTM7Nzb3dLcPxtFwu97r9Rm3wRT6CULDcLx8ioLCgUUIOKRAsKwA+NDIOx2nC3jpOy3oePY7gsOyDtAlpnwIl0ceTAKMiOK7NH6vJPPvjX0l4QKlaIpVVK0i2Lr+WkHa3PcrPoQvyG3t5gl+CJ2AKl3zfuCqAYXu8lVqc/2u3DMfT9mq1d2Pr22/aEmUrdHBhURUQgcwDxoLBL6FjGBQceVwAr+CoWut6TNOxnvS8hEyAgVeQYqhclGoBy5eMc2BJPQJMvS/CFZflDlGBErmI5sMGuAhVnYm9JPeU+96R0YvbIxJ7iV7YGnknmV5avFycmXm9W4rjZ3uN0udu+T+v8cBSiGLZ7/cUEAtXDIEPBdsFDLeFbVOuT8f6XqV1gUnLBES9A8UvCwRablE0vgkq1gmO1u02GgNlFbUpXADIwoWyKsq5+Ecd8FHkcoDJXaPeObqHqsi9+FhiLZN6MZWcu9ctxfGzvc3K95DJxxELAKkUJErKLZD4cLHdblv0vJOzMAg0Xl8su9ix7HFaPtjfrFaIDojQqD+gZpi0TG/lPbmvUnZ7FHh8sCLAVAQL3m2L8Z2jBcwm9oxeaxK9SgAttZR8yC3F8bKXk8nX7jcqky9f340jlkBFH0PlQyZwCQhWMVTxwltILETNUGnf4SIMvj+qLNAcKWybAlCr17Jfx/lEDqRWCVgsO7gcSBq9ogimcEVgASqRfe7lP/OK4GLuxe8bU8ul2dmJ97glOT622yh/9Hqjlr+1uykwNSXtWCT1Vva5kjxbQjsX2QeFC2vL6JMFs2N00W0ZCxt5VTzGV/M5USYMrs2HoxmiH0fNx0uepqq2lCMRMgLGn+3EasiW6G2LvFN0uVcctezjiAguybvWsDXyN/ZZs55euZldWPgztyTHxzAJn9lrVPbkr6g9qDQ6bWMxbHTyQMLEq9fF8su+CFgEkZR1HIWy3y59jBLqVayrvGMPSPu036/78o/xz++9pkasQ8UIRqBQjuCyjyHscy7AVQJkkm8hoY/yLUCVX0fOBbByvGMEXGtZ3DVmTHJu+h/dkhwfKxRyf7VVLb58Hduhbn2yzWGyBSZ4iUAQ27gITZ90kb9orYt3WP2osRQWrEmt/Sr/WD3n7eQf6wuvQWD0tZogsuIvWsULTFZ+9BK4vOdbNmrZxxD+T29sMg+4JGoBLkBFuIoA7cr48Hfdkhwfy+fWvsw/gKjxd+uAySbmBAiT6CZfk9yjFxwTzHZsH3XUqWg7ce06VvujcYfItuOcXFR3bjl/1Oefg33w+tr0BIHjBQxXjwQIfEWRB30Kyo/yBIllB5RA5WCy+ZUm8PAClf1L7Hg7JFiACn49tWyW566ZidGhs/fff//x+q5xYy37df6KIJtKmlx6GZOSA0j8abCLUFgQK5vQat5hF45qXTxPuiCH9NWcDutT1QQArWvZAeSA03P455Lj9HVxDfx5jNy5IS+K/yyMZWxb7vGBjEHZbm0s6xgC5MvC1AwWxfzKJe6aYwEs+/DUbYnuDzbkl6mrGZNemDPTYyPm2tQk4Bp+IZFIHK/nXdjvv01Qspkls7wwaxZnp006OYdwnZaHfwoU74jkzkgSV9QpXURIFpfe1VulMLE/Kjs192NhcV672E6sizBWroVj7esfOt4XFl/+/EvEuzfrozIjDsGTMr+y8dscYITt0DIk0QoCVJJfacRyf79IuGz0slviRmbFpDDPM5NjZmJ40IyPDJrpKxNmbGyoZ2Zm5s1uWV75xp98bOSyD/ITm00v8UdsZhEh+trUhLkyNmymJ0bNwsy0yaB9I7tiSkhE+Rc68lfGbnE4wdXok299VcuyEHF73Gc9j7NeywSB4uJikRgJBAQuuKtLm1d35QoWuML8RiVtWsfi+mIORPllB4N4kW23kciK55LEHMdJVGI/xupXO3Kc5lTIowrIqXLpFZNdWjTLszNmdnLcTAKmieEBgWp8dNiMES60jw4PDQ5MTR2fv8rGJ+U1+fXsqQoWMINtMbVIuDAJV6fM1SvjZgIhe2igz/T39ZgBaLi/14wNDZjJ0SEzNT5srgK+a5MQvStfxSeSuoYJuypCfWIMoLJ9XCZyGm2sq6bGRyJdUQ+4p/D69L7YFo8bFX+F46SN9VFpVzXX49eZpiboR9212euj5NoRTbR8DXNxzb2vqxPow/hrPCbyeN84j4pb3RSudXJ4yEwM9mPO+s045o2Riu8BW6BoDPNIuKZw3tHRIdrb3NK88m11dfXn1tcy58v4JKaX8elanDPzs4hc01cEgklM1BgmahQTMozJGQBc/X29pq+3B+o2vT0J8f2qPopjekx/P6Qex/HYgf4+MwBYRSj3S9m1i1BGfdCNobfqj8uDVkNYtGEsmnhoCG28RtEgxX6tc4z1I/SufQTHj7BNytSgHQcft3lj3PHqOZbtci6p43VwraPwYy46TYwMyTxOAuZJzCWhkohFsADfGICbAqCjI4PDIyMjv+SW5pVv/PdNc6vpi2VsdYQriQRzbuaqwMVP0wQmZQQTMYIJ4oRzEhG8zRD8IIVJtHUsNhcasguHxcGkDXsaGcF5RkfMCEAdxSSPONnyqPgxLID1gNppHFFhbHxM/DgWYQwaR8Sx3vZPtPhxHMdrt23xuEh6XpxHyu61+UEaw7XQj+M6bR3CHCCyCBCjAsYhwhyN4n1SLHMs7gAFpAkXrVi2W6GNWARrFPN1Bdc4MjwAto4RXMXizOtzq9nnSsgVUsgLFudnzey1aXMVdy98w5zoYUAxPDQEkAjTgBkAUDbi9EcRyEYbRh0XZRx0Op51wjgE6IYcbEP41NoyPeBlGRM+jE/8CDyBFmExLJi+XLsTF9xXUzvgsO30AFnbIXse+zqEZ5SvI2ou84NCCOgZ3cRHstHLRjcrjh1FuwCE460cVDwX+kQ8DprEXGMeRsbGxo7Pb7skcq1lLhQB1wrgWmC+dW3KTCHf4CeeCzM8PCxQWLgAFLezfgAmYtluZ1FZoIMIlJZdfYDnwGQOYAEsgISOEc9FRNa55WkbFkAiIRZEoWyWXXgLpdYJKj4Q4m2dgER9DpboWB2Dsu+j6EvvZKOyjcyxXBuuXbZdB5gAJxApYNbb6OaAhAiYg2sUc/oOtzSvfOMfZSByPUm4UskFSeZnkMzz1pjbBbcthUvgACSEqs+BxFzKSsv0jGwKHse6upOcAxGufwA3CRIBHZAES/ptziXRTsSyjYKyFUMC3m1lF13Lzd4X22y7wmKP9drwupSF3x0X1e0HZAjXzRsfyftQt7mYBUyiGOWg8iOWahJbNPLH0WMVucbHx392Yy37WAkJ/QrgWsDt8sw0IheS+XHkOcyRdEskAAJVX5/pY1J/lAAZx9kyvKiljETfH8+kPy73SnThwkok5HgARyD7BD4sHiMMtjW9rmY42Y+FHOG12w+FRFy0x8BiUfnecB6p+31N41zdFz4sB9qYEuBaB6EhlAlZDBqkkYzCtYlHOwFkv+RcQ4O9yLl+wS3NK9/42/lcNvVguZg3y4BrnpHLwcVkmjkHP8nczjRiRVA49R4ivy/ygCTu73Fl53n36YDrxh3oN77+NfPwgz/A4g5YGEUWTkL28IMPmv/8j2/K8YRGoqXr47U+ff6c+dq//ou5fPmF6NoHKIylEl1d5oGv/JM5e+Y0IACg2o9zRJGU0rZI2qbtAMvrH8R1qiSSQQqYRjJGVOtRl74BzPcEAO178tj97xyrqeWv8lHESnLezCNyXZu6EiXzI9gS/agloPRaGHz19Dgv6hURGtYtPLYswtienu7oGBXPTUAS3Qnz6T/4ffPFL3wBcI9IuxXGYLG4tX75S180n/vsn5quRJdcH48T8CB+GL7/ve+az/zxH5pz556M+935+V7a2trMp37vk+Y73/6WRC+/X88jkjbIXYPvWxW398SQMYpFgHF7VaBicZvl3epAX88DbkmOj6XTyd/OpJZKq6kl2RYVrlHeKWLi+cnmgnLyKIGHgDgoxBMUX9Lu4IK63Tiqm8cKXHxO5oT2Z5991jz55BPmhRdeMKdPP25OnToFOM6J2tsvm25Ad+HZC+bS85fM008/ZR599FHzxBNPmDNnzgpk7D9//rw5B51H5Hrk4YfNM888Y5658AzO+bxA8xSOe/qpp+R1zp49K+I5Ll26FAF2QHgfIldXkLTcjz6KY8SjbQDvhw+dJYJBPkwKmYpJPsZXursv3+2W5HhZMjn7t0sLM7tL83PmGrbFK9gW5fmT5CQxXBKNehxcDiSBRsuEppuK2wUoV7ZgQTIGUNEn+CC2VyD64SOPmDNY8MdPnzaPAJ5TjwMylAlcoqvTnMY2durxU/BnBMDHHjtlfvCD/wZ8HQLYGbSfBzxnAcz584TonJzvueeek9cgfISLxz9++owASogJlwCD62SUVaA0StuHxq4d1y9exqt6AJaOYbk7givaIgGSn4exLA9e+3tf7u7qOH6/5fJtdmriz2emJlfmZ66aq9NX5JmQTXhtzsLJFDBEDgzKtUV1aYvbBTQHXbfr7wZQVrbcA6/9nZ2d8Pa4LgDF/Ej6OZ797e04Bm08lxxrRbgZvTRyCuw8hsdjLK+PYPD1ZAwk58YxbGc/o6jAc0BHtVvxXPEYeIAlX5kpXCpukRDvFvmAta87sdfT2f7AzNmZ17hlOL42MzP+7omJ4e+MDQ+tTvKpOUO2bBd2y5DtThbewiALiLosFuoSmVxfLC66D1a3QeIqixypy6qHXtow1gElkj5sffC9BCvRKXUrwAjJOF4LXqPXeX198Q7gqAzJ2Oi14ro9B2Fx3qmpTJBYFqBcWQSwUNfoJV9pMYph7kawA/DroIHuxGZ/V9fzfYnEfW7qT44NDAzcg9vwL/X3dHf0JLp2mUP0SlSwk8lJZkSgemVRXbvr04hxqDq7ZIsjELFa2ziWAPl122bVEcMlsDkI8doWLCsudFQ/AAojFq+7W2CwHsJYgSMScqlIWgc0rcJxkmtRqA+KABggG+L3romul6Dxvq6urw/2Je7DVnyy/2ezqam2O0d7et7V3939R4gWX+np6jjX09k52ZvoTCY6O1ax0OtQjsIir4vY1nl5vav9hfVEZxv621FvXwc80t/d2SFj5Tj6hD0eZXuebjkH6my3YxGtcnhNlp3vzPV2owxha8khAqAcC6DJWMDHsn1dua6Ote7OztWEVRb1bHdHR6a7vT2Dcrq7oz2d6OhMYUwK41fwHldwDct4z0sU2umTOO8i/GJvV9dCT0c71LHQ29kx39vZOY+2OWx106gn+rs6Huvt6vjn3o62v+htb//A+Hj7G93UBjvKhi9desPzzz//3v7Ozg+O9veLRkZ6P4DcDH7kA6LeXni0YUx/vxPLrXV4bJMforTNlvs/OOB5lb5e1DZgPe627hJ/2frL8JcvXryL52vHwqL+q52XOt/f197+vp62tl/uvHjxPe0XLrwbNwvv6ujoeCfuVt+J9/T2jmeeedtAW9tbey9desuFCxd+Ef1vvnjx4s8/9dRTb8Ld5RtxE/CGtra2O9seeeRO9L8O13rHQw89dAcjEfpfc/+994b/STZYsGDBggULFixYsGDBggULFixYsGDBggULFixYsGDBggULFixYsGDBggULFixYsGDBggULFixYsGDBgv3/sVe96n8BZ8l6BM+wwqEAAAAASUVORK5CYII=;" vertex="1" parent="1">
          <mxGeometry x="690" y="652.51" width="71" height="47.49" as="geometry" />
        </mxCell>
        <mxCell id="GS9lPfkHltT3G8b4393Y-27" value="" style="shape=image;imageAspect=0;aspect=fixed;verticalLabelPosition=bottom;verticalAlign=top;image=data:image/png,iVBORw0KGgoAAAANSUhEUgAAAJEAAAByCAYAAABTCDMPAAAAAXNSR0IArs4c6QAAAARnQU1BAACxjwv8YQUAAAAJcEhZcwAAMsAAADLAAShkWtsAABH6SURBVHhe7Z0HmBxlGcexYgcbKjaKBRvYFRsqFnwsKCbc7cxeDg0CFhRFQURFiiAtJAjk5pu5XIgRpcaoRFCaqCgkkOTmm9nLQUSxRKRIwBhBNP7f3XfvZmffnd3bnZmd3Zvf8/yfg+z7zdfbzFe2y0keQ3mXmLa3DSqZyl1gjHrv4Z9ysoxhj7/OtP0TTeWtNxf97in8z6kz6JR25gIUkr7PsL0L2CwnK5hL/NeWC46tdU2GKf8INkkdFJSjasISlPIenmut2YFNc7qNofRJYkZB+M1ls9Qhv6UwkdDNLWWznCxQsLyPShlVFcYhH2DT1DBG3HdJYanKsPKxUeYwbL1ByiwSWoQVbJYa8PeKcDiqQjfnsVlOlogcf1RUZNPEKdj6E4L/U0KBP4ZNc7JEwZp4hpRhAd1xiLXmCWyeGHPOvOHxKNB/Evyf0sAS9/lsnpM1MDNzpEyrCt3aQjZNDMy6zpD8npLSi9g0J4sUl922E2Y9/xAzj1VU/jw2j51m3RgK2N/MRZNde2+V0yIF2/u0mIFBjfgfZPPYMJT7IdGvgNASforNc7IOurVfSJlYFcYsW0y1/s1s3jHFEe9NeO6WsD9BoQBdxeY5vYBpuW+QMjIozJA2m8ovsJO2wXMMFJDNkh9BFRx/b3aS0ytg7HO0lJl1Ut4CdjJjaKAuPjMsx/8SO8npNQpKny5malhK34IC8dn9Fk1uz04bss9x1z4a3eWhsF8tPiskDPRPYac5vQoycYmUuZJQMO6n5RponQ6kLnHofP/pxnnjTx1ySq9HdzSIwnM6bCJnf7XSDgcjp9fBQHqlnMnJifxk73P6geOu3fZo0/LGpMxORJY7doi15jHsfVugFfsqBu3nFyz3450+KydGiq28Q+pQ6D4PY+86AuO0vweeuRUF6sKio81uLrLraQaV9wr+z46h8Q3GNTcHMz4WKe9Gc2T9a9mbjig2efPNZjnNoAEtuoXPoAZeX0485V3EP8UCTbtRw/1wBs1cepJeJ/BjYwHP/VW9PxUhPa5js5xGFBzvo2jKfygm4JLSq9gsNkxHfwQt048l/yKl9Coar/BjYqNold4i+scyHG+ITXMkaAApJVxVBeVabBo75qh+Ob3/QeE4lVo9+Lcaf++BHsB/r8Vs62J65wPNH7TH92RnsYMCPRqMc1Bohf7KZjlRIJNsKQGnpNY/j037joK1JnJNFArYSWyaEwUS6tVSAlZFrQGb9h2G7UauzjRGx3dj05xmoOuobvirl/LuLy5b90Q27RvKn1OUnhTjTHLinVj0PYZTitwpYSr/cjbtG1A5FohxZRlW+jtWeh7UymukxKxqyBl/PZv2PGhl9pXiOCXlrWfTnJlg2P4BYoJWpbxfs2nPg1lX9MtPx/sCm+bMFCTg2roEDQiD7BPYtGcxlHuCFLeqEMdr2TSnHUxLf0RK2FqV3snmPUfB1m+U4xSQ5b6BzXPaBVP+yNWDmMmtY9OeA+O+X0pxCuhbbJrTKTSwFBJ4SjSmYNOeAd1Uk8Vyeg2b5sSB4UQfjkBCi3Qmm2ceFJDFUhyCojizeU5cIOFPlBK7Rso7g80zS7PumWRYbiwVgk4eKSzxXsz/m0OgtfmNlOg1ynBBQvi+UxfekNDNTRx33LZHspO2qVkNoPTlBcsd5J9mN63sJytL6dPZSWYwHO94MaxBKe9BOteInXQE0mCZ4McmjB9Pm7d0w3PZbHZSLO+6qEucOqHbOPfwFrYApQFa0HOlMIZVtPV+7KQjhsdKu0jPrwoF6Sw2nb2glhWkxAkLXcOt9K6JnaWOuVi/vKUuGEJY92dnHYPnRXebTumlbDq7QW0yxAQS1I1WCeE7Ev5ulcJTJ+UdyM46Zu5F+rEouI33xin/h2yaTQZG3N0RgbOQKA8XHe/L/M+JUVDaFBNKUFqtEs2IUIB+J4VBUtzLXZH+n5f8qSquMVfsFEfdvTAFDx0wpe+jxfZskhjFGRQkEgrTzw3bPYCdxwZ1R4hz5Gkk9fIPZuexgUI0IfuFuNv6ejbLFhifiIvqy0ppug2/inV+N9d4wdbf6GSbD7orWoX5LWTcutCzmwoZegg/JjYMq8nKSAwB2DRbICEbntVMGrLdl7FpomDW9kqE5edSGJpK6Um0JEvw90tF239vUU3sOmf0lmcOj93+uO22bXsE/XfBmtijYI3vg4z4Ivz5HtTWdiP4s44+vHKwY2Pou/7TUZgbHnGD8N7GptmDXmJJgQ5oOZumAjL5SCEMmRAK0FIa+HJQYwXxPkvysyoq/GyaTZqNBdIezJVbJdu7UgpLd6Qn45yBhaH4yv5WpTWbZhfTdt8pB74iNKVdOWqOdrlK4UlThuMnvs0nclwK9cwnDxonSBGYktIdH23XDkPKfwlagQXw/19iuBIQuo5/oyU8k8ZWHIzEKDqlj0thmBJmo2yafTDo3EOMBAuF7Pb5tn4am6cOnaZB+7qQwb+XwheHaHptKPfrGJDvyN4mCr1CgZ+RB6/TZIDNewP0vdHH28V8KEO7mMp/c+U+NH2LGM4ZCINlH/E6OYkZVzPg//nh8IR0Ppv2DsNnrd0RLU70cXTK+wqbZ4KiWrdrwXY/jBbqGNPxvo/w0SrKjajhd1a7QPx2N7QB//Yb6DJqbejmokF7/Fn8mNRBhR2uSVdBA+jK2by3QGK3MMXuncX1caztiZuBc93nowWMrKxGCp+dEgW1ZJUUsaqQABPFZZv6bit0WqCF/IuUrtPSq9i0dxmy9AsQkbvkCFZEszk2z5kB6G6bXEDjPWg66/tjqUfRcqOnnhDGF59n85wWKNr6c1I6BkV3m7B5f4Bu6xQpojUacd/H5jkRtHQBje1dzOb9BQbaV0kRnhKtK87vQ42EDj5tOpDGbLJv106jCX4RIhh5gQrGR1sHlX43O8kJQG+9Mb6svaZdUr+36PTJQ4x4QChoW4ZG/d56u5owVAGRNqVwWoWF1j72tUlVaNxKlRx5eGrXWzp0W5GHOLEegN3b2cmspvIZKeLktKoc72R2EjvlmwiUF36dcI55XhdnfzStDwWoTrDZbNjuW9nJrKQ8BmrhGx9aiQvYSSJgHPZ1yV/WGJulD0r294UAhXWvocZjud6g1zAc7x0oHH8U0qRGKGS/nXvRtkexs9gp37CkvH9KflekJ9m0FjreFw6/i0gcxf+UCAjED+oDJUi5R7CTWQGNbcR0CAn5c9Pcc/Sz2VkiYAwU+THdUO58Nq1wiLVxB+pbEYn/lo0w7T5oya2J3t0Ovy4MB6yBliPBnsTO+pYWx4ykGwrWxDPYWSIY543vJvgbUODYG2oOC8r7Gn64L2yIkraUzRIDNerisL+SYDfRyyeiRTFob3wWMiXyW2NAv0pjG5ZpuUrwe1pKz2FTZKLSkeuQC8p9P5smBmrgpZLfopSbqWUknUK3CSEPpq6kihJa7us+6ZSezE4TA+GJPIweuppNKzT9vqW8G9k0UVATfyT6L4i6wW6u44mDAbXuJWhdL5Pi10BXfMha8wR2nii0zVrwf0q0pYpNp0FkGp9eT1J+KoNbFNjor9O1osVix7LTngKV4EjE9eFQfBoK9gvZaeLAr8jzDdBKrWDTWujkCsnBlJT3APXbbJ4oKNADaJXqxmcNpfQfELFPsfNMYzj6IKRl5NmTYWGmnNprjjm2fhoK0V+lcFRVHPHexOb1IOOij7LDQItNE2feiLs7wjOjPe0ofDfRrgd+RKZAQZiP+DT/9hUQKsbttA2LH5EKCGfkQaT4vflECxlxm+S4qrQ3ICLQzZeRhFVumbzj09iqEwW9HjEs78soDA0PV2gopS9P+h1QGIR1rhgWFsrGQ/Qdj80b06w/pKY47VuR6WZD+NvS7CUsRPwyFKj951x4x+P5cYlCNx+Z1vgn0epcIYWnuagb14fy41KD3sEhraLfkCt9OJs3B5H4ifgQFgraKJumBi+1bfU9SiNdDR1bcPy9+bEdQ3vqadWBYeljUNDp+s//BPybofQyc8R/Dj86VVDRRuQwVTXD9dqDjvca+UHT6tbySzpTCP6vCYdnxlLePagM1yPxaAxwLG0xphuqaZkDdSN0++Hw2NodqYbStLqw2Hsxveg07fFiQemjUWvPhlo6Qq+plLex5sVdylBLLYYrKEy82Lx1kMCniQ8Lqov3TSDihyGMkbs+sy7EYRMK4lFpDw+CfGJ08pkYs0WPg219JJvPnGY1DQ+/mc7tYfPUoc81aGa/iZr8oBS+rArp+ifKmCzsZaMBvBTGafm/YNP2MEbWvwoPis4g5SV2M3SrYFzyJN4BsboufJkSpuwZurMMedf0Y29xdMNebN4+9F1HenhQWXrRV16Hg3EOantlJUKXhRZnM8Jji58JuggNB6Tw1kp/lc07BwkReYg3fv8vDcbZPBPQV26M2T6DwkSfc+4NhzlJUXqgll8Kvwe62d03gt71SeEOCmG/ks3jA4lyo+RZVfRCbWCJm+jao04oWu5bUPtomWfknbLtSd+FRF9JNZeOcOnmQLkZg05pZ3oZK8eDhd/Jjp3EB7U05RomecpCQVqd1pk8nUCZXBib2KO8EdDyvoACcDYSbhXiRyd+/BEV5i/4eyf+0muAzfjvLfzvN+DvxYjnQjooAW4K85T3Cn5sT4CwNz0UNdGvEjT2kTytkfKuSXLNb077oEKMinlWoxTelqOQWLLn00JtXcnmORkB+RK9SpGk3AVsnjwo0deLgahVqkcO5zQGrUvzGx5t76dsng60QNy03chrxivSi9lJTpdAPpxTny+1woTjVjronZ2kBx1PR55LgQrKsP3T2ElOymDgv0jKk7AKln4bO0mfQXt8T4yR/iYFLCg0lWezk5yUQL60tvWoi/fATcF3jG6pC1xImNmtSGtNz2wHad3SDY+mGv8YO+k+tKVIDGS9VtOh5OwsJ2ZorIohxs+EdK9XF5eeNIQCJQY2LOr+HG9fdpYTE3R+Nr0sFdM8JAwvBthZ9mjlY+20/GF2ltMhBccfRMF4SE7nWqGgZfOusyBF5c+TAi+JvmWxs5w24e3vYvqGFfcVoYliOKV3oYBskiISFmrQBcNj6e5q6AfM700+BQPolneRYNw6j532DrQmGQXkJilCYSEx7i72YiS7BMaVB0J3SGkZFvLg9119D9QpdO0lItv6QQ22t7x43rqd2HlOiMptQq18RK0IBejqRJZ0dINW35yWVTkdo8hOcxgaPCNtmlzDMC207jY77R9oJ6gU2cbSy4at8T3Y+ayFvmlhfLlUTiNZaK2OYef9B5rXAUSw6dvtael/031kc601O/AjZg10uZ9p6RORXkgDKW3qhfR9iNKYH9G/VD7c6hVSIjQSEmYzCtQ3yleL9zn7LZrcvnyPmtKRB8eHBfsr6SJhfszsgHbQIuJbpQRprPJa5qOyePdYHGAS8hUeEwpxbyT9P8P2s31NeZIMjLi7o79fKSdOY6GJ/zNq64pePymNMBzvhTSGQeWY8W7e8neydrY39yNokT6LWtjuLtZLsnomURTl2VaTgzMaSumHaYMBPyqnSuXAhDYTFUJNvhM1emHkKV5dZhBho9cdCOfdUhxaEeL5U9Mp9cdleEmBJnp/tEq/lhKwVSGTboZOo2fRifD86NSZs3jtc1FoCphhLkZYfCmsLQtpQvHhR+e0AhLtQHRzce2tX2va7jnUhdDlu+xF7NA3QLQUA9C5aFVndLRehFZTWrAXOe1gWO4QEnFGB2U2Ewrnn/H3BrRWF+LZZ9AhC5jhHEBH5VBBoLOJ6PMLnVM06Ny8M11TQYdsDSxeu8s8e2LPSmvpHgE3C1FgVqK1Gccz7w/705nwzF766t4LIOPmI6NmfvZhj6nS7fkHc7RzksB0/A8isZejBcjEqR9xCAVnKyrIaDG/dTJdaD0NmvxDkQnXhTOlZ6TocAn34HwDQwaoXLCrT8LYZKOYWdlSCWOxb1OYOfg5WYNOd0P3cJhhecvRUt0uZGLa2oACbtMEgQbnHMycXoJP5h9GZqrKoFXM6FiEcdoWmtqjpRklP4fHSrtwMHL6icMXTW5Pp8LTOnBzRA/TF3OMTSxk+iq0GC7+3oW/d6LAbUL3SIvA7sDfP6CA0F2st+H3Sfx+FX63MZ45FgXGoHOxu3X+dE5On7Dddv8H3uXITUnUELoAAAAASUVORK5CYII=;" vertex="1" parent="1">
          <mxGeometry x="497.5" y="709.43" width="43" height="33.81" as="geometry" />
        </mxCell>
        <mxCell id="GS9lPfkHltT3G8b4393Y-28" value="" style="shape=image;imageAspect=0;aspect=fixed;verticalLabelPosition=bottom;verticalAlign=top;image=data:image/png,iVBORw0KGgoAAAANSUhEUgAAAJEAAAByCAYAAABTCDMPAAAAAXNSR0IArs4c6QAAAARnQU1BAACxjwv8YQUAAAAJcEhZcwAAMsAAADLAAShkWtsAABH6SURBVHhe7Z0HmBxlGcexYgcbKjaKBRvYFRsqFnwsKCbc7cxeDg0CFhRFQURFiiAtJAjk5pu5XIgRpcaoRFCaqCgkkOTmm9nLQUSxRKRIwBhBNP7f3XfvZmffnd3bnZmd3Zvf8/yfg+z7zdfbzFe2y0keQ3mXmLa3DSqZyl1gjHrv4Z9ysoxhj7/OtP0TTeWtNxf97in8z6kz6JR25gIUkr7PsL0L2CwnK5hL/NeWC46tdU2GKf8INkkdFJSjasISlPIenmut2YFNc7qNofRJYkZB+M1ls9Qhv6UwkdDNLWWznCxQsLyPShlVFcYhH2DT1DBG3HdJYanKsPKxUeYwbL1ByiwSWoQVbJYa8PeKcDiqQjfnsVlOlogcf1RUZNPEKdj6E4L/U0KBP4ZNc7JEwZp4hpRhAd1xiLXmCWyeGHPOvOHxKNB/Evyf0sAS9/lsnpM1MDNzpEyrCt3aQjZNDMy6zpD8npLSi9g0J4sUl922E2Y9/xAzj1VU/jw2j51m3RgK2N/MRZNde2+V0yIF2/u0mIFBjfgfZPPYMJT7IdGvgNASforNc7IOurVfSJlYFcYsW0y1/s1s3jHFEe9NeO6WsD9BoQBdxeY5vYBpuW+QMjIozJA2m8ovsJO2wXMMFJDNkh9BFRx/b3aS0ytg7HO0lJl1Ut4CdjJjaKAuPjMsx/8SO8npNQpKny5malhK34IC8dn9Fk1uz04bss9x1z4a3eWhsF8tPiskDPRPYac5vQoycYmUuZJQMO6n5RponQ6kLnHofP/pxnnjTx1ySq9HdzSIwnM6bCJnf7XSDgcjp9fBQHqlnMnJifxk73P6geOu3fZo0/LGpMxORJY7doi15jHsfVugFfsqBu3nFyz3450+KydGiq28Q+pQ6D4PY+86AuO0vweeuRUF6sKio81uLrLraQaV9wr+z46h8Q3GNTcHMz4WKe9Gc2T9a9mbjig2efPNZjnNoAEtuoXPoAZeX0485V3EP8UCTbtRw/1wBs1cepJeJ/BjYwHP/VW9PxUhPa5js5xGFBzvo2jKfygm4JLSq9gsNkxHfwQt048l/yKl9Coar/BjYqNold4i+scyHG+ITXMkaAApJVxVBeVabBo75qh+Ob3/QeE4lVo9+Lcaf++BHsB/r8Vs62J65wPNH7TH92RnsYMCPRqMc1Bohf7KZjlRIJNsKQGnpNY/j037joK1JnJNFArYSWyaEwUS6tVSAlZFrQGb9h2G7UauzjRGx3dj05xmoOuobvirl/LuLy5b90Q27RvKn1OUnhTjTHLinVj0PYZTitwpYSr/cjbtG1A5FohxZRlW+jtWeh7UymukxKxqyBl/PZv2PGhl9pXiOCXlrWfTnJlg2P4BYoJWpbxfs2nPg1lX9MtPx/sCm+bMFCTg2roEDQiD7BPYtGcxlHuCFLeqEMdr2TSnHUxLf0RK2FqV3snmPUfB1m+U4xSQ5b6BzXPaBVP+yNWDmMmtY9OeA+O+X0pxCuhbbJrTKTSwFBJ4SjSmYNOeAd1Uk8Vyeg2b5sSB4UQfjkBCi3Qmm2ceFJDFUhyCojizeU5cIOFPlBK7Rso7g80zS7PumWRYbiwVgk4eKSzxXsz/m0OgtfmNlOg1ynBBQvi+UxfekNDNTRx33LZHspO2qVkNoPTlBcsd5J9mN63sJytL6dPZSWYwHO94MaxBKe9BOteInXQE0mCZ4McmjB9Pm7d0w3PZbHZSLO+6qEucOqHbOPfwFrYApQFa0HOlMIZVtPV+7KQjhsdKu0jPrwoF6Sw2nb2glhWkxAkLXcOt9K6JnaWOuVi/vKUuGEJY92dnHYPnRXebTumlbDq7QW0yxAQS1I1WCeE7Ev5ulcJTJ+UdyM46Zu5F+rEouI33xin/h2yaTQZG3N0RgbOQKA8XHe/L/M+JUVDaFBNKUFqtEs2IUIB+J4VBUtzLXZH+n5f8qSquMVfsFEfdvTAFDx0wpe+jxfZskhjFGRQkEgrTzw3bPYCdxwZ1R4hz5Gkk9fIPZuexgUI0IfuFuNv6ejbLFhifiIvqy0ppug2/inV+N9d4wdbf6GSbD7orWoX5LWTcutCzmwoZegg/JjYMq8nKSAwB2DRbICEbntVMGrLdl7FpomDW9kqE5edSGJpK6Um0JEvw90tF239vUU3sOmf0lmcOj93+uO22bXsE/XfBmtijYI3vg4z4Ivz5HtTWdiP4s44+vHKwY2Pou/7TUZgbHnGD8N7GptmDXmJJgQ5oOZumAjL5SCEMmRAK0FIa+HJQYwXxPkvysyoq/GyaTZqNBdIezJVbJdu7UgpLd6Qn45yBhaH4yv5WpTWbZhfTdt8pB74iNKVdOWqOdrlK4UlThuMnvs0nclwK9cwnDxonSBGYktIdH23XDkPKfwlagQXw/19iuBIQuo5/oyU8k8ZWHIzEKDqlj0thmBJmo2yafTDo3EOMBAuF7Pb5tn4am6cOnaZB+7qQwb+XwheHaHptKPfrGJDvyN4mCr1CgZ+RB6/TZIDNewP0vdHH28V8KEO7mMp/c+U+NH2LGM4ZCINlH/E6OYkZVzPg//nh8IR0Ppv2DsNnrd0RLU70cXTK+wqbZ4KiWrdrwXY/jBbqGNPxvo/w0SrKjajhd1a7QPx2N7QB//Yb6DJqbejmokF7/Fn8mNRBhR2uSVdBA+jK2by3QGK3MMXuncX1caztiZuBc93nowWMrKxGCp+dEgW1ZJUUsaqQABPFZZv6bit0WqCF/IuUrtPSq9i0dxmy9AsQkbvkCFZEszk2z5kB6G6bXEDjPWg66/tjqUfRcqOnnhDGF59n85wWKNr6c1I6BkV3m7B5f4Bu6xQpojUacd/H5jkRtHQBje1dzOb9BQbaV0kRnhKtK87vQ42EDj5tOpDGbLJv106jCX4RIhh5gQrGR1sHlX43O8kJQG+9Mb6svaZdUr+36PTJQ4x4QChoW4ZG/d56u5owVAGRNqVwWoWF1j72tUlVaNxKlRx5eGrXWzp0W5GHOLEegN3b2cmspvIZKeLktKoc72R2EjvlmwiUF36dcI55XhdnfzStDwWoTrDZbNjuW9nJrKQ8BmrhGx9aiQvYSSJgHPZ1yV/WGJulD0r294UAhXWvocZjud6g1zAc7x0oHH8U0qRGKGS/nXvRtkexs9gp37CkvH9KflekJ9m0FjreFw6/i0gcxf+UCAjED+oDJUi5R7CTWQGNbcR0CAn5c9Pcc/Sz2VkiYAwU+THdUO58Nq1wiLVxB+pbEYn/lo0w7T5oya2J3t0Ovy4MB6yBliPBnsTO+pYWx4ykGwrWxDPYWSIY543vJvgbUODYG2oOC8r7Gn64L2yIkraUzRIDNerisL+SYDfRyyeiRTFob3wWMiXyW2NAv0pjG5ZpuUrwe1pKz2FTZKLSkeuQC8p9P5smBmrgpZLfopSbqWUknUK3CSEPpq6kihJa7us+6ZSezE4TA+GJPIweuppNKzT9vqW8G9k0UVATfyT6L4i6wW6u44mDAbXuJWhdL5Pi10BXfMha8wR2nii0zVrwf0q0pYpNp0FkGp9eT1J+KoNbFNjor9O1osVix7LTngKV4EjE9eFQfBoK9gvZaeLAr8jzDdBKrWDTWujkCsnBlJT3APXbbJ4oKNADaJXqxmcNpfQfELFPsfNMYzj6IKRl5NmTYWGmnNprjjm2fhoK0V+lcFRVHPHexOb1IOOij7LDQItNE2feiLs7wjOjPe0ofDfRrgd+RKZAQZiP+DT/9hUQKsbttA2LH5EKCGfkQaT4vflECxlxm+S4qrQ3ICLQzZeRhFVumbzj09iqEwW9HjEs78soDA0PV2gopS9P+h1QGIR1rhgWFsrGQ/Qdj80b06w/pKY47VuR6WZD+NvS7CUsRPwyFKj951x4x+P5cYlCNx+Z1vgn0epcIYWnuagb14fy41KD3sEhraLfkCt9OJs3B5H4ifgQFgraKJumBi+1bfU9SiNdDR1bcPy9+bEdQ3vqadWBYeljUNDp+s//BPybofQyc8R/Dj86VVDRRuQwVTXD9dqDjvca+UHT6tbySzpTCP6vCYdnxlLePagM1yPxaAxwLG0xphuqaZkDdSN0++Hw2NodqYbStLqw2Hsxveg07fFiQemjUWvPhlo6Qq+plLex5sVdylBLLYYrKEy82Lx1kMCniQ8Lqov3TSDihyGMkbs+sy7EYRMK4lFpDw+CfGJ08pkYs0WPg219JJvPnGY1DQ+/mc7tYfPUoc81aGa/iZr8oBS+rArp+ifKmCzsZaMBvBTGafm/YNP2MEbWvwoPis4g5SV2M3SrYFzyJN4BsboufJkSpuwZurMMedf0Y29xdMNebN4+9F1HenhQWXrRV16Hg3EOantlJUKXhRZnM8Jji58JuggNB6Tw1kp/lc07BwkReYg3fv8vDcbZPBPQV26M2T6DwkSfc+4NhzlJUXqgll8Kvwe62d03gt71SeEOCmG/ks3jA4lyo+RZVfRCbWCJm+jao04oWu5bUPtomWfknbLtSd+FRF9JNZeOcOnmQLkZg05pZ3oZK8eDhd/Jjp3EB7U05RomecpCQVqd1pk8nUCZXBib2KO8EdDyvoACcDYSbhXiRyd+/BEV5i/4eyf+0muAzfjvLfzvN+DvxYjnQjooAW4K85T3Cn5sT4CwNz0UNdGvEjT2kTytkfKuSXLNb077oEKMinlWoxTelqOQWLLn00JtXcnmORkB+RK9SpGk3AVsnjwo0deLgahVqkcO5zQGrUvzGx5t76dsng60QNy03chrxivSi9lJTpdAPpxTny+1woTjVjronZ2kBx1PR55LgQrKsP3T2ElOymDgv0jKk7AKln4bO0mfQXt8T4yR/iYFLCg0lWezk5yUQL60tvWoi/fATcF3jG6pC1xImNmtSGtNz2wHad3SDY+mGv8YO+k+tKVIDGS9VtOh5OwsJ2ZorIohxs+EdK9XF5eeNIQCJQY2LOr+HG9fdpYTE3R+Nr0sFdM8JAwvBthZ9mjlY+20/GF2ltMhBccfRMF4SE7nWqGgZfOusyBF5c+TAi+JvmWxs5w24e3vYvqGFfcVoYliOKV3oYBskiISFmrQBcNj6e5q6AfM700+BQPolneRYNw6j532DrQmGQXkJilCYSEx7i72YiS7BMaVB0J3SGkZFvLg9119D9QpdO0lItv6QQ22t7x43rqd2HlOiMptQq18RK0IBejqRJZ0dINW35yWVTkdo8hOcxgaPCNtmlzDMC207jY77R9oJ6gU2cbSy4at8T3Y+ayFvmlhfLlUTiNZaK2OYef9B5rXAUSw6dvtael/031kc601O/AjZg10uZ9p6RORXkgDKW3qhfR9iNKYH9G/VD7c6hVSIjQSEmYzCtQ3yleL9zn7LZrcvnyPmtKRB8eHBfsr6SJhfszsgHbQIuJbpQRprPJa5qOyePdYHGAS8hUeEwpxbyT9P8P2s31NeZIMjLi7o79fKSdOY6GJ/zNq64pePymNMBzvhTSGQeWY8W7e8neydrY39yNokT6LWtjuLtZLsnomURTl2VaTgzMaSumHaYMBPyqnSuXAhDYTFUJNvhM1emHkKV5dZhBho9cdCOfdUhxaEeL5U9Mp9cdleEmBJnp/tEq/lhKwVSGTboZOo2fRifD86NSZs3jtc1FoCphhLkZYfCmsLQtpQvHhR+e0AhLtQHRzce2tX2va7jnUhdDlu+xF7NA3QLQUA9C5aFVndLRehFZTWrAXOe1gWO4QEnFGB2U2Ewrnn/H3BrRWF+LZZ9AhC5jhHEBH5VBBoLOJ6PMLnVM06Ny8M11TQYdsDSxeu8s8e2LPSmvpHgE3C1FgVqK1Gccz7w/705nwzF766t4LIOPmI6NmfvZhj6nS7fkHc7RzksB0/A8isZejBcjEqR9xCAVnKyrIaDG/dTJdaD0NmvxDkQnXhTOlZ6TocAn34HwDQwaoXLCrT8LYZKOYWdlSCWOxb1OYOfg5WYNOd0P3cJhhecvRUt0uZGLa2oACbtMEgQbnHMycXoJP5h9GZqrKoFXM6FiEcdoWmtqjpRklP4fHSrtwMHL6icMXTW5Pp8LTOnBzRA/TF3OMTSxk+iq0GC7+3oW/d6LAbUL3SIvA7sDfP6CA0F2st+H3Sfx+FX63MZ45FgXGoHOxu3X+dE5On7Dddv8H3uXITUnUELoAAAAASUVORK5CYII=;" vertex="1" parent="1">
          <mxGeometry x="704" y="700" width="43" height="33.81" as="geometry" />
        </mxCell>
        <mxCell id="GS9lPfkHltT3G8b4393Y-29" value="" style="shape=image;imageAspect=0;aspect=fixed;verticalLabelPosition=bottom;verticalAlign=top;fontSize=16;image=data:image/png,iVBORw0KGgoAAAANSUhEUgAAAEMAAAA6CAYAAADr5+R6AAAAAXNSR0IArs4c6QAAAARnQU1BAACxjwv8YQUAAAAJcEhZcwAADsQAAA7EAZUrDhsAAAmESURBVGhD7ZsLUFTnFccPxvhoTDVEm5gak0zSasyY+oZ9A4sKqCiKFQy+YqvNWGOSajuZ0WSm006nmdo29ZEIy+7eu7sCAgICUVmo0aSR3UVAY42yiDwMihp8v4Dd7f+7e2nNuOqyu0xXZ8/Mn8vd3Xvud373fK/73Ut+m9yUQnKjjWSGBpJx9odOcq6B5PwOUm0eJEbko8m0bwLGGVIYXXDc9dBKkYUtv0qMygdzucJA9AvoKhw1Q6egxoBKyjVSJMf8Bt43k1TfhMyoBZCrpDBsFSPzweJW94eTSqgZDg8Big3bqoBJoreFx2dX/ySl8MhAtekQSQLsXxDPtBf/XwacLWJkPtj8Hf3g5OD3YQjOA6MJmVbpL0r+vW5rddOLyTsP00Sd1ePv/JVMb+4FGAYbTdHZWBA0QWtxb/0RfDAAEXqbsA2IT0E2ikA5BRiGXoAhAwwUeH16TfMey7cXy21nLpqtrYGRrbXd4+c+qNzWenH3wdMXUz44YBfA9AoMKWCMy7QUHGi+cLujy9nlcDo78SfY1AVdv9np2JBR20xjNZZehZG/v+kCO6EriO3W7S7nBmQwjU13w1D0Eoy8z5susCsgnjco7VZHl2N9evX/YCh5MylCMNwwopEZyhAMN4xYnZlU+hAMAcZUrZmiQjDcMOIAIxowpCEYVZSAahKCIcKYxTJDF4IhwJijMVNMCIYbRlKGmdQhGG4YyciM2BAMN4wFyIypIRhuGKnpZpoWguGGkYbMmKYNwRBgLEZmTA/BcMNY+qmZ4kMw3DCWA0YCYEgMm8TIfLBHAYaUr6IVn5hphvYSSTijGJkP9kjAQGasBIyZ2nZkxm4xMh/sUcmMXwHGLAFGmRiZD/aowFi9xUyJmYDB7xUj88EeFRhrNptpdgiGG8a7gDGnF2AISwUOZ1DDYOs6GzLEpQIG4z0RRmRAYWgtBQeavgtuFC5XR6fD+YGwiCTCWLfJTEmaAMJgy4uT9da3/lJ5Sltqb+N2nzynL633QyfPaUtPtmmK7YIyS+xtOuzr/fWL4zXFdW0JaytOCOu3DMbvAGNuIGF0r8KzxwYi9f6JLTQzMV+ssIK4KoqE2OeejumpmD82+mS+3//YTPMCnRlsFV7CCs2A+CG2Qg5NXF56dO2Wqsa1W2xNKz862DB2UdHXNF5rcQP3UwIMEfR6wEj2H8ZjJNd/BadN7uV9nIQB8VcSvS1Mxttm/Lb8eGZp/RlUu7N/zT52Onr1nmPCYwmejvFFMojB+P3fymh+BmBwFWJkPpiQGTwKx7dSlP4ERevrKJrzrCgvpbpDEt0JmpT5DU0WdJzth6n4OlLgu27JvZDsPpLA37ubq2m27gayeqcYmQ+m4OeR3NhESv4CqfVnKFrbRtGZELZR3cJ+9/+qe0jZLd33pdCfJbnuDgn7bf+V7B6Sior0IJke4s4JkkJK7M/JuEIqYztJjQvEyHpoSn4qKQwnkW6XkGpHkdbVT0Rvr3kyxlT7f5faswZFGw/3UxlrScbXYIJWi4yuoRWffin0JFMMxWJkPTQFLyWF8Tiy4jocH0HrXDk8Me/wmLRdp0anFTWPfqMwuLSwsPlVlEuxak/jiKT8GvRI7NkwGy3adoA2bSynRFSRCP6PYnQ9MJVxHLLhCEDcRAP0NQMxYk5urXLVnvZXFhS4np2dF2TKdT2bmOd6dWGhK35txflh8TnVQhe9QPMlbdxopoWasyTZfhJVcooYoZcmNYwCCAuy4jbIHmUgwqdnV6vXmM+/llbkfC5xh3P47FzH8Nl5QSKUBWUa80aRI/Yd8/nBsVlVNAnddlLmV/SHv5spTdNCEVmnSapNECP00mQ7RgLC58iIToA4hnGA5alpWYdi3i5rQ2Y4B0QbnQNijI6BalNwKMbkQHmcwxJyHJErPmt/LjFXGCHTTO1BWv+PMlqkaaDI7DaK0Paw0YzZ/gwglJLCBBAcujjOMijGVKX6dVnr+KUljpFz85wj5+Y7XpiX7xgZJHoeZULVcM5YV3FpJGsn2NA7TldJv9lSRosz0KVmtaO9Wy5G6KXJTU8hI3IBogu9xwn0y5b+SqNNvaasBW0EroCYEbgSwaABgozO8Lgs57hlJVde/vnOI6gaForlKoU7Wmnpx0iWfRld8DtihF6aascgtBE64SFzOV8PktZ+CoMtcuXupglvljhGJOW5fpyU6xyBq+C1kryQp+O8FY7/6YICZ9x75ddeX7LrqDBiVXMWYTkgLf0IyUzoAQ0bxAi9tMicgagSm0mx3YEBCsYTPHtS16patbc+4pelHSDf9cPpWZ2D47zXkHim7PtqcByT5+O90dD47K7RCwuuo0H/RgARxVkpNb2cUjJqkOU3SWL4sxihlxb3cX8E/ydSbncCSKMAQnzOevyykrrXlxTXj1tWXD/eC7HfjVtSbJes/KwhZk1ZE3qe5pi37y32vfStPQ0/W1pi9+TvQZqwrMSO6ntUGEsoAGKOpoLmZ9pQzdlQoIdvDUzc9jgGVe8DhAvBt9wJQtAU1L/JPdAEbeUPokzWF5N3tqDXuTZ0Rs61YTPvFvv8RzNzbry2qKj9peT8YzQRrb4nf95IAIFyJ+gqKElTiTbvJobaHKILcwfpjan29UUmrAZFZAT/7V0geipMk59Qm2wYBZ4eEpfVge64C2OTTo+K0DlQ9W6/kLyzEd20+16GJ58Pkox331eJ1e+jGbp/kdJ4g6SmfGFS6bWx6biCX4oulDWWmBD5D+JxFW8dnVrUGJ6QfQv77E2fDnx3tyT6zqfjszteTiloGTwty4YRoh/nxrRcye0jte4LUhrQWBp3k1TzpBilF/bhh30w2ZqHjLgFh+ch367KHQqTc9ZRqYX2Z2bl3ugr4xx9ZFxnH/ndCpNynUPQEL+SUtj6dFzOIXHe4NHng8XuUXD7MYncj2HAVTSY+0m1bagYpZcm4+QAcQVXrh1OGQiI3QnyURGcNTw+59DE5SUtYxcXXRiVWnAOk6Vzo1Mhtu0W9sekFZ0fs2hXc3h8dg2qiwjCg8/7SgQhBwQ5vw/ZfRntBNoN7fNihD0w9y07p9CFygx2QGFjCj/F1SM77I+pDHV9HyBM/+tQjXw/r5RHuTEdl3P/REbggmIiOUkzSoyuhybnWlB4Vqe/w5YNUwMjKXxJ9Q+W3+fkUG7+NLICVdyI6YJmvBiZDybjtmKU6YAz1p0+nFKYsDXWkVwnE6Py0diwW2bIQoY8nC/pspeLWWMp0anFiHw0ov8AKcdK7owbwWcAAAAASUVORK5CYII=;" vertex="1" parent="1">
          <mxGeometry x="320" y="800" width="47" height="40.69" as="geometry" />
        </mxCell>
        <mxCell id="GS9lPfkHltT3G8b4393Y-30" value="" style="shape=image;imageAspect=0;aspect=fixed;verticalLabelPosition=bottom;verticalAlign=top;fontSize=16;image=data:image/png,iVBORw0KGgoAAAANSUhEUgAAAEMAAAA6CAYAAADr5+R6AAAAAXNSR0IArs4c6QAAAARnQU1BAACxjwv8YQUAAAAJcEhZcwAADsQAAA7EAZUrDhsAAAmESURBVGhD7ZsLUFTnFccPxvhoTDVEm5gak0zSasyY+oZ9A4sKqCiKFQy+YqvNWGOSajuZ0WSm006nmdo29ZEIy+7eu7sCAgICUVmo0aSR3UVAY42yiDwMihp8v4Dd7f+7e2nNuOqyu0xXZ8/Mn8vd3Xvud373fK/73Ut+m9yUQnKjjWSGBpJx9odOcq6B5PwOUm0eJEbko8m0bwLGGVIYXXDc9dBKkYUtv0qMygdzucJA9AvoKhw1Q6egxoBKyjVSJMf8Bt43k1TfhMyoBZCrpDBsFSPzweJW94eTSqgZDg8Big3bqoBJoreFx2dX/ySl8MhAtekQSQLsXxDPtBf/XwacLWJkPtj8Hf3g5OD3YQjOA6MJmVbpL0r+vW5rddOLyTsP00Sd1ePv/JVMb+4FGAYbTdHZWBA0QWtxb/0RfDAAEXqbsA2IT0E2ikA5BRiGXoAhAwwUeH16TfMey7cXy21nLpqtrYGRrbXd4+c+qNzWenH3wdMXUz44YBfA9AoMKWCMy7QUHGi+cLujy9nlcDo78SfY1AVdv9np2JBR20xjNZZehZG/v+kCO6EriO3W7S7nBmQwjU13w1D0Eoy8z5susCsgnjco7VZHl2N9evX/YCh5MylCMNwwopEZyhAMN4xYnZlU+hAMAcZUrZmiQjDcMOIAIxowpCEYVZSAahKCIcKYxTJDF4IhwJijMVNMCIYbRlKGmdQhGG4YyciM2BAMN4wFyIypIRhuGKnpZpoWguGGkYbMmKYNwRBgLEZmTA/BcMNY+qmZ4kMw3DCWA0YCYEgMm8TIfLBHAYaUr6IVn5hphvYSSTijGJkP9kjAQGasBIyZ2nZkxm4xMh/sUcmMXwHGLAFGmRiZD/aowFi9xUyJmYDB7xUj88EeFRhrNptpdgiGG8a7gDGnF2AISwUOZ1DDYOs6GzLEpQIG4z0RRmRAYWgtBQeavgtuFC5XR6fD+YGwiCTCWLfJTEmaAMJgy4uT9da3/lJ5Sltqb+N2nzynL633QyfPaUtPtmmK7YIyS+xtOuzr/fWL4zXFdW0JaytOCOu3DMbvAGNuIGF0r8KzxwYi9f6JLTQzMV+ssIK4KoqE2OeejumpmD82+mS+3//YTPMCnRlsFV7CCs2A+CG2Qg5NXF56dO2Wqsa1W2xNKz862DB2UdHXNF5rcQP3UwIMEfR6wEj2H8ZjJNd/BadN7uV9nIQB8VcSvS1Mxttm/Lb8eGZp/RlUu7N/zT52Onr1nmPCYwmejvFFMojB+P3fymh+BmBwFWJkPpiQGTwKx7dSlP4ERevrKJrzrCgvpbpDEt0JmpT5DU0WdJzth6n4OlLgu27JvZDsPpLA37ubq2m27gayeqcYmQ+m4OeR3NhESv4CqfVnKFrbRtGZELZR3cJ+9/+qe0jZLd33pdCfJbnuDgn7bf+V7B6Sior0IJke4s4JkkJK7M/JuEIqYztJjQvEyHpoSn4qKQwnkW6XkGpHkdbVT0Rvr3kyxlT7f5faswZFGw/3UxlrScbXYIJWi4yuoRWffin0JFMMxWJkPTQFLyWF8Tiy4jocH0HrXDk8Me/wmLRdp0anFTWPfqMwuLSwsPlVlEuxak/jiKT8GvRI7NkwGy3adoA2bSynRFSRCP6PYnQ9MJVxHLLhCEDcRAP0NQMxYk5urXLVnvZXFhS4np2dF2TKdT2bmOd6dWGhK35txflh8TnVQhe9QPMlbdxopoWasyTZfhJVcooYoZcmNYwCCAuy4jbIHmUgwqdnV6vXmM+/llbkfC5xh3P47FzH8Nl5QSKUBWUa80aRI/Yd8/nBsVlVNAnddlLmV/SHv5spTdNCEVmnSapNECP00mQ7RgLC58iIToA4hnGA5alpWYdi3i5rQ2Y4B0QbnQNijI6BalNwKMbkQHmcwxJyHJErPmt/LjFXGCHTTO1BWv+PMlqkaaDI7DaK0Paw0YzZ/gwglJLCBBAcujjOMijGVKX6dVnr+KUljpFz85wj5+Y7XpiX7xgZJHoeZULVcM5YV3FpJGsn2NA7TldJv9lSRosz0KVmtaO9Wy5G6KXJTU8hI3IBogu9xwn0y5b+SqNNvaasBW0EroCYEbgSwaABgozO8Lgs57hlJVde/vnOI6gaForlKoU7Wmnpx0iWfRld8DtihF6aascgtBE64SFzOV8PktZ+CoMtcuXupglvljhGJOW5fpyU6xyBq+C1kryQp+O8FY7/6YICZ9x75ddeX7LrqDBiVXMWYTkgLf0IyUzoAQ0bxAi9tMicgagSm0mx3YEBCsYTPHtS16patbc+4pelHSDf9cPpWZ2D47zXkHim7PtqcByT5+O90dD47K7RCwuuo0H/RgARxVkpNb2cUjJqkOU3SWL4sxihlxb3cX8E/ydSbncCSKMAQnzOevyykrrXlxTXj1tWXD/eC7HfjVtSbJes/KwhZk1ZE3qe5pi37y32vfStPQ0/W1pi9+TvQZqwrMSO6ntUGEsoAGKOpoLmZ9pQzdlQoIdvDUzc9jgGVe8DhAvBt9wJQtAU1L/JPdAEbeUPokzWF5N3tqDXuTZ0Rs61YTPvFvv8RzNzbry2qKj9peT8YzQRrb4nf95IAIFyJ+gqKElTiTbvJobaHKILcwfpjan29UUmrAZFZAT/7V0geipMk59Qm2wYBZ4eEpfVge64C2OTTo+K0DlQ9W6/kLyzEd20+16GJ58Pkox331eJ1e+jGbp/kdJ4g6SmfGFS6bWx6biCX4oulDWWmBD5D+JxFW8dnVrUGJ6QfQv77E2fDnx3tyT6zqfjszteTiloGTwty4YRoh/nxrRcye0jte4LUhrQWBp3k1TzpBilF/bhh30w2ZqHjLgFh+ch367KHQqTc9ZRqYX2Z2bl3ugr4xx9ZFxnH/ndCpNynUPQEL+SUtj6dFzOIXHe4NHng8XuUXD7MYncj2HAVTSY+0m1bagYpZcm4+QAcQVXrh1OGQiI3QnyURGcNTw+59DE5SUtYxcXXRiVWnAOk6Vzo1Mhtu0W9sekFZ0fs2hXc3h8dg2qiwjCg8/7SgQhBwQ5vw/ZfRntBNoN7fNihD0w9y07p9CFygx2QGFjCj/F1SM77I+pDHV9HyBM/+tQjXw/r5RHuTEdl3P/REbggmIiOUkzSoyuhybnWlB4Vqe/w5YNUwMjKXxJ9Q+W3+fkUG7+NLICVdyI6YJmvBiZDybjtmKU6YAz1p0+nFKYsDXWkVwnE6Py0diwW2bIQoY8nC/pspeLWWMp0anFiHw0ov8AKcdK7owbwWcAAAAASUVORK5CYII=;" vertex="1" parent="1">
          <mxGeometry x="497.5" y="800" width="47" height="40.69" as="geometry" />
        </mxCell>
        <mxCell id="GS9lPfkHltT3G8b4393Y-31" value="" style="shape=image;imageAspect=0;aspect=fixed;verticalLabelPosition=bottom;verticalAlign=top;fontSize=16;image=data:image/png,iVBORw0KGgoAAAANSUhEUgAAAEMAAAA6CAYAAADr5+R6AAAAAXNSR0IArs4c6QAAAARnQU1BAACxjwv8YQUAAAAJcEhZcwAADsQAAA7EAZUrDhsAAAmESURBVGhD7ZsLUFTnFccPxvhoTDVEm5gak0zSasyY+oZ9A4sKqCiKFQy+YqvNWGOSajuZ0WSm006nmdo29ZEIy+7eu7sCAgICUVmo0aSR3UVAY42yiDwMihp8v4Dd7f+7e2nNuOqyu0xXZ8/Mn8vd3Xvud373fK/73Ut+m9yUQnKjjWSGBpJx9odOcq6B5PwOUm0eJEbko8m0bwLGGVIYXXDc9dBKkYUtv0qMygdzucJA9AvoKhw1Q6egxoBKyjVSJMf8Bt43k1TfhMyoBZCrpDBsFSPzweJW94eTSqgZDg8Big3bqoBJoreFx2dX/ySl8MhAtekQSQLsXxDPtBf/XwacLWJkPtj8Hf3g5OD3YQjOA6MJmVbpL0r+vW5rddOLyTsP00Sd1ePv/JVMb+4FGAYbTdHZWBA0QWtxb/0RfDAAEXqbsA2IT0E2ikA5BRiGXoAhAwwUeH16TfMey7cXy21nLpqtrYGRrbXd4+c+qNzWenH3wdMXUz44YBfA9AoMKWCMy7QUHGi+cLujy9nlcDo78SfY1AVdv9np2JBR20xjNZZehZG/v+kCO6EriO3W7S7nBmQwjU13w1D0Eoy8z5susCsgnjco7VZHl2N9evX/YCh5MylCMNwwopEZyhAMN4xYnZlU+hAMAcZUrZmiQjDcMOIAIxowpCEYVZSAahKCIcKYxTJDF4IhwJijMVNMCIYbRlKGmdQhGG4YyciM2BAMN4wFyIypIRhuGKnpZpoWguGGkYbMmKYNwRBgLEZmTA/BcMNY+qmZ4kMw3DCWA0YCYEgMm8TIfLBHAYaUr6IVn5hphvYSSTijGJkP9kjAQGasBIyZ2nZkxm4xMh/sUcmMXwHGLAFGmRiZD/aowFi9xUyJmYDB7xUj88EeFRhrNptpdgiGG8a7gDGnF2AISwUOZ1DDYOs6GzLEpQIG4z0RRmRAYWgtBQeavgtuFC5XR6fD+YGwiCTCWLfJTEmaAMJgy4uT9da3/lJ5Sltqb+N2nzynL633QyfPaUtPtmmK7YIyS+xtOuzr/fWL4zXFdW0JaytOCOu3DMbvAGNuIGF0r8KzxwYi9f6JLTQzMV+ssIK4KoqE2OeejumpmD82+mS+3//YTPMCnRlsFV7CCs2A+CG2Qg5NXF56dO2Wqsa1W2xNKz862DB2UdHXNF5rcQP3UwIMEfR6wEj2H8ZjJNd/BadN7uV9nIQB8VcSvS1Mxttm/Lb8eGZp/RlUu7N/zT52Onr1nmPCYwmejvFFMojB+P3fymh+BmBwFWJkPpiQGTwKx7dSlP4ERevrKJrzrCgvpbpDEt0JmpT5DU0WdJzth6n4OlLgu27JvZDsPpLA37ubq2m27gayeqcYmQ+m4OeR3NhESv4CqfVnKFrbRtGZELZR3cJ+9/+qe0jZLd33pdCfJbnuDgn7bf+V7B6Sior0IJke4s4JkkJK7M/JuEIqYztJjQvEyHpoSn4qKQwnkW6XkGpHkdbVT0Rvr3kyxlT7f5faswZFGw/3UxlrScbXYIJWi4yuoRWffin0JFMMxWJkPTQFLyWF8Tiy4jocH0HrXDk8Me/wmLRdp0anFTWPfqMwuLSwsPlVlEuxak/jiKT8GvRI7NkwGy3adoA2bSynRFSRCP6PYnQ9MJVxHLLhCEDcRAP0NQMxYk5urXLVnvZXFhS4np2dF2TKdT2bmOd6dWGhK35txflh8TnVQhe9QPMlbdxopoWasyTZfhJVcooYoZcmNYwCCAuy4jbIHmUgwqdnV6vXmM+/llbkfC5xh3P47FzH8Nl5QSKUBWUa80aRI/Yd8/nBsVlVNAnddlLmV/SHv5spTdNCEVmnSapNECP00mQ7RgLC58iIToA4hnGA5alpWYdi3i5rQ2Y4B0QbnQNijI6BalNwKMbkQHmcwxJyHJErPmt/LjFXGCHTTO1BWv+PMlqkaaDI7DaK0Paw0YzZ/gwglJLCBBAcujjOMijGVKX6dVnr+KUljpFz85wj5+Y7XpiX7xgZJHoeZULVcM5YV3FpJGsn2NA7TldJv9lSRosz0KVmtaO9Wy5G6KXJTU8hI3IBogu9xwn0y5b+SqNNvaasBW0EroCYEbgSwaABgozO8Lgs57hlJVde/vnOI6gaForlKoU7Wmnpx0iWfRld8DtihF6aascgtBE64SFzOV8PktZ+CoMtcuXupglvljhGJOW5fpyU6xyBq+C1kryQp+O8FY7/6YICZ9x75ddeX7LrqDBiVXMWYTkgLf0IyUzoAQ0bxAi9tMicgagSm0mx3YEBCsYTPHtS16patbc+4pelHSDf9cPpWZ2D47zXkHim7PtqcByT5+O90dD47K7RCwuuo0H/RgARxVkpNb2cUjJqkOU3SWL4sxihlxb3cX8E/ydSbncCSKMAQnzOevyykrrXlxTXj1tWXD/eC7HfjVtSbJes/KwhZk1ZE3qe5pi37y32vfStPQ0/W1pi9+TvQZqwrMSO6ntUGEsoAGKOpoLmZ9pQzdlQoIdvDUzc9jgGVe8DhAvBt9wJQtAU1L/JPdAEbeUPokzWF5N3tqDXuTZ0Rs61YTPvFvv8RzNzbry2qKj9peT8YzQRrb4nf95IAIFyJ+gqKElTiTbvJobaHKILcwfpjan29UUmrAZFZAT/7V0geipMk59Qm2wYBZ4eEpfVge64C2OTTo+K0DlQ9W6/kLyzEd20+16GJ58Pkox331eJ1e+jGbp/kdJ4g6SmfGFS6bWx6biCX4oulDWWmBD5D+JxFW8dnVrUGJ6QfQv77E2fDnx3tyT6zqfjszteTiloGTwty4YRoh/nxrRcye0jte4LUhrQWBp3k1TzpBilF/bhh30w2ZqHjLgFh+ch367KHQqTc9ZRqYX2Z2bl3ugr4xx9ZFxnH/ndCpNynUPQEL+SUtj6dFzOIXHe4NHng8XuUXD7MYncj2HAVTSY+0m1bagYpZcm4+QAcQVXrh1OGQiI3QnyURGcNTw+59DE5SUtYxcXXRiVWnAOk6Vzo1Mhtu0W9sekFZ0fs2hXc3h8dg2qiwjCg8/7SgQhBwQ5vw/ZfRntBNoN7fNihD0w9y07p9CFygx2QGFjCj/F1SM77I+pDHV9HyBM/+tQjXw/r5RHuTEdl3P/REbggmIiOUkzSoyuhybnWlB4Vqe/w5YNUwMjKXxJ9Q+W3+fkUG7+NLICVdyI6YJmvBiZDybjtmKU6YAz1p0+nFKYsDXWkVwnE6Py0diwW2bIQoY8nC/pspeLWWMp0anFiHw0ov8AKcdK7owbwWcAAAAASUVORK5CYII=;" vertex="1" parent="1">
          <mxGeometry x="700" y="800" width="47" height="40.69" as="geometry" />
        </mxCell>
        <mxCell id="GS9lPfkHltT3G8b4393Y-41" value="" style="endArrow=none;html=1;fontSize=16;curved=1;" edge="1" parent="1">
          <mxGeometry width="50" height="50" relative="1" as="geometry">
            <mxPoint x="519.64" y="500" as="sourcePoint" />
            <mxPoint x="519.64" y="570" as="targetPoint" />
          </mxGeometry>
        </mxCell>
        <mxCell id="GS9lPfkHltT3G8b4393Y-42" value="" style="endArrow=none;html=1;fontSize=16;entryX=0.5;entryY=0;entryDx=0;entryDy=0;curved=1;" edge="1" parent="1" target="GS9lPfkHltT3G8b4393Y-8">
          <mxGeometry width="50" height="50" relative="1" as="geometry">
            <mxPoint x="520" y="620" as="sourcePoint" />
            <mxPoint x="640" y="560" as="targetPoint" />
          </mxGeometry>
        </mxCell>
        <mxCell id="GS9lPfkHltT3G8b4393Y-43" value="" style="endArrow=none;html=1;fontSize=16;entryX=0.5;entryY=0;entryDx=0;entryDy=0;curved=1;" edge="1" parent="1" target="GS9lPfkHltT3G8b4393Y-20">
          <mxGeometry width="50" height="50" relative="1" as="geometry">
            <mxPoint x="520" y="620" as="sourcePoint" />
            <mxPoint x="640" y="560" as="targetPoint" />
          </mxGeometry>
        </mxCell>
        <mxCell id="GS9lPfkHltT3G8b4393Y-44" value="" style="endArrow=none;html=1;fontSize=16;exitX=0.5;exitY=0;exitDx=0;exitDy=0;curved=1;" edge="1" parent="1" source="GS9lPfkHltT3G8b4393Y-21">
          <mxGeometry width="50" height="50" relative="1" as="geometry">
            <mxPoint x="590" y="610" as="sourcePoint" />
            <mxPoint x="520" y="620" as="targetPoint" />
          </mxGeometry>
        </mxCell>
        <mxCell id="GS9lPfkHltT3G8b4393Y-48" value="核心交换机" style="shape=image;imageAspect=0;aspect=fixed;verticalLabelPosition=bottom;verticalAlign=top;image=data:image/png,iVBORw0KGgoAAAANSUhEUgAAALcAAACZCAYAAABtyKvZAAAAAXNSR0IArs4c6QAAAARnQU1BAACxjwv8YQUAAAAJcEhZcwAAIdUAACHVAQSctJ0AAEBbSURBVHhe7Z0HmBXl2f41sUWlLdt32d57b2yvsJSlLbBshaWDgChF6QJKE0QFUewmauwCBruIKCpWpKiIJiam+PcziaZ8n0m8/889ex7yMs4uaIxRM8913decnTNn3vabe573PbO7p7jhhhtuuOGGG2644YYbbrjhhhtuuOGGG2644YYbbrjhhhtuuOGGG2644YYbbrjhhhtuuOGGG2644YYbbrjhhhtuuOGGG2644YYbbrjhhhtuuOGGG2644YYbbrjhhhtuuOGGG2644YYbbrjhhhtuuOGGG2644YYbbrjxHYgfpKam9oyKilos2hIbGzspLCwsV177+Pn5nRMaGnpWZmbm6Tyu43A33PiWR0lJyWnx8fGJAvPlol8mJib+QyD/PCUl5e/y+jN570+i92NiYl4SPSq6XYBfK5opr+uio6PTIiIifAMCAs6WfWe6F4Ab//EgjAJltAB8qegPycnJEDCRk5NjKTs7G1lZWceJ76enp0PAh3wGAr0luSj+IaC/L9uHROsF8rGyvygyMjJD9sfJHSA0PDzcT8rrwXI9F8CpHTVxw42vKQTMc0TpCQkJG5KSkn6TlpZmwZyfn4+8vLxjys3NPU4KPGWHX6GneD5xfvBikTL+V2D/regtgfwl2e4Up79a4J8r4I+U1zkCfYxAHyLve8vx5/JOItV0wXfj5EPA6iZuWypgrxL4PiSUhLZv374oLCy0tqqCggJLBF5lgu8Ev4JvSuEn9B7Y6fLHSUD/s+gNAf1+0QaBfrZs22TfcHldI6+Z9yfQ/UNCQnp5XN8NN045RWDoIQ5dIlBfJa76/wgdwS0qKkJxcbElvjZlh90E3g69HX4FXaFmCkOoNYWJi4s7TnbYxcEtCdB/E30qgH8oektePyHb62XLCe9Y0SABv1iURvADAwN7864kTabzu/F9DoGwmwz2KAH6WoHs14SSkMptH6WlpZb42kmdAe8EPffx3ISaQGdkZBxLS5iXU3JxHXtNmbDbgXeC3b6PErip34r2i34mqc1toqvkAlgusM8RTZKUZ4TsK5TX8pHYbp6uceO7GpIPdxfVCdA3iWt/TFclrOXl5V9QWVnZcTKB1wtA99ldXkGnWzPnZq5Nl1YRcIqvCboJOOGm7D/bobeDb8KvDm/CLy5uieAL5BCwPxW9Ja93i+4QrRddLOnNeNk/LDQ0tFR+TpTXIVK2l3Sf6/rfxqivrz9D0oHx4pw7xEE/IHgEtqKiAlVVVaisrPyC+J7qROBTBJ3nNV2aUFNMQXRiqfsogm0XQTelkNtBPxHsCrXKDrt5nL5H+AXmPwnUvxW9LXpRHP5J0Q7RHfLeVtmuEo2X90rlAgjzdLEb33Qw/RDYmgTsu2X7MV2VIBLompoaS9XV1cfE/aZOBD2BpkvzDqBQE2KKr00RdhNudW9Tprurq58s+Hb4O4Oe4j7zM/ZjO4NfXV/0e9FR+fll2f+oXBR3ynFXyXYBwRfoh8odoK/k+jEBAQHenuFw42uKH0r60SJQvy6pwUeEWoHu16+foxR2U07QE3CmIkw57EuABFzFfQo7wVa4dWvKdHNTnUHvBL4dfhN6hVjFn7v6nHksZYdfodc0RxwdAvXnsu8vUrffS91/J+18X9p/RD5zSN57VYB/RLZXEv7g4ODs3r17u3n+lwkBoae46EQB7xHRHwghgSS8/fv371J22FWEnC7NnJpph7n6wde6QsKfTaidpK6uUuhNnQz4Cr2prsA34VXxOKfP2j9vfsa8WCgTekpdXreEnxeCcezf5JyfSjs/lDveL+TOt1/6+DFJ9e6Utm4U8C8W8Nv79OlT7e/vH9+rV68enqH97w2B+FwBa5QA9obof+nUdNza2loMGDDgOHGfE9ymCDUvCl4cBFfh1RUQlcJOqE0Xt+tkQD9Z2KkTwW6H1QlYHmeer6vP2z97MsCrw9t/JvgCMSRlsSRpC/d9Lv3996amps/a29v/OmnSpD8PHz78E0kh/yB3jg+kftukz1ZLXzaKySRLnQPldW+mnTJGZwkCfKThe/Xl1g8ECG9p4BQB7HnRX9WpnaDuTAo7gTYdmo6sMPNiMVdE7G5tipB3JhN4lR161b8bfL7X2Xk7O4cJvMoE3w6/HXx7qkPYuV/PrZ/h+zwX68K+9owBL4B/jBo16m/Tpk3747Jly969+OKLX5owYcLjdXV1d8lYrJJ+mypjUCvjGj1mzJhecrGc09raetbEiRNPr6+v/6GHm29vsJICSrDA1UCoCSChYy58slDzOErzal4UCjQ7kufjPkqB5n4F2i474KbsgKucQKfskFN20FV2KKkTwa6w8j2nc5/onPr5zoDvDHQn2Cme06nd9nqxLF4Mkrtbbu/t7Y2wsDDrs83NzVi9ejU2bdqEpUuXYubMmRCw/0/c/6BcDHe0tLSskPEeJvXjF1nfviDUAluwwDRZ9KqA+DnhI5xOANulDs3juZxHaAms6cwm0Pq+urSTTMA7kxPwKifoVSbwKjsAKjsIJwKU4j5+9kTn7+q8PI/ThXMy4FM8nm2194VZJ62X/WeKdWA5vAswx+dKDie4zPV5MXH8Bg0ahKFDh/Ku/FP5bG8PTt+ekManCEy85TzNCnMJrqv0Y+DAgdaWMNOddQmP4CrQJsxfBuiu5AS3XQp2ZzIH2ZQ5uHbpYJsyoTRlwsnPOpVFfZUyzHPbLybKBF/B7qzvuuqXE9WN5dOwBg8ejGHDhlnjKvuvEQ6+HRNUAe40SRUSpWEzpPH7WVk6rjq1AmxK3VmB5kWgKYXCawda32daoh3975J9AO2yD6gpc3Dtsg+204CrTBj5WaeyqK9ShnluyoTdBJ6veU6aiOpk+quz+pn1Ybk0vtGjR5ORz7nPM9Zb5L3/PNzSkBxp3ArZPk/w6LoE1g61vuZkkDDrt4dsDD9HcE2YPY08BvRXdeivQ+agqezvm4NpP9YcXJUOugmgXSaMPF77wH5+yixfZS+zq/K0HBN4ip9h/5uiudjVGfxO9WR5fN3Y2GilImSGx9LgPF+2bflPOvcPpCOkjtkLpZKvq1Mr1CbM6s68QtkIdWg7zNxvB5qdZnbUd0HmQHYlO4im7EBS3O8EUldA8TP2Ms3z6c+ETfcr5LqP5XFMVDp2pnhMZ/Db68kyaWojR46ETCCtenE/x56fZRnyuc3/EeeWBidIw2+U7RtSqc/pwkw/CDFTDftkUK9GBZdSoE1pp7Ch5kB932TC5iSFzi6+x/4xIVIpSCoF6WTKtpejkFP8jH2cdAxNOQHvVD+ej0bX3t5uscGfzXPwGB4v9doY+00+/SgFFwrU60UHWQlWjm5MkNWd6cwKNCvMirLS2gCVdpI2/PsO9MnKDp5d2p+die/bpf1r14nK5j6OE8eTottSalamaVHma/t4sx58f/jw4dbE0UxDTA64j1u5yDYkJCSc60Hv3xcCc4zcIu6RW9WvpNF/U6cmzOrO7FhW0t7ZTmJDOutQlb7/3y57v3DgTWic+teUAm4Xz+MkE3qCp2Zll4JuisfbRdBZD36G+bV+lnXQ97Q+ZtnC278XbrktFQnQNwncv5QCP2dltbH2iqm080xxv1aaA2S/DZqyD6aT9Fz/jWJfduaOdingnclprCiWwc/zrkwjM8XxN6WwmzKBZz3p1iNGjLDOqfXX+ml5BJtjy1SI238L3P36RZ0pMKfJye8TsP8kBf2DULOiWjl7h7Ni3G9Kr0ICa+Zwpuxg26Uwn0j2+nyfxX7lOCjgprj/RLIDrjLh5nF6d6YIuV1OoKsUcr7mhJGLChxvntespx1sjrmwZ22/TrhP9fNLOcfHP7hfdHT0AykpKR9lZ2chPy8XBexUG0j62tynYsXYEFbSnHU7yQTdSQp5Z7LXw0lm3b4vUki+jBSozmSCTiiZcppS0O2yA6/Qcw5Gt+ZnWWfWwUxTFGy+x3HieHLMyQu3Xwvc3t7eAb45Y+p8cxuf6JUyFOeEF6BnaCb8ItLQJyYF0QmpSEjq+NseyUkJSE9LQVZmOnIE/jwPYKwMYZUKHZOCbZcdcFMKdWeyw23KBPpEMkH5LopwmOB+FTkBTtFxCaQ+PtyZnECn+B7XrfWbRo4bz2kHW+/sHA+OH48jA8pPenr6WjHZr/Rsyak+Pgn+fikDB/lkjNwfOOzqz8LaH0DEpJ2InLgDEe33Irz1doQ1bEVQ7VL45o+FV1w5uvdJgldwHALD4xEenYDY+EQk8IGahDgkJ8YhNTlR4E9FRkbHr2kp0FphlQm7XXbgTZmg22WH3S474E6yQ/RtFR3PDuvXIQJIQAn2iWSHneISMFdCuOV48ZwKNkE/GbD5jSi3qampK+X9H3l4/WcsWbLkB1deeWXc1q1bazdv3py5fPnyUPmA9TcyzjjllFjvtBHtvfuet9233woEtW1DUMu9CG65G31a70HI2PtA0MPHb0OEgB415WHETHsMcTOeQuzURxDZfDOCB10K36Jp8MpsgE9aHQKSaxCcVIzQ+GyERSciLDQEEaFBiI0KR2J8LNJSkpApwGdlHQ+2C/tXU1d5978iphS6rGuXE+CmCLVCznHjHI1g87ysK6F2ApvjyOPJAb/m5zMs3IprO8MtJzxt06ZNc3/84x9D4P75li1bHrn++usvbbvg8ukBfcc/7127Gr5j7oBv40/h23A7/BrugH/jnQgQBTbfZYEeLKD3abu3A/Zx9wvsDyJiwnZETf5ZB+znPYn4GaLzHkP89EcRO+E+RIy6GsHVc+GT3YBe8ZXwji1EQEyOpDfpiIhNRlRMHKIjwwX6MIE+BinJSZbLK8TaSFPc15lM0E05wW7KDrpdJuBdyQ7dN6mvIzUxRRAJqRPYXYkuzTSEW0LJuwrPpSsl6tjmIgP7juPAseI4Ktj6sBYBT0pKWhkcHPxFuCVOXbVq1XRxbsydOxfTp0/H1VdvxpSlNyB+7E8QPflRRE/8GSLEnUMF4KDmOwXu20V3wG8MYRcJ/AT+GOwtHbCHjr1fnL0D9siJ2xE96SHETNmJOAE8QWBPPH83Ui7ci+TzdyFu0n2IbtqK0KGr0af/AoRUzUZY+RSE9W1An5RySW8S4OvjhQCfHgjrE2A5fWpyAjLT06TRzi7vBLzut0NuHmMH3DzODrf9WDvUKh5r/mwH8N8puqAd0K8qTUec4O1M6tZcCWFdWCeexwRb0xATbO1fc9zUsQm2Pmork8lO4T6loaFh0rx58yApikwGEzBy1Bg0n78OkQOXIGHaU0ie+RySZ+xGkqQbiec9gYTpj8n+RxArzhzFvHvCg+LY90qqcjcCmu8QyH+KIHkdJKAHtRB4D+zHXH0boibtkAuHsP9MUpiHkXDe40ic9RRSZj8jwD+L1DnPIX3e80g9/wnEjb8dkSPWo484fWDfdgTmjkJwxgCEpJQiNC4LoRGxCA0ORHhIB/TJ0oYMubJNYLVjtJPsMo+1y4TbLjvcpsyLwEkm7F3JBPWriLDYIf2q4urGl3VtPjfEC4L1YL8QakonjpqKKNhsM/uH/cv+5/ioWxNshVp/USIuLq5zuKWANhbAD3t59UJJcRHqWmYhsHgKgsbcjdB2yZ8nPi4QPi1pxTNInLFHYBcIZ+1B2uxnkSkwZs95FjnznhPtQcZsuQim70TM5AcROkEmnOLKYePvQ0jbPZ40Ri6E41KYbR3OLrDH0tkF9vjpj0g5jyFp1pNIveAZpM3bi4yL9yFjroA/6zEkT30QCQJ9fMuNSGjcjIRR6xFdeyH6ZA+BT0gievToAa8e5yI4wBfREWFISYoX4FM9+fw/wbVD7iTzeLvssJuyw26XHXa77JA7yQlmuwjM15F302WZJzsB3Jnq6uosV2Z/cMuLg+cxwdZUhHVlm9h29g/7l/3fGdj6Gz9dwi0FtrAQ/tYDT1JdVYHKuiZxyfHwqb8ZvsOvg3/TPfBt246Ath0IHrtDXPghAfMRAfIJAXG3uPuzSJ/9PLLmvICcuS8gV1y34KIXUHAx9Rzy5++RfbuRceFTAucj8pmHxL0fkLz8QcRMZX6+XSal245z9hi5M8RO3WmBniCpTOKMx5EssKfMfhppFz4jzv4cMi96EVkLXkLOwleQPU/qMGMnkifcgfimLYgedhmiBsxDRNkkhOaNQJ/kEgSGxSLA31eg90FkeKi1epMuqU1mpri64ezsUFO630l24FV22O2yw27KDropO+BOssNNgOywfhl92XSEKQjXs1kX1pnn6Axs1o/S9rH97B/2rYJtpiEKNnmVlIS/qbMoKirqTA/Ox4cU2MxbzbFF9X41qBo82oK7R9Fs/LB7AHp2D0JNsDhf8lB4VS4T4LfCb+Qt8Bv9E/iLuwe1iEu3S24+4TEB/ilx36cljRFnP38vsi58HrlzX0TfBS+jZMmrqLzkNdSs2I/+l+2X1y+jcAGdnw79qDjz46JHBWLm5jIhnSLpyxRNX3ZaipsmaQxhn/mEB/anBPankT7nGWTN34vsBS8K7C8jZ4FcaPOfQ/bc3VKHJ5B1/sPImrkDGVN/Kk6/BqFFrfCOzEa3Xn7w8vZDUGAwomQSm5QQLx3Z8atSdrBPBLsT5Co73KbscNulA9+Z7HDbRWc0Yf2ysrhwgNhJnDASYvaHurUJtkJ9ohURdWs72ASaYPO37cW1+atnC2TfGR6cjw/Jf+p5VWoeVF1ViaqBwxEkcJ8VUYIfnHIKJp35Q7xdVYyfJMYh/PSz8YOzeqFncBKiKioR21IDv4oG9CqeDZ8BG+DfIJNLcfqg5vsk15Z8vH2nOLHkztOYt+9BugCfLe5eILAXL34V5UtfF9jfwIBVBzFg9QHZ7pft6+h36Svy3gvou1DAvfAxZMx5TOB9Aplzn5CfH5e06DFxc94FPCnMTHH28+UiIewX7Eb63GeQKW5O4HMufhG5C/chb9HLKFj8CgoWvYQ8uaPkzN0l0O9E+uTbkdJyDRJGrEBE5VQrp/cNTURvbx/4+/oiNDTE6kh2NDtdpbDbZQJvlx16lR14U07Aq+yg20VwNDXpTE5Aqwjll0lHWCbbw88SanLFc/BnlqVpiDq2gs228HPsPyew6dYKNsdC/45Kl3BLoSN4CyHYVJXAXV1bh6CCseieMwGnne2N0tPPwG0+vTC/Zzf0FthP++HpCE/yR/O6Qlz90gwMXZWM/LI8pKZlISImEYEZ+QisqkdA//nwG7gOPnVXwl/cPrDhDgQ3P4DwcQRe8vhpu8SBJcWQlCZn7j7L3UuXvIbqFQcwcPVhDL38LYy68iiaN/8cIzceQd2aN+RCeAmlS/eifPlzqLx0L8oueRYFC3cLrALqXIL9pIhbOvpTciHskq2kRAJ7lsCebcEudxMTdlHfJZTcSajFL1nKnyeT3LbrEFE1Az6JlejRJwneIXFWehMeJZ0bJ7dG6XQ6SlpqCtJlQDqgPx58J8gpE267nCCn7HDbZYKtIkCEirKD7SQFm+pqTVvFOz8hZttZR/LEn/9dYBNq/eNAkZGRXcI9hFeYVqCiohxV/WoRnDcGPsOuRe/adehZfCG8UkbK4ObgzF7B6NE7EH1iwtB3Wgja78hGydRwpGclI0cqWFiVifYtRZj/0GDkTvRFfm4ZsvLLEZdVgqDUAnhl9EfvwinwH7gGASNvRMCoW2XiehdCWmViOeERSWl2iQuLw0v+njt/n6Qtr6CM7n7pQQxa8yZGXPEOGq5+D02b3rOgb73252i+5ijqNx7G4DVyYax8QcDfi0rZVokq5HXJsr3ou2iPpCm7xfkF9HlMYfYg+yIB/SIBXVKYPEln8gX4gsUCvAX6Kyha9hqKl72O4ks61HeRHDdHUpwZDyC1/SbEDFmCPvkN8InKRi+/EPgGhiIkLNKCPjlZfztcUhwL/FRrFacr2E3ZYVfZYbfLDruKUCngTjLhVtHs6NqEV2UHm3d9skMI+Rl9bkQzAeWKaYiuipxsKqL5tR1sD9TWb8SHh4d3DrcUXEu4tZG80njlRSVlwz9jCPyLp8G3Yj58+q0UB74K3kOugVe/VeheMAvd00aiZyq/hCmGP7+EiU5BTFYcRq7Jwcyf9ENaY3dkp2WjIKcAZSPTMe6GXIzaEovC6kykSWdExSYiNLUQQcX9EVA1AQGV8+Dffxn86q5AwIjr0afxTkSM2yEpzS7Jr59D+gUE/iUULX5N8vUDkrcfRt26t8XVj6Jp8/tov/4DTL3ld5h006/RJtA3bjoi0B+UC+IARmw8gKEb9qNu/WsYuPZV1Fz2EsqWv4BiSX0Kl+xF4VJx7GWvWNsCcW+KgBN0As/XhUtfQ5EF+n4UL9+PkuUHULLiIEpWHpL06XmkT7pdgF8mKV0LfFNqEZhUij4JeYiIz7SevYmOTUBsTDQS4mKsJctUAd+a0PIxhBNAb4fclB1wlQk3YVLAVCbcTiIHJtimCD25IagEm69NsM0cW8ujW3cGNi/6kwVb/44hAT8h3KyE3i46UpMqOWGcdLh0fHpHYVEx8QgIjYZXRBZ6Z9TDt3xuR8oxeCO8B22EF1W7Rlx+NnpkDkP3xGz4RGYgOCYd4ZFyjsFhmHV7HVpvSUNuWSIKpHGlpUWoGZeGUTdEYNCiGJRV95WBKECMgBAon/FLqoZ/QTsC+i2D/6B1CBi6GcGjb0VYy32ImfAwkqY/jcw5kl4sEIddvB9VAlutAD/08iMYfeW7aN3yPibc8GtMvfm3OO+2D6X8/2dp8s2/QtuWowL8m8idvBUF4y9H9bw7Ub1wB2qWPYrqZU/K3eIZy/FLl7+C0pVvWCpZ/rq4+asedbg6t5YIPWEX0EtWHrbgL1y8D/kXyV1CJrIJYzYirHyqtKkKXmHp8I9IRUh0MqLjUxCfmIx4GcSEuFgkxccee/aGwOvgn0gm7KZM2DnGpkzQ7SKgBNgugk23Jid0WsLKn8mM5timYyvcmoZQvNg6A5sXihPYmoYQbA/UFuB9+vS5SM7h/G9VpOB+ZuG8YllBnvC4zuHrLKmIwJ4UH4Oo8D4ICQlFUHQ6AlMqEZBdDz8B0bv4fHhVLkGv/uvQq3Y9elZfih4l8+BdOAmBw+rQp7YawelVCEnMR3hcIrKbfbB4x1C0bciXvD0JpYXiGJXlqO1fg+rKMhTm5yAzNQHJqelIyCpFTP4QRBS1ILhkPPwrp8On/GL49F+NPvU3IGrcNsnhn5XJJyeMr6J02QFUX/qm5O9vY9j6o2i46j1JY36JSTf+BrPu+Bhj1r+CXsGJ6JubhZpqmUgPHoma0ZNR0zIHNROXo3raepRPuwpFU7eg8Pw7UbH4CfRf+zoGXvEmate/if6XH0bN2sOoXnMIlZcdQPmxC8AjcXhKoS+97C2UrTqCoqWvCPBS1+bNiBywAKECfbi0KSJvOCKz+iEiOR9hUfEI7RNkPXsTFx1hPXCWkZZynMsrwAq4SvfbxfHlODvJhJ1AElZCq1Kw1a1ZDlnhe3Rr7qdbd5Zjq1vbwdZURPNrBdspv1bHJtj8C1X8y1QC9/mCsfO/SZSCq83CWRleeTwhC2YF7Im+KkUqk5yUaD30lBAXjZiocIQEB8HPzx+9+8TDO7EGvvntAuBceFctg1fNWgH+KnjVbUavmsvQq2g2vCVnDR9VjvDqIoQlF0o6lIO4pAyroRkpicjPyUBpSZF0oDiJANi/pgq1g8oxbHoehl6UhsTiQIREMr2pQJ/cRviXTod/zcUIGiDAD9+E8MbbED9xBzIv2CMuug8liyUlWcmVmcOIrJgqqVEc2traMHHiREyeJJo4Xraiie1obmywyszN64vcyqEoGT0T1ZNWof+sa9F/3o/R76K7UbNgG/pf8gQGrX0Jw64+gmEyDxh85TuovfxN1Kw5iKpVb8jE9w0Bfz9KVwjo4vAW9Bbwh1F66VsokQuwROpUvPwN5F/8LFLH34KowUtkUt8E/7QBCE6tQlhKMaJS8hGVkIao6DhERYQizvPsDdMbrtWb0DiJYBFMJ5mQ09wILAFXEWLu1/MTZgKvaYg6NqVg83w8txPYTpPHkwXbA7UFeJdwSyHVLFwL5mtWjidkofYKEDpKbxvmrSNOKsMKxcbGCOhy6wgJQp8AHwQGBMA/JBr+UZnwiy8W6PvBK1VSl+yx6F5yMXpUrZe05lp4D75SXHgl/KoWIKBsFoIKxyM4cxBC4rMRGR6BhJgIZKYkIb80CW3XZGDRvjIMW5SO/lVyq5TOLa5KQ7+pUaicJXedfvnIKq1DcvEIBKXVokfycAQN34yIiQ8jbsZuuYMsxTneIVY7CQYHlQPIP9HF3woZM2YMWlpaML69HZMnT8KkCe1oaRyNYYMHoG7wINTVN2LImAkY2joTde3zUNk8DznDZyJt2DzkT75GgH9c5hfvYPTW9zH6ul9gpMwBRlzzHoZvOoqhV76FgevF9VcfQIWAX8IURpyeKrrkDRQT+suOoHT1O1a6kyuT2PQpdyGp5VrEj1qH+GGXIH7gHESXtSIkrQL+ki76evVEoG8vy+kTxWgyUgV4zecFRgKl46uwqRRASu/cFAGmCDePIQN8X2HnezzO7tiaCeiFo2DrhWGmIU5gK9QKNtMQgk2oCbQHalXncAu8FdJo6y/4sFBWgg3glUKITai1Ak5Xl3mFsTJaIetqk0qFhcqVJrdZPgcS5O8tg9EdvXqK/EIkj89G7+QB6J3VBK+CqehVOs9ydq86mbwO2Yzekst7l82DX+FkBOU1IURSk2Rx+9ypmeLc0UiMjkGG1C13cDjOf7gYFz0trtKWhnJx/PSkWPT29sZZURXwlpzdr/Eu9CyZi9N7BuPcc35kfVXfs2dP+Pr6Wp3FNrB97HztC7oTv3Wrr6+3oOcfaGxtaUb7uDYL+ontbRhdPwzVFSVylylB+YARqBo5Gf3aLkLt5MtQM+0KlE+9GmXn3WA5/Yj1+9By48/RcvOvMWbrL1C/+SiGCPCDNxzGwMsPof+6g6gW8Csvo+MfEMcXV19xSKAXhxent8C/7G30XfwiMs57AAmNVyNy4EKEyZ0ovLgNkfkjEJlZg/DEHIRGRCMkyB8RIYFIiI2StDJNICbQ/4RcwSaQCqqK8PIYskEDYGpCuE2wNcdmXynYlJ7fBNvJLMkVTdLJrTW/VrBDQkKscQoODrbk7+/fpXOXSaGf69XESrARhJKDzIIVanVp8+rSSmhF9NbRVYWCgoIsWX/H2d8Xfj694ePVAz7evdHbNxC9A8KtX3boFZqK7uG5OCeuBj3yBPqaVeg9dCt8hl0HnyGb4Dt4PfxrV8G/egF8sxvRKyZJ3MwH8RXe6On3I5zbrSe6R5VYF4vvqFvgP+ZOa+3+9G5+AvbZ6NWrF7y8vI6JPxN0vuZfGyXwrCPrzrawrewLOiAHk0th+nfr6PZNTU0YO7YNbQL+mNH1GDl8CEaNrMeoMU0Y1TQOo1onY0jTFBQPakZSyXAk1IxH3rh1GLDkYYzedACN1x1B09Z30XzjL0Tvo3Hrexgt7j9y09sYcdWbFvz91x603L5YcnumMSUCPXN5Qs88v2DBXuRc+Dgyz3sQ6ZPvQFr7jUhp2ojY2tkIyRoE39AEaV9v6Xc/RISHIilB7nIZqcjJzkSxwKnQcsuLmvDRffm6M7A1DSHYZMd07K7SEDMDcGJKWbJzpPxQMkadwy0FlYr4v8+tAlkJXnU8KQs00w7TpU2Y7VeXE9DmHyWXq82Sn5+fBRC3fn6+8trHAtzHW+CS22zvXuLs3c8Rd+2Onr390TMgCj1C0tAjuhg9Egehe3oTehTOlsnrWngP24regzfLBHYlepQtRI/SBXIxrIQ3HxUQt/aqXo4fRVfgzG7e6HbuOTLAHWD37i0XVBci5LqlfHx8rDawbWwz+4IDxIHjYHKgmYvyoSH+buCoUSPRMHo0mpsa0dbagtbmRoweORzDhgzCkKHDMHjEGAysb8OA0ZPQv3k2ShrmIHekpDhNK1B6/o8xdO1z4vLvYdytH6D1JoH++ncx5lpJd7YcQb1AP1ygH8I1/vWHULvukExuBf5Vhyzo6fbWyg2XKhfvs9KbjOn3IWXcTUhs2ID4oUsQ228mIgsbEJZahtCoBOvOGhsTJRdxR5sILFMQnThqjk2wzTREwTYdm2BrGmIH226YyhfBNk3SBNtkiWNAdQm3XD1FUtBf9fbAwnkb4UlZmMru0p05tJNLO0GtYFMERuFRmI6T5awCY88eHalMr57o2csLPb180EOg79Y7COf4hOPcmGprktq7/2p4120SXYUe+VNwZnA6zjjHS5xcLhI5R1dQm/VgvbSOlNZbxbawXWwf28q2sx/YN+wvdXkCQLej8+nvDXbk9Q1oFI1pGI0mmby2So7f3NKK1rHtaGufhGGjW5Bf1g9xmaWIKx2D3MYVqJl/N4at3o2RG1/GmGsOouX6o2gV+FsE+uat71juP+baI2gQ+Eduegt1VxwW6DmxPYjyy6hDKLtUwBfn57exBQtfsJYr8+Y+idwLH0HWtLsRnD0CYTLHIcS8UAm2OrY9DTFTEbo1wdY0xCkVUc7sYNsN0+TKbpImSzJG0z0ofzHk5EVS0F9YGAti4RwQnpSFEWiF2p52nAho8wpTIBRmVWdAa6pgimnDP9WzQ5JG9BJge9LdBfgeAny3Xr7o5uXXoR6yT/JqHsOLxF4OZcKsMmHWjjRhpvTWqO1mH1DaJxwc9hf7jX3I/uXAcqDV5QkOn3keMmSI5fRWXt/QYDl9s6Q53LZIjt/S2oqGxhYMHzUGwxra0L9+HPL6NyKxbDSSBpyHwinXoO7SXWgUsFuuf+eYmimBvskC/x00yPujrpE05+q3ZWL7JgZZqc4hcfvD6LtwL0KL2pCa/c91bnVsMxVRxybY6tYm2E6piH3e5pSK2MFWrii7Ser4yPhN8qD8xZCC+kohn2hBLJhXG0/MwlRmoVqwFq5AmxXQSlBfBmqqa6hPJMmZZXtM4vhOZVBaBxNs1tMOtranK6jZF7zYKfaPGoDCTZlmwb6mY1EccE1rCA5BIliEnqs3HenNKDQ2dkxm29parVWcCRMmYNKkSZgoGjpsuADWF0npuUgpq0fe6ItROeN61C68D3UrHpNJ7AtoYF6/5TCarnvbgr7lhnct8ed+ix6EX1yhtDfQqoOZipwM2Kw7wTYnjzqPOxmwzWzA5EvZMsHmuOh4yThO9qD8xZDOzZdC/ocFqbuwozlgOkBaoA6eWagWbBauFVCoFeyugKa+KtDm51RO56dOBmjKDrUT0Haota/sQCvUHEhKwWZfc6A54BQHnxAQBkJBOOiChIipANMadXn+dSa6fIOkNB3At1l/NJLr9RPGj7d+bm5uQkNzK/oNHoHMwirEZlcisbodBePXyyT2IYzc8JIA/wZyWtda85kYqSMBrrGBramImY7Y82uF20xFNL+2g82228FmX7HvlC/TNO1gc6w8Y/iZjN9YD8pfDDlpvhTwEQthASyUHcsTsyCFWgvUQqmThVrBdoKNsoPpBHBnsn+WciqDOhHU2obOoNb2UybUplObULNPFWr2qwk15QQ1RSgojgMhIeQEhiLshIqQ0U2ZC+sv39LlCT3/QDtXbrhOP3bsWMvhp0yZjGnTpgr47RhaNxilxYXILihBQnY5YuKTUdi3wDoHlzx5EenEUR1bV0XsE0eFW1MRBdvJsdlmJ7BpBp2ZpxPYHDsZzz+INgoDIR6UvxhSSLYMxm/0lsDCWCGe1A6zFqiD7wS0CbPKBIxyAtIObVeyf9Z+flNfBWiF2gTaCWZu2W/q1Ow7igOnQHMwT+TS6nAKswKtUBMawqO3fXVKinAxLSBsdFSCaAKvqzb8G9cKPV19ypQp1gR24IBacfxx1i+H0/l5QVD8DD9PyAl1Vzm2mYYo2Dp5ZFs1DTHBZj+xz5Q79qWTY+v46Lh5eHpPxv08wbfr/1svJ8+SE/9KrxwWxArpAOuJTQjsBVL/CagpexkqrYMT1GZb7EB3BjX7h2L/nAhou0Mr1ATaDjVBMB3aBFqhpuwwK9AUgVMRQF2aI5AKO9MMOjKdmdASdro80w6mN3R9ihcF83srl5cUh5/lOfW86tisi+nWJtjq2E5gq1ufCGzlTE2TknH9h4z5QzKuRR58uw4pJFNO/L6enAPJyvDELIQDwEZw4Pz9/NG9O5fTeh4HEKU/K1ym7EA6gduV7J93KoPSutiBphRoSmFWoNmhKgWa6gxohdop7bADTXGgFWgTasKgUBMQ06Up06U7A5rAKXwU0xWV5skE3C7m7oScnyfgBPbSSy+1wGbdzb+4ymNYlh1srbPdsc00xA62Qm0HW/vfCWyOpYzvxzL2m+XnCA+6Jw4Z4HQ56VGemIPNwWVFeFK+5v/+u+nGm3DFhiuwdPFSTJ061br6WVEusZ1zzjk499xz0a1bt47fOjfgUxidgO1M+hlTej4nKczcakeYKYfp1CbU2plsowm0k0srzCbQlALNwVOnVqBNh1bZXfpEQJsubcLMrcKsKYMJtAKsOTPhVTHNoPjNKsVz81iWS+fmOQkoV2soLY/HsT48TuvKNijY/AzbaDq29osdbPYrxb5mn7P/CXVnYMvYHhJDbZTx/nL/QUEGOk10RE/MLSvCk7LQlStX4qV9L+Htt97GkbePYMuWLVh+yXJcufFKaztzxkyMaRhjdRAbRODOOussC3p1ecoJZNWXhVnFOlLsBMqEmmJ7KAWabTOhVqC/DNTq0ibQbDdlTzsoJ5emugLahFpdmpBRJtR2lz4ZqCmmGgSZqy48N1MWfp7tYX15PI/hluUr2Kwf66qpiOnWbKs6NvuC/cJ+Yn/ZwWYfK9g6HhwfhdoG9oMy7uUeXL9cyICnyknf1CuGWw4mT0wYCPczu5/B4sWLrc5lpcpKy7Bnzx68/4v38d5771ng79i+Az+986e45pprsGjRIuu2xkYSQsvhz+1weAXeCequwLYDrVDbgdY2KNRsgxPUbIcdaBNqyg60Qm0C7eTSCrQJtenSCrZCbQKtaYcT1E4u3RXUJtAKNcXXmnbw3NynOTnd2jzOBJt1dgKbbbeDzX5iv5GlzsBWx+Y4cbxMqGXM/1d4WCAK9qD65UNOmCRAHOCJmVoQOlaEILFg/nvi3U/vxvBhwyGHWzrttNOQmpaKK664Ar/73e/w5z/9GS+/9DLeOfIOnn/+eWsictVVV+GxRx/DDTfcgHVr12HOhXOszqRrEVYT9M7A7gxoO9QmzF0BbTq0E8wn69Am0Ao1B5lSmNlOE2jTpU2oTaAJ88kArTCbQDtBrZA6iZNI5tcsw+l9iudgPRVsbQ/bp25tB5t9pY5tgm2HmuNigs1x1LGVcT4oapbPO/89kpMNwi1gvcFCuRzE5SJWiJCz4NWrVlvgbt++3Voq4kCxIoTyggsuwPvvv48//elPuP32263GsmFMScaPH49Dhw7h3aPv4uOPP8ahg4fw9K6n8eQTT+K+e+/D2jVrMbZtrDWo/AwbS6BZrhPYdqhNsE8WaupkoaYItEKtQH9dUFNODm2HmrI7tAm1An2yUKu4WsLHd7uCm+dknVl/toVtU7emTLDVrRVs9iX71QSb6gxsjifHWcb8URn/LEHzhx2E/gshJ44XB32ZhS5cuNCCkpVgKsEKrF27FocPH8a7776Lt958C3v37sW2B7fhnrvvwaOPPIoPfvUBPvnkE9xyyy2W+8opLZ1++ulWB/DYzz77zHL1Xbt24ciRI1a+x3/qs33bdjy751krpbn3nntx+eWXY/LkyZZDsQ5OQNuhNoFmG5yANp3aBFqh5mCYTq1Qc9C6cmlNOzjoCrUCbcJsAm3m0SebdijYXQF9slCraGL8ZpPlOb1PsSy2h+1i+5wc20xDTLDZx+zvk3FsD9h/FF0ir30tML+OkKskVq6WfYSZE8Gzzz7bKlxz4tiYWAyoHWC5+uXrLsfdd91tAfnqq69i34v78PP3fm4582uvvYZbb70V559/vvWcMxvNjqGjE+6jR49i4oSJVmOkWMuVmZvv27fPytn/8Ps/4NVXXsXBAwfx4gsv4sEHHrTy9wsvvNDKDznY7Fh2GDtJ3ZpSp+4KatOpnVzahFqdmlKgTwZqyglqAu2UfhDok4FawTah/lfApgg3v8xheU7vUyxX28j2st0nCzb7W+HuDGw1K4H6qPAwTrj419IQe8hJYwTwZ2X7d819WRHCrTJXPFgpVjgtNQ31I+qtvw57x+13WC7+/N7n8fLLL1vw73pqF5579jkL1r/8+S947933MGvmLAvuH/3oR5azn3rqqZaD867w+9//3kpbdu7ciTVr11juxwuKKREvIqY1nNjeduttWLxosQU8jyGA7FTTKUygtZMpdeoTAa1OrUBzUBVohdop9TgZoNWlFWoF2oTaBNp0axPmrwK0KfY700yW5/Q+xfdMsNkX7Bf2kRPY7F8T7M4cmwxQclf+TLh7XLbJHhy/3pBCvQTaiQLvDaKHBO7XBOBfipP/iTATdoVcpbBzQqgTQzaouKjYWhacO2cuNmzYgJtvuhkP3P8AXn/tdbyx/w0899xzuOuuu7Bs2TKMGzsO/Wr6WU5/9J2j+PTTT8EUhh0o1bLEDrvkkkusdOaPf/wjfvfb31kT1gNvHLAunquvuho333yzNXmdPXs2mpuarU5nXdjJ7HTCRBC45UDphaCQc4AUaBNq6mShVqf+V6BWoJ2gNsF2gvCriHBz4s/ynN6nWC/tg67AZl/awXZybE1DPGB/LI69XuAOsED8huLMbt265QrEF4juFoj3iPbL65+LPpLXXKKxJn3q9HoBKPAU0xzuY2OrqqswY8YMXHnllZbLM+XYsWOH5fB0dub0n37yKZ568ilrksOOYkcwTZLGg38c/6OPPsIHH3yA6669zvpiiWu0dP4VK1ZYzs+J6+uvvm6BpS6dkppiLWXu3r3bWqbksa2trdZkink/B4+gEmR1cQ4gB1KB7gxmM/04US6tQNtTDyegFWa7UzvB96+I+TafL2GZnZ2f9dULnf1iT0U0DTHBJtR2x9Y0hFAzDRGwj8i4zvTw9h+N0wXWKAG4UuBtldcXyetNAu6Dsj0g278QQLsIv14ABJ0OT/jZeILCNdWW5hYL+uXLl+PWW27Ftm3b8NSup3D/A/dj06ZNWLBgAebMmYOHdjyE//nof/Cb3/wGS5csPebsFDuP5+DdYf/+/RZY7Gh2POHkhJh3C0LNp+P4HyTmzZ1nnZcrNlwNouu3j2u38tDysnJrMOlQHFC6Fh3b7tBOLn0ioBVqBVuB/iahVrE/mPaxPKf3KbaBfaBgs08ItqYhJwLbzK8pD9j3iGMXEqxvc5wm4OYIsFMEcN5ebhOYHxK9IK9/LvqrNOTYpEHFfdK4Y+ATeDp8eEQ4KisqLQA50VyzZo2V1jy882Ern2fOzWXH++67z3IdTloJGuEmBMzH97++3xoQdjqdhRfR2nVrsWjhIutCILR0K4LFOnCdnncDfgP7xONPWJPfDZdvsC4qioPPXwmrrqq2yiLodHG+Np1aoTZh5pYQ87Xp0Cp1TBNoherfCbWKk0maQldlsU2arqljm2mIgq1piB1shZqOLf39Wxn7q4SLbzQN+VpCGnqmABsooHLdvFIa0iQNmiPb66VxL4j+rI1lwzUP061ONAhdYECg1YEZ6RkWrHyWhY9hMj9fv3497r33Xuz82U4LdKYp/IdVBw8etJybMHEAOBh0WgLMHJ+p0saNG8HghZCelm7l8/wSas8ze6xzE1Q+UDRu3DiMGjnKcvc777zTmsSuW7fOSmt4HB8jJdh5nj+PQND5WQXbdGdunRyaUH0TEHcmtpF3rK7qwDZpjm2fOFJmfq1gm+OpYAsDL4uxjZb3nP8Dwnc1BPhu0qgkadxAaexEaewiafzVsm+7bA/LVf43dox2ELcq0wnYaX1C+lguQjhG1o+0XP6i+RdZ6QXzcq6982LgYPA4OuzmzZuxavUqy7kL8gustXzm3H2C+2DN6jX4za9/Y+X6PCfvJrwQrrryKgt+5t7W2vzbR6zlydtuuw033nAjrrvuOqu866+73jqeEzPOARRmdWY70N8GqFVcKeEyq/7GjdMxvGjNiSPBpuxpiBPYhlk9IHDnd9DwPQ+5rZ8uV3136QTpi+AkUbF0TKN00BXSWXtEH4ob/JUdSPdWacfyNd+j+DMhZqpAJ+WAMM/WPJGDwwe8mLPTeRcuWGj9ZgrTi+ioaGuV5dcf/NqacA4cMNDKrblu/+kfP7W+TOI5HnnkEWs1h3cL/sxB1ueemUZxVWjvc3utL6D4XIY6tRPQdogIlsrc/02IxsA7U1dw865kgq19r45tNx/TsQVofimzTO7iQZ6h/+8NcdtzBfpg6bgkUYWoQX6eKx36Y+nYQ+xkOrKKt0snMa/W5StCz9y8rbXNWmNfsniJ9egu0ww+AsBHAX71q19Z37oytz7j9DNQWlJqPefM9Ig5O3Nxws3UhxNlToK5ykMHZxlcueEFwSVJpk90bTvQJjzV1VWoEVVWlKOoUFKb3GxrW15Wau3/JoDnRciLl87t9L6KaZ1CrWmIHWxCbQdb7tIHBe4GeX22Z3jdsMWpAvEZ4hrdpEN9ZRsmLj1UbpOXyv6H5fVBgfm34qZ/Y/qgQOt6tLkmTXGg6O50VQ5uQ0MD5lwwx1or50SS8DLd4AP749vHW8ePHjXacnU+MsCUh4PHNfwPP/zQujA44TrvvPOsb1/5+AHzdZ7fCeoygTc3X3LYzGKEp1QhInsE4ksmIrFyOmL6NiE0pQYhcfmIScxBanoWcrKz5fx9rYvFBO5fFevElSpOlplzOx1D8The3ISasqcidsf25Nefix4XE8iQ8fvXnw35L4tTBdTTRWeLQ/sKzNECeo7APVZe3yhAHxF9Jvq7DMzn5ro0829ueavV1Y7Cvh0rHHRaThK5FMhcdMXyFRbsXKlhysFHC5jacFB7e/W2LiIONFd55s+fb62xcymTD//zXCYk/E8VSSnpiMwdiezmm1AwaTtKZu5C2ew9qJizF1VzX0D1vBdQM+95VF/4NCpmPIzSyfegoGkTkiomIzg2DwGBfcRBY5Erdf9imuOcUnQmfoZ3M95xTgQ3TUFTQLtjK9jq1gL1J+LYS+W9Xp6xcuNrjFPr6+t/KM4dKPD1l4FZIDDfJnA/KTC/KfpYwP6ruPc/zOU7ipNQSpfydLXDSmna2qxJ6Ib1G3D91uux9bqtWHXZKmtJsXFMI67dcq3l7Lf/5HZrUmnCzb+9F5tRhbiBq5Az+VHkT3sSfac/hcIZT6N41jMonf0syi7Yi8o5L6Jq3j7UzH8Z/S5+Bf0XvIraRa9jwKL9GLh4P2rmPIOC1huRWH0hInNGICazHxIzSpCWmYec3I7lyNKSYiu1qbTKr0S1AaopQsv5AsGeNWuW5wJxPo53QUJ9EmC/JWqh8XjGwo1vIpjayGCdI04dKmoQEG4UoA+IfiVAfyT6VID+v5KSks91MshUwEnMg5lX87kW/tdlPqvO3J3PrfM3lIYOGXoMbt4V/CJzEF8vufm4HaKHkDH+Z8ia+DByJj2KvCmPH4O9aOZugX2PwP4cyi58Xhz9RVQS9osIu4C+8DWB/A0MWnYQg5YekNey72I5ZsZOpA9ZjtC0QfALSUR4TDIysvuiuLQCJaX8e9klKCuVO1N5KaoEVs3j2Qbm23TvruDmHYpQm6siBFvzawH6fwXupwX4cE93u/FtCIE6QIAuFU0QuC8TsG+T7S6B+LDo/4k+tw+2bgkwpRcDYWcOT6cnQAUFeQiMLUDkkOuQ0HSfpaTmB5Dc+iBS2rZbsBP0TAE9e9IjyJ3yGPKnPoECuvp5u1A0azdKzu9w9Yo5L0jq8iKq57+EGo+r09EHLHkDg5ceRN3ytzB05TsYLOBXzJTzjb4aSf3mIrF0PJIKRyE1vz/SskuQkZWD7KwM9JW6cW5w0UUXWV/imHcaU2wnV4cUajq25teeHPtDgXuV7PPydKkb3/YQ2P0F7JEC7SYZ+MdlkF+Q7SHZ/lL0Rw68/jqWOqECz9fl4vBhUQkIq74U8U3bEN94P+LG3It4jwh6YvP9SGp5QEDfhtSx25HeLq4+ocPVsycL7JMN2K0UpsPVy5nCCOhV8z2uzvRFXH2ApDB09sHLDmHIircw7NKjGLbyXUsD5b2+bbcgpnQaAuIqEJ1ShIGDBlupFifDXcHNVSlCbUtFPhcdFvER1VM7es2N72TIQPsKAOkC8kDRFHl9mQz8j0V75L0PCDhBp+jc/L9BPf2j4J3aguCyZQgftBkxo+9GXOODArqIwDdxe/9xoJuuTtgzJ+y0XD1HQM8zXL1YUpgSK1cX2Oc874FdXF1gP5arS54+SJ39kkOWs49Y9QuB/j2UT7wNg4eMxNIlSzBt2rQu4ebyK4E2wP5MHPsecWz+powb39cQKCJEdQLBfNFGef0TgeJRmcTuj46K+Ij/SSIyLgORGbWILBiLkIIpCCqYhcDiixFSsxZRw24W4B9AQstDSGjebsGeKKkLZYc9Y/zODlfXFMY2MT0uhZm3z0phODH9p6sL7EslZ5d8vXLa3RgyfAyWX3LJsacC7WBThJvr24TaA/bvBOrVsu3j6QI3/ltC0pme4t5hMlnLGTx46OCaqqpJJUX5l+flpj+cnZ78fnp6+t9SM3KRkN4XkSmlCEqohHf8QPhljEVQ6SKE112HmJF3IpapS/M2JLbuQGLLNsnVH0Ryy4NIJehjxdVlYmq5+kSPqyvszNXp6ufv6XB1mZjS1a1c3ZPC9BfYyyb/FENHNGHlyhXWFzmdwU1H5/q2Z/L4mmxHiGu7X8q40RETJ048va6uLqy2trZg4MD+w2v7VU2tKitZWpCXeWNGSsKzKYmxH6emZSA5qxjxOQMQkVmHwLQR8E4ZA9/c8yyHjxl5h+Xuia0PIal1uzj6dsvRmasfm5hqCiOg5019XFKYJ8XVPSmMBfteSWFesGAvnngnho1sxurVq6w/mcZVoM7g5kqJAH23gJ3naZIbbnQeMhk9c8SIEV7Dhg2LGDJkSGZNRemAspK+84v75txTkJ/zdl5e/kfZuQX/l5KRj8iEXAREZsMnpgIBmW3oU7EUEYMlh6+/DQmN9yGpbQeSRcdgb++A3VpulIlph6s/Ybl6obXc+Azyx/0Ew0e1Yt26tdbzJZ3BLWnJ3yIjI9d8Jx9RdePbE/X19WcI6L0lpYkY2K9fdk1NZU15eUlTYUHOZfm5mbtycrI/yc0vQmZuKRIzSxGWWAKfqGL0jBmAgPyZAvzVMjmViWnbQxbsqZ519fR2unpHrt7h6k8gu+VWDB3ZYsHNx141LeHEWFd/PHD/uaioyM2v3fj6Y8mSJT9obW09S9KanoMHDw4sLS3sW15SNL2srPQmye+fFfDeyc3L/yQ5NQvh0YkIDE9GQEIVgnPaEVqxGJGDNiJ+1C2Srz9wbAUmY/zDSB1zM4bUN2PD+vXWM/JMP/jMDb+N5KMK/IbWA/inUu6X+9t8brjxVYPA0+Ultek+dGhNQP+KihiBsaqirGxpWVnJrqKi4k8Li4o/y87t+/e45Mx/BIYlfN4jIAG+iXUIK1+I+NG3IbH+OtQNb8LGKzZYvyTMVRFOHJcuXWp9y8pvJT2pyifu1+lufFvi1KampnMktcgUja2sLF8jrny3gPpCXl7eB4lJSZ+ER8b8X1hMKuqGDLOeQ+efU6NL8zFhPgFIB+eWwMtn/8eF241vdfBhMoG2mwBbIiAvlRx718CBA9+VfPvXtbW1HwvEf5b9f2N6Qqj1m1d5/Vs+l+M5jRtufDdCnPxHhYWFKXzMQCC+QOC+QvSgQP2S/Py+vP6r6APXud343gShF+cuFRdfKA6/ka7vecsNN9xwww033HDDDTfccMMNN9xwww033HDDDTfccMMNN9xwww033HDDDTfccMMNN9xwww033HDDDTfccMMNN9xwww033HDDDTfccMMNN9xwww033HDDDTfccMMNN9xwww033HDDDTfccMMNN9xw47sbp5zy/wE+bUNS1L3bOwAAAABJRU5ErkJggg==;fontSize=16;spacingLeft=180;spacingTop=-50;" vertex="1" parent="1">
          <mxGeometry x="474.5" y="300.47" width="93" height="77.75" as="geometry" />
        </mxCell>
        <mxCell id="GS9lPfkHltT3G8b4393Y-50" value="" style="endArrow=none;html=1;fontSize=16;entryX=0;entryY=0.5;entryDx=0;entryDy=0;exitX=1;exitY=0.5;exitDx=0;exitDy=0;curved=1;" edge="1" parent="1" source="GS9lPfkHltT3G8b4393Y-2" target="GS9lPfkHltT3G8b4393Y-48">
          <mxGeometry width="50" height="50" relative="1" as="geometry">
            <mxPoint x="360" y="380" as="sourcePoint" />
            <mxPoint x="410" y="330" as="targetPoint" />
          </mxGeometry>
        </mxCell>
        <mxCell id="GS9lPfkHltT3G8b4393Y-51" value="" style="endArrow=none;html=1;fontSize=16;exitX=1;exitY=0.5;exitDx=0;exitDy=0;entryX=0;entryY=0.5;entryDx=0;entryDy=0;curved=1;" edge="1" parent="1" source="GS9lPfkHltT3G8b4393Y-48" target="GS9lPfkHltT3G8b4393Y-3">
          <mxGeometry width="50" height="50" relative="1" as="geometry">
            <mxPoint x="680" y="380" as="sourcePoint" />
            <mxPoint x="730" y="330" as="targetPoint" />
          </mxGeometry>
        </mxCell>
        <mxCell id="GS9lPfkHltT3G8b4393Y-52" value="" style="endArrow=none;html=1;fontSize=16;curved=1;" edge="1" parent="1">
          <mxGeometry width="50" height="50" relative="1" as="geometry">
            <mxPoint x="521.14" y="320" as="sourcePoint" />
            <mxPoint x="521.1436172716576" y="245" as="targetPoint" />
          </mxGeometry>
        </mxCell>
        <mxCell id="GS9lPfkHltT3G8b4393Y-54" value="" style="endArrow=none;html=1;fontSize=16;curved=1;" edge="1" parent="1">
          <mxGeometry width="50" height="50" relative="1" as="geometry">
            <mxPoint x="521.14" y="457" as="sourcePoint" />
            <mxPoint x="521.14" y="357" as="targetPoint" />
          </mxGeometry>
        </mxCell>
        <mxCell id="GS9lPfkHltT3G8b4393Y-56" value="" style="endArrow=classic;html=1;fontSize=16;curved=1;fillColor=#e51400;strokeWidth=5;strokeColor=#FF0000;" edge="1" parent="1">
          <mxGeometry width="50" height="50" relative="1" as="geometry">
            <mxPoint x="380" y="740" as="sourcePoint" />
            <mxPoint x="500" y="280" as="targetPoint" />
            <Array as="points">
              <mxPoint x="460" y="620" />
              <mxPoint x="510" y="580" />
              <mxPoint x="500" y="530" />
            </Array>
          </mxGeometry>
        </mxCell>
        <mxCell id="GS9lPfkHltT3G8b4393Y-64" value="" style="endArrow=classic;html=1;fontSize=16;curved=1;fillColor=#e51400;strokeWidth=5;strokeColor=#FF0000;" edge="1" parent="1">
          <mxGeometry width="50" height="50" relative="1" as="geometry">
            <mxPoint x="560" y="730" as="sourcePoint" />
            <mxPoint x="500" y="280" as="targetPoint" />
            <Array as="points">
              <mxPoint x="520" y="660" />
              <mxPoint x="510" y="580" />
              <mxPoint x="500" y="530" />
            </Array>
          </mxGeometry>
        </mxCell>
        <mxCell id="GS9lPfkHltT3G8b4393Y-65" value="" style="endArrow=classic;html=1;fontSize=16;curved=1;fillColor=#e51400;strokeWidth=5;strokeColor=#FF0000;" edge="1" parent="1">
          <mxGeometry width="50" height="50" relative="1" as="geometry">
            <mxPoint x="680" y="720" as="sourcePoint" />
            <mxPoint x="500" y="280" as="targetPoint" />
            <Array as="points">
              <mxPoint x="720" y="660" />
              <mxPoint x="510" y="580" />
              <mxPoint x="500" y="530" />
            </Array>
          </mxGeometry>
        </mxCell>
        <mxCell id="GS9lPfkHltT3G8b4393Y-69" value="" style="endArrow=classic;html=1;strokeColor=#00FF55;strokeWidth=5;fontSize=16;entryX=1;entryY=0.5;entryDx=0;entryDy=0;curved=1;" edge="1" parent="1" target="GS9lPfkHltT3G8b4393Y-2">
          <mxGeometry width="50" height="50" relative="1" as="geometry">
            <mxPoint x="410" y="740" as="sourcePoint" />
            <mxPoint x="360" y="420" as="targetPoint" />
            <Array as="points">
              <mxPoint x="490" y="580" />
              <mxPoint x="490" y="430" />
              <mxPoint x="470" y="360" />
            </Array>
          </mxGeometry>
        </mxCell>
        <mxCell id="GS9lPfkHltT3G8b4393Y-76" value="" style="endArrow=classic;html=1;strokeColor=#00FF55;strokeWidth=5;fontSize=16;entryX=1;entryY=0.5;entryDx=0;entryDy=0;curved=1;" edge="1" parent="1" target="GS9lPfkHltT3G8b4393Y-2">
          <mxGeometry width="50" height="50" relative="1" as="geometry">
            <mxPoint x="580" y="730" as="sourcePoint" />
            <mxPoint x="339" y="338.31500000000005" as="targetPoint" />
            <Array as="points">
              <mxPoint x="490" y="580" />
              <mxPoint x="490" y="430" />
              <mxPoint x="470" y="360" />
            </Array>
          </mxGeometry>
        </mxCell>
        <mxCell id="GS9lPfkHltT3G8b4393Y-77" value="" style="endArrow=classic;html=1;strokeColor=#00FF55;strokeWidth=5;fontSize=16;entryX=1;entryY=0.5;entryDx=0;entryDy=0;curved=1;" edge="1" parent="1" target="GS9lPfkHltT3G8b4393Y-2">
          <mxGeometry width="50" height="50" relative="1" as="geometry">
            <mxPoint x="660" y="750" as="sourcePoint" />
            <mxPoint x="339" y="338.31500000000005" as="targetPoint" />
            <Array as="points">
              <mxPoint x="620" y="640" />
              <mxPoint x="490" y="580" />
              <mxPoint x="490" y="430" />
              <mxPoint x="470" y="360" />
            </Array>
          </mxGeometry>
        </mxCell>
        <mxCell id="GS9lPfkHltT3G8b4393Y-78" value="管理流量" style="text;html=1;align=center;verticalAlign=middle;resizable=0;points=[];autosize=1;fontSize=20;fontStyle=1" vertex="1" parent="1">
          <mxGeometry x="190" y="44" width="100" height="30" as="geometry" />
        </mxCell>
        <mxCell id="GS9lPfkHltT3G8b4393Y-79" value="业务流量" style="text;html=1;align=center;verticalAlign=middle;resizable=0;points=[];autosize=1;fontSize=20;fontStyle=1" vertex="1" parent="1">
          <mxGeometry x="190" y="110" width="100" height="30" as="geometry" />
        </mxCell>
        <mxCell id="GS9lPfkHltT3G8b4393Y-81" value="" style="endArrow=classic;html=1;strokeColor=#00FF55;strokeWidth=5;fontSize=20;" edge="1" parent="1">
          <mxGeometry width="50" height="50" relative="1" as="geometry">
            <mxPoint x="60" y="60" as="sourcePoint" />
            <mxPoint x="160" y="60" as="targetPoint" />
          </mxGeometry>
        </mxCell>
        <mxCell id="GS9lPfkHltT3G8b4393Y-82" value="" style="endArrow=classic;html=1;strokeWidth=5;fontSize=20;strokeColor=#FF0000;" edge="1" parent="1">
          <mxGeometry width="50" height="50" relative="1" as="geometry">
            <mxPoint x="60" y="125" as="sourcePoint" />
            <mxPoint x="160" y="125" as="targetPoint" />
          </mxGeometry>
        </mxCell>
      </root>
    </mxGraphModel>
  </diagram>
</mxfile>
